G04 EAGLE Gerber X2 export*
%TF.Part,Single*%
%TF.FileFunction,Profile,NP*%
%TF.FilePolarity,Positive*%
%TF.GenerationSoftware,Autodesk,EAGLE,9.1.2*%
%TF.CreationDate,2018-08-08T23:14:36Z*%
G75*
%MOMM*%
%FSLAX34Y34*%
%LPD*%
%AMOC8*
5,1,8,0,0,1.08239X$1,22.5*%
G01*
%ADD10C,0.254000*%


D10*
X-12700Y25400D02*
X1381000Y25400D01*
X1381000Y660300D01*
X-12700Y660300D01*
X-12700Y25400D01*
X45000Y599719D02*
X44937Y599161D01*
X44812Y598614D01*
X44627Y598084D01*
X44383Y597578D01*
X44084Y597102D01*
X43734Y596663D01*
X43337Y596266D01*
X42898Y595916D01*
X42422Y595617D01*
X41916Y595373D01*
X41386Y595188D01*
X40839Y595063D01*
X40281Y595000D01*
X39719Y595000D01*
X39161Y595063D01*
X38614Y595188D01*
X38084Y595373D01*
X37578Y595617D01*
X37102Y595916D01*
X36663Y596266D01*
X36266Y596663D01*
X35916Y597102D01*
X35617Y597578D01*
X35373Y598084D01*
X35188Y598614D01*
X35063Y599161D01*
X35000Y599719D01*
X35000Y600281D01*
X35063Y600839D01*
X35188Y601386D01*
X35373Y601916D01*
X35617Y602422D01*
X35916Y602898D01*
X36266Y603337D01*
X36663Y603734D01*
X37102Y604084D01*
X37578Y604383D01*
X38084Y604627D01*
X38614Y604812D01*
X39161Y604937D01*
X39719Y605000D01*
X40281Y605000D01*
X40839Y604937D01*
X41386Y604812D01*
X41916Y604627D01*
X42422Y604383D01*
X42898Y604084D01*
X43337Y603734D01*
X43734Y603337D01*
X44084Y602898D01*
X44383Y602422D01*
X44627Y601916D01*
X44812Y601386D01*
X44937Y600839D01*
X45000Y600281D01*
X45000Y599719D01*
X45000Y99719D02*
X44937Y99161D01*
X44812Y98614D01*
X44627Y98084D01*
X44383Y97578D01*
X44084Y97102D01*
X43734Y96663D01*
X43337Y96266D01*
X42898Y95916D01*
X42422Y95617D01*
X41916Y95373D01*
X41386Y95188D01*
X40839Y95063D01*
X40281Y95000D01*
X39719Y95000D01*
X39161Y95063D01*
X38614Y95188D01*
X38084Y95373D01*
X37578Y95617D01*
X37102Y95916D01*
X36663Y96266D01*
X36266Y96663D01*
X35916Y97102D01*
X35617Y97578D01*
X35373Y98084D01*
X35188Y98614D01*
X35063Y99161D01*
X35000Y99719D01*
X35000Y100281D01*
X35063Y100839D01*
X35188Y101386D01*
X35373Y101916D01*
X35617Y102422D01*
X35916Y102898D01*
X36266Y103337D01*
X36663Y103734D01*
X37102Y104084D01*
X37578Y104383D01*
X38084Y104627D01*
X38614Y104812D01*
X39161Y104937D01*
X39719Y105000D01*
X40281Y105000D01*
X40839Y104937D01*
X41386Y104812D01*
X41916Y104627D01*
X42422Y104383D01*
X42898Y104084D01*
X43337Y103734D01*
X43734Y103337D01*
X44084Y102898D01*
X44383Y102422D01*
X44627Y101916D01*
X44812Y101386D01*
X44937Y100839D01*
X45000Y100281D01*
X45000Y99719D01*
X1305000Y599719D02*
X1304937Y599161D01*
X1304812Y598614D01*
X1304627Y598084D01*
X1304383Y597578D01*
X1304084Y597102D01*
X1303734Y596663D01*
X1303337Y596266D01*
X1302898Y595916D01*
X1302422Y595617D01*
X1301916Y595373D01*
X1301386Y595188D01*
X1300839Y595063D01*
X1300281Y595000D01*
X1299719Y595000D01*
X1299161Y595063D01*
X1298614Y595188D01*
X1298084Y595373D01*
X1297578Y595617D01*
X1297102Y595916D01*
X1296663Y596266D01*
X1296266Y596663D01*
X1295916Y597102D01*
X1295617Y597578D01*
X1295373Y598084D01*
X1295188Y598614D01*
X1295063Y599161D01*
X1295000Y599719D01*
X1295000Y600281D01*
X1295063Y600839D01*
X1295188Y601386D01*
X1295373Y601916D01*
X1295617Y602422D01*
X1295916Y602898D01*
X1296266Y603337D01*
X1296663Y603734D01*
X1297102Y604084D01*
X1297578Y604383D01*
X1298084Y604627D01*
X1298614Y604812D01*
X1299161Y604937D01*
X1299719Y605000D01*
X1300281Y605000D01*
X1300839Y604937D01*
X1301386Y604812D01*
X1301916Y604627D01*
X1302422Y604383D01*
X1302898Y604084D01*
X1303337Y603734D01*
X1303734Y603337D01*
X1304084Y602898D01*
X1304383Y602422D01*
X1304627Y601916D01*
X1304812Y601386D01*
X1304937Y600839D01*
X1305000Y600281D01*
X1305000Y599719D01*
X1305000Y99719D02*
X1304937Y99161D01*
X1304812Y98614D01*
X1304627Y98084D01*
X1304383Y97578D01*
X1304084Y97102D01*
X1303734Y96663D01*
X1303337Y96266D01*
X1302898Y95916D01*
X1302422Y95617D01*
X1301916Y95373D01*
X1301386Y95188D01*
X1300839Y95063D01*
X1300281Y95000D01*
X1299719Y95000D01*
X1299161Y95063D01*
X1298614Y95188D01*
X1298084Y95373D01*
X1297578Y95617D01*
X1297102Y95916D01*
X1296663Y96266D01*
X1296266Y96663D01*
X1295916Y97102D01*
X1295617Y97578D01*
X1295373Y98084D01*
X1295188Y98614D01*
X1295063Y99161D01*
X1295000Y99719D01*
X1295000Y100281D01*
X1295063Y100839D01*
X1295188Y101386D01*
X1295373Y101916D01*
X1295617Y102422D01*
X1295916Y102898D01*
X1296266Y103337D01*
X1296663Y103734D01*
X1297102Y104084D01*
X1297578Y104383D01*
X1298084Y104627D01*
X1298614Y104812D01*
X1299161Y104937D01*
X1299719Y105000D01*
X1300281Y105000D01*
X1300839Y104937D01*
X1301386Y104812D01*
X1301916Y104627D01*
X1302422Y104383D01*
X1302898Y104084D01*
X1303337Y103734D01*
X1303734Y103337D01*
X1304084Y102898D01*
X1304383Y102422D01*
X1304627Y101916D01*
X1304812Y101386D01*
X1304937Y100839D01*
X1305000Y100281D01*
X1305000Y99719D01*
X45000Y599719D02*
X44937Y599161D01*
X44812Y598614D01*
X44627Y598084D01*
X44383Y597578D01*
X44084Y597102D01*
X43734Y596663D01*
X43337Y596266D01*
X42898Y595916D01*
X42422Y595617D01*
X41916Y595373D01*
X41386Y595188D01*
X40839Y595063D01*
X40281Y595000D01*
X39719Y595000D01*
X39161Y595063D01*
X38614Y595188D01*
X38084Y595373D01*
X37578Y595617D01*
X37102Y595916D01*
X36663Y596266D01*
X36266Y596663D01*
X35916Y597102D01*
X35617Y597578D01*
X35373Y598084D01*
X35188Y598614D01*
X35063Y599161D01*
X35000Y599719D01*
X35000Y600281D01*
X35063Y600839D01*
X35188Y601386D01*
X35373Y601916D01*
X35617Y602422D01*
X35916Y602898D01*
X36266Y603337D01*
X36663Y603734D01*
X37102Y604084D01*
X37578Y604383D01*
X38084Y604627D01*
X38614Y604812D01*
X39161Y604937D01*
X39719Y605000D01*
X40281Y605000D01*
X40839Y604937D01*
X41386Y604812D01*
X41916Y604627D01*
X42422Y604383D01*
X42898Y604084D01*
X43337Y603734D01*
X43734Y603337D01*
X44084Y602898D01*
X44383Y602422D01*
X44627Y601916D01*
X44812Y601386D01*
X44937Y600839D01*
X45000Y600281D01*
X45000Y599719D01*
X45000Y99719D02*
X44937Y99161D01*
X44812Y98614D01*
X44627Y98084D01*
X44383Y97578D01*
X44084Y97102D01*
X43734Y96663D01*
X43337Y96266D01*
X42898Y95916D01*
X42422Y95617D01*
X41916Y95373D01*
X41386Y95188D01*
X40839Y95063D01*
X40281Y95000D01*
X39719Y95000D01*
X39161Y95063D01*
X38614Y95188D01*
X38084Y95373D01*
X37578Y95617D01*
X37102Y95916D01*
X36663Y96266D01*
X36266Y96663D01*
X35916Y97102D01*
X35617Y97578D01*
X35373Y98084D01*
X35188Y98614D01*
X35063Y99161D01*
X35000Y99719D01*
X35000Y100281D01*
X35063Y100839D01*
X35188Y101386D01*
X35373Y101916D01*
X35617Y102422D01*
X35916Y102898D01*
X36266Y103337D01*
X36663Y103734D01*
X37102Y104084D01*
X37578Y104383D01*
X38084Y104627D01*
X38614Y104812D01*
X39161Y104937D01*
X39719Y105000D01*
X40281Y105000D01*
X40839Y104937D01*
X41386Y104812D01*
X41916Y104627D01*
X42422Y104383D01*
X42898Y104084D01*
X43337Y103734D01*
X43734Y103337D01*
X44084Y102898D01*
X44383Y102422D01*
X44627Y101916D01*
X44812Y101386D01*
X44937Y100839D01*
X45000Y100281D01*
X45000Y99719D01*
X1305000Y599719D02*
X1304937Y599161D01*
X1304812Y598614D01*
X1304627Y598084D01*
X1304383Y597578D01*
X1304084Y597102D01*
X1303734Y596663D01*
X1303337Y596266D01*
X1302898Y595916D01*
X1302422Y595617D01*
X1301916Y595373D01*
X1301386Y595188D01*
X1300839Y595063D01*
X1300281Y595000D01*
X1299719Y595000D01*
X1299161Y595063D01*
X1298614Y595188D01*
X1298084Y595373D01*
X1297578Y595617D01*
X1297102Y595916D01*
X1296663Y596266D01*
X1296266Y596663D01*
X1295916Y597102D01*
X1295617Y597578D01*
X1295373Y598084D01*
X1295188Y598614D01*
X1295063Y599161D01*
X1295000Y599719D01*
X1295000Y600281D01*
X1295063Y600839D01*
X1295188Y601386D01*
X1295373Y601916D01*
X1295617Y602422D01*
X1295916Y602898D01*
X1296266Y603337D01*
X1296663Y603734D01*
X1297102Y604084D01*
X1297578Y604383D01*
X1298084Y604627D01*
X1298614Y604812D01*
X1299161Y604937D01*
X1299719Y605000D01*
X1300281Y605000D01*
X1300839Y604937D01*
X1301386Y604812D01*
X1301916Y604627D01*
X1302422Y604383D01*
X1302898Y604084D01*
X1303337Y603734D01*
X1303734Y603337D01*
X1304084Y602898D01*
X1304383Y602422D01*
X1304627Y601916D01*
X1304812Y601386D01*
X1304937Y600839D01*
X1305000Y600281D01*
X1305000Y599719D01*
X1305000Y99719D02*
X1304937Y99161D01*
X1304812Y98614D01*
X1304627Y98084D01*
X1304383Y97578D01*
X1304084Y97102D01*
X1303734Y96663D01*
X1303337Y96266D01*
X1302898Y95916D01*
X1302422Y95617D01*
X1301916Y95373D01*
X1301386Y95188D01*
X1300839Y95063D01*
X1300281Y95000D01*
X1299719Y95000D01*
X1299161Y95063D01*
X1298614Y95188D01*
X1298084Y95373D01*
X1297578Y95617D01*
X1297102Y95916D01*
X1296663Y96266D01*
X1296266Y96663D01*
X1295916Y97102D01*
X1295617Y97578D01*
X1295373Y98084D01*
X1295188Y98614D01*
X1295063Y99161D01*
X1295000Y99719D01*
X1295000Y100281D01*
X1295063Y100839D01*
X1295188Y101386D01*
X1295373Y101916D01*
X1295617Y102422D01*
X1295916Y102898D01*
X1296266Y103337D01*
X1296663Y103734D01*
X1297102Y104084D01*
X1297578Y104383D01*
X1298084Y104627D01*
X1298614Y104812D01*
X1299161Y104937D01*
X1299719Y105000D01*
X1300281Y105000D01*
X1300839Y104937D01*
X1301386Y104812D01*
X1301916Y104627D01*
X1302422Y104383D01*
X1302898Y104084D01*
X1303337Y103734D01*
X1303734Y103337D01*
X1304084Y102898D01*
X1304383Y102422D01*
X1304627Y101916D01*
X1304812Y101386D01*
X1304937Y100839D01*
X1305000Y100281D01*
X1305000Y99719D01*
X37566Y502050D02*
X36501Y502126D01*
X35444Y502278D01*
X34400Y502505D01*
X33376Y502806D01*
X32375Y503179D01*
X31404Y503623D01*
X30467Y504135D01*
X29568Y504712D01*
X28713Y505352D01*
X27906Y506051D01*
X27151Y506806D01*
X26452Y507613D01*
X25812Y508468D01*
X25235Y509367D01*
X24723Y510304D01*
X24279Y511275D01*
X23906Y512276D01*
X23605Y513300D01*
X23378Y514344D01*
X23226Y515401D01*
X23150Y516466D01*
X23150Y517534D01*
X23226Y518599D01*
X23378Y519656D01*
X23605Y520700D01*
X23906Y521724D01*
X24279Y522725D01*
X24723Y523696D01*
X25235Y524633D01*
X25812Y525532D01*
X26452Y526387D01*
X27151Y527194D01*
X27906Y527949D01*
X28713Y528648D01*
X29568Y529288D01*
X30467Y529865D01*
X31404Y530377D01*
X32375Y530821D01*
X33376Y531194D01*
X34400Y531495D01*
X35444Y531722D01*
X36501Y531874D01*
X37566Y531950D01*
X38634Y531950D01*
X39699Y531874D01*
X40756Y531722D01*
X41800Y531495D01*
X42824Y531194D01*
X43825Y530821D01*
X44796Y530377D01*
X45733Y529865D01*
X46632Y529288D01*
X47487Y528648D01*
X48294Y527949D01*
X49049Y527194D01*
X49748Y526387D01*
X50388Y525532D01*
X50965Y524633D01*
X51477Y523696D01*
X51921Y522725D01*
X52294Y521724D01*
X52595Y520700D01*
X52822Y519656D01*
X52974Y518599D01*
X53050Y517534D01*
X53050Y516466D01*
X52974Y515401D01*
X52822Y514344D01*
X52595Y513300D01*
X52294Y512276D01*
X51921Y511275D01*
X51477Y510304D01*
X50965Y509367D01*
X50388Y508468D01*
X49748Y507613D01*
X49049Y506806D01*
X48294Y506051D01*
X47487Y505352D01*
X46632Y504712D01*
X45733Y504135D01*
X44796Y503623D01*
X43825Y503179D01*
X42824Y502806D01*
X41800Y502505D01*
X40756Y502278D01*
X39699Y502126D01*
X38634Y502050D01*
X37566Y502050D01*
X291566Y502050D02*
X290501Y502126D01*
X289444Y502278D01*
X288400Y502505D01*
X287376Y502806D01*
X286375Y503179D01*
X285404Y503623D01*
X284467Y504135D01*
X283568Y504712D01*
X282713Y505352D01*
X281906Y506051D01*
X281151Y506806D01*
X280452Y507613D01*
X279812Y508468D01*
X279235Y509367D01*
X278723Y510304D01*
X278279Y511275D01*
X277906Y512276D01*
X277605Y513300D01*
X277378Y514344D01*
X277226Y515401D01*
X277150Y516466D01*
X277150Y517534D01*
X277226Y518599D01*
X277378Y519656D01*
X277605Y520700D01*
X277906Y521724D01*
X278279Y522725D01*
X278723Y523696D01*
X279235Y524633D01*
X279812Y525532D01*
X280452Y526387D01*
X281151Y527194D01*
X281906Y527949D01*
X282713Y528648D01*
X283568Y529288D01*
X284467Y529865D01*
X285404Y530377D01*
X286375Y530821D01*
X287376Y531194D01*
X288400Y531495D01*
X289444Y531722D01*
X290501Y531874D01*
X291566Y531950D01*
X292634Y531950D01*
X293699Y531874D01*
X294756Y531722D01*
X295800Y531495D01*
X296824Y531194D01*
X297825Y530821D01*
X298796Y530377D01*
X299733Y529865D01*
X300632Y529288D01*
X301487Y528648D01*
X302294Y527949D01*
X303049Y527194D01*
X303748Y526387D01*
X304388Y525532D01*
X304965Y524633D01*
X305477Y523696D01*
X305921Y522725D01*
X306294Y521724D01*
X306595Y520700D01*
X306822Y519656D01*
X306974Y518599D01*
X307050Y517534D01*
X307050Y516466D01*
X306974Y515401D01*
X306822Y514344D01*
X306595Y513300D01*
X306294Y512276D01*
X305921Y511275D01*
X305477Y510304D01*
X304965Y509367D01*
X304388Y508468D01*
X303748Y507613D01*
X303049Y506806D01*
X302294Y506051D01*
X301487Y505352D01*
X300632Y504712D01*
X299733Y504135D01*
X298796Y503623D01*
X297825Y503179D01*
X296824Y502806D01*
X295800Y502505D01*
X294756Y502278D01*
X293699Y502126D01*
X292634Y502050D01*
X291566Y502050D01*
X291566Y153850D02*
X290501Y153926D01*
X289444Y154078D01*
X288400Y154305D01*
X287376Y154606D01*
X286375Y154979D01*
X285404Y155423D01*
X284467Y155935D01*
X283568Y156512D01*
X282713Y157152D01*
X281906Y157851D01*
X281151Y158606D01*
X280452Y159413D01*
X279812Y160268D01*
X279235Y161167D01*
X278723Y162104D01*
X278279Y163075D01*
X277906Y164076D01*
X277605Y165100D01*
X277378Y166144D01*
X277226Y167201D01*
X277150Y168266D01*
X277150Y169334D01*
X277226Y170399D01*
X277378Y171456D01*
X277605Y172500D01*
X277906Y173524D01*
X278279Y174525D01*
X278723Y175496D01*
X279235Y176433D01*
X279812Y177332D01*
X280452Y178187D01*
X281151Y178994D01*
X281906Y179749D01*
X282713Y180448D01*
X283568Y181088D01*
X284467Y181665D01*
X285404Y182177D01*
X286375Y182621D01*
X287376Y182994D01*
X288400Y183295D01*
X289444Y183522D01*
X290501Y183674D01*
X291566Y183750D01*
X292634Y183750D01*
X293699Y183674D01*
X294756Y183522D01*
X295800Y183295D01*
X296824Y182994D01*
X297825Y182621D01*
X298796Y182177D01*
X299733Y181665D01*
X300632Y181088D01*
X301487Y180448D01*
X302294Y179749D01*
X303049Y178994D01*
X303748Y178187D01*
X304388Y177332D01*
X304965Y176433D01*
X305477Y175496D01*
X305921Y174525D01*
X306294Y173524D01*
X306595Y172500D01*
X306822Y171456D01*
X306974Y170399D01*
X307050Y169334D01*
X307050Y168266D01*
X306974Y167201D01*
X306822Y166144D01*
X306595Y165100D01*
X306294Y164076D01*
X305921Y163075D01*
X305477Y162104D01*
X304965Y161167D01*
X304388Y160268D01*
X303748Y159413D01*
X303049Y158606D01*
X302294Y157851D01*
X301487Y157152D01*
X300632Y156512D01*
X299733Y155935D01*
X298796Y155423D01*
X297825Y154979D01*
X296824Y154606D01*
X295800Y154305D01*
X294756Y154078D01*
X293699Y153926D01*
X292634Y153850D01*
X291566Y153850D01*
X37566Y153850D02*
X36501Y153926D01*
X35444Y154078D01*
X34400Y154305D01*
X33376Y154606D01*
X32375Y154979D01*
X31404Y155423D01*
X30467Y155935D01*
X29568Y156512D01*
X28713Y157152D01*
X27906Y157851D01*
X27151Y158606D01*
X26452Y159413D01*
X25812Y160268D01*
X25235Y161167D01*
X24723Y162104D01*
X24279Y163075D01*
X23906Y164076D01*
X23605Y165100D01*
X23378Y166144D01*
X23226Y167201D01*
X23150Y168266D01*
X23150Y169334D01*
X23226Y170399D01*
X23378Y171456D01*
X23605Y172500D01*
X23906Y173524D01*
X24279Y174525D01*
X24723Y175496D01*
X25235Y176433D01*
X25812Y177332D01*
X26452Y178187D01*
X27151Y178994D01*
X27906Y179749D01*
X28713Y180448D01*
X29568Y181088D01*
X30467Y181665D01*
X31404Y182177D01*
X32375Y182621D01*
X33376Y182994D01*
X34400Y183295D01*
X35444Y183522D01*
X36501Y183674D01*
X37566Y183750D01*
X38634Y183750D01*
X39699Y183674D01*
X40756Y183522D01*
X41800Y183295D01*
X42824Y182994D01*
X43825Y182621D01*
X44796Y182177D01*
X45733Y181665D01*
X46632Y181088D01*
X47487Y180448D01*
X48294Y179749D01*
X49049Y178994D01*
X49748Y178187D01*
X50388Y177332D01*
X50965Y176433D01*
X51477Y175496D01*
X51921Y174525D01*
X52294Y173524D01*
X52595Y172500D01*
X52822Y171456D01*
X52974Y170399D01*
X53050Y169334D01*
X53050Y168266D01*
X52974Y167201D01*
X52822Y166144D01*
X52595Y165100D01*
X52294Y164076D01*
X51921Y163075D01*
X51477Y162104D01*
X50965Y161167D01*
X50388Y160268D01*
X49748Y159413D01*
X49049Y158606D01*
X48294Y157851D01*
X47487Y157152D01*
X46632Y156512D01*
X45733Y155935D01*
X44796Y155423D01*
X43825Y154979D01*
X42824Y154606D01*
X41800Y154305D01*
X40756Y154078D01*
X39699Y153926D01*
X38634Y153850D01*
X37566Y153850D01*
X1285550Y155384D02*
X1285626Y156449D01*
X1285778Y157506D01*
X1286005Y158550D01*
X1286306Y159574D01*
X1286679Y160575D01*
X1287123Y161546D01*
X1287635Y162483D01*
X1288212Y163382D01*
X1288852Y164237D01*
X1289551Y165044D01*
X1290306Y165799D01*
X1291113Y166498D01*
X1291968Y167138D01*
X1292867Y167715D01*
X1293804Y168227D01*
X1294775Y168671D01*
X1295776Y169044D01*
X1296800Y169345D01*
X1297844Y169572D01*
X1298901Y169724D01*
X1299966Y169800D01*
X1301034Y169800D01*
X1302099Y169724D01*
X1303156Y169572D01*
X1304200Y169345D01*
X1305224Y169044D01*
X1306225Y168671D01*
X1307196Y168227D01*
X1308133Y167715D01*
X1309032Y167138D01*
X1309887Y166498D01*
X1310694Y165799D01*
X1311449Y165044D01*
X1312148Y164237D01*
X1312788Y163382D01*
X1313365Y162483D01*
X1313877Y161546D01*
X1314321Y160575D01*
X1314694Y159574D01*
X1314995Y158550D01*
X1315222Y157506D01*
X1315374Y156449D01*
X1315450Y155384D01*
X1315450Y154316D01*
X1315374Y153251D01*
X1315222Y152194D01*
X1314995Y151150D01*
X1314694Y150126D01*
X1314321Y149125D01*
X1313877Y148154D01*
X1313365Y147217D01*
X1312788Y146318D01*
X1312148Y145463D01*
X1311449Y144656D01*
X1310694Y143901D01*
X1309887Y143202D01*
X1309032Y142562D01*
X1308133Y141985D01*
X1307196Y141473D01*
X1306225Y141029D01*
X1305224Y140656D01*
X1304200Y140355D01*
X1303156Y140128D01*
X1302099Y139976D01*
X1301034Y139900D01*
X1299966Y139900D01*
X1298901Y139976D01*
X1297844Y140128D01*
X1296800Y140355D01*
X1295776Y140656D01*
X1294775Y141029D01*
X1293804Y141473D01*
X1292867Y141985D01*
X1291968Y142562D01*
X1291113Y143202D01*
X1290306Y143901D01*
X1289551Y144656D01*
X1288852Y145463D01*
X1288212Y146318D01*
X1287635Y147217D01*
X1287123Y148154D01*
X1286679Y149125D01*
X1286306Y150126D01*
X1286005Y151150D01*
X1285778Y152194D01*
X1285626Y153251D01*
X1285550Y154316D01*
X1285550Y155384D01*
X1072150Y155384D02*
X1072226Y156449D01*
X1072378Y157506D01*
X1072605Y158550D01*
X1072906Y159574D01*
X1073279Y160575D01*
X1073723Y161546D01*
X1074235Y162483D01*
X1074812Y163382D01*
X1075452Y164237D01*
X1076151Y165044D01*
X1076906Y165799D01*
X1077713Y166498D01*
X1078568Y167138D01*
X1079467Y167715D01*
X1080404Y168227D01*
X1081375Y168671D01*
X1082376Y169044D01*
X1083400Y169345D01*
X1084444Y169572D01*
X1085501Y169724D01*
X1086566Y169800D01*
X1087634Y169800D01*
X1088699Y169724D01*
X1089756Y169572D01*
X1090800Y169345D01*
X1091824Y169044D01*
X1092825Y168671D01*
X1093796Y168227D01*
X1094733Y167715D01*
X1095632Y167138D01*
X1096487Y166498D01*
X1097294Y165799D01*
X1098049Y165044D01*
X1098748Y164237D01*
X1099388Y163382D01*
X1099965Y162483D01*
X1100477Y161546D01*
X1100921Y160575D01*
X1101294Y159574D01*
X1101595Y158550D01*
X1101822Y157506D01*
X1101974Y156449D01*
X1102050Y155384D01*
X1102050Y154316D01*
X1101974Y153251D01*
X1101822Y152194D01*
X1101595Y151150D01*
X1101294Y150126D01*
X1100921Y149125D01*
X1100477Y148154D01*
X1099965Y147217D01*
X1099388Y146318D01*
X1098748Y145463D01*
X1098049Y144656D01*
X1097294Y143901D01*
X1096487Y143202D01*
X1095632Y142562D01*
X1094733Y141985D01*
X1093796Y141473D01*
X1092825Y141029D01*
X1091824Y140656D01*
X1090800Y140355D01*
X1089756Y140128D01*
X1088699Y139976D01*
X1087634Y139900D01*
X1086566Y139900D01*
X1085501Y139976D01*
X1084444Y140128D01*
X1083400Y140355D01*
X1082376Y140656D01*
X1081375Y141029D01*
X1080404Y141473D01*
X1079467Y141985D01*
X1078568Y142562D01*
X1077713Y143202D01*
X1076906Y143901D01*
X1076151Y144656D01*
X1075452Y145463D01*
X1074812Y146318D01*
X1074235Y147217D01*
X1073723Y148154D01*
X1073279Y149125D01*
X1072906Y150126D01*
X1072605Y151150D01*
X1072378Y152194D01*
X1072226Y153251D01*
X1072150Y154316D01*
X1072150Y155384D01*
X1072150Y506184D02*
X1072226Y507249D01*
X1072378Y508306D01*
X1072605Y509350D01*
X1072906Y510374D01*
X1073279Y511375D01*
X1073723Y512346D01*
X1074235Y513283D01*
X1074812Y514182D01*
X1075452Y515037D01*
X1076151Y515844D01*
X1076906Y516599D01*
X1077713Y517298D01*
X1078568Y517938D01*
X1079467Y518515D01*
X1080404Y519027D01*
X1081375Y519471D01*
X1082376Y519844D01*
X1083400Y520145D01*
X1084444Y520372D01*
X1085501Y520524D01*
X1086566Y520600D01*
X1087634Y520600D01*
X1088699Y520524D01*
X1089756Y520372D01*
X1090800Y520145D01*
X1091824Y519844D01*
X1092825Y519471D01*
X1093796Y519027D01*
X1094733Y518515D01*
X1095632Y517938D01*
X1096487Y517298D01*
X1097294Y516599D01*
X1098049Y515844D01*
X1098748Y515037D01*
X1099388Y514182D01*
X1099965Y513283D01*
X1100477Y512346D01*
X1100921Y511375D01*
X1101294Y510374D01*
X1101595Y509350D01*
X1101822Y508306D01*
X1101974Y507249D01*
X1102050Y506184D01*
X1102050Y505116D01*
X1101974Y504051D01*
X1101822Y502994D01*
X1101595Y501950D01*
X1101294Y500926D01*
X1100921Y499925D01*
X1100477Y498954D01*
X1099965Y498017D01*
X1099388Y497118D01*
X1098748Y496263D01*
X1098049Y495456D01*
X1097294Y494701D01*
X1096487Y494002D01*
X1095632Y493362D01*
X1094733Y492785D01*
X1093796Y492273D01*
X1092825Y491829D01*
X1091824Y491456D01*
X1090800Y491155D01*
X1089756Y490928D01*
X1088699Y490776D01*
X1087634Y490700D01*
X1086566Y490700D01*
X1085501Y490776D01*
X1084444Y490928D01*
X1083400Y491155D01*
X1082376Y491456D01*
X1081375Y491829D01*
X1080404Y492273D01*
X1079467Y492785D01*
X1078568Y493362D01*
X1077713Y494002D01*
X1076906Y494701D01*
X1076151Y495456D01*
X1075452Y496263D01*
X1074812Y497118D01*
X1074235Y498017D01*
X1073723Y498954D01*
X1073279Y499925D01*
X1072906Y500926D01*
X1072605Y501950D01*
X1072378Y502994D01*
X1072226Y504051D01*
X1072150Y505116D01*
X1072150Y506184D01*
X1285550Y506184D02*
X1285626Y507249D01*
X1285778Y508306D01*
X1286005Y509350D01*
X1286306Y510374D01*
X1286679Y511375D01*
X1287123Y512346D01*
X1287635Y513283D01*
X1288212Y514182D01*
X1288852Y515037D01*
X1289551Y515844D01*
X1290306Y516599D01*
X1291113Y517298D01*
X1291968Y517938D01*
X1292867Y518515D01*
X1293804Y519027D01*
X1294775Y519471D01*
X1295776Y519844D01*
X1296800Y520145D01*
X1297844Y520372D01*
X1298901Y520524D01*
X1299966Y520600D01*
X1301034Y520600D01*
X1302099Y520524D01*
X1303156Y520372D01*
X1304200Y520145D01*
X1305224Y519844D01*
X1306225Y519471D01*
X1307196Y519027D01*
X1308133Y518515D01*
X1309032Y517938D01*
X1309887Y517298D01*
X1310694Y516599D01*
X1311449Y515844D01*
X1312148Y515037D01*
X1312788Y514182D01*
X1313365Y513283D01*
X1313877Y512346D01*
X1314321Y511375D01*
X1314694Y510374D01*
X1314995Y509350D01*
X1315222Y508306D01*
X1315374Y507249D01*
X1315450Y506184D01*
X1315450Y505116D01*
X1315374Y504051D01*
X1315222Y502994D01*
X1314995Y501950D01*
X1314694Y500926D01*
X1314321Y499925D01*
X1313877Y498954D01*
X1313365Y498017D01*
X1312788Y497118D01*
X1312148Y496263D01*
X1311449Y495456D01*
X1310694Y494701D01*
X1309887Y494002D01*
X1309032Y493362D01*
X1308133Y492785D01*
X1307196Y492273D01*
X1306225Y491829D01*
X1305224Y491456D01*
X1304200Y491155D01*
X1303156Y490928D01*
X1302099Y490776D01*
X1301034Y490700D01*
X1299966Y490700D01*
X1298901Y490776D01*
X1297844Y490928D01*
X1296800Y491155D01*
X1295776Y491456D01*
X1294775Y491829D01*
X1293804Y492273D01*
X1292867Y492785D01*
X1291968Y493362D01*
X1291113Y494002D01*
X1290306Y494701D01*
X1289551Y495456D01*
X1288852Y496263D01*
X1288212Y497118D01*
X1287635Y498017D01*
X1287123Y498954D01*
X1286679Y499925D01*
X1286306Y500926D01*
X1286005Y501950D01*
X1285778Y502994D01*
X1285626Y504051D01*
X1285550Y505116D01*
X1285550Y506184D01*
M02*
