G04 EAGLE Gerber X2 export*
%TF.Part,Single*%
%TF.FileFunction,Legend,Top,1*%
%TF.FilePolarity,Positive*%
%TF.GenerationSoftware,Autodesk,EAGLE,9.1.2*%
%TF.CreationDate,2018-08-08T23:14:36Z*%
G75*
%MOMM*%
%FSLAX34Y34*%
%LPD*%
%AMOC8*
5,1,8,0,0,1.08239X$1,22.5*%
G01*
%ADD10C,0.127000*%
%ADD11C,0.203200*%
%ADD12C,0.500000*%
%ADD13C,0.152400*%
%ADD14C,0.400000*%
%ADD15C,0.101600*%


D10*
X330200Y647700D02*
X330200Y38100D01*
X0Y38100D01*
X0Y647700D01*
X330200Y647700D01*
D11*
X344282Y613007D02*
X362498Y613007D01*
X362498Y613006D02*
X362641Y613004D01*
X362785Y612998D01*
X362928Y612988D01*
X363070Y612974D01*
X363213Y612957D01*
X363355Y612935D01*
X363496Y612909D01*
X363636Y612880D01*
X363776Y612847D01*
X363914Y612810D01*
X364051Y612769D01*
X364188Y612724D01*
X364323Y612676D01*
X364456Y612623D01*
X364588Y612568D01*
X364719Y612508D01*
X364848Y612445D01*
X364975Y612379D01*
X365100Y612309D01*
X365223Y612235D01*
X365344Y612159D01*
X365463Y612079D01*
X365580Y611995D01*
X365694Y611909D01*
X365806Y611819D01*
X365916Y611726D01*
X366023Y611631D01*
X366127Y611532D01*
X366228Y611431D01*
X366327Y611327D01*
X366422Y611220D01*
X366515Y611110D01*
X366605Y610998D01*
X366691Y610884D01*
X366775Y610767D01*
X366855Y610648D01*
X366931Y610527D01*
X367005Y610404D01*
X367075Y610279D01*
X367141Y610152D01*
X367204Y610023D01*
X367264Y609892D01*
X367319Y609760D01*
X367372Y609627D01*
X367420Y609492D01*
X367465Y609355D01*
X367506Y609218D01*
X367543Y609079D01*
X367576Y608940D01*
X367605Y608800D01*
X367631Y608659D01*
X367653Y608517D01*
X367670Y608374D01*
X367684Y608232D01*
X367694Y608089D01*
X367700Y607945D01*
X367702Y607802D01*
X367702Y605200D01*
X349487Y621575D02*
X344282Y628080D01*
X367702Y628080D01*
X367702Y621575D02*
X367702Y634586D01*
D12*
X200700Y660400D02*
X200702Y660499D01*
X200708Y660599D01*
X200718Y660698D01*
X200732Y660796D01*
X200749Y660894D01*
X200771Y660991D01*
X200796Y661087D01*
X200825Y661182D01*
X200858Y661276D01*
X200895Y661368D01*
X200935Y661459D01*
X200979Y661548D01*
X201027Y661636D01*
X201078Y661721D01*
X201132Y661804D01*
X201189Y661886D01*
X201250Y661964D01*
X201314Y662041D01*
X201380Y662114D01*
X201450Y662185D01*
X201522Y662253D01*
X201597Y662319D01*
X201675Y662381D01*
X201755Y662440D01*
X201837Y662496D01*
X201921Y662548D01*
X202008Y662597D01*
X202096Y662643D01*
X202186Y662685D01*
X202278Y662724D01*
X202371Y662759D01*
X202465Y662790D01*
X202561Y662817D01*
X202658Y662840D01*
X202755Y662860D01*
X202853Y662876D01*
X202952Y662888D01*
X203051Y662896D01*
X203150Y662900D01*
X203250Y662900D01*
X203349Y662896D01*
X203448Y662888D01*
X203547Y662876D01*
X203645Y662860D01*
X203742Y662840D01*
X203839Y662817D01*
X203935Y662790D01*
X204029Y662759D01*
X204122Y662724D01*
X204214Y662685D01*
X204304Y662643D01*
X204392Y662597D01*
X204479Y662548D01*
X204563Y662496D01*
X204645Y662440D01*
X204725Y662381D01*
X204803Y662319D01*
X204878Y662253D01*
X204950Y662185D01*
X205020Y662114D01*
X205086Y662041D01*
X205150Y661964D01*
X205211Y661886D01*
X205268Y661804D01*
X205322Y661721D01*
X205373Y661636D01*
X205421Y661548D01*
X205465Y661459D01*
X205505Y661368D01*
X205542Y661276D01*
X205575Y661182D01*
X205604Y661087D01*
X205629Y660991D01*
X205651Y660894D01*
X205668Y660796D01*
X205682Y660698D01*
X205692Y660599D01*
X205698Y660499D01*
X205700Y660400D01*
X205698Y660301D01*
X205692Y660201D01*
X205682Y660102D01*
X205668Y660004D01*
X205651Y659906D01*
X205629Y659809D01*
X205604Y659713D01*
X205575Y659618D01*
X205542Y659524D01*
X205505Y659432D01*
X205465Y659341D01*
X205421Y659252D01*
X205373Y659164D01*
X205322Y659079D01*
X205268Y658996D01*
X205211Y658914D01*
X205150Y658836D01*
X205086Y658759D01*
X205020Y658686D01*
X204950Y658615D01*
X204878Y658547D01*
X204803Y658481D01*
X204725Y658419D01*
X204645Y658360D01*
X204563Y658304D01*
X204479Y658252D01*
X204392Y658203D01*
X204304Y658157D01*
X204214Y658115D01*
X204122Y658076D01*
X204029Y658041D01*
X203935Y658010D01*
X203839Y657983D01*
X203742Y657960D01*
X203645Y657940D01*
X203547Y657924D01*
X203448Y657912D01*
X203349Y657904D01*
X203250Y657900D01*
X203150Y657900D01*
X203051Y657904D01*
X202952Y657912D01*
X202853Y657924D01*
X202755Y657940D01*
X202658Y657960D01*
X202561Y657983D01*
X202465Y658010D01*
X202371Y658041D01*
X202278Y658076D01*
X202186Y658115D01*
X202096Y658157D01*
X202008Y658203D01*
X201921Y658252D01*
X201837Y658304D01*
X201755Y658360D01*
X201675Y658419D01*
X201597Y658481D01*
X201522Y658547D01*
X201450Y658615D01*
X201380Y658686D01*
X201314Y658759D01*
X201250Y658836D01*
X201189Y658914D01*
X201132Y658996D01*
X201078Y659079D01*
X201027Y659164D01*
X200979Y659252D01*
X200935Y659341D01*
X200895Y659432D01*
X200858Y659524D01*
X200825Y659618D01*
X200796Y659713D01*
X200771Y659809D01*
X200749Y659906D01*
X200732Y660004D01*
X200718Y660102D01*
X200708Y660201D01*
X200702Y660301D01*
X200700Y660400D01*
D11*
X1336492Y24071D02*
X1336492Y5876D01*
X1336490Y5733D01*
X1336484Y5590D01*
X1336474Y5447D01*
X1336460Y5304D01*
X1336443Y5162D01*
X1336421Y5020D01*
X1336396Y4879D01*
X1336366Y4739D01*
X1336333Y4600D01*
X1336296Y4461D01*
X1336255Y4324D01*
X1336210Y4188D01*
X1336162Y4053D01*
X1336110Y3920D01*
X1336054Y3788D01*
X1335995Y3657D01*
X1335932Y3528D01*
X1335865Y3402D01*
X1335795Y3276D01*
X1335722Y3153D01*
X1335645Y3032D01*
X1335565Y2914D01*
X1335482Y2797D01*
X1335396Y2683D01*
X1335306Y2571D01*
X1335214Y2462D01*
X1335118Y2355D01*
X1335020Y2251D01*
X1334918Y2149D01*
X1334814Y2051D01*
X1334707Y1955D01*
X1334598Y1863D01*
X1334486Y1773D01*
X1334372Y1687D01*
X1334255Y1604D01*
X1334137Y1524D01*
X1334016Y1447D01*
X1333893Y1374D01*
X1333767Y1304D01*
X1333641Y1237D01*
X1333512Y1174D01*
X1333381Y1115D01*
X1333249Y1059D01*
X1333116Y1007D01*
X1332981Y959D01*
X1332845Y914D01*
X1332708Y873D01*
X1332569Y836D01*
X1332430Y803D01*
X1332290Y773D01*
X1332149Y748D01*
X1332007Y726D01*
X1331865Y709D01*
X1331722Y695D01*
X1331579Y685D01*
X1331436Y679D01*
X1331293Y677D01*
X1328694Y677D01*
X1352205Y24071D02*
X1352356Y24069D01*
X1352506Y24063D01*
X1352656Y24054D01*
X1352806Y24040D01*
X1352956Y24023D01*
X1353105Y24001D01*
X1353254Y23976D01*
X1353401Y23947D01*
X1353548Y23915D01*
X1353695Y23878D01*
X1353840Y23838D01*
X1353984Y23794D01*
X1354127Y23746D01*
X1354268Y23695D01*
X1354408Y23640D01*
X1354547Y23582D01*
X1354684Y23519D01*
X1354820Y23454D01*
X1354954Y23385D01*
X1355086Y23312D01*
X1355216Y23236D01*
X1355344Y23157D01*
X1355470Y23075D01*
X1355594Y22989D01*
X1355716Y22900D01*
X1355835Y22808D01*
X1355952Y22713D01*
X1356066Y22615D01*
X1356178Y22514D01*
X1356287Y22411D01*
X1356394Y22304D01*
X1356497Y22195D01*
X1356598Y22083D01*
X1356696Y21969D01*
X1356791Y21852D01*
X1356883Y21733D01*
X1356972Y21611D01*
X1357058Y21487D01*
X1357140Y21361D01*
X1357219Y21233D01*
X1357295Y21103D01*
X1357368Y20971D01*
X1357437Y20837D01*
X1357502Y20701D01*
X1357565Y20564D01*
X1357623Y20425D01*
X1357678Y20285D01*
X1357729Y20144D01*
X1357777Y20001D01*
X1357821Y19857D01*
X1357861Y19712D01*
X1357898Y19565D01*
X1357930Y19418D01*
X1357959Y19271D01*
X1357984Y19122D01*
X1358006Y18973D01*
X1358023Y18823D01*
X1358037Y18673D01*
X1358046Y18523D01*
X1358052Y18373D01*
X1358054Y18222D01*
X1352205Y24071D02*
X1352023Y24069D01*
X1351842Y24062D01*
X1351660Y24051D01*
X1351479Y24036D01*
X1351299Y24016D01*
X1351118Y23992D01*
X1350939Y23964D01*
X1350760Y23931D01*
X1350582Y23894D01*
X1350405Y23852D01*
X1350230Y23807D01*
X1350055Y23757D01*
X1349881Y23703D01*
X1349709Y23644D01*
X1349539Y23582D01*
X1349369Y23515D01*
X1349202Y23445D01*
X1349036Y23370D01*
X1348873Y23292D01*
X1348711Y23209D01*
X1348551Y23123D01*
X1348393Y23032D01*
X1348238Y22938D01*
X1348084Y22840D01*
X1347934Y22739D01*
X1347785Y22634D01*
X1347640Y22525D01*
X1347497Y22413D01*
X1347357Y22297D01*
X1347219Y22179D01*
X1347085Y22056D01*
X1346953Y21931D01*
X1346825Y21802D01*
X1346700Y21671D01*
X1346577Y21536D01*
X1346459Y21399D01*
X1346343Y21258D01*
X1346231Y21115D01*
X1346123Y20969D01*
X1346018Y20821D01*
X1345917Y20670D01*
X1345819Y20517D01*
X1345725Y20361D01*
X1345635Y20203D01*
X1345549Y20043D01*
X1345466Y19881D01*
X1345388Y19718D01*
X1345314Y19552D01*
X1345243Y19384D01*
X1345177Y19215D01*
X1345115Y19044D01*
X1345057Y18872D01*
X1356104Y13673D02*
X1356215Y13781D01*
X1356322Y13891D01*
X1356427Y14004D01*
X1356529Y14119D01*
X1356629Y14237D01*
X1356725Y14358D01*
X1356818Y14480D01*
X1356908Y14605D01*
X1356996Y14732D01*
X1357080Y14862D01*
X1357161Y14993D01*
X1357238Y15126D01*
X1357313Y15261D01*
X1357383Y15398D01*
X1357451Y15537D01*
X1357515Y15677D01*
X1357576Y15818D01*
X1357633Y15962D01*
X1357687Y16106D01*
X1357737Y16252D01*
X1357784Y16399D01*
X1357827Y16547D01*
X1357866Y16696D01*
X1357901Y16846D01*
X1357933Y16997D01*
X1357962Y17148D01*
X1357986Y17300D01*
X1358007Y17453D01*
X1358024Y17606D01*
X1358037Y17760D01*
X1358046Y17914D01*
X1358052Y18068D01*
X1358054Y18222D01*
X1356104Y13674D02*
X1345057Y677D01*
X1358054Y677D01*
D13*
X1370100Y34150D02*
X1017500Y34150D01*
X1017500Y626250D01*
X1370100Y626250D01*
X1370100Y34150D01*
D14*
X1380800Y441350D02*
X1380802Y441439D01*
X1380808Y441528D01*
X1380818Y441617D01*
X1380832Y441705D01*
X1380849Y441792D01*
X1380871Y441878D01*
X1380897Y441964D01*
X1380926Y442048D01*
X1380959Y442131D01*
X1380995Y442212D01*
X1381036Y442292D01*
X1381079Y442369D01*
X1381126Y442445D01*
X1381177Y442518D01*
X1381230Y442589D01*
X1381287Y442658D01*
X1381347Y442724D01*
X1381410Y442788D01*
X1381475Y442848D01*
X1381543Y442906D01*
X1381614Y442960D01*
X1381687Y443011D01*
X1381762Y443059D01*
X1381839Y443104D01*
X1381918Y443145D01*
X1381999Y443182D01*
X1382081Y443216D01*
X1382165Y443247D01*
X1382250Y443273D01*
X1382336Y443296D01*
X1382423Y443314D01*
X1382511Y443329D01*
X1382600Y443340D01*
X1382689Y443347D01*
X1382778Y443350D01*
X1382867Y443349D01*
X1382956Y443344D01*
X1383044Y443335D01*
X1383133Y443322D01*
X1383220Y443305D01*
X1383307Y443285D01*
X1383393Y443260D01*
X1383477Y443232D01*
X1383560Y443200D01*
X1383642Y443164D01*
X1383722Y443125D01*
X1383800Y443082D01*
X1383876Y443036D01*
X1383950Y442986D01*
X1384022Y442933D01*
X1384091Y442877D01*
X1384158Y442818D01*
X1384222Y442756D01*
X1384283Y442692D01*
X1384342Y442624D01*
X1384397Y442554D01*
X1384449Y442482D01*
X1384498Y442407D01*
X1384543Y442331D01*
X1384585Y442252D01*
X1384623Y442172D01*
X1384658Y442090D01*
X1384689Y442006D01*
X1384717Y441921D01*
X1384740Y441835D01*
X1384760Y441748D01*
X1384776Y441661D01*
X1384788Y441572D01*
X1384796Y441484D01*
X1384800Y441395D01*
X1384800Y441305D01*
X1384796Y441216D01*
X1384788Y441128D01*
X1384776Y441039D01*
X1384760Y440952D01*
X1384740Y440865D01*
X1384717Y440779D01*
X1384689Y440694D01*
X1384658Y440610D01*
X1384623Y440528D01*
X1384585Y440448D01*
X1384543Y440369D01*
X1384498Y440293D01*
X1384449Y440218D01*
X1384397Y440146D01*
X1384342Y440076D01*
X1384283Y440008D01*
X1384222Y439944D01*
X1384158Y439882D01*
X1384091Y439823D01*
X1384022Y439767D01*
X1383950Y439714D01*
X1383876Y439664D01*
X1383800Y439618D01*
X1383722Y439575D01*
X1383642Y439536D01*
X1383560Y439500D01*
X1383477Y439468D01*
X1383393Y439440D01*
X1383307Y439415D01*
X1383220Y439395D01*
X1383133Y439378D01*
X1383044Y439365D01*
X1382956Y439356D01*
X1382867Y439351D01*
X1382778Y439350D01*
X1382689Y439353D01*
X1382600Y439360D01*
X1382511Y439371D01*
X1382423Y439386D01*
X1382336Y439404D01*
X1382250Y439427D01*
X1382165Y439453D01*
X1382081Y439484D01*
X1381999Y439518D01*
X1381918Y439555D01*
X1381839Y439596D01*
X1381762Y439641D01*
X1381687Y439689D01*
X1381614Y439740D01*
X1381543Y439794D01*
X1381475Y439852D01*
X1381410Y439912D01*
X1381347Y439976D01*
X1381287Y440042D01*
X1381230Y440111D01*
X1381177Y440182D01*
X1381126Y440255D01*
X1381079Y440331D01*
X1381036Y440408D01*
X1380995Y440488D01*
X1380959Y440569D01*
X1380926Y440652D01*
X1380897Y440736D01*
X1380871Y440822D01*
X1380849Y440908D01*
X1380832Y440995D01*
X1380818Y441083D01*
X1380808Y441172D01*
X1380802Y441261D01*
X1380800Y441350D01*
D10*
X673200Y444400D02*
X673200Y241400D01*
X673200Y444400D02*
X1003200Y444400D01*
X1003200Y241400D01*
X673200Y241400D01*
D15*
X969484Y227392D02*
X969484Y218954D01*
X969483Y218954D02*
X969485Y218841D01*
X969491Y218728D01*
X969501Y218615D01*
X969515Y218502D01*
X969532Y218390D01*
X969554Y218279D01*
X969579Y218169D01*
X969609Y218059D01*
X969642Y217951D01*
X969679Y217844D01*
X969719Y217738D01*
X969764Y217634D01*
X969812Y217531D01*
X969863Y217430D01*
X969918Y217331D01*
X969976Y217234D01*
X970038Y217139D01*
X970103Y217046D01*
X970171Y216956D01*
X970242Y216868D01*
X970317Y216782D01*
X970394Y216699D01*
X970474Y216619D01*
X970557Y216542D01*
X970643Y216467D01*
X970731Y216396D01*
X970821Y216328D01*
X970914Y216263D01*
X971009Y216201D01*
X971106Y216143D01*
X971205Y216088D01*
X971306Y216037D01*
X971409Y215989D01*
X971513Y215944D01*
X971619Y215904D01*
X971726Y215867D01*
X971834Y215834D01*
X971944Y215804D01*
X972054Y215779D01*
X972165Y215757D01*
X972277Y215740D01*
X972390Y215726D01*
X972503Y215716D01*
X972616Y215710D01*
X972729Y215708D01*
X972842Y215710D01*
X972955Y215716D01*
X973068Y215726D01*
X973181Y215740D01*
X973293Y215757D01*
X973404Y215779D01*
X973514Y215804D01*
X973624Y215834D01*
X973732Y215867D01*
X973839Y215904D01*
X973945Y215944D01*
X974049Y215989D01*
X974152Y216037D01*
X974253Y216088D01*
X974352Y216143D01*
X974449Y216201D01*
X974544Y216263D01*
X974637Y216328D01*
X974727Y216396D01*
X974815Y216467D01*
X974901Y216542D01*
X974984Y216619D01*
X975064Y216699D01*
X975141Y216782D01*
X975216Y216868D01*
X975287Y216956D01*
X975355Y217046D01*
X975420Y217139D01*
X975482Y217234D01*
X975540Y217331D01*
X975595Y217430D01*
X975646Y217531D01*
X975694Y217634D01*
X975739Y217738D01*
X975779Y217844D01*
X975816Y217951D01*
X975849Y218059D01*
X975879Y218169D01*
X975904Y218279D01*
X975926Y218390D01*
X975943Y218502D01*
X975957Y218615D01*
X975967Y218728D01*
X975973Y218841D01*
X975975Y218954D01*
X975975Y227392D01*
X983778Y227392D02*
X983778Y215708D01*
X983778Y221550D02*
X982156Y222524D01*
X982155Y222523D02*
X982082Y222570D01*
X982011Y222619D01*
X981941Y222672D01*
X981875Y222728D01*
X981811Y222787D01*
X981749Y222848D01*
X981691Y222912D01*
X981635Y222979D01*
X981583Y223048D01*
X981533Y223120D01*
X981487Y223194D01*
X981444Y223269D01*
X981405Y223347D01*
X981369Y223426D01*
X981337Y223507D01*
X981308Y223589D01*
X981283Y223672D01*
X981262Y223756D01*
X981245Y223841D01*
X981231Y223927D01*
X981222Y224013D01*
X981216Y224100D01*
X981214Y224187D01*
X981216Y224274D01*
X981222Y224361D01*
X981232Y224447D01*
X981245Y224533D01*
X981263Y224618D01*
X981284Y224702D01*
X981309Y224785D01*
X981338Y224868D01*
X981370Y224948D01*
X981406Y225027D01*
X981445Y225105D01*
X981488Y225180D01*
X981535Y225254D01*
X981584Y225325D01*
X981637Y225395D01*
X981692Y225461D01*
X981751Y225525D01*
X981812Y225587D01*
X981877Y225646D01*
X981943Y225701D01*
X982012Y225754D01*
X982084Y225804D01*
X982157Y225850D01*
X982233Y225893D01*
X982310Y225932D01*
X982389Y225968D01*
X982470Y226001D01*
X982552Y226029D01*
X982635Y226055D01*
X982719Y226076D01*
X982805Y226093D01*
X982805Y226094D02*
X982945Y226118D01*
X983087Y226138D01*
X983228Y226154D01*
X983370Y226165D01*
X983513Y226173D01*
X983655Y226177D01*
X983798Y226178D01*
X983941Y226174D01*
X984083Y226166D01*
X984225Y226154D01*
X984367Y226138D01*
X984508Y226119D01*
X984649Y226095D01*
X984789Y226068D01*
X984928Y226036D01*
X985066Y226001D01*
X985204Y225962D01*
X985340Y225919D01*
X985474Y225873D01*
X985608Y225822D01*
X985740Y225769D01*
X985870Y225711D01*
X985999Y225650D01*
X986126Y225585D01*
X986252Y225517D01*
X986375Y225445D01*
X983778Y221550D02*
X985401Y220576D01*
X985402Y220577D02*
X985475Y220530D01*
X985546Y220481D01*
X985616Y220428D01*
X985682Y220372D01*
X985746Y220313D01*
X985808Y220252D01*
X985866Y220188D01*
X985922Y220121D01*
X985974Y220052D01*
X986024Y219980D01*
X986070Y219906D01*
X986113Y219831D01*
X986152Y219753D01*
X986188Y219674D01*
X986220Y219593D01*
X986249Y219511D01*
X986274Y219428D01*
X986295Y219344D01*
X986312Y219259D01*
X986326Y219173D01*
X986335Y219087D01*
X986341Y219000D01*
X986343Y218913D01*
X986341Y218826D01*
X986335Y218739D01*
X986325Y218653D01*
X986312Y218567D01*
X986294Y218482D01*
X986273Y218398D01*
X986248Y218315D01*
X986219Y218232D01*
X986187Y218152D01*
X986151Y218073D01*
X986112Y217995D01*
X986069Y217920D01*
X986022Y217846D01*
X985973Y217775D01*
X985920Y217705D01*
X985865Y217639D01*
X985806Y217575D01*
X985745Y217513D01*
X985680Y217454D01*
X985614Y217399D01*
X985545Y217346D01*
X985473Y217296D01*
X985400Y217250D01*
X985324Y217207D01*
X985247Y217168D01*
X985168Y217132D01*
X985087Y217099D01*
X985005Y217071D01*
X984922Y217045D01*
X984838Y217024D01*
X984753Y217007D01*
X984752Y217006D02*
X984612Y216982D01*
X984470Y216962D01*
X984329Y216946D01*
X984187Y216935D01*
X984044Y216927D01*
X983902Y216923D01*
X983759Y216922D01*
X983616Y216926D01*
X983474Y216934D01*
X983332Y216946D01*
X983190Y216962D01*
X983049Y216981D01*
X982908Y217005D01*
X982768Y217032D01*
X982629Y217064D01*
X982491Y217099D01*
X982353Y217138D01*
X982217Y217181D01*
X982083Y217227D01*
X981949Y217278D01*
X981817Y217331D01*
X981687Y217389D01*
X981558Y217450D01*
X981431Y217515D01*
X981305Y217583D01*
X981182Y217655D01*
X991201Y224796D02*
X994446Y227392D01*
X994446Y215708D01*
X991201Y215708D02*
X997692Y215708D01*
D10*
X673200Y241200D02*
X673200Y38200D01*
X673200Y241200D02*
X1003200Y241200D01*
X1003200Y38200D01*
X673200Y38200D01*
D15*
X969484Y24192D02*
X969484Y15754D01*
X969483Y15754D02*
X969485Y15641D01*
X969491Y15528D01*
X969501Y15415D01*
X969515Y15302D01*
X969532Y15190D01*
X969554Y15079D01*
X969579Y14969D01*
X969609Y14859D01*
X969642Y14751D01*
X969679Y14644D01*
X969719Y14538D01*
X969764Y14434D01*
X969812Y14331D01*
X969863Y14230D01*
X969918Y14131D01*
X969976Y14034D01*
X970038Y13939D01*
X970103Y13846D01*
X970171Y13756D01*
X970242Y13668D01*
X970317Y13582D01*
X970394Y13499D01*
X970474Y13419D01*
X970557Y13342D01*
X970643Y13267D01*
X970731Y13196D01*
X970821Y13128D01*
X970914Y13063D01*
X971009Y13001D01*
X971106Y12943D01*
X971205Y12888D01*
X971306Y12837D01*
X971409Y12789D01*
X971513Y12744D01*
X971619Y12704D01*
X971726Y12667D01*
X971834Y12634D01*
X971944Y12604D01*
X972054Y12579D01*
X972165Y12557D01*
X972277Y12540D01*
X972390Y12526D01*
X972503Y12516D01*
X972616Y12510D01*
X972729Y12508D01*
X972842Y12510D01*
X972955Y12516D01*
X973068Y12526D01*
X973181Y12540D01*
X973293Y12557D01*
X973404Y12579D01*
X973514Y12604D01*
X973624Y12634D01*
X973732Y12667D01*
X973839Y12704D01*
X973945Y12744D01*
X974049Y12789D01*
X974152Y12837D01*
X974253Y12888D01*
X974352Y12943D01*
X974449Y13001D01*
X974544Y13063D01*
X974637Y13128D01*
X974727Y13196D01*
X974815Y13267D01*
X974901Y13342D01*
X974984Y13419D01*
X975064Y13499D01*
X975141Y13582D01*
X975216Y13668D01*
X975287Y13756D01*
X975355Y13846D01*
X975420Y13939D01*
X975482Y14034D01*
X975540Y14131D01*
X975595Y14230D01*
X975646Y14331D01*
X975694Y14434D01*
X975739Y14538D01*
X975779Y14644D01*
X975816Y14751D01*
X975849Y14859D01*
X975879Y14969D01*
X975904Y15079D01*
X975926Y15190D01*
X975943Y15302D01*
X975957Y15415D01*
X975967Y15528D01*
X975973Y15641D01*
X975975Y15754D01*
X975975Y24192D01*
X983778Y24192D02*
X983778Y12508D01*
X983778Y18350D02*
X982156Y19324D01*
X982155Y19323D02*
X982082Y19370D01*
X982011Y19419D01*
X981941Y19472D01*
X981875Y19528D01*
X981811Y19587D01*
X981749Y19648D01*
X981691Y19712D01*
X981635Y19779D01*
X981583Y19848D01*
X981533Y19920D01*
X981487Y19994D01*
X981444Y20069D01*
X981405Y20147D01*
X981369Y20226D01*
X981337Y20307D01*
X981308Y20389D01*
X981283Y20472D01*
X981262Y20556D01*
X981245Y20641D01*
X981231Y20727D01*
X981222Y20813D01*
X981216Y20900D01*
X981214Y20987D01*
X981216Y21074D01*
X981222Y21161D01*
X981232Y21247D01*
X981245Y21333D01*
X981263Y21418D01*
X981284Y21502D01*
X981309Y21585D01*
X981338Y21668D01*
X981370Y21748D01*
X981406Y21827D01*
X981445Y21905D01*
X981488Y21980D01*
X981535Y22054D01*
X981584Y22125D01*
X981637Y22195D01*
X981692Y22261D01*
X981751Y22325D01*
X981812Y22387D01*
X981877Y22446D01*
X981943Y22501D01*
X982012Y22554D01*
X982084Y22604D01*
X982157Y22650D01*
X982233Y22693D01*
X982310Y22732D01*
X982389Y22768D01*
X982470Y22801D01*
X982552Y22829D01*
X982635Y22855D01*
X982719Y22876D01*
X982805Y22893D01*
X982805Y22894D02*
X982945Y22918D01*
X983087Y22938D01*
X983228Y22954D01*
X983370Y22965D01*
X983513Y22973D01*
X983655Y22977D01*
X983798Y22978D01*
X983941Y22974D01*
X984083Y22966D01*
X984225Y22954D01*
X984367Y22938D01*
X984508Y22919D01*
X984649Y22895D01*
X984789Y22868D01*
X984928Y22836D01*
X985066Y22801D01*
X985204Y22762D01*
X985340Y22719D01*
X985474Y22673D01*
X985608Y22622D01*
X985740Y22569D01*
X985870Y22511D01*
X985999Y22450D01*
X986126Y22385D01*
X986252Y22317D01*
X986375Y22245D01*
X983778Y18350D02*
X985401Y17376D01*
X985402Y17377D02*
X985475Y17330D01*
X985546Y17281D01*
X985616Y17228D01*
X985682Y17172D01*
X985746Y17113D01*
X985808Y17052D01*
X985866Y16988D01*
X985922Y16921D01*
X985974Y16852D01*
X986024Y16780D01*
X986070Y16706D01*
X986113Y16631D01*
X986152Y16553D01*
X986188Y16474D01*
X986220Y16393D01*
X986249Y16311D01*
X986274Y16228D01*
X986295Y16144D01*
X986312Y16059D01*
X986326Y15973D01*
X986335Y15887D01*
X986341Y15800D01*
X986343Y15713D01*
X986341Y15626D01*
X986335Y15539D01*
X986325Y15453D01*
X986312Y15367D01*
X986294Y15282D01*
X986273Y15198D01*
X986248Y15115D01*
X986219Y15032D01*
X986187Y14952D01*
X986151Y14873D01*
X986112Y14795D01*
X986069Y14720D01*
X986022Y14646D01*
X985973Y14575D01*
X985920Y14505D01*
X985865Y14439D01*
X985806Y14375D01*
X985745Y14313D01*
X985680Y14254D01*
X985614Y14199D01*
X985545Y14146D01*
X985473Y14096D01*
X985400Y14050D01*
X985324Y14007D01*
X985247Y13968D01*
X985168Y13932D01*
X985087Y13899D01*
X985005Y13871D01*
X984922Y13845D01*
X984838Y13824D01*
X984753Y13807D01*
X984752Y13806D02*
X984612Y13782D01*
X984470Y13762D01*
X984329Y13746D01*
X984187Y13735D01*
X984044Y13727D01*
X983902Y13723D01*
X983759Y13722D01*
X983616Y13726D01*
X983474Y13734D01*
X983332Y13746D01*
X983190Y13762D01*
X983049Y13781D01*
X982908Y13805D01*
X982768Y13832D01*
X982629Y13864D01*
X982491Y13899D01*
X982353Y13938D01*
X982217Y13981D01*
X982083Y14027D01*
X981949Y14078D01*
X981817Y14131D01*
X981687Y14189D01*
X981558Y14250D01*
X981431Y14315D01*
X981305Y14383D01*
X981182Y14455D01*
X994771Y24192D02*
X994878Y24190D01*
X994984Y24184D01*
X995090Y24174D01*
X995196Y24161D01*
X995302Y24143D01*
X995406Y24122D01*
X995510Y24097D01*
X995613Y24068D01*
X995714Y24036D01*
X995814Y23999D01*
X995913Y23959D01*
X996011Y23916D01*
X996107Y23869D01*
X996201Y23818D01*
X996293Y23764D01*
X996383Y23707D01*
X996471Y23647D01*
X996556Y23583D01*
X996639Y23516D01*
X996720Y23446D01*
X996798Y23374D01*
X996874Y23298D01*
X996946Y23220D01*
X997016Y23139D01*
X997083Y23056D01*
X997147Y22971D01*
X997207Y22883D01*
X997264Y22793D01*
X997318Y22701D01*
X997369Y22607D01*
X997416Y22511D01*
X997459Y22413D01*
X997499Y22314D01*
X997536Y22214D01*
X997568Y22113D01*
X997597Y22010D01*
X997622Y21906D01*
X997643Y21802D01*
X997661Y21696D01*
X997674Y21590D01*
X997684Y21484D01*
X997690Y21378D01*
X997692Y21271D01*
X994771Y24192D02*
X994650Y24190D01*
X994529Y24184D01*
X994409Y24174D01*
X994288Y24161D01*
X994169Y24143D01*
X994049Y24122D01*
X993931Y24097D01*
X993814Y24068D01*
X993697Y24035D01*
X993582Y23999D01*
X993468Y23958D01*
X993355Y23915D01*
X993243Y23867D01*
X993134Y23816D01*
X993026Y23761D01*
X992919Y23703D01*
X992815Y23642D01*
X992713Y23577D01*
X992613Y23509D01*
X992515Y23438D01*
X992419Y23364D01*
X992326Y23287D01*
X992236Y23206D01*
X992148Y23123D01*
X992063Y23037D01*
X991980Y22948D01*
X991901Y22857D01*
X991824Y22763D01*
X991751Y22667D01*
X991681Y22569D01*
X991614Y22468D01*
X991550Y22365D01*
X991490Y22260D01*
X991433Y22153D01*
X991379Y22045D01*
X991329Y21935D01*
X991283Y21823D01*
X991240Y21710D01*
X991201Y21595D01*
X996719Y18999D02*
X996798Y19076D01*
X996874Y19157D01*
X996947Y19240D01*
X997017Y19325D01*
X997084Y19413D01*
X997148Y19503D01*
X997208Y19595D01*
X997265Y19690D01*
X997319Y19786D01*
X997370Y19884D01*
X997417Y19984D01*
X997461Y20086D01*
X997501Y20189D01*
X997537Y20293D01*
X997569Y20399D01*
X997598Y20505D01*
X997623Y20613D01*
X997645Y20721D01*
X997662Y20831D01*
X997676Y20940D01*
X997685Y21050D01*
X997691Y21161D01*
X997693Y21271D01*
X996718Y18999D02*
X991201Y12508D01*
X997692Y12508D01*
D10*
X343000Y38200D02*
X343000Y241200D01*
X673000Y241200D01*
X673000Y38200D01*
X343000Y38200D01*
D15*
X639284Y24192D02*
X639284Y15754D01*
X639283Y15754D02*
X639285Y15641D01*
X639291Y15528D01*
X639301Y15415D01*
X639315Y15302D01*
X639332Y15190D01*
X639354Y15079D01*
X639379Y14969D01*
X639409Y14859D01*
X639442Y14751D01*
X639479Y14644D01*
X639519Y14538D01*
X639564Y14434D01*
X639612Y14331D01*
X639663Y14230D01*
X639718Y14131D01*
X639776Y14034D01*
X639838Y13939D01*
X639903Y13846D01*
X639971Y13756D01*
X640042Y13668D01*
X640117Y13582D01*
X640194Y13499D01*
X640274Y13419D01*
X640357Y13342D01*
X640443Y13267D01*
X640531Y13196D01*
X640621Y13128D01*
X640714Y13063D01*
X640809Y13001D01*
X640906Y12943D01*
X641005Y12888D01*
X641106Y12837D01*
X641209Y12789D01*
X641313Y12744D01*
X641419Y12704D01*
X641526Y12667D01*
X641634Y12634D01*
X641744Y12604D01*
X641854Y12579D01*
X641965Y12557D01*
X642077Y12540D01*
X642190Y12526D01*
X642303Y12516D01*
X642416Y12510D01*
X642529Y12508D01*
X642642Y12510D01*
X642755Y12516D01*
X642868Y12526D01*
X642981Y12540D01*
X643093Y12557D01*
X643204Y12579D01*
X643314Y12604D01*
X643424Y12634D01*
X643532Y12667D01*
X643639Y12704D01*
X643745Y12744D01*
X643849Y12789D01*
X643952Y12837D01*
X644053Y12888D01*
X644152Y12943D01*
X644249Y13001D01*
X644344Y13063D01*
X644437Y13128D01*
X644527Y13196D01*
X644615Y13267D01*
X644701Y13342D01*
X644784Y13419D01*
X644864Y13499D01*
X644941Y13582D01*
X645016Y13668D01*
X645087Y13756D01*
X645155Y13846D01*
X645220Y13939D01*
X645282Y14034D01*
X645340Y14131D01*
X645395Y14230D01*
X645446Y14331D01*
X645494Y14434D01*
X645539Y14538D01*
X645579Y14644D01*
X645616Y14751D01*
X645649Y14859D01*
X645679Y14969D01*
X645704Y15079D01*
X645726Y15190D01*
X645743Y15302D01*
X645757Y15415D01*
X645767Y15528D01*
X645773Y15641D01*
X645775Y15754D01*
X645775Y24192D01*
X653578Y24192D02*
X653578Y12508D01*
X653578Y18350D02*
X651956Y19324D01*
X651955Y19323D02*
X651882Y19370D01*
X651811Y19419D01*
X651741Y19472D01*
X651675Y19528D01*
X651611Y19587D01*
X651549Y19648D01*
X651491Y19712D01*
X651435Y19779D01*
X651383Y19848D01*
X651333Y19920D01*
X651287Y19994D01*
X651244Y20069D01*
X651205Y20147D01*
X651169Y20226D01*
X651137Y20307D01*
X651108Y20389D01*
X651083Y20472D01*
X651062Y20556D01*
X651045Y20641D01*
X651031Y20727D01*
X651022Y20813D01*
X651016Y20900D01*
X651014Y20987D01*
X651016Y21074D01*
X651022Y21161D01*
X651032Y21247D01*
X651045Y21333D01*
X651063Y21418D01*
X651084Y21502D01*
X651109Y21585D01*
X651138Y21668D01*
X651170Y21748D01*
X651206Y21827D01*
X651245Y21905D01*
X651288Y21980D01*
X651335Y22054D01*
X651384Y22125D01*
X651437Y22195D01*
X651492Y22261D01*
X651551Y22325D01*
X651612Y22387D01*
X651677Y22446D01*
X651743Y22501D01*
X651812Y22554D01*
X651884Y22604D01*
X651957Y22650D01*
X652033Y22693D01*
X652110Y22732D01*
X652189Y22768D01*
X652270Y22801D01*
X652352Y22829D01*
X652435Y22855D01*
X652519Y22876D01*
X652605Y22893D01*
X652605Y22894D02*
X652745Y22918D01*
X652887Y22938D01*
X653028Y22954D01*
X653170Y22965D01*
X653313Y22973D01*
X653455Y22977D01*
X653598Y22978D01*
X653741Y22974D01*
X653883Y22966D01*
X654025Y22954D01*
X654167Y22938D01*
X654308Y22919D01*
X654449Y22895D01*
X654589Y22868D01*
X654728Y22836D01*
X654866Y22801D01*
X655004Y22762D01*
X655140Y22719D01*
X655274Y22673D01*
X655408Y22622D01*
X655540Y22569D01*
X655670Y22511D01*
X655799Y22450D01*
X655926Y22385D01*
X656052Y22317D01*
X656175Y22245D01*
X653578Y18350D02*
X655201Y17376D01*
X655202Y17377D02*
X655275Y17330D01*
X655346Y17281D01*
X655416Y17228D01*
X655482Y17172D01*
X655546Y17113D01*
X655608Y17052D01*
X655666Y16988D01*
X655722Y16921D01*
X655774Y16852D01*
X655824Y16780D01*
X655870Y16706D01*
X655913Y16631D01*
X655952Y16553D01*
X655988Y16474D01*
X656020Y16393D01*
X656049Y16311D01*
X656074Y16228D01*
X656095Y16144D01*
X656112Y16059D01*
X656126Y15973D01*
X656135Y15887D01*
X656141Y15800D01*
X656143Y15713D01*
X656141Y15626D01*
X656135Y15539D01*
X656125Y15453D01*
X656112Y15367D01*
X656094Y15282D01*
X656073Y15198D01*
X656048Y15115D01*
X656019Y15032D01*
X655987Y14952D01*
X655951Y14873D01*
X655912Y14795D01*
X655869Y14720D01*
X655822Y14646D01*
X655773Y14575D01*
X655720Y14505D01*
X655665Y14439D01*
X655606Y14375D01*
X655545Y14313D01*
X655480Y14254D01*
X655414Y14199D01*
X655345Y14146D01*
X655273Y14096D01*
X655200Y14050D01*
X655124Y14007D01*
X655047Y13968D01*
X654968Y13932D01*
X654887Y13899D01*
X654805Y13871D01*
X654722Y13845D01*
X654638Y13824D01*
X654553Y13807D01*
X654552Y13806D02*
X654412Y13782D01*
X654270Y13762D01*
X654129Y13746D01*
X653987Y13735D01*
X653844Y13727D01*
X653702Y13723D01*
X653559Y13722D01*
X653416Y13726D01*
X653274Y13734D01*
X653132Y13746D01*
X652990Y13762D01*
X652849Y13781D01*
X652708Y13805D01*
X652568Y13832D01*
X652429Y13864D01*
X652291Y13899D01*
X652153Y13938D01*
X652017Y13981D01*
X651883Y14027D01*
X651749Y14078D01*
X651617Y14131D01*
X651487Y14189D01*
X651358Y14250D01*
X651231Y14315D01*
X651105Y14383D01*
X650982Y14455D01*
X661001Y12508D02*
X664246Y12508D01*
X664359Y12510D01*
X664472Y12516D01*
X664585Y12526D01*
X664698Y12540D01*
X664810Y12557D01*
X664921Y12579D01*
X665031Y12604D01*
X665141Y12634D01*
X665249Y12667D01*
X665356Y12704D01*
X665462Y12744D01*
X665566Y12789D01*
X665669Y12837D01*
X665770Y12888D01*
X665869Y12943D01*
X665966Y13001D01*
X666061Y13063D01*
X666154Y13128D01*
X666244Y13196D01*
X666332Y13267D01*
X666418Y13342D01*
X666501Y13419D01*
X666581Y13499D01*
X666658Y13582D01*
X666733Y13668D01*
X666804Y13756D01*
X666872Y13846D01*
X666937Y13939D01*
X666999Y14034D01*
X667057Y14131D01*
X667112Y14230D01*
X667163Y14331D01*
X667211Y14434D01*
X667256Y14538D01*
X667296Y14644D01*
X667333Y14751D01*
X667366Y14859D01*
X667396Y14969D01*
X667421Y15079D01*
X667443Y15190D01*
X667460Y15302D01*
X667474Y15415D01*
X667484Y15528D01*
X667490Y15641D01*
X667492Y15754D01*
X667490Y15867D01*
X667484Y15980D01*
X667474Y16093D01*
X667460Y16206D01*
X667443Y16318D01*
X667421Y16429D01*
X667396Y16539D01*
X667366Y16649D01*
X667333Y16757D01*
X667296Y16864D01*
X667256Y16970D01*
X667211Y17074D01*
X667163Y17177D01*
X667112Y17278D01*
X667057Y17377D01*
X666999Y17474D01*
X666937Y17569D01*
X666872Y17662D01*
X666804Y17752D01*
X666733Y17840D01*
X666658Y17926D01*
X666581Y18009D01*
X666501Y18089D01*
X666418Y18166D01*
X666332Y18241D01*
X666244Y18312D01*
X666154Y18380D01*
X666061Y18445D01*
X665966Y18507D01*
X665869Y18565D01*
X665770Y18620D01*
X665669Y18671D01*
X665566Y18719D01*
X665462Y18764D01*
X665356Y18804D01*
X665249Y18841D01*
X665141Y18874D01*
X665031Y18904D01*
X664921Y18929D01*
X664810Y18951D01*
X664698Y18968D01*
X664585Y18982D01*
X664472Y18992D01*
X664359Y18998D01*
X664246Y19000D01*
X664896Y24192D02*
X661001Y24192D01*
X664896Y24192D02*
X664997Y24190D01*
X665097Y24184D01*
X665197Y24174D01*
X665297Y24161D01*
X665396Y24143D01*
X665495Y24122D01*
X665592Y24097D01*
X665689Y24068D01*
X665784Y24035D01*
X665878Y23999D01*
X665970Y23959D01*
X666061Y23916D01*
X666150Y23869D01*
X666237Y23819D01*
X666323Y23765D01*
X666406Y23708D01*
X666486Y23648D01*
X666565Y23585D01*
X666641Y23518D01*
X666714Y23449D01*
X666784Y23377D01*
X666852Y23303D01*
X666917Y23226D01*
X666978Y23146D01*
X667037Y23064D01*
X667092Y22980D01*
X667144Y22894D01*
X667193Y22806D01*
X667238Y22716D01*
X667280Y22624D01*
X667318Y22531D01*
X667352Y22436D01*
X667383Y22341D01*
X667410Y22244D01*
X667433Y22146D01*
X667453Y22047D01*
X667468Y21947D01*
X667480Y21847D01*
X667488Y21747D01*
X667492Y21646D01*
X667492Y21546D01*
X667488Y21445D01*
X667480Y21345D01*
X667468Y21245D01*
X667453Y21145D01*
X667433Y21046D01*
X667410Y20948D01*
X667383Y20851D01*
X667352Y20756D01*
X667318Y20661D01*
X667280Y20568D01*
X667238Y20476D01*
X667193Y20386D01*
X667144Y20298D01*
X667092Y20212D01*
X667037Y20128D01*
X666978Y20046D01*
X666917Y19966D01*
X666852Y19889D01*
X666784Y19815D01*
X666714Y19743D01*
X666641Y19674D01*
X666565Y19607D01*
X666486Y19544D01*
X666406Y19484D01*
X666323Y19427D01*
X666237Y19373D01*
X666150Y19323D01*
X666061Y19276D01*
X665970Y19233D01*
X665878Y19193D01*
X665784Y19157D01*
X665689Y19124D01*
X665592Y19095D01*
X665495Y19070D01*
X665396Y19049D01*
X665297Y19031D01*
X665197Y19018D01*
X665097Y19008D01*
X664997Y19002D01*
X664896Y19000D01*
X664896Y18999D02*
X662299Y18999D01*
D10*
X343000Y241400D02*
X343000Y444400D01*
X673000Y444400D01*
X673000Y241400D01*
X343000Y241400D01*
D15*
X639284Y227392D02*
X639284Y218954D01*
X639283Y218954D02*
X639285Y218841D01*
X639291Y218728D01*
X639301Y218615D01*
X639315Y218502D01*
X639332Y218390D01*
X639354Y218279D01*
X639379Y218169D01*
X639409Y218059D01*
X639442Y217951D01*
X639479Y217844D01*
X639519Y217738D01*
X639564Y217634D01*
X639612Y217531D01*
X639663Y217430D01*
X639718Y217331D01*
X639776Y217234D01*
X639838Y217139D01*
X639903Y217046D01*
X639971Y216956D01*
X640042Y216868D01*
X640117Y216782D01*
X640194Y216699D01*
X640274Y216619D01*
X640357Y216542D01*
X640443Y216467D01*
X640531Y216396D01*
X640621Y216328D01*
X640714Y216263D01*
X640809Y216201D01*
X640906Y216143D01*
X641005Y216088D01*
X641106Y216037D01*
X641209Y215989D01*
X641313Y215944D01*
X641419Y215904D01*
X641526Y215867D01*
X641634Y215834D01*
X641744Y215804D01*
X641854Y215779D01*
X641965Y215757D01*
X642077Y215740D01*
X642190Y215726D01*
X642303Y215716D01*
X642416Y215710D01*
X642529Y215708D01*
X642642Y215710D01*
X642755Y215716D01*
X642868Y215726D01*
X642981Y215740D01*
X643093Y215757D01*
X643204Y215779D01*
X643314Y215804D01*
X643424Y215834D01*
X643532Y215867D01*
X643639Y215904D01*
X643745Y215944D01*
X643849Y215989D01*
X643952Y216037D01*
X644053Y216088D01*
X644152Y216143D01*
X644249Y216201D01*
X644344Y216263D01*
X644437Y216328D01*
X644527Y216396D01*
X644615Y216467D01*
X644701Y216542D01*
X644784Y216619D01*
X644864Y216699D01*
X644941Y216782D01*
X645016Y216868D01*
X645087Y216956D01*
X645155Y217046D01*
X645220Y217139D01*
X645282Y217234D01*
X645340Y217331D01*
X645395Y217430D01*
X645446Y217531D01*
X645494Y217634D01*
X645539Y217738D01*
X645579Y217844D01*
X645616Y217951D01*
X645649Y218059D01*
X645679Y218169D01*
X645704Y218279D01*
X645726Y218390D01*
X645743Y218502D01*
X645757Y218615D01*
X645767Y218728D01*
X645773Y218841D01*
X645775Y218954D01*
X645775Y227392D01*
X653578Y227392D02*
X653578Y215708D01*
X653578Y221550D02*
X651956Y222524D01*
X651955Y222523D02*
X651882Y222570D01*
X651811Y222619D01*
X651741Y222672D01*
X651675Y222728D01*
X651611Y222787D01*
X651549Y222848D01*
X651491Y222912D01*
X651435Y222979D01*
X651383Y223048D01*
X651333Y223120D01*
X651287Y223194D01*
X651244Y223269D01*
X651205Y223347D01*
X651169Y223426D01*
X651137Y223507D01*
X651108Y223589D01*
X651083Y223672D01*
X651062Y223756D01*
X651045Y223841D01*
X651031Y223927D01*
X651022Y224013D01*
X651016Y224100D01*
X651014Y224187D01*
X651016Y224274D01*
X651022Y224361D01*
X651032Y224447D01*
X651045Y224533D01*
X651063Y224618D01*
X651084Y224702D01*
X651109Y224785D01*
X651138Y224868D01*
X651170Y224948D01*
X651206Y225027D01*
X651245Y225105D01*
X651288Y225180D01*
X651335Y225254D01*
X651384Y225325D01*
X651437Y225395D01*
X651492Y225461D01*
X651551Y225525D01*
X651612Y225587D01*
X651677Y225646D01*
X651743Y225701D01*
X651812Y225754D01*
X651884Y225804D01*
X651957Y225850D01*
X652033Y225893D01*
X652110Y225932D01*
X652189Y225968D01*
X652270Y226001D01*
X652352Y226029D01*
X652435Y226055D01*
X652519Y226076D01*
X652605Y226093D01*
X652605Y226094D02*
X652745Y226118D01*
X652887Y226138D01*
X653028Y226154D01*
X653170Y226165D01*
X653313Y226173D01*
X653455Y226177D01*
X653598Y226178D01*
X653741Y226174D01*
X653883Y226166D01*
X654025Y226154D01*
X654167Y226138D01*
X654308Y226119D01*
X654449Y226095D01*
X654589Y226068D01*
X654728Y226036D01*
X654866Y226001D01*
X655004Y225962D01*
X655140Y225919D01*
X655274Y225873D01*
X655408Y225822D01*
X655540Y225769D01*
X655670Y225711D01*
X655799Y225650D01*
X655926Y225585D01*
X656052Y225517D01*
X656175Y225445D01*
X653578Y221550D02*
X655201Y220576D01*
X655202Y220577D02*
X655275Y220530D01*
X655346Y220481D01*
X655416Y220428D01*
X655482Y220372D01*
X655546Y220313D01*
X655608Y220252D01*
X655666Y220188D01*
X655722Y220121D01*
X655774Y220052D01*
X655824Y219980D01*
X655870Y219906D01*
X655913Y219831D01*
X655952Y219753D01*
X655988Y219674D01*
X656020Y219593D01*
X656049Y219511D01*
X656074Y219428D01*
X656095Y219344D01*
X656112Y219259D01*
X656126Y219173D01*
X656135Y219087D01*
X656141Y219000D01*
X656143Y218913D01*
X656141Y218826D01*
X656135Y218739D01*
X656125Y218653D01*
X656112Y218567D01*
X656094Y218482D01*
X656073Y218398D01*
X656048Y218315D01*
X656019Y218232D01*
X655987Y218152D01*
X655951Y218073D01*
X655912Y217995D01*
X655869Y217920D01*
X655822Y217846D01*
X655773Y217775D01*
X655720Y217705D01*
X655665Y217639D01*
X655606Y217575D01*
X655545Y217513D01*
X655480Y217454D01*
X655414Y217399D01*
X655345Y217346D01*
X655273Y217296D01*
X655200Y217250D01*
X655124Y217207D01*
X655047Y217168D01*
X654968Y217132D01*
X654887Y217099D01*
X654805Y217071D01*
X654722Y217045D01*
X654638Y217024D01*
X654553Y217007D01*
X654552Y217006D02*
X654412Y216982D01*
X654270Y216962D01*
X654129Y216946D01*
X653987Y216935D01*
X653844Y216927D01*
X653702Y216923D01*
X653559Y216922D01*
X653416Y216926D01*
X653274Y216934D01*
X653132Y216946D01*
X652990Y216962D01*
X652849Y216981D01*
X652708Y217005D01*
X652568Y217032D01*
X652429Y217064D01*
X652291Y217099D01*
X652153Y217138D01*
X652017Y217181D01*
X651883Y217227D01*
X651749Y217278D01*
X651617Y217331D01*
X651487Y217389D01*
X651358Y217450D01*
X651231Y217515D01*
X651105Y217583D01*
X650982Y217655D01*
X661001Y218304D02*
X663597Y227392D01*
X661001Y218304D02*
X667492Y218304D01*
X665545Y220901D02*
X665545Y215708D01*
D10*
X819200Y656100D02*
X339200Y656100D01*
X819200Y656100D02*
X819200Y476100D01*
X339200Y476100D01*
X339200Y656100D01*
D15*
X320446Y481608D02*
X312008Y481608D01*
X320446Y481608D02*
X320559Y481610D01*
X320672Y481616D01*
X320785Y481626D01*
X320898Y481640D01*
X321010Y481657D01*
X321121Y481679D01*
X321231Y481704D01*
X321341Y481734D01*
X321449Y481767D01*
X321556Y481804D01*
X321662Y481844D01*
X321766Y481889D01*
X321869Y481937D01*
X321970Y481988D01*
X322069Y482043D01*
X322166Y482101D01*
X322261Y482163D01*
X322354Y482228D01*
X322444Y482296D01*
X322532Y482367D01*
X322618Y482442D01*
X322701Y482519D01*
X322781Y482599D01*
X322858Y482682D01*
X322933Y482768D01*
X323004Y482856D01*
X323072Y482946D01*
X323137Y483039D01*
X323199Y483134D01*
X323257Y483231D01*
X323312Y483330D01*
X323363Y483431D01*
X323411Y483534D01*
X323456Y483638D01*
X323496Y483744D01*
X323533Y483851D01*
X323566Y483959D01*
X323596Y484069D01*
X323621Y484179D01*
X323643Y484290D01*
X323660Y484402D01*
X323674Y484515D01*
X323684Y484628D01*
X323690Y484741D01*
X323692Y484854D01*
X323690Y484967D01*
X323684Y485080D01*
X323674Y485193D01*
X323660Y485306D01*
X323643Y485418D01*
X323621Y485529D01*
X323596Y485639D01*
X323566Y485749D01*
X323533Y485857D01*
X323496Y485964D01*
X323456Y486070D01*
X323411Y486174D01*
X323363Y486277D01*
X323312Y486378D01*
X323257Y486477D01*
X323199Y486574D01*
X323137Y486669D01*
X323072Y486762D01*
X323004Y486852D01*
X322933Y486940D01*
X322858Y487026D01*
X322781Y487109D01*
X322701Y487189D01*
X322618Y487266D01*
X322532Y487341D01*
X322444Y487412D01*
X322354Y487480D01*
X322261Y487545D01*
X322166Y487607D01*
X322069Y487665D01*
X321970Y487720D01*
X321869Y487771D01*
X321766Y487819D01*
X321662Y487864D01*
X321556Y487904D01*
X321449Y487941D01*
X321341Y487974D01*
X321231Y488004D01*
X321121Y488029D01*
X321010Y488051D01*
X320898Y488068D01*
X320785Y488082D01*
X320672Y488092D01*
X320559Y488098D01*
X320446Y488100D01*
X320446Y488099D02*
X312008Y488099D01*
X312008Y495903D02*
X323692Y495903D01*
X317850Y495903D02*
X316876Y494280D01*
X316877Y494279D02*
X316830Y494206D01*
X316781Y494135D01*
X316728Y494066D01*
X316672Y493999D01*
X316613Y493935D01*
X316552Y493873D01*
X316488Y493815D01*
X316421Y493759D01*
X316352Y493707D01*
X316280Y493657D01*
X316206Y493611D01*
X316131Y493568D01*
X316053Y493529D01*
X315974Y493493D01*
X315893Y493461D01*
X315811Y493432D01*
X315728Y493407D01*
X315644Y493386D01*
X315559Y493369D01*
X315473Y493355D01*
X315387Y493346D01*
X315300Y493340D01*
X315213Y493338D01*
X315126Y493340D01*
X315039Y493346D01*
X314953Y493356D01*
X314867Y493369D01*
X314782Y493387D01*
X314698Y493408D01*
X314615Y493433D01*
X314532Y493462D01*
X314452Y493494D01*
X314373Y493530D01*
X314295Y493569D01*
X314220Y493612D01*
X314146Y493659D01*
X314075Y493708D01*
X314005Y493761D01*
X313939Y493816D01*
X313875Y493875D01*
X313813Y493936D01*
X313754Y494000D01*
X313699Y494067D01*
X313646Y494136D01*
X313596Y494208D01*
X313550Y494281D01*
X313507Y494357D01*
X313468Y494434D01*
X313432Y494513D01*
X313399Y494594D01*
X313371Y494676D01*
X313345Y494759D01*
X313324Y494843D01*
X313307Y494928D01*
X313306Y494929D02*
X313282Y495069D01*
X313262Y495211D01*
X313246Y495352D01*
X313235Y495494D01*
X313227Y495637D01*
X313223Y495779D01*
X313222Y495922D01*
X313226Y496065D01*
X313234Y496207D01*
X313246Y496349D01*
X313262Y496491D01*
X313281Y496632D01*
X313305Y496773D01*
X313332Y496913D01*
X313364Y497052D01*
X313399Y497190D01*
X313438Y497328D01*
X313481Y497464D01*
X313527Y497598D01*
X313578Y497732D01*
X313631Y497864D01*
X313689Y497994D01*
X313750Y498123D01*
X313815Y498250D01*
X313883Y498376D01*
X313955Y498499D01*
X317850Y495903D02*
X318824Y497525D01*
X318823Y497526D02*
X318870Y497599D01*
X318919Y497670D01*
X318972Y497740D01*
X319028Y497806D01*
X319087Y497870D01*
X319148Y497932D01*
X319212Y497990D01*
X319279Y498046D01*
X319348Y498098D01*
X319420Y498148D01*
X319494Y498194D01*
X319569Y498237D01*
X319647Y498276D01*
X319726Y498312D01*
X319807Y498344D01*
X319889Y498373D01*
X319972Y498398D01*
X320056Y498419D01*
X320141Y498436D01*
X320227Y498450D01*
X320314Y498459D01*
X320400Y498465D01*
X320487Y498467D01*
X320574Y498465D01*
X320661Y498459D01*
X320747Y498449D01*
X320833Y498436D01*
X320918Y498418D01*
X321002Y498397D01*
X321085Y498372D01*
X321168Y498343D01*
X321248Y498311D01*
X321327Y498275D01*
X321405Y498236D01*
X321480Y498193D01*
X321554Y498146D01*
X321625Y498097D01*
X321695Y498044D01*
X321761Y497989D01*
X321825Y497930D01*
X321887Y497869D01*
X321946Y497804D01*
X322001Y497738D01*
X322054Y497669D01*
X322104Y497597D01*
X322150Y497524D01*
X322193Y497448D01*
X322232Y497371D01*
X322268Y497292D01*
X322301Y497211D01*
X322329Y497129D01*
X322355Y497046D01*
X322376Y496962D01*
X322393Y496876D01*
X322394Y496876D02*
X322418Y496736D01*
X322438Y496594D01*
X322454Y496453D01*
X322465Y496311D01*
X322473Y496168D01*
X322477Y496026D01*
X322478Y495883D01*
X322474Y495740D01*
X322466Y495598D01*
X322454Y495456D01*
X322438Y495314D01*
X322419Y495173D01*
X322395Y495032D01*
X322368Y494892D01*
X322336Y494753D01*
X322301Y494615D01*
X322262Y494477D01*
X322219Y494341D01*
X322173Y494207D01*
X322122Y494073D01*
X322069Y493941D01*
X322011Y493811D01*
X321950Y493682D01*
X321885Y493555D01*
X321817Y493429D01*
X321745Y493306D01*
X323692Y503325D02*
X323692Y507220D01*
X323690Y507319D01*
X323684Y507419D01*
X323675Y507518D01*
X323662Y507616D01*
X323645Y507714D01*
X323624Y507812D01*
X323599Y507908D01*
X323571Y508003D01*
X323539Y508097D01*
X323504Y508190D01*
X323465Y508282D01*
X323422Y508372D01*
X323377Y508460D01*
X323327Y508547D01*
X323275Y508631D01*
X323219Y508714D01*
X323161Y508794D01*
X323099Y508872D01*
X323034Y508947D01*
X322966Y509020D01*
X322896Y509090D01*
X322823Y509158D01*
X322748Y509223D01*
X322670Y509285D01*
X322590Y509343D01*
X322507Y509399D01*
X322423Y509451D01*
X322336Y509501D01*
X322248Y509546D01*
X322158Y509589D01*
X322066Y509628D01*
X321973Y509663D01*
X321879Y509695D01*
X321784Y509723D01*
X321688Y509748D01*
X321590Y509769D01*
X321492Y509786D01*
X321394Y509799D01*
X321295Y509808D01*
X321195Y509814D01*
X321096Y509816D01*
X319797Y509816D01*
X319698Y509814D01*
X319598Y509808D01*
X319499Y509799D01*
X319401Y509786D01*
X319303Y509769D01*
X319205Y509748D01*
X319109Y509723D01*
X319014Y509695D01*
X318920Y509663D01*
X318827Y509628D01*
X318735Y509589D01*
X318645Y509546D01*
X318557Y509501D01*
X318470Y509451D01*
X318386Y509399D01*
X318303Y509343D01*
X318223Y509285D01*
X318145Y509223D01*
X318070Y509158D01*
X317997Y509090D01*
X317927Y509020D01*
X317859Y508947D01*
X317794Y508872D01*
X317732Y508794D01*
X317674Y508714D01*
X317618Y508631D01*
X317566Y508547D01*
X317516Y508460D01*
X317471Y508372D01*
X317428Y508282D01*
X317389Y508190D01*
X317354Y508097D01*
X317322Y508003D01*
X317294Y507908D01*
X317269Y507812D01*
X317248Y507714D01*
X317231Y507616D01*
X317218Y507518D01*
X317209Y507419D01*
X317203Y507319D01*
X317201Y507220D01*
X317201Y503325D01*
X312008Y503325D01*
X312008Y509816D01*
D10*
X1003300Y495300D02*
X1003300Y596900D01*
X1003300Y495300D02*
X939800Y495300D01*
X889000Y495300D02*
X838200Y495300D01*
X838200Y596900D01*
X889000Y596900D01*
X939800Y596900D02*
X1003300Y596900D01*
X889000Y495300D02*
X863600Y520700D01*
X863600Y571500D01*
X889000Y596900D01*
X939800Y596900D01*
X965200Y571500D01*
X965200Y520700D01*
X939800Y495300D01*
X889000Y495300D01*
D15*
X1006348Y536448D02*
X1014786Y536448D01*
X1014899Y536450D01*
X1015012Y536456D01*
X1015125Y536466D01*
X1015238Y536480D01*
X1015350Y536497D01*
X1015461Y536519D01*
X1015571Y536544D01*
X1015681Y536574D01*
X1015789Y536607D01*
X1015896Y536644D01*
X1016002Y536684D01*
X1016106Y536729D01*
X1016209Y536777D01*
X1016310Y536828D01*
X1016409Y536883D01*
X1016506Y536941D01*
X1016601Y537003D01*
X1016694Y537068D01*
X1016784Y537136D01*
X1016872Y537207D01*
X1016958Y537282D01*
X1017041Y537359D01*
X1017121Y537439D01*
X1017198Y537522D01*
X1017273Y537608D01*
X1017344Y537696D01*
X1017412Y537786D01*
X1017477Y537879D01*
X1017539Y537974D01*
X1017597Y538071D01*
X1017652Y538170D01*
X1017703Y538271D01*
X1017751Y538374D01*
X1017796Y538478D01*
X1017836Y538584D01*
X1017873Y538691D01*
X1017906Y538799D01*
X1017936Y538909D01*
X1017961Y539019D01*
X1017983Y539130D01*
X1018000Y539242D01*
X1018014Y539355D01*
X1018024Y539468D01*
X1018030Y539581D01*
X1018032Y539694D01*
X1018030Y539807D01*
X1018024Y539920D01*
X1018014Y540033D01*
X1018000Y540146D01*
X1017983Y540258D01*
X1017961Y540369D01*
X1017936Y540479D01*
X1017906Y540589D01*
X1017873Y540697D01*
X1017836Y540804D01*
X1017796Y540910D01*
X1017751Y541014D01*
X1017703Y541117D01*
X1017652Y541218D01*
X1017597Y541317D01*
X1017539Y541414D01*
X1017477Y541509D01*
X1017412Y541602D01*
X1017344Y541692D01*
X1017273Y541780D01*
X1017198Y541866D01*
X1017121Y541949D01*
X1017041Y542029D01*
X1016958Y542106D01*
X1016872Y542181D01*
X1016784Y542252D01*
X1016694Y542320D01*
X1016601Y542385D01*
X1016506Y542447D01*
X1016409Y542505D01*
X1016310Y542560D01*
X1016209Y542611D01*
X1016106Y542659D01*
X1016002Y542704D01*
X1015896Y542744D01*
X1015789Y542781D01*
X1015681Y542814D01*
X1015571Y542844D01*
X1015461Y542869D01*
X1015350Y542891D01*
X1015238Y542908D01*
X1015125Y542922D01*
X1015012Y542932D01*
X1014899Y542938D01*
X1014786Y542940D01*
X1014786Y542939D02*
X1006348Y542939D01*
X1006348Y550743D02*
X1018032Y550743D01*
X1012190Y550743D02*
X1011216Y549120D01*
X1011217Y549119D02*
X1011170Y549046D01*
X1011121Y548975D01*
X1011068Y548906D01*
X1011012Y548839D01*
X1010953Y548775D01*
X1010892Y548713D01*
X1010828Y548655D01*
X1010761Y548599D01*
X1010692Y548547D01*
X1010620Y548497D01*
X1010546Y548451D01*
X1010471Y548408D01*
X1010393Y548369D01*
X1010314Y548333D01*
X1010233Y548301D01*
X1010151Y548272D01*
X1010068Y548247D01*
X1009984Y548226D01*
X1009899Y548209D01*
X1009813Y548195D01*
X1009727Y548186D01*
X1009640Y548180D01*
X1009553Y548178D01*
X1009466Y548180D01*
X1009379Y548186D01*
X1009293Y548196D01*
X1009207Y548209D01*
X1009122Y548227D01*
X1009038Y548248D01*
X1008955Y548273D01*
X1008872Y548302D01*
X1008792Y548334D01*
X1008713Y548370D01*
X1008635Y548409D01*
X1008560Y548452D01*
X1008486Y548499D01*
X1008415Y548548D01*
X1008345Y548601D01*
X1008279Y548656D01*
X1008215Y548715D01*
X1008153Y548776D01*
X1008094Y548840D01*
X1008039Y548907D01*
X1007986Y548976D01*
X1007936Y549048D01*
X1007890Y549121D01*
X1007847Y549197D01*
X1007808Y549274D01*
X1007772Y549353D01*
X1007739Y549434D01*
X1007711Y549516D01*
X1007685Y549599D01*
X1007664Y549683D01*
X1007647Y549768D01*
X1007646Y549769D02*
X1007622Y549909D01*
X1007602Y550051D01*
X1007586Y550192D01*
X1007575Y550334D01*
X1007567Y550477D01*
X1007563Y550619D01*
X1007562Y550762D01*
X1007566Y550905D01*
X1007574Y551047D01*
X1007586Y551189D01*
X1007602Y551331D01*
X1007621Y551472D01*
X1007645Y551613D01*
X1007672Y551753D01*
X1007704Y551892D01*
X1007739Y552030D01*
X1007778Y552168D01*
X1007821Y552304D01*
X1007867Y552438D01*
X1007918Y552572D01*
X1007971Y552704D01*
X1008029Y552834D01*
X1008090Y552963D01*
X1008155Y553090D01*
X1008223Y553216D01*
X1008295Y553339D01*
X1012190Y550743D02*
X1013164Y552365D01*
X1013163Y552366D02*
X1013210Y552439D01*
X1013259Y552510D01*
X1013312Y552580D01*
X1013368Y552646D01*
X1013427Y552710D01*
X1013488Y552772D01*
X1013552Y552830D01*
X1013619Y552886D01*
X1013688Y552938D01*
X1013760Y552988D01*
X1013834Y553034D01*
X1013909Y553077D01*
X1013987Y553116D01*
X1014066Y553152D01*
X1014147Y553184D01*
X1014229Y553213D01*
X1014312Y553238D01*
X1014396Y553259D01*
X1014481Y553276D01*
X1014567Y553290D01*
X1014654Y553299D01*
X1014740Y553305D01*
X1014827Y553307D01*
X1014914Y553305D01*
X1015001Y553299D01*
X1015087Y553289D01*
X1015173Y553276D01*
X1015258Y553258D01*
X1015342Y553237D01*
X1015425Y553212D01*
X1015508Y553183D01*
X1015588Y553151D01*
X1015667Y553115D01*
X1015745Y553076D01*
X1015820Y553033D01*
X1015894Y552986D01*
X1015965Y552937D01*
X1016035Y552884D01*
X1016101Y552829D01*
X1016165Y552770D01*
X1016227Y552709D01*
X1016286Y552644D01*
X1016341Y552578D01*
X1016394Y552509D01*
X1016444Y552437D01*
X1016490Y552364D01*
X1016533Y552288D01*
X1016572Y552211D01*
X1016608Y552132D01*
X1016641Y552051D01*
X1016669Y551969D01*
X1016695Y551886D01*
X1016716Y551802D01*
X1016733Y551716D01*
X1016734Y551716D02*
X1016758Y551576D01*
X1016778Y551434D01*
X1016794Y551293D01*
X1016805Y551151D01*
X1016813Y551008D01*
X1016817Y550866D01*
X1016818Y550723D01*
X1016814Y550580D01*
X1016806Y550438D01*
X1016794Y550296D01*
X1016778Y550154D01*
X1016759Y550013D01*
X1016735Y549872D01*
X1016708Y549732D01*
X1016676Y549593D01*
X1016641Y549455D01*
X1016602Y549317D01*
X1016559Y549181D01*
X1016513Y549047D01*
X1016462Y548913D01*
X1016409Y548781D01*
X1016351Y548651D01*
X1016290Y548522D01*
X1016225Y548395D01*
X1016157Y548269D01*
X1016085Y548146D01*
X1011541Y558165D02*
X1011541Y562060D01*
X1011543Y562159D01*
X1011549Y562259D01*
X1011558Y562358D01*
X1011571Y562456D01*
X1011588Y562554D01*
X1011609Y562652D01*
X1011634Y562748D01*
X1011662Y562843D01*
X1011694Y562937D01*
X1011729Y563030D01*
X1011768Y563122D01*
X1011811Y563212D01*
X1011856Y563300D01*
X1011906Y563387D01*
X1011958Y563471D01*
X1012014Y563554D01*
X1012072Y563634D01*
X1012134Y563712D01*
X1012199Y563787D01*
X1012267Y563860D01*
X1012337Y563930D01*
X1012410Y563998D01*
X1012485Y564063D01*
X1012563Y564125D01*
X1012643Y564183D01*
X1012726Y564239D01*
X1012810Y564291D01*
X1012897Y564341D01*
X1012985Y564386D01*
X1013075Y564429D01*
X1013167Y564468D01*
X1013260Y564503D01*
X1013354Y564535D01*
X1013449Y564563D01*
X1013545Y564588D01*
X1013643Y564609D01*
X1013741Y564626D01*
X1013839Y564639D01*
X1013938Y564648D01*
X1014038Y564654D01*
X1014137Y564656D01*
X1014786Y564656D01*
X1014786Y564657D02*
X1014899Y564655D01*
X1015012Y564649D01*
X1015125Y564639D01*
X1015238Y564625D01*
X1015350Y564608D01*
X1015461Y564586D01*
X1015571Y564561D01*
X1015681Y564531D01*
X1015789Y564498D01*
X1015896Y564461D01*
X1016002Y564421D01*
X1016106Y564376D01*
X1016209Y564328D01*
X1016310Y564277D01*
X1016409Y564222D01*
X1016506Y564164D01*
X1016601Y564102D01*
X1016694Y564037D01*
X1016784Y563969D01*
X1016872Y563898D01*
X1016958Y563823D01*
X1017041Y563746D01*
X1017121Y563666D01*
X1017198Y563583D01*
X1017273Y563497D01*
X1017344Y563409D01*
X1017412Y563319D01*
X1017477Y563226D01*
X1017539Y563131D01*
X1017597Y563034D01*
X1017652Y562935D01*
X1017703Y562834D01*
X1017751Y562731D01*
X1017796Y562627D01*
X1017836Y562521D01*
X1017873Y562414D01*
X1017906Y562306D01*
X1017936Y562196D01*
X1017961Y562086D01*
X1017983Y561975D01*
X1018000Y561863D01*
X1018014Y561750D01*
X1018024Y561637D01*
X1018030Y561524D01*
X1018032Y561411D01*
X1018030Y561298D01*
X1018024Y561185D01*
X1018014Y561072D01*
X1018000Y560959D01*
X1017983Y560847D01*
X1017961Y560736D01*
X1017936Y560626D01*
X1017906Y560516D01*
X1017873Y560408D01*
X1017836Y560301D01*
X1017796Y560195D01*
X1017751Y560091D01*
X1017703Y559988D01*
X1017652Y559887D01*
X1017597Y559788D01*
X1017539Y559691D01*
X1017477Y559596D01*
X1017412Y559503D01*
X1017344Y559413D01*
X1017273Y559325D01*
X1017198Y559239D01*
X1017121Y559156D01*
X1017041Y559076D01*
X1016958Y558999D01*
X1016872Y558924D01*
X1016784Y558853D01*
X1016694Y558785D01*
X1016601Y558720D01*
X1016506Y558658D01*
X1016409Y558600D01*
X1016310Y558545D01*
X1016209Y558494D01*
X1016106Y558446D01*
X1016002Y558401D01*
X1015896Y558361D01*
X1015789Y558324D01*
X1015681Y558291D01*
X1015571Y558261D01*
X1015461Y558236D01*
X1015350Y558214D01*
X1015238Y558197D01*
X1015125Y558183D01*
X1015012Y558173D01*
X1014899Y558167D01*
X1014786Y558165D01*
X1011541Y558165D01*
X1011398Y558167D01*
X1011255Y558173D01*
X1011112Y558183D01*
X1010970Y558197D01*
X1010828Y558214D01*
X1010686Y558236D01*
X1010545Y558261D01*
X1010405Y558291D01*
X1010266Y558324D01*
X1010128Y558361D01*
X1009991Y558402D01*
X1009855Y558446D01*
X1009720Y558495D01*
X1009587Y558547D01*
X1009455Y558602D01*
X1009325Y558662D01*
X1009196Y558725D01*
X1009069Y558791D01*
X1008945Y558861D01*
X1008822Y558934D01*
X1008701Y559011D01*
X1008582Y559090D01*
X1008466Y559174D01*
X1008351Y559260D01*
X1008240Y559349D01*
X1008131Y559442D01*
X1008024Y559537D01*
X1007920Y559636D01*
X1007819Y559737D01*
X1007720Y559841D01*
X1007625Y559947D01*
X1007532Y560057D01*
X1007443Y560168D01*
X1007357Y560282D01*
X1007274Y560399D01*
X1007194Y560518D01*
X1007117Y560639D01*
X1007044Y560761D01*
X1006974Y560886D01*
X1006908Y561013D01*
X1006845Y561142D01*
X1006785Y561272D01*
X1006730Y561404D01*
X1006678Y561537D01*
X1006629Y561672D01*
X1006585Y561808D01*
X1006544Y561945D01*
X1006507Y562083D01*
X1006474Y562222D01*
X1006444Y562362D01*
X1006419Y562503D01*
X1006397Y562645D01*
X1006380Y562787D01*
X1006366Y562929D01*
X1006356Y563072D01*
X1006350Y563215D01*
X1006348Y563358D01*
M02*
