M48
;GenerationSoftware,Autodesk,EAGLE,9.4.0*%
;CreationDate,2019-05-14T18:42:24Z*%
FMAT,2
ICI,OFF
METRIC,TZ,000.000
T7C0.350
T6C1.000
T5C1.100
T4C1.190
T3C1.700
T2C1.770
T1C2.990
%
G90
M71
T1
X7643Y48548
X122453Y48423
X97053Y48423
X97053Y13603
X122453Y13603
X7643Y13468
X28983Y13468
X28983Y48548
T2
X22873Y24343
X22873Y28788
X13753Y28788
X13753Y24343
X13753Y19898
X13753Y42128
X13753Y33238
X22873Y19898
X13753Y37683
X22873Y42128
X22873Y37683
X22873Y33238
T3
X39663Y19473
X39663Y9473
X39663Y14473
X39663Y4473
T4
X106198Y41488
X113308Y41488
X113308Y37298
X113308Y33108
X113308Y28918
X113308Y24728
X113308Y20538
X106198Y20538
X106198Y24728
X106198Y28918
X106198Y33108
X106198Y37298
T5
X69103Y13223
X69103Y10683
X69103Y8143
X69103Y5603
X69103Y3063
X89433Y20853
X89433Y23393
X89433Y25933
X89433Y28473
X89433Y31013
X89433Y33553
X89433Y36093
X89433Y38633
X89433Y41173
X89433Y43713
X89433Y46253
X89433Y48793
X89433Y51333
X89433Y53873
X89433Y56413
X74193Y56413
X74193Y53873
X74193Y51333
X74193Y48793
X74193Y46253
X74193Y43713
X74193Y41173
X74193Y38633
X74193Y36093
X74193Y33553
X74193Y28473
X74193Y25933
X74193Y23393
X74193Y20853
X74193Y31013
X69103Y20843
X69103Y18303
X69103Y15763
T6
X76733Y9423
X76733Y4343
X76733Y6883
T7
X53873Y16535
X81813Y23393
X85623Y23393
X53873Y26314
X53873Y38633
X69113Y41173
X69113Y53873
X23393Y15773
X84353Y39903
X86893Y28473
X61493Y39903
X62763Y53873
X47269Y34315
X52857Y50063
X46253Y30632
X71653Y18313
X71653Y29743
X85623Y33553
X75463Y14503
X76733Y13233
X85623Y31013
X78003Y50063
X71783Y56543
X70383Y24663
X75463Y24663
X85623Y53873
X85623Y56413
X48539Y31521
X61493Y50063
X49301Y32664
X62763Y48793
X74867Y2858
X33233Y24343
X36093Y27203
X59715Y34569
X45110Y35204
X47523Y27965
X71783Y44983
X46253Y27203
X46253Y24663
X62763Y27838
X60223Y36093
X46253Y25933
X59715Y30378
X74955Y10185
X52984Y56413
X74994Y6883
X69621Y28473
X67589Y4343
X71018Y2858
X54635Y29743
X53111Y29743
X54635Y31013
X53111Y31013
X72923Y17043
X53111Y32283
X54635Y33553
X53111Y33553
X54635Y34823
X53111Y34823
X48793Y27203
X70383Y31013
X54635Y32283
M30