G04 EAGLE Gerber X2 export*
%TF.Part,Single*%
%TF.FileFunction,Copper,L1,Top,Mixed*%
%TF.FilePolarity,Positive*%
%TF.GenerationSoftware,Autodesk,EAGLE,9.1.2*%
%TF.CreationDate,2018-08-08T23:13:48Z*%
G75*
%MOMM*%
%FSLAX34Y34*%
%LPD*%
%AMOC8*
5,1,8,0,0,1.08239X$1,22.5*%
G01*
%ADD10C,0.152400*%
%ADD11R,1.785000X1.785000*%
%ADD12C,1.785000*%
%ADD13C,2.655000*%
%ADD14R,2.655000X2.655000*%
%ADD15C,1.530000*%
%ADD16C,3.196000*%
%ADD17C,1.524000*%
%ADD18C,0.609600*%
%ADD19C,2.540000*%

G36*
X344280Y35564D02*
X344280Y35564D01*
X344318Y35562D01*
X344526Y35584D01*
X344733Y35601D01*
X344770Y35610D01*
X344808Y35614D01*
X345010Y35669D01*
X345212Y35719D01*
X345247Y35734D01*
X345284Y35745D01*
X345474Y35832D01*
X345666Y35914D01*
X345698Y35934D01*
X345732Y35950D01*
X345906Y36067D01*
X346082Y36179D01*
X346110Y36204D01*
X346142Y36226D01*
X346294Y36369D01*
X346450Y36508D01*
X346474Y36537D01*
X346501Y36563D01*
X346629Y36730D01*
X346760Y36892D01*
X346778Y36924D01*
X346802Y36955D01*
X346901Y37139D01*
X347004Y37320D01*
X347017Y37356D01*
X347035Y37390D01*
X347102Y37587D01*
X347175Y37783D01*
X347182Y37820D01*
X347195Y37856D01*
X347230Y38063D01*
X347270Y38267D01*
X347271Y38305D01*
X347277Y38343D01*
X347279Y38552D01*
X347285Y38760D01*
X347280Y38798D01*
X347280Y38836D01*
X347248Y39043D01*
X347221Y39249D01*
X347210Y39286D01*
X347204Y39323D01*
X347139Y39522D01*
X347078Y39721D01*
X347061Y39756D01*
X347050Y39792D01*
X346953Y39977D01*
X346861Y40165D01*
X346839Y40196D01*
X346822Y40230D01*
X346764Y40302D01*
X346576Y40567D01*
X346455Y40689D01*
X346396Y40763D01*
X344046Y43113D01*
X341953Y48166D01*
X341953Y53634D01*
X344046Y58687D01*
X346804Y61445D01*
X346854Y61503D01*
X346909Y61555D01*
X347013Y61691D01*
X347124Y61821D01*
X347163Y61887D01*
X347210Y61947D01*
X347290Y62097D01*
X347378Y62244D01*
X347407Y62314D01*
X347443Y62382D01*
X347498Y62543D01*
X347562Y62702D01*
X347578Y62776D01*
X347603Y62848D01*
X347631Y63017D01*
X347668Y63183D01*
X347673Y63260D01*
X347685Y63335D01*
X347686Y63506D01*
X347696Y63676D01*
X347688Y63752D01*
X347688Y63828D01*
X347662Y63997D01*
X347644Y64167D01*
X347624Y64240D01*
X347612Y64315D01*
X347558Y64478D01*
X347513Y64642D01*
X347481Y64712D01*
X347458Y64784D01*
X347379Y64936D01*
X347307Y65091D01*
X347265Y65154D01*
X347230Y65222D01*
X347164Y65304D01*
X347032Y65500D01*
X346870Y65672D01*
X346804Y65755D01*
X344046Y68513D01*
X341953Y73566D01*
X341953Y79034D01*
X344046Y84087D01*
X346804Y86845D01*
X346854Y86903D01*
X346909Y86955D01*
X347013Y87091D01*
X347124Y87221D01*
X347163Y87287D01*
X347210Y87347D01*
X347290Y87497D01*
X347378Y87644D01*
X347407Y87714D01*
X347443Y87782D01*
X347498Y87943D01*
X347562Y88102D01*
X347578Y88176D01*
X347603Y88248D01*
X347631Y88417D01*
X347668Y88583D01*
X347673Y88660D01*
X347685Y88735D01*
X347686Y88906D01*
X347696Y89076D01*
X347688Y89152D01*
X347688Y89228D01*
X347662Y89397D01*
X347644Y89567D01*
X347624Y89640D01*
X347612Y89715D01*
X347558Y89878D01*
X347513Y90042D01*
X347481Y90112D01*
X347458Y90184D01*
X347379Y90336D01*
X347307Y90491D01*
X347265Y90554D01*
X347230Y90622D01*
X347164Y90704D01*
X347032Y90900D01*
X346870Y91072D01*
X346804Y91155D01*
X344046Y93913D01*
X341953Y98966D01*
X341953Y104434D01*
X344046Y109487D01*
X346804Y112245D01*
X346854Y112303D01*
X346909Y112355D01*
X347013Y112491D01*
X347124Y112621D01*
X347163Y112687D01*
X347210Y112747D01*
X347290Y112897D01*
X347378Y113044D01*
X347407Y113114D01*
X347443Y113182D01*
X347498Y113343D01*
X347562Y113502D01*
X347578Y113576D01*
X347603Y113648D01*
X347631Y113817D01*
X347668Y113983D01*
X347673Y114060D01*
X347685Y114135D01*
X347686Y114306D01*
X347696Y114476D01*
X347688Y114552D01*
X347688Y114628D01*
X347662Y114797D01*
X347644Y114967D01*
X347624Y115040D01*
X347612Y115115D01*
X347558Y115278D01*
X347513Y115442D01*
X347481Y115512D01*
X347458Y115584D01*
X347379Y115736D01*
X347307Y115891D01*
X347265Y115954D01*
X347230Y116022D01*
X347164Y116104D01*
X347032Y116300D01*
X346870Y116472D01*
X346804Y116555D01*
X344046Y119313D01*
X341953Y124366D01*
X341953Y129834D01*
X344046Y134887D01*
X346804Y137645D01*
X346854Y137703D01*
X346909Y137755D01*
X347013Y137891D01*
X347124Y138021D01*
X347163Y138087D01*
X347210Y138147D01*
X347290Y138297D01*
X347378Y138444D01*
X347407Y138514D01*
X347443Y138582D01*
X347498Y138743D01*
X347562Y138902D01*
X347578Y138976D01*
X347603Y139048D01*
X347631Y139217D01*
X347668Y139383D01*
X347673Y139460D01*
X347685Y139535D01*
X347686Y139706D01*
X347696Y139876D01*
X347688Y139952D01*
X347688Y140028D01*
X347662Y140197D01*
X347644Y140367D01*
X347624Y140440D01*
X347612Y140515D01*
X347558Y140678D01*
X347513Y140842D01*
X347481Y140912D01*
X347458Y140984D01*
X347379Y141136D01*
X347307Y141291D01*
X347265Y141354D01*
X347230Y141422D01*
X347164Y141504D01*
X347032Y141700D01*
X346870Y141872D01*
X346804Y141955D01*
X344046Y144713D01*
X341953Y149766D01*
X341953Y155234D01*
X344046Y160287D01*
X346804Y163045D01*
X346854Y163103D01*
X346909Y163155D01*
X347013Y163291D01*
X347124Y163421D01*
X347163Y163487D01*
X347210Y163547D01*
X347290Y163697D01*
X347378Y163844D01*
X347407Y163914D01*
X347443Y163982D01*
X347498Y164143D01*
X347562Y164302D01*
X347578Y164376D01*
X347603Y164448D01*
X347631Y164617D01*
X347668Y164783D01*
X347673Y164860D01*
X347685Y164935D01*
X347686Y165106D01*
X347696Y165276D01*
X347688Y165352D01*
X347688Y165428D01*
X347662Y165597D01*
X347644Y165767D01*
X347624Y165840D01*
X347612Y165915D01*
X347558Y166078D01*
X347513Y166242D01*
X347481Y166312D01*
X347458Y166384D01*
X347379Y166536D01*
X347307Y166691D01*
X347265Y166754D01*
X347230Y166822D01*
X347164Y166904D01*
X347032Y167100D01*
X346870Y167272D01*
X346804Y167355D01*
X344046Y170113D01*
X341953Y175166D01*
X341953Y180634D01*
X344046Y185687D01*
X346804Y188445D01*
X346854Y188503D01*
X346909Y188555D01*
X347013Y188691D01*
X347124Y188821D01*
X347163Y188887D01*
X347210Y188947D01*
X347290Y189097D01*
X347378Y189244D01*
X347407Y189314D01*
X347443Y189382D01*
X347498Y189543D01*
X347562Y189702D01*
X347578Y189776D01*
X347603Y189848D01*
X347631Y190017D01*
X347668Y190183D01*
X347673Y190260D01*
X347685Y190335D01*
X347686Y190506D01*
X347696Y190676D01*
X347688Y190752D01*
X347688Y190828D01*
X347662Y190997D01*
X347644Y191167D01*
X347624Y191240D01*
X347612Y191315D01*
X347558Y191478D01*
X347513Y191642D01*
X347481Y191712D01*
X347458Y191784D01*
X347379Y191936D01*
X347307Y192091D01*
X347265Y192154D01*
X347230Y192222D01*
X347164Y192304D01*
X347032Y192500D01*
X346870Y192672D01*
X346804Y192755D01*
X344046Y195513D01*
X341953Y200566D01*
X341953Y206034D01*
X344046Y211087D01*
X346804Y213845D01*
X346854Y213903D01*
X346909Y213955D01*
X347013Y214091D01*
X347124Y214221D01*
X347163Y214287D01*
X347210Y214347D01*
X347290Y214497D01*
X347378Y214644D01*
X347407Y214714D01*
X347443Y214782D01*
X347498Y214943D01*
X347562Y215102D01*
X347578Y215176D01*
X347603Y215248D01*
X347631Y215417D01*
X347668Y215583D01*
X347673Y215660D01*
X347685Y215735D01*
X347686Y215906D01*
X347696Y216076D01*
X347688Y216152D01*
X347688Y216228D01*
X347662Y216397D01*
X347644Y216567D01*
X347624Y216640D01*
X347612Y216715D01*
X347558Y216878D01*
X347513Y217042D01*
X347481Y217112D01*
X347458Y217184D01*
X347379Y217336D01*
X347307Y217491D01*
X347265Y217554D01*
X347230Y217622D01*
X347164Y217704D01*
X347032Y217900D01*
X346870Y218072D01*
X346804Y218155D01*
X344046Y220913D01*
X341953Y225966D01*
X341953Y231434D01*
X344046Y236487D01*
X346804Y239245D01*
X346854Y239303D01*
X346909Y239355D01*
X347013Y239491D01*
X347124Y239621D01*
X347163Y239687D01*
X347210Y239747D01*
X347290Y239897D01*
X347378Y240044D01*
X347407Y240114D01*
X347443Y240182D01*
X347498Y240343D01*
X347562Y240502D01*
X347578Y240576D01*
X347603Y240648D01*
X347631Y240817D01*
X347668Y240983D01*
X347673Y241060D01*
X347685Y241135D01*
X347686Y241306D01*
X347696Y241476D01*
X347688Y241552D01*
X347688Y241628D01*
X347662Y241797D01*
X347644Y241967D01*
X347624Y242040D01*
X347612Y242115D01*
X347558Y242278D01*
X347513Y242442D01*
X347481Y242512D01*
X347458Y242584D01*
X347379Y242736D01*
X347307Y242891D01*
X347265Y242954D01*
X347230Y243022D01*
X347164Y243104D01*
X347032Y243300D01*
X346870Y243472D01*
X346804Y243555D01*
X344046Y246313D01*
X341953Y251366D01*
X341953Y254361D01*
X341947Y254437D01*
X341949Y254513D01*
X341927Y254682D01*
X341913Y254853D01*
X341895Y254927D01*
X341885Y255002D01*
X341836Y255166D01*
X341795Y255332D01*
X341765Y255401D01*
X341743Y255475D01*
X341667Y255628D01*
X341600Y255785D01*
X341559Y255849D01*
X341526Y255918D01*
X341427Y256057D01*
X341335Y256201D01*
X341284Y256258D01*
X341240Y256320D01*
X341120Y256441D01*
X341006Y256569D01*
X340947Y256617D01*
X340893Y256671D01*
X340755Y256772D01*
X340622Y256879D01*
X340556Y256916D01*
X340495Y256961D01*
X340342Y257038D01*
X340194Y257123D01*
X340122Y257149D01*
X340054Y257184D01*
X339891Y257235D01*
X339731Y257294D01*
X339656Y257309D01*
X339584Y257332D01*
X339479Y257344D01*
X339247Y257389D01*
X339011Y257396D01*
X338906Y257408D01*
X208730Y257408D01*
X208588Y257397D01*
X208445Y257395D01*
X208342Y257377D01*
X208238Y257368D01*
X208100Y257334D01*
X207959Y257309D01*
X207861Y257275D01*
X207759Y257250D01*
X207628Y257193D01*
X207494Y257146D01*
X207402Y257096D01*
X207306Y257055D01*
X207186Y256979D01*
X207060Y256910D01*
X206978Y256846D01*
X206890Y256790D01*
X206784Y256695D01*
X206671Y256608D01*
X206600Y256531D01*
X206522Y256461D01*
X206432Y256350D01*
X206335Y256246D01*
X206277Y256159D01*
X206212Y256077D01*
X206141Y255954D01*
X206063Y255835D01*
X206019Y255739D01*
X205968Y255649D01*
X205918Y255515D01*
X205860Y255385D01*
X205833Y255284D01*
X205796Y255186D01*
X205769Y255046D01*
X205732Y254909D01*
X205722Y254805D01*
X205702Y254702D01*
X205697Y254560D01*
X205683Y254418D01*
X205689Y254313D01*
X205686Y254209D01*
X205705Y254068D01*
X205714Y253925D01*
X205737Y253824D01*
X205751Y253720D01*
X205792Y253583D01*
X205824Y253444D01*
X205863Y253348D01*
X205893Y253248D01*
X205956Y253119D01*
X206010Y252987D01*
X206064Y252898D01*
X206110Y252804D01*
X206192Y252688D01*
X206267Y252567D01*
X206335Y252487D01*
X206395Y252402D01*
X206496Y252301D01*
X206589Y252193D01*
X206669Y252125D01*
X206742Y252051D01*
X206857Y251967D01*
X206967Y251876D01*
X207035Y251838D01*
X207141Y251761D01*
X207528Y251565D01*
X207564Y251546D01*
X209159Y250885D01*
X213385Y246659D01*
X215672Y241138D01*
X215672Y235162D01*
X213385Y229641D01*
X209159Y225415D01*
X203638Y223128D01*
X197662Y223128D01*
X192141Y225415D01*
X187915Y229641D01*
X185628Y235162D01*
X185628Y241138D01*
X187915Y246659D01*
X192141Y250885D01*
X193736Y251546D01*
X193864Y251611D01*
X193994Y251667D01*
X194082Y251723D01*
X194175Y251771D01*
X194290Y251856D01*
X194410Y251932D01*
X194488Y252002D01*
X194572Y252064D01*
X194672Y252166D01*
X194778Y252261D01*
X194844Y252342D01*
X194917Y252417D01*
X194999Y252534D01*
X195088Y252645D01*
X195140Y252735D01*
X195200Y252821D01*
X195262Y252949D01*
X195332Y253073D01*
X195369Y253171D01*
X195414Y253266D01*
X195454Y253402D01*
X195504Y253536D01*
X195524Y253638D01*
X195553Y253739D01*
X195571Y253880D01*
X195598Y254020D01*
X195602Y254124D01*
X195615Y254228D01*
X195609Y254371D01*
X195614Y254513D01*
X195600Y254617D01*
X195596Y254721D01*
X195568Y254861D01*
X195549Y255002D01*
X195519Y255102D01*
X195498Y255205D01*
X195448Y255338D01*
X195407Y255475D01*
X195361Y255568D01*
X195324Y255666D01*
X195253Y255790D01*
X195190Y255918D01*
X195130Y256003D01*
X195077Y256093D01*
X194987Y256204D01*
X194905Y256320D01*
X194831Y256394D01*
X194765Y256475D01*
X194658Y256570D01*
X194558Y256671D01*
X194473Y256732D01*
X194395Y256802D01*
X194274Y256877D01*
X194159Y256961D01*
X194066Y257008D01*
X193977Y257064D01*
X193846Y257119D01*
X193719Y257184D01*
X193619Y257215D01*
X193523Y257256D01*
X193384Y257289D01*
X193248Y257332D01*
X193170Y257341D01*
X193043Y257371D01*
X192610Y257404D01*
X192570Y257408D01*
X138240Y257408D01*
X134879Y258800D01*
X129544Y264136D01*
X129457Y264210D01*
X129377Y264291D01*
X129269Y264369D01*
X129168Y264455D01*
X129070Y264514D01*
X128978Y264581D01*
X128860Y264641D01*
X128745Y264710D01*
X128639Y264752D01*
X128537Y264804D01*
X128411Y264844D01*
X128287Y264893D01*
X128176Y264918D01*
X128067Y264952D01*
X127973Y264962D01*
X127806Y265000D01*
X127481Y265018D01*
X127389Y265028D01*
X126562Y265028D01*
X121041Y267315D01*
X116815Y271541D01*
X114528Y277062D01*
X114528Y283038D01*
X116815Y288559D01*
X121041Y292785D01*
X126562Y295072D01*
X132538Y295072D01*
X138059Y292785D01*
X142285Y288559D01*
X144572Y283038D01*
X144572Y278745D01*
X144578Y278669D01*
X144576Y278593D01*
X144598Y278424D01*
X144612Y278253D01*
X144630Y278179D01*
X144640Y278104D01*
X144689Y277940D01*
X144730Y277774D01*
X144760Y277705D01*
X144782Y277631D01*
X144858Y277478D01*
X144925Y277321D01*
X144966Y277257D01*
X144999Y277188D01*
X145098Y277049D01*
X145190Y276905D01*
X145241Y276848D01*
X145285Y276786D01*
X145405Y276665D01*
X145519Y276537D01*
X145578Y276489D01*
X145632Y276435D01*
X145770Y276334D01*
X145903Y276227D01*
X145969Y276190D01*
X146030Y276145D01*
X146183Y276068D01*
X146331Y275983D01*
X146403Y275957D01*
X146471Y275922D01*
X146634Y275871D01*
X146794Y275812D01*
X146869Y275797D01*
X146941Y275774D01*
X147046Y275762D01*
X147278Y275717D01*
X147514Y275710D01*
X147619Y275698D01*
X182581Y275698D01*
X182657Y275704D01*
X182733Y275702D01*
X182902Y275724D01*
X183073Y275738D01*
X183147Y275756D01*
X183222Y275766D01*
X183386Y275815D01*
X183552Y275856D01*
X183621Y275886D01*
X183695Y275908D01*
X183848Y275984D01*
X184005Y276051D01*
X184069Y276092D01*
X184138Y276125D01*
X184277Y276224D01*
X184421Y276316D01*
X184478Y276367D01*
X184540Y276411D01*
X184661Y276531D01*
X184789Y276645D01*
X184837Y276704D01*
X184891Y276758D01*
X184992Y276896D01*
X185099Y277029D01*
X185136Y277095D01*
X185181Y277156D01*
X185258Y277309D01*
X185343Y277457D01*
X185369Y277529D01*
X185404Y277597D01*
X185455Y277760D01*
X185514Y277920D01*
X185529Y277995D01*
X185552Y278067D01*
X185564Y278172D01*
X185609Y278404D01*
X185616Y278640D01*
X185628Y278745D01*
X185628Y283038D01*
X187915Y288559D01*
X192141Y292785D01*
X197662Y295072D01*
X199643Y295072D01*
X199665Y295074D01*
X199688Y295072D01*
X199910Y295093D01*
X200134Y295112D01*
X200156Y295117D01*
X200179Y295119D01*
X200395Y295176D01*
X200613Y295230D01*
X200634Y295239D01*
X200656Y295245D01*
X200861Y295337D01*
X201067Y295425D01*
X201086Y295437D01*
X201106Y295446D01*
X201294Y295570D01*
X201483Y295690D01*
X201499Y295705D01*
X201518Y295717D01*
X201570Y295768D01*
X201851Y296019D01*
X201944Y296134D01*
X202005Y296195D01*
X206745Y302014D01*
X206879Y302208D01*
X207012Y302398D01*
X207018Y302410D01*
X207025Y302420D01*
X207124Y302630D01*
X207226Y302843D01*
X207230Y302855D01*
X207235Y302867D01*
X207299Y303091D01*
X207366Y303316D01*
X207367Y303329D01*
X207371Y303341D01*
X207398Y303573D01*
X207427Y303806D01*
X207426Y303818D01*
X207428Y303831D01*
X207417Y304065D01*
X207408Y304299D01*
X207406Y304311D01*
X207405Y304324D01*
X207357Y304553D01*
X207311Y304782D01*
X207306Y304794D01*
X207303Y304807D01*
X207219Y305025D01*
X207136Y305244D01*
X207130Y305255D01*
X207125Y305267D01*
X207006Y305469D01*
X206889Y305671D01*
X206881Y305681D01*
X206875Y305692D01*
X206726Y305871D01*
X206577Y306053D01*
X206567Y306061D01*
X206559Y306071D01*
X206382Y306224D01*
X206207Y306379D01*
X206196Y306386D01*
X206187Y306394D01*
X205987Y306517D01*
X205789Y306641D01*
X205777Y306646D01*
X205767Y306653D01*
X205551Y306742D01*
X205335Y306833D01*
X205322Y306836D01*
X205310Y306841D01*
X205083Y306894D01*
X204855Y306949D01*
X204842Y306950D01*
X204830Y306953D01*
X204598Y306968D01*
X204363Y306986D01*
X204350Y306984D01*
X204338Y306985D01*
X204107Y306963D01*
X203872Y306942D01*
X203861Y306939D01*
X203847Y306938D01*
X203809Y306928D01*
X197662Y306928D01*
X192141Y309215D01*
X187915Y313441D01*
X185628Y318962D01*
X185628Y324938D01*
X187915Y330459D01*
X192141Y334685D01*
X197662Y336972D01*
X203638Y336972D01*
X209159Y334685D01*
X213385Y330459D01*
X215672Y324938D01*
X215672Y321540D01*
X215687Y321348D01*
X215696Y321155D01*
X215707Y321102D01*
X215712Y321048D01*
X215758Y320861D01*
X215798Y320672D01*
X215817Y320622D01*
X215830Y320570D01*
X215907Y320392D01*
X215976Y320212D01*
X216004Y320166D01*
X216025Y320116D01*
X216129Y319953D01*
X216227Y319787D01*
X216261Y319745D01*
X216290Y319700D01*
X216418Y319556D01*
X216542Y319408D01*
X216583Y319372D01*
X216619Y319332D01*
X216769Y319211D01*
X216915Y319084D01*
X216961Y319056D01*
X217003Y319022D01*
X217170Y318927D01*
X217335Y318825D01*
X217385Y318805D01*
X217431Y318778D01*
X217612Y318711D01*
X217791Y318638D01*
X217843Y318625D01*
X217894Y318607D01*
X218083Y318570D01*
X218272Y318526D01*
X218325Y318522D01*
X218378Y318512D01*
X218571Y318506D01*
X218764Y318493D01*
X218817Y318498D01*
X218871Y318497D01*
X219063Y318522D01*
X219255Y318540D01*
X219307Y318554D01*
X219360Y318561D01*
X219545Y318617D01*
X219732Y318666D01*
X219781Y318688D01*
X219832Y318704D01*
X220006Y318788D01*
X220182Y318867D01*
X220227Y318897D01*
X220276Y318920D01*
X220433Y319032D01*
X220595Y319138D01*
X220625Y319169D01*
X220678Y319206D01*
X221029Y319553D01*
X221058Y319592D01*
X221082Y319616D01*
X322034Y443562D01*
X322108Y443669D01*
X322189Y443770D01*
X322247Y443871D01*
X322314Y443968D01*
X322369Y444086D01*
X322433Y444198D01*
X322474Y444308D01*
X322524Y444414D01*
X322560Y444539D01*
X322605Y444661D01*
X322627Y444776D01*
X322660Y444889D01*
X322675Y445018D01*
X322700Y445145D01*
X322703Y445262D01*
X322717Y445379D01*
X322711Y445509D01*
X322715Y445638D01*
X322700Y445754D01*
X322694Y445872D01*
X322668Y445999D01*
X322651Y446127D01*
X322617Y446240D01*
X322592Y446354D01*
X322546Y446475D01*
X322508Y446600D01*
X322456Y446705D01*
X322414Y446814D01*
X322348Y446926D01*
X322291Y447043D01*
X322223Y447138D01*
X322164Y447239D01*
X322081Y447339D01*
X322006Y447445D01*
X321923Y447528D01*
X321848Y447619D01*
X321750Y447704D01*
X321659Y447796D01*
X321564Y447865D01*
X321476Y447942D01*
X321365Y448010D01*
X321260Y448086D01*
X321156Y448139D01*
X321056Y448201D01*
X320936Y448250D01*
X320820Y448309D01*
X320708Y448344D01*
X320600Y448389D01*
X320473Y448418D01*
X320349Y448457D01*
X320264Y448467D01*
X320119Y448500D01*
X319743Y448525D01*
X319672Y448533D01*
X218719Y448533D01*
X218643Y448527D01*
X218567Y448529D01*
X218398Y448507D01*
X218227Y448493D01*
X218153Y448475D01*
X218078Y448465D01*
X217914Y448416D01*
X217748Y448375D01*
X217679Y448345D01*
X217605Y448323D01*
X217452Y448247D01*
X217295Y448180D01*
X217231Y448139D01*
X217162Y448106D01*
X217023Y448007D01*
X216879Y447915D01*
X216822Y447864D01*
X216760Y447820D01*
X216639Y447700D01*
X216511Y447586D01*
X216463Y447527D01*
X216409Y447473D01*
X216308Y447335D01*
X216201Y447202D01*
X216164Y447136D01*
X216119Y447075D01*
X216042Y446922D01*
X215957Y446774D01*
X215931Y446702D01*
X215896Y446634D01*
X215845Y446471D01*
X215786Y446311D01*
X215771Y446236D01*
X215748Y446164D01*
X215736Y446059D01*
X215691Y445827D01*
X215684Y445591D01*
X215672Y445486D01*
X215672Y437512D01*
X214744Y435271D01*
X213029Y433556D01*
X210788Y432628D01*
X190512Y432628D01*
X188271Y433556D01*
X186556Y435271D01*
X185628Y437512D01*
X185628Y457788D01*
X186745Y460484D01*
X186800Y460655D01*
X186863Y460825D01*
X186876Y460890D01*
X186896Y460953D01*
X186923Y461132D01*
X186958Y461309D01*
X186960Y461375D01*
X186970Y461441D01*
X186968Y461622D01*
X186973Y461802D01*
X186965Y461868D01*
X186964Y461935D01*
X186932Y462112D01*
X186909Y462291D01*
X186890Y462355D01*
X186878Y462420D01*
X186818Y462591D01*
X186766Y462764D01*
X186737Y462823D01*
X186715Y462886D01*
X186629Y463044D01*
X186549Y463207D01*
X186511Y463261D01*
X186479Y463319D01*
X186368Y463462D01*
X186264Y463609D01*
X186217Y463656D01*
X186176Y463709D01*
X186044Y463832D01*
X185917Y463960D01*
X185863Y463999D01*
X185815Y464044D01*
X185664Y464144D01*
X185518Y464250D01*
X185459Y464280D01*
X185404Y464317D01*
X185239Y464391D01*
X185078Y464473D01*
X185015Y464493D01*
X184954Y464520D01*
X184780Y464567D01*
X184608Y464621D01*
X184555Y464627D01*
X184477Y464648D01*
X183987Y464697D01*
X183953Y464695D01*
X183930Y464697D01*
X161503Y464697D01*
X161268Y464678D01*
X161033Y464661D01*
X161023Y464658D01*
X161012Y464657D01*
X160784Y464601D01*
X160554Y464545D01*
X160545Y464542D01*
X160533Y464539D01*
X160079Y464344D01*
X159993Y464289D01*
X159933Y464262D01*
X158150Y463190D01*
X158126Y463172D01*
X158099Y463158D01*
X158032Y463105D01*
X157749Y462902D01*
X157636Y462789D01*
X157565Y462733D01*
X145464Y450632D01*
X145390Y450545D01*
X145309Y450464D01*
X145231Y450357D01*
X145145Y450256D01*
X145086Y450158D01*
X145019Y450066D01*
X144959Y449947D01*
X144890Y449833D01*
X144848Y449727D01*
X144796Y449625D01*
X144756Y449498D01*
X144707Y449375D01*
X144682Y449264D01*
X144648Y449155D01*
X144638Y449061D01*
X144600Y448893D01*
X144582Y448569D01*
X144572Y448477D01*
X144572Y444662D01*
X142285Y439141D01*
X138059Y434915D01*
X132538Y432628D01*
X126562Y432628D01*
X123358Y433955D01*
X123186Y434011D01*
X123017Y434073D01*
X122952Y434086D01*
X122889Y434107D01*
X122710Y434134D01*
X122533Y434168D01*
X122467Y434170D01*
X122401Y434180D01*
X122220Y434178D01*
X122040Y434184D01*
X121974Y434175D01*
X121907Y434174D01*
X121730Y434143D01*
X121551Y434119D01*
X121487Y434100D01*
X121422Y434088D01*
X121252Y434029D01*
X121078Y433977D01*
X121019Y433947D01*
X120956Y433925D01*
X120797Y433839D01*
X120635Y433760D01*
X120581Y433721D01*
X120523Y433689D01*
X120380Y433578D01*
X120233Y433474D01*
X120186Y433428D01*
X120133Y433387D01*
X120010Y433254D01*
X119882Y433128D01*
X119843Y433074D01*
X119798Y433025D01*
X119698Y432875D01*
X119592Y432729D01*
X119562Y432669D01*
X119525Y432614D01*
X119451Y432449D01*
X119369Y432288D01*
X119349Y432225D01*
X119322Y432164D01*
X119275Y431990D01*
X119221Y431818D01*
X119215Y431765D01*
X119194Y431688D01*
X119145Y431197D01*
X119147Y431163D01*
X119145Y431140D01*
X119145Y430350D01*
X119154Y430236D01*
X119153Y430122D01*
X119174Y429991D01*
X119185Y429858D01*
X119212Y429748D01*
X119230Y429635D01*
X119271Y429509D01*
X119303Y429380D01*
X119348Y429275D01*
X119384Y429166D01*
X119446Y429048D01*
X119498Y428926D01*
X119559Y428830D01*
X119612Y428729D01*
X119671Y428655D01*
X119763Y428510D01*
X119979Y428268D01*
X120037Y428195D01*
X126568Y421664D01*
X126655Y421590D01*
X126736Y421509D01*
X126843Y421431D01*
X126944Y421345D01*
X127042Y421286D01*
X127134Y421219D01*
X127253Y421159D01*
X127367Y421090D01*
X127473Y421048D01*
X127575Y420996D01*
X127702Y420956D01*
X127825Y420907D01*
X127936Y420882D01*
X128045Y420848D01*
X128139Y420838D01*
X128307Y420800D01*
X128631Y420782D01*
X128723Y420772D01*
X132538Y420772D01*
X138059Y418485D01*
X142285Y414259D01*
X144572Y408738D01*
X144572Y402762D01*
X142285Y397241D01*
X138059Y393015D01*
X132538Y390728D01*
X126562Y390728D01*
X121041Y393015D01*
X116815Y397241D01*
X114528Y402762D01*
X114528Y406577D01*
X114519Y406691D01*
X114520Y406805D01*
X114499Y406936D01*
X114488Y407069D01*
X114461Y407179D01*
X114443Y407292D01*
X114402Y407419D01*
X114370Y407547D01*
X114325Y407652D01*
X114289Y407761D01*
X114227Y407879D01*
X114175Y408001D01*
X114114Y408097D01*
X114061Y408198D01*
X114002Y408272D01*
X113910Y408417D01*
X113694Y408659D01*
X113636Y408732D01*
X105249Y417119D01*
X105248Y417119D01*
X102247Y420120D01*
X100855Y423481D01*
X100855Y459007D01*
X102247Y462368D01*
X131923Y492043D01*
X132171Y492335D01*
X132218Y492386D01*
X132760Y493119D01*
X133037Y493285D01*
X133062Y493303D01*
X133089Y493317D01*
X133155Y493370D01*
X133438Y493573D01*
X133552Y493686D01*
X133622Y493742D01*
X133851Y493971D01*
X134175Y494105D01*
X134184Y494110D01*
X134193Y494113D01*
X134402Y494221D01*
X134614Y494330D01*
X134622Y494336D01*
X134630Y494340D01*
X134662Y494366D01*
X135011Y494623D01*
X135102Y494717D01*
X135142Y494748D01*
X135991Y495100D01*
X136333Y495276D01*
X136395Y495304D01*
X137177Y495774D01*
X137497Y495822D01*
X137526Y495829D01*
X137556Y495831D01*
X137638Y495855D01*
X137977Y495934D01*
X138125Y495995D01*
X138212Y496020D01*
X138510Y496144D01*
X139422Y496144D01*
X139805Y496175D01*
X139873Y496177D01*
X140775Y496312D01*
X141089Y496234D01*
X141118Y496229D01*
X141147Y496220D01*
X141231Y496211D01*
X141575Y496154D01*
X141735Y496154D01*
X141825Y496144D01*
X270088Y496144D01*
X270126Y496147D01*
X270164Y496145D01*
X270372Y496167D01*
X270579Y496184D01*
X270616Y496193D01*
X270654Y496197D01*
X270856Y496252D01*
X271058Y496302D01*
X271093Y496317D01*
X271130Y496328D01*
X271320Y496415D01*
X271512Y496497D01*
X271544Y496517D01*
X271578Y496533D01*
X271752Y496650D01*
X271928Y496762D01*
X271956Y496787D01*
X271988Y496809D01*
X272140Y496952D01*
X272295Y497091D01*
X272319Y497120D01*
X272347Y497147D01*
X272475Y497313D01*
X272605Y497475D01*
X272624Y497508D01*
X272648Y497538D01*
X272746Y497722D01*
X272849Y497903D01*
X272863Y497939D01*
X272881Y497973D01*
X272948Y498170D01*
X273021Y498366D01*
X273028Y498403D01*
X273041Y498439D01*
X273076Y498645D01*
X273116Y498850D01*
X273117Y498888D01*
X273123Y498926D01*
X273125Y499135D01*
X273131Y499343D01*
X273126Y499381D01*
X273126Y499419D01*
X273094Y499625D01*
X273067Y499832D01*
X273056Y499869D01*
X273050Y499906D01*
X272985Y500104D01*
X272924Y500304D01*
X272907Y500339D01*
X272895Y500375D01*
X272799Y500560D01*
X272707Y500748D01*
X272685Y500779D01*
X272668Y500813D01*
X272610Y500885D01*
X272422Y501150D01*
X272301Y501272D01*
X272242Y501346D01*
X272006Y501582D01*
X268700Y507308D01*
X266989Y513694D01*
X266989Y520306D01*
X268700Y526692D01*
X272006Y532418D01*
X276682Y537094D01*
X282408Y540400D01*
X288794Y542111D01*
X295406Y542111D01*
X301792Y540400D01*
X307518Y537094D01*
X312194Y532418D01*
X315500Y526692D01*
X317211Y520306D01*
X317211Y513694D01*
X315500Y507308D01*
X312194Y501582D01*
X311958Y501346D01*
X311933Y501317D01*
X311905Y501291D01*
X311773Y501129D01*
X311638Y500970D01*
X311619Y500937D01*
X311595Y500907D01*
X311491Y500726D01*
X311384Y500547D01*
X311369Y500512D01*
X311351Y500479D01*
X311278Y500283D01*
X311200Y500089D01*
X311192Y500052D01*
X311179Y500016D01*
X311139Y499811D01*
X311094Y499608D01*
X311092Y499569D01*
X311084Y499532D01*
X311078Y499323D01*
X311066Y499115D01*
X311070Y499077D01*
X311069Y499039D01*
X311096Y498832D01*
X311118Y498624D01*
X311128Y498588D01*
X311133Y498550D01*
X311194Y498350D01*
X311249Y498149D01*
X311265Y498114D01*
X311276Y498077D01*
X311368Y497890D01*
X311455Y497700D01*
X311476Y497669D01*
X311493Y497634D01*
X311613Y497464D01*
X311730Y497291D01*
X311756Y497263D01*
X311778Y497232D01*
X311925Y497084D01*
X312068Y496931D01*
X312098Y496908D01*
X312125Y496881D01*
X312294Y496758D01*
X312459Y496631D01*
X312493Y496613D01*
X312524Y496591D01*
X312710Y496497D01*
X312894Y496398D01*
X312930Y496386D01*
X312964Y496368D01*
X313163Y496306D01*
X313361Y496238D01*
X313398Y496232D01*
X313435Y496220D01*
X313527Y496210D01*
X313847Y496155D01*
X314019Y496154D01*
X314112Y496144D01*
X326288Y496144D01*
X326402Y496153D01*
X326516Y496152D01*
X326647Y496173D01*
X326780Y496184D01*
X326891Y496211D01*
X327003Y496229D01*
X327130Y496270D01*
X327259Y496302D01*
X327363Y496347D01*
X327472Y496383D01*
X327590Y496445D01*
X327712Y496497D01*
X327808Y496558D01*
X327910Y496611D01*
X327983Y496670D01*
X328128Y496762D01*
X328370Y496978D01*
X328443Y497036D01*
X376521Y545115D01*
X379882Y546507D01*
X734942Y546507D01*
X738303Y545115D01*
X778878Y504539D01*
X778965Y504465D01*
X779045Y504384D01*
X779153Y504306D01*
X779254Y504220D01*
X779352Y504161D01*
X779444Y504094D01*
X779562Y504034D01*
X779676Y503965D01*
X779783Y503923D01*
X779884Y503871D01*
X780011Y503831D01*
X780135Y503782D01*
X780246Y503757D01*
X780355Y503723D01*
X780448Y503713D01*
X780616Y503675D01*
X780940Y503657D01*
X781033Y503647D01*
X786434Y503647D01*
X791487Y501554D01*
X795354Y497687D01*
X797447Y492634D01*
X797447Y487166D01*
X795354Y482113D01*
X791487Y478246D01*
X786434Y476153D01*
X780966Y476153D01*
X775913Y478246D01*
X773155Y481004D01*
X773097Y481054D01*
X773044Y481109D01*
X772909Y481213D01*
X772779Y481324D01*
X772714Y481363D01*
X772653Y481410D01*
X772503Y481490D01*
X772356Y481579D01*
X772285Y481607D01*
X772218Y481643D01*
X772057Y481698D01*
X771898Y481762D01*
X771824Y481778D01*
X771752Y481803D01*
X771583Y481831D01*
X771416Y481868D01*
X771340Y481873D01*
X771265Y481885D01*
X771094Y481886D01*
X770924Y481896D01*
X770848Y481888D01*
X770772Y481888D01*
X770603Y481862D01*
X770433Y481844D01*
X770360Y481824D01*
X770285Y481812D01*
X770122Y481758D01*
X769958Y481713D01*
X769888Y481681D01*
X769816Y481658D01*
X769665Y481579D01*
X769509Y481507D01*
X769446Y481465D01*
X769378Y481430D01*
X769296Y481364D01*
X769100Y481232D01*
X768928Y481070D01*
X768845Y481004D01*
X766087Y478246D01*
X761034Y476153D01*
X755566Y476153D01*
X750513Y478246D01*
X747755Y481004D01*
X747697Y481054D01*
X747644Y481109D01*
X747509Y481213D01*
X747379Y481324D01*
X747314Y481363D01*
X747253Y481410D01*
X747103Y481490D01*
X746956Y481579D01*
X746885Y481607D01*
X746818Y481643D01*
X746657Y481698D01*
X746498Y481762D01*
X746424Y481778D01*
X746352Y481803D01*
X746183Y481831D01*
X746016Y481868D01*
X745940Y481873D01*
X745865Y481885D01*
X745694Y481886D01*
X745524Y481896D01*
X745448Y481888D01*
X745372Y481888D01*
X745203Y481862D01*
X745033Y481844D01*
X744960Y481824D01*
X744885Y481812D01*
X744722Y481758D01*
X744558Y481713D01*
X744488Y481681D01*
X744416Y481658D01*
X744265Y481579D01*
X744109Y481507D01*
X744046Y481465D01*
X743978Y481430D01*
X743896Y481364D01*
X743700Y481232D01*
X743528Y481070D01*
X743445Y481004D01*
X740687Y478246D01*
X735634Y476153D01*
X730166Y476153D01*
X725113Y478246D01*
X722355Y481004D01*
X722297Y481054D01*
X722244Y481109D01*
X722109Y481213D01*
X721979Y481324D01*
X721914Y481363D01*
X721853Y481410D01*
X721703Y481490D01*
X721556Y481579D01*
X721485Y481607D01*
X721418Y481643D01*
X721257Y481698D01*
X721098Y481762D01*
X721024Y481778D01*
X720952Y481803D01*
X720783Y481831D01*
X720616Y481868D01*
X720540Y481873D01*
X720465Y481885D01*
X720295Y481886D01*
X720124Y481896D01*
X720048Y481888D01*
X719972Y481888D01*
X719803Y481862D01*
X719633Y481844D01*
X719560Y481824D01*
X719485Y481812D01*
X719322Y481758D01*
X719158Y481713D01*
X719088Y481681D01*
X719016Y481658D01*
X718864Y481579D01*
X718709Y481507D01*
X718646Y481465D01*
X718578Y481430D01*
X718496Y481364D01*
X718300Y481232D01*
X718128Y481070D01*
X718045Y481004D01*
X717537Y480496D01*
X717463Y480409D01*
X717382Y480329D01*
X717304Y480222D01*
X717218Y480120D01*
X717159Y480023D01*
X717092Y479930D01*
X717032Y479812D01*
X716963Y479698D01*
X716921Y479592D01*
X716869Y479490D01*
X716829Y479363D01*
X716780Y479240D01*
X716755Y479128D01*
X716721Y479019D01*
X716711Y478926D01*
X716673Y478758D01*
X716655Y478434D01*
X716645Y478342D01*
X716645Y426281D01*
X715253Y422920D01*
X700539Y408207D01*
X700465Y408120D01*
X700384Y408039D01*
X700306Y407932D01*
X700220Y407831D01*
X700161Y407733D01*
X700094Y407641D01*
X700034Y407522D01*
X699965Y407408D01*
X699923Y407302D01*
X699871Y407200D01*
X699831Y407073D01*
X699782Y406950D01*
X699757Y406839D01*
X699723Y406730D01*
X699713Y406636D01*
X699675Y406468D01*
X699657Y406144D01*
X699647Y406052D01*
X699647Y403766D01*
X697554Y398713D01*
X694796Y395955D01*
X694746Y395897D01*
X694691Y395844D01*
X694587Y395709D01*
X694476Y395579D01*
X694437Y395514D01*
X694390Y395453D01*
X694310Y395303D01*
X694221Y395156D01*
X694193Y395085D01*
X694157Y395018D01*
X694102Y394857D01*
X694038Y394698D01*
X694022Y394624D01*
X693997Y394552D01*
X693969Y394383D01*
X693932Y394216D01*
X693927Y394140D01*
X693915Y394065D01*
X693914Y393894D01*
X693904Y393724D01*
X693912Y393648D01*
X693912Y393572D01*
X693938Y393403D01*
X693956Y393233D01*
X693976Y393160D01*
X693988Y393085D01*
X694042Y392922D01*
X694087Y392758D01*
X694119Y392688D01*
X694142Y392616D01*
X694221Y392465D01*
X694293Y392309D01*
X694335Y392246D01*
X694370Y392178D01*
X694436Y392096D01*
X694568Y391900D01*
X694730Y391728D01*
X694796Y391645D01*
X697554Y388887D01*
X699647Y383834D01*
X699647Y380114D01*
X699653Y380038D01*
X699651Y379962D01*
X699673Y379793D01*
X699687Y379622D01*
X699705Y379548D01*
X699715Y379473D01*
X699764Y379309D01*
X699805Y379143D01*
X699835Y379074D01*
X699857Y379000D01*
X699933Y378847D01*
X700000Y378690D01*
X700041Y378626D01*
X700074Y378557D01*
X700173Y378418D01*
X700265Y378274D01*
X700316Y378217D01*
X700360Y378155D01*
X700480Y378034D01*
X700594Y377906D01*
X700653Y377858D01*
X700707Y377804D01*
X700845Y377703D01*
X700978Y377596D01*
X701044Y377559D01*
X701105Y377514D01*
X701258Y377437D01*
X701406Y377352D01*
X701478Y377326D01*
X701546Y377291D01*
X701709Y377240D01*
X701869Y377181D01*
X701944Y377166D01*
X702016Y377143D01*
X702121Y377131D01*
X702353Y377086D01*
X702589Y377079D01*
X702694Y377067D01*
X942932Y377067D01*
X946293Y375675D01*
X953021Y368946D01*
X953050Y368922D01*
X953076Y368893D01*
X953238Y368762D01*
X953397Y368627D01*
X953430Y368607D01*
X953460Y368583D01*
X953641Y368480D01*
X953820Y368372D01*
X953855Y368358D01*
X953888Y368339D01*
X954084Y368267D01*
X954278Y368189D01*
X954315Y368181D01*
X954351Y368168D01*
X954556Y368128D01*
X954760Y368082D01*
X954798Y368080D01*
X954835Y368073D01*
X955043Y368067D01*
X955252Y368055D01*
X955290Y368059D01*
X955328Y368058D01*
X955535Y368085D01*
X955743Y368107D01*
X955779Y368117D01*
X955817Y368122D01*
X956017Y368182D01*
X956218Y368238D01*
X956253Y368254D01*
X956290Y368265D01*
X956477Y368356D01*
X956667Y368443D01*
X956699Y368465D01*
X956733Y368481D01*
X956902Y368602D01*
X957076Y368719D01*
X957104Y368745D01*
X957135Y368767D01*
X957283Y368913D01*
X957436Y369057D01*
X957459Y369087D01*
X957486Y369114D01*
X957609Y369282D01*
X957736Y369448D01*
X957754Y369482D01*
X957776Y369512D01*
X957870Y369698D01*
X957969Y369883D01*
X957982Y369919D01*
X957999Y369953D01*
X958061Y370152D01*
X958129Y370349D01*
X958135Y370387D01*
X958147Y370423D01*
X958157Y370516D01*
X958212Y370836D01*
X958213Y371008D01*
X958223Y371101D01*
X958223Y372191D01*
X961584Y380305D01*
X967795Y386516D01*
X975909Y389877D01*
X976803Y389877D01*
X976812Y389878D01*
X976822Y389877D01*
X977057Y389897D01*
X977294Y389917D01*
X977304Y389919D01*
X977313Y389920D01*
X977352Y389931D01*
X977773Y390035D01*
X977893Y390087D01*
X977969Y390109D01*
X981561Y391597D01*
X998176Y391597D01*
X998289Y391606D01*
X998404Y391605D01*
X998535Y391626D01*
X998667Y391637D01*
X998778Y391664D01*
X998891Y391682D01*
X999017Y391723D01*
X999146Y391755D01*
X999251Y391800D01*
X999360Y391836D01*
X999477Y391898D01*
X999600Y391950D01*
X999696Y392011D01*
X999797Y392064D01*
X999871Y392123D01*
X1000016Y392215D01*
X1000258Y392431D01*
X1000330Y392489D01*
X1083679Y475838D01*
X1083765Y475939D01*
X1083859Y476034D01*
X1083925Y476127D01*
X1083999Y476214D01*
X1084067Y476328D01*
X1084144Y476436D01*
X1084194Y476539D01*
X1084253Y476636D01*
X1084303Y476760D01*
X1084361Y476880D01*
X1084394Y476989D01*
X1084436Y477095D01*
X1084465Y477224D01*
X1084503Y477352D01*
X1084518Y477465D01*
X1084543Y477576D01*
X1084550Y477709D01*
X1084568Y477841D01*
X1084564Y477955D01*
X1084571Y478069D01*
X1084557Y478201D01*
X1084552Y478334D01*
X1084530Y478446D01*
X1084518Y478559D01*
X1084483Y478688D01*
X1084458Y478818D01*
X1084418Y478925D01*
X1084388Y479035D01*
X1084332Y479156D01*
X1084286Y479281D01*
X1084230Y479380D01*
X1084182Y479483D01*
X1084108Y479594D01*
X1084042Y479710D01*
X1083970Y479798D01*
X1083907Y479893D01*
X1083816Y479990D01*
X1083732Y480093D01*
X1083647Y480169D01*
X1083569Y480252D01*
X1083463Y480333D01*
X1083364Y480422D01*
X1083268Y480483D01*
X1083177Y480553D01*
X1083060Y480615D01*
X1082948Y480687D01*
X1082870Y480718D01*
X1082743Y480786D01*
X1082374Y480912D01*
X1082313Y480936D01*
X1077408Y482250D01*
X1071682Y485556D01*
X1067006Y490232D01*
X1063700Y495958D01*
X1061989Y502344D01*
X1061989Y508956D01*
X1063700Y515342D01*
X1067006Y521068D01*
X1071682Y525744D01*
X1077408Y529050D01*
X1083794Y530761D01*
X1090406Y530761D01*
X1096792Y529050D01*
X1102518Y525744D01*
X1107194Y521068D01*
X1110500Y515342D01*
X1112211Y508956D01*
X1112211Y502344D01*
X1110640Y496482D01*
X1110599Y496258D01*
X1110555Y496034D01*
X1110555Y496015D01*
X1110551Y495996D01*
X1110547Y495767D01*
X1110540Y495541D01*
X1110542Y495522D01*
X1110542Y495503D01*
X1110575Y495277D01*
X1110604Y495052D01*
X1110610Y495034D01*
X1110612Y495015D01*
X1110681Y494798D01*
X1110747Y494579D01*
X1110755Y494562D01*
X1110761Y494544D01*
X1110864Y494340D01*
X1110964Y494136D01*
X1110975Y494121D01*
X1110983Y494104D01*
X1111118Y493919D01*
X1111249Y493734D01*
X1111263Y493721D01*
X1111274Y493705D01*
X1111435Y493546D01*
X1111596Y493383D01*
X1111611Y493372D01*
X1111625Y493359D01*
X1111810Y493227D01*
X1111995Y493093D01*
X1112012Y493084D01*
X1112027Y493073D01*
X1112232Y492973D01*
X1112435Y492870D01*
X1112453Y492865D01*
X1112470Y492856D01*
X1112688Y492791D01*
X1112906Y492722D01*
X1112921Y492720D01*
X1112942Y492714D01*
X1113432Y492650D01*
X1113524Y492652D01*
X1113583Y492646D01*
X1173329Y492646D01*
X1180238Y489784D01*
X1201634Y468388D01*
X1204496Y461479D01*
X1204496Y415199D01*
X1204505Y415085D01*
X1204504Y414971D01*
X1204525Y414840D01*
X1204536Y414707D01*
X1204563Y414597D01*
X1204581Y414484D01*
X1204622Y414358D01*
X1204654Y414229D01*
X1204699Y414124D01*
X1204735Y414015D01*
X1204797Y413897D01*
X1204849Y413775D01*
X1204910Y413679D01*
X1204963Y413578D01*
X1205022Y413504D01*
X1205114Y413359D01*
X1205330Y413117D01*
X1205388Y413044D01*
X1216116Y402317D01*
X1216253Y402200D01*
X1216385Y402077D01*
X1216441Y402041D01*
X1216491Y401998D01*
X1216646Y401904D01*
X1216796Y401805D01*
X1216857Y401777D01*
X1216914Y401743D01*
X1217082Y401676D01*
X1217246Y401602D01*
X1217310Y401585D01*
X1217372Y401560D01*
X1217548Y401521D01*
X1217723Y401474D01*
X1217789Y401468D01*
X1217854Y401453D01*
X1218034Y401443D01*
X1218213Y401425D01*
X1218280Y401429D01*
X1218346Y401426D01*
X1218526Y401445D01*
X1218706Y401456D01*
X1218771Y401471D01*
X1218837Y401478D01*
X1219011Y401526D01*
X1219187Y401566D01*
X1219248Y401591D01*
X1219313Y401608D01*
X1219477Y401684D01*
X1219644Y401752D01*
X1219701Y401786D01*
X1219761Y401814D01*
X1219911Y401915D01*
X1220065Y402009D01*
X1220115Y402052D01*
X1220170Y402089D01*
X1220302Y402213D01*
X1220439Y402331D01*
X1220481Y402382D01*
X1220530Y402427D01*
X1220640Y402570D01*
X1220756Y402709D01*
X1220781Y402755D01*
X1220830Y402819D01*
X1221063Y403253D01*
X1221074Y403285D01*
X1221086Y403306D01*
X1222977Y407873D01*
X1228427Y413323D01*
X1235170Y416116D01*
X1235297Y416181D01*
X1235428Y416237D01*
X1235516Y416293D01*
X1235609Y416341D01*
X1235724Y416425D01*
X1235844Y416502D01*
X1235922Y416572D01*
X1236006Y416634D01*
X1236106Y416736D01*
X1236212Y416831D01*
X1236278Y416912D01*
X1236351Y416987D01*
X1236432Y417104D01*
X1236522Y417215D01*
X1236573Y417305D01*
X1236633Y417391D01*
X1236695Y417520D01*
X1236766Y417643D01*
X1236802Y417741D01*
X1236848Y417836D01*
X1236888Y417972D01*
X1236937Y418106D01*
X1236957Y418208D01*
X1236987Y418309D01*
X1237005Y418450D01*
X1237032Y418590D01*
X1237035Y418694D01*
X1237048Y418798D01*
X1237043Y418941D01*
X1237047Y419083D01*
X1237034Y419187D01*
X1237030Y419291D01*
X1237002Y419431D01*
X1236983Y419572D01*
X1236953Y419672D01*
X1236932Y419775D01*
X1236882Y419908D01*
X1236841Y420045D01*
X1236795Y420138D01*
X1236758Y420236D01*
X1236686Y420360D01*
X1236624Y420488D01*
X1236563Y420573D01*
X1236511Y420663D01*
X1236421Y420774D01*
X1236338Y420890D01*
X1236265Y420964D01*
X1236198Y421045D01*
X1236092Y421140D01*
X1235991Y421241D01*
X1235907Y421302D01*
X1235829Y421372D01*
X1235708Y421447D01*
X1235593Y421531D01*
X1235499Y421578D01*
X1235411Y421634D01*
X1235279Y421689D01*
X1235152Y421754D01*
X1235053Y421785D01*
X1234956Y421826D01*
X1234818Y421859D01*
X1234682Y421902D01*
X1234604Y421911D01*
X1234477Y421941D01*
X1234044Y421974D01*
X1234004Y421978D01*
X1224912Y421978D01*
X1222671Y422906D01*
X1220956Y424621D01*
X1220028Y426862D01*
X1220028Y455838D01*
X1220956Y458079D01*
X1222671Y459794D01*
X1224912Y460722D01*
X1253888Y460722D01*
X1256129Y459794D01*
X1257844Y458079D01*
X1258772Y455838D01*
X1258772Y426862D01*
X1257844Y424621D01*
X1256129Y422906D01*
X1253888Y421978D01*
X1244796Y421978D01*
X1244654Y421967D01*
X1244511Y421965D01*
X1244408Y421947D01*
X1244304Y421938D01*
X1244166Y421904D01*
X1244026Y421879D01*
X1243927Y421845D01*
X1243825Y421820D01*
X1243695Y421763D01*
X1243560Y421716D01*
X1243468Y421666D01*
X1243372Y421625D01*
X1243252Y421549D01*
X1243127Y421480D01*
X1243044Y421416D01*
X1242956Y421360D01*
X1242850Y421265D01*
X1242737Y421178D01*
X1242666Y421101D01*
X1242588Y421031D01*
X1242499Y420920D01*
X1242402Y420816D01*
X1242344Y420729D01*
X1242278Y420647D01*
X1242208Y420524D01*
X1242129Y420405D01*
X1242086Y420309D01*
X1242034Y420219D01*
X1241985Y420085D01*
X1241926Y419955D01*
X1241899Y419854D01*
X1241863Y419756D01*
X1241835Y419616D01*
X1241798Y419479D01*
X1241788Y419375D01*
X1241768Y419272D01*
X1241763Y419130D01*
X1241749Y418988D01*
X1241756Y418883D01*
X1241753Y418779D01*
X1241771Y418638D01*
X1241780Y418495D01*
X1241803Y418394D01*
X1241817Y418290D01*
X1241858Y418153D01*
X1241890Y418014D01*
X1241929Y417918D01*
X1241959Y417818D01*
X1242022Y417690D01*
X1242076Y417557D01*
X1242130Y417468D01*
X1242176Y417374D01*
X1242259Y417258D01*
X1242333Y417137D01*
X1242401Y417057D01*
X1242462Y416972D01*
X1242562Y416871D01*
X1242655Y416763D01*
X1242735Y416695D01*
X1242809Y416621D01*
X1242924Y416537D01*
X1243033Y416446D01*
X1243102Y416408D01*
X1243207Y416331D01*
X1243595Y416135D01*
X1243630Y416116D01*
X1250373Y413323D01*
X1255823Y407873D01*
X1258772Y400753D01*
X1258772Y393047D01*
X1255823Y385927D01*
X1250373Y380477D01*
X1245806Y378586D01*
X1245646Y378503D01*
X1245481Y378428D01*
X1245426Y378391D01*
X1245367Y378360D01*
X1245222Y378253D01*
X1245072Y378153D01*
X1245023Y378107D01*
X1244970Y378068D01*
X1244844Y377938D01*
X1244712Y377815D01*
X1244672Y377762D01*
X1244625Y377714D01*
X1244522Y377566D01*
X1244412Y377423D01*
X1244381Y377365D01*
X1244342Y377310D01*
X1244264Y377147D01*
X1244179Y376989D01*
X1244157Y376926D01*
X1244128Y376866D01*
X1244077Y376693D01*
X1244019Y376522D01*
X1244008Y376456D01*
X1243989Y376393D01*
X1243966Y376214D01*
X1243936Y376036D01*
X1243936Y375969D01*
X1243927Y375903D01*
X1243934Y375723D01*
X1243933Y375542D01*
X1243943Y375476D01*
X1243946Y375410D01*
X1243982Y375234D01*
X1244010Y375055D01*
X1244031Y374992D01*
X1244044Y374926D01*
X1244107Y374758D01*
X1244164Y374586D01*
X1244195Y374527D01*
X1244218Y374465D01*
X1244308Y374309D01*
X1244392Y374149D01*
X1244425Y374107D01*
X1244465Y374038D01*
X1244777Y373656D01*
X1244803Y373634D01*
X1244817Y373616D01*
X1248556Y369876D01*
X1248564Y369870D01*
X1248570Y369862D01*
X1248753Y369709D01*
X1248932Y369557D01*
X1248941Y369552D01*
X1248948Y369545D01*
X1248983Y369526D01*
X1249355Y369302D01*
X1249476Y369254D01*
X1249545Y369216D01*
X1250373Y368873D01*
X1255823Y363423D01*
X1258772Y356303D01*
X1258772Y348597D01*
X1255823Y341477D01*
X1250373Y336027D01*
X1243101Y333015D01*
X1243067Y332998D01*
X1243031Y332985D01*
X1242848Y332885D01*
X1242662Y332790D01*
X1242632Y332768D01*
X1242598Y332749D01*
X1242433Y332621D01*
X1242265Y332497D01*
X1242239Y332470D01*
X1242209Y332447D01*
X1242067Y332293D01*
X1241921Y332144D01*
X1241899Y332113D01*
X1241873Y332085D01*
X1241758Y331911D01*
X1241638Y331740D01*
X1241621Y331706D01*
X1241600Y331674D01*
X1241514Y331484D01*
X1241424Y331295D01*
X1241413Y331259D01*
X1241397Y331224D01*
X1241343Y331023D01*
X1241284Y330822D01*
X1241280Y330784D01*
X1241270Y330748D01*
X1241249Y330540D01*
X1241223Y330333D01*
X1241224Y330295D01*
X1241221Y330257D01*
X1241234Y330048D01*
X1241241Y329840D01*
X1241249Y329802D01*
X1241251Y329764D01*
X1241298Y329561D01*
X1241339Y329356D01*
X1241353Y329321D01*
X1241361Y329283D01*
X1241440Y329090D01*
X1241514Y328895D01*
X1241533Y328862D01*
X1241547Y328826D01*
X1241656Y328648D01*
X1241760Y328468D01*
X1241785Y328438D01*
X1241805Y328406D01*
X1241941Y328247D01*
X1242073Y328086D01*
X1242101Y328061D01*
X1242126Y328032D01*
X1242286Y327897D01*
X1242443Y327759D01*
X1242475Y327739D01*
X1242504Y327715D01*
X1242586Y327669D01*
X1242861Y327497D01*
X1243019Y327430D01*
X1243101Y327385D01*
X1250373Y324373D01*
X1255823Y318923D01*
X1258772Y311803D01*
X1258772Y304097D01*
X1255823Y296977D01*
X1250373Y291527D01*
X1243162Y288540D01*
X1243128Y288523D01*
X1243092Y288510D01*
X1242908Y288410D01*
X1242723Y288315D01*
X1242692Y288293D01*
X1242658Y288274D01*
X1242494Y288146D01*
X1242326Y288022D01*
X1242299Y287995D01*
X1242269Y287972D01*
X1242127Y287818D01*
X1241981Y287669D01*
X1241959Y287638D01*
X1241933Y287610D01*
X1241818Y287436D01*
X1241698Y287265D01*
X1241682Y287231D01*
X1241661Y287199D01*
X1241575Y287009D01*
X1241484Y286821D01*
X1241473Y286784D01*
X1241458Y286749D01*
X1241404Y286548D01*
X1241345Y286347D01*
X1241340Y286309D01*
X1241330Y286273D01*
X1241309Y286065D01*
X1241283Y285858D01*
X1241285Y285820D01*
X1241281Y285782D01*
X1241294Y285573D01*
X1241302Y285365D01*
X1241309Y285327D01*
X1241312Y285289D01*
X1241358Y285086D01*
X1241400Y284881D01*
X1241413Y284846D01*
X1241422Y284808D01*
X1241500Y284615D01*
X1241574Y284420D01*
X1241593Y284387D01*
X1241608Y284352D01*
X1241717Y284173D01*
X1241821Y283993D01*
X1241845Y283963D01*
X1241865Y283931D01*
X1242001Y283772D01*
X1242133Y283611D01*
X1242162Y283586D01*
X1242187Y283557D01*
X1242347Y283422D01*
X1242503Y283284D01*
X1242535Y283264D01*
X1242565Y283240D01*
X1242646Y283195D01*
X1242921Y283022D01*
X1243079Y282955D01*
X1243162Y282910D01*
X1250373Y279923D01*
X1255823Y274473D01*
X1258772Y267353D01*
X1258772Y259647D01*
X1255823Y252527D01*
X1250373Y247077D01*
X1243162Y244090D01*
X1243128Y244073D01*
X1243092Y244060D01*
X1242908Y243960D01*
X1242723Y243865D01*
X1242692Y243843D01*
X1242658Y243824D01*
X1242493Y243696D01*
X1242326Y243572D01*
X1242299Y243545D01*
X1242269Y243522D01*
X1242127Y243368D01*
X1241981Y243219D01*
X1241959Y243188D01*
X1241933Y243160D01*
X1241818Y242986D01*
X1241698Y242815D01*
X1241682Y242781D01*
X1241661Y242749D01*
X1241575Y242559D01*
X1241484Y242370D01*
X1241473Y242334D01*
X1241458Y242299D01*
X1241404Y242098D01*
X1241345Y241897D01*
X1241340Y241859D01*
X1241330Y241823D01*
X1241309Y241615D01*
X1241283Y241408D01*
X1241285Y241370D01*
X1241281Y241332D01*
X1241294Y241123D01*
X1241302Y240915D01*
X1241309Y240877D01*
X1241312Y240839D01*
X1241358Y240636D01*
X1241400Y240431D01*
X1241413Y240396D01*
X1241422Y240358D01*
X1241500Y240165D01*
X1241574Y239970D01*
X1241593Y239937D01*
X1241608Y239901D01*
X1241716Y239723D01*
X1241821Y239543D01*
X1241845Y239513D01*
X1241865Y239481D01*
X1242001Y239322D01*
X1242133Y239161D01*
X1242162Y239136D01*
X1242187Y239107D01*
X1242347Y238972D01*
X1242503Y238834D01*
X1242535Y238814D01*
X1242565Y238790D01*
X1242646Y238744D01*
X1242921Y238572D01*
X1243079Y238505D01*
X1243162Y238460D01*
X1250373Y235473D01*
X1255823Y230023D01*
X1258772Y222903D01*
X1258772Y215197D01*
X1255823Y208077D01*
X1250373Y202627D01*
X1243253Y199678D01*
X1235547Y199678D01*
X1228427Y202627D01*
X1222967Y208087D01*
X1222900Y208219D01*
X1222804Y208415D01*
X1222787Y208438D01*
X1222774Y208463D01*
X1222644Y208639D01*
X1222518Y208817D01*
X1222498Y208837D01*
X1222481Y208860D01*
X1222325Y209013D01*
X1222171Y209168D01*
X1222148Y209185D01*
X1222128Y209205D01*
X1221949Y209330D01*
X1221773Y209458D01*
X1221747Y209471D01*
X1221724Y209488D01*
X1221527Y209582D01*
X1221332Y209681D01*
X1221305Y209689D01*
X1221279Y209702D01*
X1221071Y209763D01*
X1220862Y209829D01*
X1220838Y209832D01*
X1220806Y209841D01*
X1220317Y209902D01*
X1220236Y209899D01*
X1220184Y209905D01*
X1188490Y209905D01*
X1188376Y209896D01*
X1188262Y209897D01*
X1188130Y209876D01*
X1187998Y209865D01*
X1187887Y209838D01*
X1187774Y209820D01*
X1187648Y209779D01*
X1187519Y209747D01*
X1187414Y209702D01*
X1187306Y209666D01*
X1187188Y209604D01*
X1187066Y209552D01*
X1186969Y209491D01*
X1186868Y209438D01*
X1186794Y209379D01*
X1186650Y209287D01*
X1186407Y209071D01*
X1186335Y209013D01*
X1165773Y188450D01*
X1162412Y187058D01*
X1091953Y187058D01*
X1091839Y187049D01*
X1091725Y187050D01*
X1091594Y187029D01*
X1091461Y187018D01*
X1091351Y186991D01*
X1091238Y186973D01*
X1091112Y186932D01*
X1090983Y186900D01*
X1090877Y186855D01*
X1090769Y186819D01*
X1090651Y186758D01*
X1090529Y186705D01*
X1090433Y186644D01*
X1090332Y186591D01*
X1090258Y186532D01*
X1090113Y186440D01*
X1089871Y186224D01*
X1089798Y186166D01*
X1088765Y185133D01*
X1088679Y185031D01*
X1088585Y184936D01*
X1088519Y184843D01*
X1088446Y184757D01*
X1088377Y184643D01*
X1088300Y184534D01*
X1088250Y184432D01*
X1088191Y184334D01*
X1088142Y184211D01*
X1088083Y184091D01*
X1088050Y183982D01*
X1088008Y183876D01*
X1087979Y183746D01*
X1087941Y183619D01*
X1087926Y183506D01*
X1087901Y183394D01*
X1087894Y183261D01*
X1087876Y183129D01*
X1087880Y183016D01*
X1087873Y182902D01*
X1087888Y182769D01*
X1087892Y182636D01*
X1087914Y182525D01*
X1087926Y182411D01*
X1087961Y182283D01*
X1087987Y182152D01*
X1088026Y182045D01*
X1088056Y181935D01*
X1088112Y181815D01*
X1088158Y181690D01*
X1088215Y181591D01*
X1088262Y181487D01*
X1088336Y181377D01*
X1088402Y181261D01*
X1088474Y181172D01*
X1088537Y181078D01*
X1088629Y180981D01*
X1088712Y180877D01*
X1088797Y180801D01*
X1088875Y180718D01*
X1088981Y180637D01*
X1089080Y180548D01*
X1089176Y180487D01*
X1089267Y180418D01*
X1089384Y180355D01*
X1089496Y180283D01*
X1089574Y180253D01*
X1089701Y180185D01*
X1090070Y180058D01*
X1090131Y180034D01*
X1096792Y178250D01*
X1102518Y174944D01*
X1107194Y170268D01*
X1110500Y164542D01*
X1112211Y158156D01*
X1112211Y151544D01*
X1110500Y145158D01*
X1107194Y139432D01*
X1102518Y134756D01*
X1096792Y131450D01*
X1090406Y129739D01*
X1083794Y129739D01*
X1077408Y131450D01*
X1071682Y134756D01*
X1067006Y139432D01*
X1063700Y145158D01*
X1061916Y151819D01*
X1061871Y151944D01*
X1061836Y152073D01*
X1061788Y152176D01*
X1061750Y152284D01*
X1061685Y152400D01*
X1061630Y152521D01*
X1061566Y152616D01*
X1061511Y152715D01*
X1061429Y152820D01*
X1061355Y152930D01*
X1061277Y153013D01*
X1061206Y153103D01*
X1061108Y153193D01*
X1061017Y153290D01*
X1060926Y153359D01*
X1060842Y153436D01*
X1060731Y153509D01*
X1060625Y153590D01*
X1060525Y153644D01*
X1060430Y153706D01*
X1060308Y153760D01*
X1060191Y153823D01*
X1060083Y153860D01*
X1059979Y153906D01*
X1059850Y153940D01*
X1059724Y153983D01*
X1059611Y154002D01*
X1059501Y154031D01*
X1059369Y154044D01*
X1059238Y154066D01*
X1059123Y154067D01*
X1059010Y154077D01*
X1058878Y154068D01*
X1058744Y154069D01*
X1058631Y154051D01*
X1058518Y154043D01*
X1058388Y154013D01*
X1058257Y153992D01*
X1058148Y153957D01*
X1058038Y153931D01*
X1057915Y153880D01*
X1057788Y153838D01*
X1057687Y153785D01*
X1057582Y153742D01*
X1057469Y153672D01*
X1057351Y153610D01*
X1057285Y153558D01*
X1057163Y153482D01*
X1056868Y153225D01*
X1056818Y153185D01*
X1013481Y109849D01*
X1010480Y106847D01*
X1007119Y105455D01*
X1002444Y105455D01*
X1002226Y105438D01*
X1002008Y105424D01*
X1001981Y105418D01*
X1001952Y105415D01*
X1001740Y105363D01*
X1001527Y105314D01*
X1001501Y105303D01*
X1001473Y105297D01*
X1001273Y105211D01*
X1001070Y105128D01*
X1001046Y105113D01*
X1001020Y105102D01*
X1000836Y104985D01*
X1000649Y104871D01*
X1000628Y104852D01*
X1000604Y104837D01*
X1000441Y104692D01*
X1000276Y104549D01*
X1000257Y104527D01*
X1000236Y104508D01*
X1000099Y104338D01*
X999958Y104171D01*
X999947Y104151D01*
X999926Y104124D01*
X999682Y103696D01*
X999654Y103620D01*
X999629Y103574D01*
X999016Y102094D01*
X992805Y95884D01*
X984431Y92415D01*
X984397Y92398D01*
X984361Y92385D01*
X984177Y92285D01*
X983992Y92190D01*
X983961Y92168D01*
X983927Y92149D01*
X983762Y92021D01*
X983595Y91897D01*
X983568Y91870D01*
X983538Y91847D01*
X983396Y91693D01*
X983250Y91544D01*
X983228Y91513D01*
X983202Y91485D01*
X983087Y91311D01*
X982967Y91140D01*
X982951Y91106D01*
X982930Y91074D01*
X982844Y90884D01*
X982753Y90695D01*
X982742Y90659D01*
X982727Y90624D01*
X982673Y90423D01*
X982614Y90222D01*
X982609Y90184D01*
X982599Y90148D01*
X982578Y89940D01*
X982552Y89733D01*
X982554Y89695D01*
X982550Y89657D01*
X982563Y89448D01*
X982571Y89240D01*
X982578Y89202D01*
X982581Y89164D01*
X982627Y88961D01*
X982669Y88756D01*
X982682Y88721D01*
X982691Y88683D01*
X982769Y88490D01*
X982843Y88295D01*
X982862Y88262D01*
X982877Y88226D01*
X982985Y88048D01*
X983090Y87868D01*
X983114Y87838D01*
X983134Y87806D01*
X983271Y87647D01*
X983402Y87486D01*
X983431Y87461D01*
X983456Y87432D01*
X983616Y87297D01*
X983772Y87159D01*
X983804Y87139D01*
X983834Y87115D01*
X983915Y87069D01*
X984190Y86897D01*
X984348Y86830D01*
X984431Y86785D01*
X992806Y83316D01*
X999016Y77105D01*
X1002377Y68991D01*
X1002377Y60209D01*
X999016Y52095D01*
X992805Y45884D01*
X984691Y42523D01*
X975909Y42523D01*
X967795Y45884D01*
X961584Y52095D01*
X958223Y60209D01*
X958223Y68991D01*
X961584Y77105D01*
X967794Y83316D01*
X976169Y86785D01*
X976203Y86802D01*
X976239Y86815D01*
X976423Y86915D01*
X976608Y87010D01*
X976639Y87032D01*
X976673Y87051D01*
X976837Y87178D01*
X977005Y87303D01*
X977032Y87330D01*
X977062Y87353D01*
X977204Y87506D01*
X977350Y87656D01*
X977372Y87687D01*
X977398Y87715D01*
X977513Y87889D01*
X977633Y88060D01*
X977649Y88094D01*
X977670Y88126D01*
X977756Y88316D01*
X977847Y88504D01*
X977858Y88541D01*
X977873Y88576D01*
X977927Y88777D01*
X977986Y88978D01*
X977991Y89016D01*
X978001Y89052D01*
X978022Y89260D01*
X978048Y89467D01*
X978046Y89505D01*
X978050Y89543D01*
X978037Y89752D01*
X978029Y89960D01*
X978022Y89998D01*
X978019Y90036D01*
X977973Y90239D01*
X977931Y90444D01*
X977918Y90479D01*
X977909Y90517D01*
X977831Y90710D01*
X977757Y90905D01*
X977738Y90938D01*
X977723Y90974D01*
X977614Y91152D01*
X977510Y91332D01*
X977486Y91362D01*
X977466Y91394D01*
X977330Y91553D01*
X977198Y91714D01*
X977169Y91739D01*
X977144Y91768D01*
X976984Y91902D01*
X976828Y92041D01*
X976795Y92061D01*
X976766Y92085D01*
X976685Y92130D01*
X976410Y92303D01*
X976251Y92370D01*
X976169Y92415D01*
X967795Y95884D01*
X961584Y102095D01*
X958223Y110209D01*
X958223Y118991D01*
X961584Y127105D01*
X967794Y133316D01*
X976169Y136785D01*
X976203Y136802D01*
X976239Y136815D01*
X976423Y136915D01*
X976608Y137010D01*
X976639Y137032D01*
X976673Y137051D01*
X976837Y137178D01*
X977005Y137303D01*
X977032Y137330D01*
X977062Y137353D01*
X977204Y137506D01*
X977350Y137656D01*
X977372Y137687D01*
X977398Y137715D01*
X977513Y137889D01*
X977633Y138060D01*
X977649Y138094D01*
X977670Y138126D01*
X977756Y138316D01*
X977847Y138504D01*
X977858Y138541D01*
X977873Y138576D01*
X977927Y138777D01*
X977986Y138978D01*
X977991Y139016D01*
X978001Y139052D01*
X978022Y139260D01*
X978048Y139467D01*
X978046Y139505D01*
X978050Y139543D01*
X978037Y139752D01*
X978029Y139960D01*
X978022Y139998D01*
X978019Y140036D01*
X977973Y140239D01*
X977931Y140444D01*
X977918Y140479D01*
X977909Y140517D01*
X977831Y140710D01*
X977757Y140905D01*
X977738Y140938D01*
X977723Y140974D01*
X977614Y141152D01*
X977510Y141332D01*
X977486Y141362D01*
X977466Y141394D01*
X977330Y141553D01*
X977198Y141714D01*
X977169Y141739D01*
X977144Y141768D01*
X976984Y141902D01*
X976828Y142041D01*
X976795Y142061D01*
X976766Y142085D01*
X976685Y142130D01*
X976410Y142303D01*
X976251Y142370D01*
X976169Y142415D01*
X967795Y145884D01*
X961584Y152095D01*
X958223Y160209D01*
X958223Y168991D01*
X961238Y176270D01*
X961293Y176441D01*
X961356Y176611D01*
X961369Y176676D01*
X961389Y176739D01*
X961416Y176918D01*
X961451Y177095D01*
X961453Y177161D01*
X961463Y177227D01*
X961461Y177408D01*
X961466Y177588D01*
X961458Y177654D01*
X961457Y177721D01*
X961425Y177898D01*
X961402Y178077D01*
X961383Y178141D01*
X961371Y178206D01*
X961312Y178377D01*
X961259Y178550D01*
X961230Y178609D01*
X961208Y178672D01*
X961122Y178830D01*
X961043Y178993D01*
X961004Y179047D01*
X960972Y179105D01*
X960861Y179248D01*
X960757Y179395D01*
X960710Y179442D01*
X960669Y179495D01*
X960537Y179618D01*
X960410Y179746D01*
X960357Y179785D01*
X960308Y179830D01*
X960157Y179930D01*
X960012Y180036D01*
X959952Y180066D01*
X959897Y180103D01*
X959732Y180177D01*
X959571Y180259D01*
X959508Y180279D01*
X959447Y180306D01*
X959273Y180353D01*
X959101Y180407D01*
X959048Y180413D01*
X958970Y180434D01*
X958480Y180483D01*
X958446Y180481D01*
X958423Y180483D01*
X920454Y180483D01*
X920341Y180474D01*
X920226Y180475D01*
X920095Y180454D01*
X919963Y180443D01*
X919852Y180416D01*
X919739Y180398D01*
X919613Y180357D01*
X919484Y180325D01*
X919379Y180280D01*
X919270Y180244D01*
X919152Y180182D01*
X919030Y180130D01*
X918934Y180069D01*
X918833Y180016D01*
X918759Y179957D01*
X918614Y179865D01*
X918372Y179649D01*
X918300Y179591D01*
X871234Y132525D01*
X867873Y131133D01*
X702694Y131133D01*
X702618Y131127D01*
X702542Y131129D01*
X702373Y131107D01*
X702202Y131093D01*
X702128Y131075D01*
X702053Y131065D01*
X701889Y131016D01*
X701723Y130975D01*
X701654Y130945D01*
X701580Y130923D01*
X701427Y130847D01*
X701270Y130780D01*
X701206Y130739D01*
X701137Y130706D01*
X700998Y130607D01*
X700854Y130515D01*
X700797Y130464D01*
X700735Y130420D01*
X700614Y130300D01*
X700486Y130186D01*
X700438Y130127D01*
X700384Y130073D01*
X700283Y129935D01*
X700176Y129802D01*
X700139Y129736D01*
X700094Y129675D01*
X700017Y129522D01*
X699932Y129374D01*
X699906Y129302D01*
X699871Y129234D01*
X699820Y129071D01*
X699761Y128911D01*
X699746Y128836D01*
X699723Y128764D01*
X699711Y128659D01*
X699666Y128427D01*
X699659Y128191D01*
X699647Y128086D01*
X699647Y124366D01*
X697554Y119313D01*
X694796Y116555D01*
X694746Y116497D01*
X694691Y116444D01*
X694587Y116309D01*
X694476Y116179D01*
X694437Y116114D01*
X694390Y116053D01*
X694310Y115903D01*
X694221Y115756D01*
X694193Y115685D01*
X694157Y115618D01*
X694102Y115457D01*
X694038Y115298D01*
X694022Y115224D01*
X693997Y115152D01*
X693969Y114983D01*
X693932Y114816D01*
X693927Y114740D01*
X693915Y114665D01*
X693914Y114494D01*
X693904Y114324D01*
X693912Y114248D01*
X693912Y114172D01*
X693938Y114003D01*
X693956Y113833D01*
X693976Y113760D01*
X693988Y113685D01*
X694042Y113522D01*
X694087Y113358D01*
X694119Y113288D01*
X694142Y113216D01*
X694221Y113065D01*
X694293Y112909D01*
X694335Y112846D01*
X694370Y112778D01*
X694436Y112696D01*
X694568Y112500D01*
X694730Y112328D01*
X694796Y112245D01*
X697554Y109487D01*
X699647Y104434D01*
X699647Y98966D01*
X697554Y93913D01*
X694796Y91155D01*
X694746Y91097D01*
X694691Y91044D01*
X694587Y90909D01*
X694476Y90779D01*
X694437Y90714D01*
X694390Y90653D01*
X694310Y90503D01*
X694221Y90356D01*
X694193Y90285D01*
X694157Y90218D01*
X694102Y90057D01*
X694038Y89898D01*
X694022Y89824D01*
X693997Y89752D01*
X693969Y89583D01*
X693932Y89416D01*
X693927Y89340D01*
X693915Y89265D01*
X693914Y89094D01*
X693904Y88924D01*
X693912Y88848D01*
X693912Y88772D01*
X693938Y88603D01*
X693956Y88433D01*
X693976Y88360D01*
X693988Y88285D01*
X694042Y88122D01*
X694087Y87958D01*
X694119Y87888D01*
X694142Y87816D01*
X694221Y87665D01*
X694293Y87509D01*
X694335Y87446D01*
X694370Y87378D01*
X694436Y87296D01*
X694568Y87100D01*
X694730Y86928D01*
X694796Y86845D01*
X697554Y84087D01*
X699647Y79034D01*
X699647Y73566D01*
X697554Y68513D01*
X694796Y65755D01*
X694746Y65697D01*
X694691Y65644D01*
X694587Y65509D01*
X694476Y65379D01*
X694437Y65314D01*
X694390Y65253D01*
X694310Y65103D01*
X694221Y64956D01*
X694193Y64885D01*
X694157Y64818D01*
X694102Y64657D01*
X694038Y64498D01*
X694022Y64424D01*
X693997Y64352D01*
X693969Y64183D01*
X693932Y64016D01*
X693927Y63940D01*
X693915Y63865D01*
X693914Y63694D01*
X693904Y63524D01*
X693912Y63448D01*
X693912Y63372D01*
X693938Y63203D01*
X693956Y63033D01*
X693976Y62960D01*
X693988Y62885D01*
X694042Y62722D01*
X694087Y62558D01*
X694119Y62488D01*
X694142Y62416D01*
X694221Y62265D01*
X694293Y62109D01*
X694335Y62046D01*
X694370Y61978D01*
X694436Y61896D01*
X694568Y61700D01*
X694730Y61528D01*
X694796Y61445D01*
X697554Y58687D01*
X699647Y53634D01*
X699647Y48166D01*
X697554Y43113D01*
X695204Y40763D01*
X695179Y40734D01*
X695150Y40708D01*
X695020Y40546D01*
X694884Y40387D01*
X694864Y40354D01*
X694840Y40324D01*
X694737Y40143D01*
X694629Y39964D01*
X694615Y39929D01*
X694596Y39896D01*
X694524Y39700D01*
X694446Y39506D01*
X694438Y39469D01*
X694425Y39433D01*
X694385Y39228D01*
X694340Y39024D01*
X694337Y38986D01*
X694330Y38949D01*
X694324Y38741D01*
X694312Y38532D01*
X694316Y38494D01*
X694315Y38456D01*
X694342Y38249D01*
X694364Y38041D01*
X694374Y38005D01*
X694379Y37967D01*
X694440Y37767D01*
X694495Y37566D01*
X694511Y37531D01*
X694522Y37494D01*
X694614Y37307D01*
X694701Y37117D01*
X694722Y37086D01*
X694739Y37051D01*
X694859Y36881D01*
X694976Y36708D01*
X695002Y36680D01*
X695024Y36649D01*
X695171Y36501D01*
X695314Y36348D01*
X695344Y36325D01*
X695371Y36298D01*
X695540Y36175D01*
X695705Y36048D01*
X695739Y36030D01*
X695770Y36008D01*
X695956Y35914D01*
X696140Y35815D01*
X696176Y35802D01*
X696210Y35785D01*
X696409Y35723D01*
X696607Y35655D01*
X696644Y35649D01*
X696681Y35637D01*
X696773Y35627D01*
X697093Y35572D01*
X697265Y35571D01*
X697358Y35561D01*
X1367792Y35561D01*
X1367868Y35567D01*
X1367944Y35565D01*
X1368113Y35587D01*
X1368284Y35601D01*
X1368358Y35619D01*
X1368433Y35629D01*
X1368597Y35678D01*
X1368763Y35719D01*
X1368832Y35749D01*
X1368906Y35771D01*
X1369059Y35847D01*
X1369216Y35914D01*
X1369280Y35955D01*
X1369349Y35988D01*
X1369488Y36087D01*
X1369632Y36179D01*
X1369689Y36230D01*
X1369751Y36274D01*
X1369872Y36394D01*
X1370000Y36508D01*
X1370048Y36567D01*
X1370102Y36621D01*
X1370203Y36759D01*
X1370310Y36892D01*
X1370347Y36958D01*
X1370392Y37019D01*
X1370469Y37172D01*
X1370554Y37320D01*
X1370580Y37392D01*
X1370615Y37460D01*
X1370666Y37623D01*
X1370725Y37783D01*
X1370740Y37858D01*
X1370763Y37930D01*
X1370775Y38035D01*
X1370820Y38267D01*
X1370827Y38503D01*
X1370839Y38608D01*
X1370839Y647092D01*
X1370833Y647168D01*
X1370835Y647244D01*
X1370813Y647413D01*
X1370799Y647584D01*
X1370781Y647658D01*
X1370771Y647733D01*
X1370722Y647897D01*
X1370681Y648063D01*
X1370651Y648132D01*
X1370629Y648206D01*
X1370553Y648359D01*
X1370486Y648516D01*
X1370445Y648580D01*
X1370412Y648649D01*
X1370313Y648788D01*
X1370221Y648932D01*
X1370170Y648989D01*
X1370126Y649051D01*
X1370006Y649172D01*
X1369892Y649300D01*
X1369833Y649348D01*
X1369779Y649402D01*
X1369641Y649503D01*
X1369508Y649610D01*
X1369442Y649647D01*
X1369381Y649692D01*
X1369228Y649769D01*
X1369080Y649854D01*
X1369008Y649880D01*
X1368940Y649915D01*
X1368777Y649966D01*
X1368617Y650025D01*
X1368542Y650040D01*
X1368470Y650063D01*
X1368365Y650075D01*
X1368133Y650120D01*
X1367897Y650127D01*
X1367792Y650139D01*
X1014463Y650139D01*
X1014254Y650122D01*
X1014044Y650110D01*
X1014008Y650102D01*
X1013971Y650099D01*
X1013768Y650049D01*
X1013563Y650003D01*
X1013528Y649990D01*
X1013492Y649981D01*
X1013300Y649898D01*
X1013105Y649820D01*
X1013073Y649801D01*
X1013039Y649786D01*
X1012862Y649674D01*
X1012682Y649565D01*
X1012654Y649541D01*
X1012623Y649521D01*
X1012467Y649382D01*
X1012307Y649245D01*
X1012282Y649217D01*
X1012255Y649192D01*
X1012123Y649029D01*
X1011987Y648869D01*
X1011968Y648837D01*
X1011945Y648808D01*
X1011841Y648627D01*
X1011733Y648447D01*
X1011719Y648412D01*
X1011701Y648380D01*
X1011628Y648183D01*
X1011550Y647988D01*
X1011542Y647952D01*
X1011529Y647917D01*
X1011489Y647712D01*
X1011444Y647507D01*
X1011442Y647469D01*
X1011434Y647433D01*
X1011428Y647224D01*
X1011416Y647014D01*
X1011420Y646977D01*
X1011419Y646940D01*
X1011446Y646732D01*
X1011469Y646524D01*
X1011479Y646488D01*
X1011484Y646451D01*
X1011544Y646250D01*
X1011600Y646048D01*
X1011615Y646014D01*
X1011626Y645979D01*
X1011718Y645790D01*
X1011806Y645600D01*
X1011827Y645569D01*
X1011843Y645535D01*
X1011902Y645452D01*
X1014144Y640796D01*
X1014144Y640376D01*
X1014144Y635444D01*
X1014152Y635349D01*
X1014150Y635254D01*
X1014172Y635104D01*
X1014184Y634953D01*
X1014207Y634860D01*
X1014221Y634766D01*
X1014254Y634670D01*
X1014303Y634474D01*
X1014412Y634220D01*
X1014446Y634122D01*
X1015048Y632874D01*
X1015048Y632248D01*
X1015048Y627681D01*
X1012795Y623003D01*
X1008735Y619766D01*
X1003673Y618611D01*
X998194Y619861D01*
X998178Y619868D01*
X997986Y619914D01*
X997794Y619967D01*
X997746Y619972D01*
X997698Y619984D01*
X997501Y619999D01*
X997304Y620020D01*
X997255Y620017D01*
X997206Y620021D01*
X997009Y620003D01*
X996811Y619992D01*
X996764Y619982D01*
X996715Y619978D01*
X996619Y619950D01*
X996330Y619886D01*
X996154Y619816D01*
X996060Y619789D01*
X993922Y618903D01*
X982162Y618903D01*
X979447Y620028D01*
X979309Y620073D01*
X979173Y620126D01*
X979074Y620148D01*
X978978Y620179D01*
X978834Y620201D01*
X978691Y620232D01*
X978590Y620238D01*
X978490Y620253D01*
X978344Y620251D01*
X978198Y620259D01*
X978098Y620248D01*
X977997Y620247D01*
X977853Y620221D01*
X977708Y620205D01*
X977635Y620183D01*
X977511Y620161D01*
X977084Y620012D01*
X977057Y620003D01*
X974550Y618903D01*
X970271Y618903D01*
X967765Y620003D01*
X967627Y620051D01*
X967493Y620107D01*
X967394Y620131D01*
X967299Y620164D01*
X967155Y620189D01*
X967013Y620223D01*
X966912Y620231D01*
X966813Y620248D01*
X966667Y620249D01*
X966521Y620260D01*
X966420Y620251D01*
X966319Y620252D01*
X966175Y620229D01*
X966030Y620217D01*
X965957Y620196D01*
X965832Y620176D01*
X965402Y620036D01*
X965375Y620028D01*
X962659Y618903D01*
X952665Y618903D01*
X952508Y618891D01*
X952419Y618893D01*
X951429Y618813D01*
X951385Y618827D01*
X951301Y618836D01*
X951162Y618869D01*
X950946Y618884D01*
X950010Y619272D01*
X949860Y619320D01*
X949778Y619357D01*
X948833Y619662D01*
X948798Y619691D01*
X948724Y619732D01*
X948608Y619816D01*
X948415Y619912D01*
X948042Y620284D01*
X947868Y620432D01*
X947697Y620582D01*
X947681Y620592D01*
X947666Y620604D01*
X947470Y620722D01*
X947277Y620841D01*
X947260Y620849D01*
X947244Y620858D01*
X947031Y620943D01*
X946821Y621030D01*
X946803Y621034D01*
X946785Y621042D01*
X946562Y621091D01*
X946341Y621143D01*
X946322Y621144D01*
X946304Y621148D01*
X946075Y621161D01*
X945849Y621177D01*
X945830Y621175D01*
X945811Y621176D01*
X945584Y621152D01*
X945358Y621131D01*
X945340Y621126D01*
X945321Y621124D01*
X945102Y621064D01*
X944881Y621006D01*
X944863Y620998D01*
X944845Y620993D01*
X944638Y620898D01*
X944430Y620806D01*
X944414Y620795D01*
X944397Y620787D01*
X944206Y620659D01*
X944017Y620535D01*
X944003Y620523D01*
X943987Y620512D01*
X943821Y620355D01*
X943653Y620202D01*
X943644Y620189D01*
X943628Y620174D01*
X943327Y619783D01*
X943284Y619701D01*
X943248Y619653D01*
X941167Y616048D01*
X936727Y613485D01*
X934163Y613485D01*
X932193Y613485D01*
X932192Y613485D01*
X929186Y613485D01*
X926665Y614529D01*
X924736Y616458D01*
X924502Y617022D01*
X924403Y617215D01*
X924306Y617413D01*
X924290Y617436D01*
X924277Y617461D01*
X924148Y617636D01*
X924021Y617815D01*
X924001Y617835D01*
X923984Y617858D01*
X923828Y618010D01*
X923674Y618166D01*
X923651Y618183D01*
X923631Y618202D01*
X923452Y618327D01*
X923275Y618456D01*
X923250Y618469D01*
X923227Y618485D01*
X923030Y618580D01*
X922835Y618679D01*
X922808Y618687D01*
X922782Y618700D01*
X922573Y618761D01*
X922365Y618827D01*
X922341Y618830D01*
X922309Y618839D01*
X921820Y618900D01*
X921739Y618897D01*
X921687Y618903D01*
X921513Y618903D01*
X920431Y619351D01*
X920322Y619386D01*
X920217Y619431D01*
X920088Y619462D01*
X919961Y619503D01*
X919848Y619520D01*
X919737Y619547D01*
X919605Y619556D01*
X919473Y619576D01*
X919359Y619575D01*
X919245Y619583D01*
X919113Y619572D01*
X918980Y619570D01*
X918868Y619550D01*
X918754Y619540D01*
X918664Y619514D01*
X918494Y619484D01*
X918188Y619377D01*
X918099Y619351D01*
X917017Y618903D01*
X914288Y618903D01*
X913414Y619265D01*
X913305Y619300D01*
X913200Y619345D01*
X913071Y619376D01*
X912945Y619416D01*
X912832Y619434D01*
X912721Y619460D01*
X912588Y619470D01*
X912457Y619490D01*
X912343Y619489D01*
X912229Y619497D01*
X912096Y619486D01*
X911964Y619484D01*
X911851Y619464D01*
X911737Y619454D01*
X911647Y619428D01*
X911478Y619398D01*
X911171Y619291D01*
X911082Y619265D01*
X910208Y618903D01*
X907480Y618903D01*
X906606Y619265D01*
X906497Y619300D01*
X906392Y619345D01*
X906263Y619376D01*
X906136Y619416D01*
X906023Y619434D01*
X905912Y619460D01*
X905780Y619470D01*
X905649Y619490D01*
X905534Y619489D01*
X905420Y619497D01*
X905288Y619486D01*
X905155Y619484D01*
X905043Y619464D01*
X904929Y619454D01*
X904839Y619428D01*
X904669Y619398D01*
X904363Y619291D01*
X904274Y619265D01*
X903400Y618903D01*
X900671Y618903D01*
X899589Y619351D01*
X899481Y619387D01*
X899375Y619431D01*
X899246Y619462D01*
X899120Y619503D01*
X899007Y619520D01*
X898896Y619547D01*
X898763Y619556D01*
X898632Y619576D01*
X898518Y619575D01*
X898404Y619583D01*
X898272Y619572D01*
X898139Y619570D01*
X898026Y619550D01*
X897912Y619540D01*
X897822Y619514D01*
X897653Y619484D01*
X897346Y619377D01*
X897257Y619351D01*
X896175Y618903D01*
X893446Y618903D01*
X892295Y619380D01*
X892186Y619415D01*
X892081Y619460D01*
X891952Y619491D01*
X891825Y619532D01*
X891712Y619549D01*
X891601Y619575D01*
X891469Y619585D01*
X891337Y619605D01*
X891223Y619604D01*
X891109Y619612D01*
X890977Y619601D01*
X890844Y619599D01*
X890732Y619579D01*
X890618Y619569D01*
X890527Y619543D01*
X890358Y619513D01*
X890052Y619406D01*
X889962Y619380D01*
X888811Y618903D01*
X881028Y618903D01*
X876954Y620590D01*
X876747Y620657D01*
X876540Y620728D01*
X876512Y620733D01*
X876485Y620742D01*
X876269Y620774D01*
X876053Y620811D01*
X876025Y620811D01*
X875997Y620815D01*
X875778Y620813D01*
X875560Y620814D01*
X875532Y620809D01*
X875504Y620809D01*
X875288Y620771D01*
X875073Y620737D01*
X875046Y620728D01*
X875018Y620723D01*
X874812Y620651D01*
X874604Y620583D01*
X874579Y620570D01*
X874552Y620561D01*
X874360Y620456D01*
X874167Y620355D01*
X874148Y620341D01*
X874119Y620325D01*
X873729Y620022D01*
X873675Y619963D01*
X873660Y619951D01*
X871130Y618903D01*
X868402Y618903D01*
X865881Y619947D01*
X865479Y620349D01*
X865435Y620386D01*
X865397Y620428D01*
X865248Y620546D01*
X865103Y620669D01*
X865054Y620698D01*
X865009Y620734D01*
X864843Y620825D01*
X864681Y620923D01*
X864627Y620945D01*
X864577Y620972D01*
X864399Y621036D01*
X864222Y621106D01*
X864167Y621119D01*
X864113Y621138D01*
X863926Y621172D01*
X863741Y621213D01*
X863683Y621216D01*
X863627Y621227D01*
X863438Y621230D01*
X863248Y621241D01*
X863191Y621235D01*
X863134Y621236D01*
X862946Y621209D01*
X862758Y621189D01*
X862703Y621173D01*
X862646Y621165D01*
X862548Y621131D01*
X862282Y621058D01*
X862098Y620973D01*
X862002Y620940D01*
X857773Y618903D01*
X849297Y618903D01*
X847104Y619812D01*
X846914Y619873D01*
X846726Y619940D01*
X846679Y619949D01*
X846634Y619963D01*
X846437Y619993D01*
X846240Y620029D01*
X846193Y620030D01*
X846146Y620037D01*
X845947Y620034D01*
X845747Y620038D01*
X845700Y620031D01*
X845653Y620030D01*
X845456Y619996D01*
X845259Y619967D01*
X845223Y619955D01*
X845167Y619945D01*
X844701Y619782D01*
X844652Y619755D01*
X844615Y619742D01*
X842874Y618903D01*
X838307Y618903D01*
X834398Y618903D01*
X831877Y619947D01*
X829947Y621877D01*
X828903Y624398D01*
X828903Y643382D01*
X829957Y645926D01*
X830012Y646097D01*
X830075Y646267D01*
X830088Y646332D01*
X830108Y646395D01*
X830135Y646574D01*
X830170Y646751D01*
X830172Y646817D01*
X830182Y646883D01*
X830179Y647064D01*
X830185Y647244D01*
X830176Y647310D01*
X830176Y647377D01*
X830144Y647554D01*
X830121Y647733D01*
X830101Y647797D01*
X830090Y647862D01*
X830030Y648032D01*
X829978Y648206D01*
X829949Y648265D01*
X829927Y648328D01*
X829841Y648486D01*
X829761Y648649D01*
X829723Y648703D01*
X829691Y648761D01*
X829580Y648904D01*
X829476Y649051D01*
X829429Y649098D01*
X829388Y649151D01*
X829256Y649274D01*
X829129Y649402D01*
X829075Y649441D01*
X829027Y649486D01*
X828876Y649586D01*
X828730Y649692D01*
X828671Y649722D01*
X828615Y649759D01*
X828451Y649833D01*
X828290Y649915D01*
X828226Y649935D01*
X828166Y649962D01*
X827992Y650009D01*
X827819Y650063D01*
X827767Y650069D01*
X827689Y650090D01*
X827198Y650139D01*
X827165Y650137D01*
X827142Y650139D01*
X799893Y650139D01*
X799713Y650125D01*
X799532Y650118D01*
X799467Y650105D01*
X799401Y650099D01*
X799226Y650056D01*
X799049Y650020D01*
X798987Y649997D01*
X798922Y649981D01*
X798756Y649909D01*
X798587Y649846D01*
X798530Y649812D01*
X798469Y649786D01*
X798317Y649689D01*
X798160Y649599D01*
X798109Y649557D01*
X798053Y649521D01*
X797918Y649401D01*
X797778Y649286D01*
X797734Y649237D01*
X797685Y649192D01*
X797572Y649052D01*
X797452Y648917D01*
X797417Y648860D01*
X797375Y648808D01*
X797286Y648652D01*
X797190Y648499D01*
X797164Y648437D01*
X797131Y648380D01*
X797068Y648211D01*
X796998Y648044D01*
X796982Y647979D01*
X796959Y647917D01*
X796925Y647740D01*
X796882Y647565D01*
X796877Y647498D01*
X796865Y647433D01*
X796859Y647253D01*
X796846Y647073D01*
X796851Y647006D01*
X796849Y646940D01*
X796873Y646761D01*
X796889Y646581D01*
X796903Y646530D01*
X796914Y646451D01*
X797056Y645979D01*
X797071Y645948D01*
X797077Y645926D01*
X797447Y645034D01*
X797447Y639566D01*
X795354Y634513D01*
X791487Y630646D01*
X786434Y628553D01*
X780966Y628553D01*
X775913Y630646D01*
X773155Y633404D01*
X773097Y633454D01*
X773044Y633509D01*
X772909Y633613D01*
X772779Y633724D01*
X772714Y633763D01*
X772653Y633810D01*
X772503Y633890D01*
X772356Y633979D01*
X772285Y634007D01*
X772218Y634043D01*
X772057Y634098D01*
X771898Y634162D01*
X771824Y634178D01*
X771752Y634203D01*
X771583Y634231D01*
X771416Y634268D01*
X771340Y634273D01*
X771265Y634285D01*
X771094Y634286D01*
X770924Y634296D01*
X770848Y634288D01*
X770772Y634288D01*
X770603Y634262D01*
X770433Y634244D01*
X770360Y634224D01*
X770285Y634212D01*
X770122Y634158D01*
X769958Y634113D01*
X769888Y634081D01*
X769816Y634058D01*
X769665Y633979D01*
X769509Y633907D01*
X769446Y633865D01*
X769378Y633830D01*
X769296Y633764D01*
X769100Y633632D01*
X768928Y633470D01*
X768845Y633404D01*
X766087Y630646D01*
X761034Y628553D01*
X755566Y628553D01*
X750513Y630646D01*
X747755Y633404D01*
X747697Y633454D01*
X747644Y633509D01*
X747509Y633613D01*
X747379Y633724D01*
X747314Y633763D01*
X747253Y633810D01*
X747103Y633890D01*
X746956Y633979D01*
X746885Y634007D01*
X746818Y634043D01*
X746657Y634098D01*
X746498Y634162D01*
X746424Y634178D01*
X746352Y634203D01*
X746183Y634231D01*
X746016Y634268D01*
X745940Y634273D01*
X745865Y634285D01*
X745694Y634286D01*
X745524Y634296D01*
X745448Y634288D01*
X745372Y634288D01*
X745203Y634262D01*
X745033Y634244D01*
X744960Y634224D01*
X744885Y634212D01*
X744722Y634158D01*
X744558Y634113D01*
X744488Y634081D01*
X744416Y634058D01*
X744265Y633979D01*
X744109Y633907D01*
X744046Y633865D01*
X743978Y633830D01*
X743896Y633764D01*
X743700Y633632D01*
X743528Y633470D01*
X743445Y633404D01*
X740687Y630646D01*
X735634Y628553D01*
X730166Y628553D01*
X725113Y630646D01*
X722355Y633404D01*
X722297Y633454D01*
X722244Y633509D01*
X722109Y633613D01*
X721979Y633724D01*
X721914Y633763D01*
X721853Y633810D01*
X721703Y633890D01*
X721556Y633979D01*
X721485Y634007D01*
X721418Y634043D01*
X721257Y634098D01*
X721098Y634162D01*
X721024Y634178D01*
X720952Y634203D01*
X720783Y634231D01*
X720616Y634268D01*
X720540Y634273D01*
X720465Y634285D01*
X720294Y634286D01*
X720124Y634296D01*
X720048Y634288D01*
X719972Y634288D01*
X719803Y634262D01*
X719633Y634244D01*
X719560Y634224D01*
X719485Y634212D01*
X719322Y634158D01*
X719158Y634113D01*
X719088Y634081D01*
X719016Y634058D01*
X718865Y633979D01*
X718709Y633907D01*
X718646Y633865D01*
X718578Y633830D01*
X718496Y633764D01*
X718300Y633632D01*
X718128Y633470D01*
X718045Y633404D01*
X715287Y630646D01*
X710234Y628553D01*
X704766Y628553D01*
X699713Y630646D01*
X696955Y633404D01*
X696897Y633454D01*
X696845Y633509D01*
X696709Y633613D01*
X696579Y633724D01*
X696513Y633763D01*
X696453Y633810D01*
X696303Y633890D01*
X696156Y633978D01*
X696086Y634007D01*
X696018Y634043D01*
X695857Y634098D01*
X695698Y634162D01*
X695624Y634178D01*
X695552Y634203D01*
X695383Y634231D01*
X695217Y634268D01*
X695140Y634273D01*
X695065Y634285D01*
X694894Y634286D01*
X694724Y634296D01*
X694648Y634288D01*
X694572Y634288D01*
X694403Y634262D01*
X694233Y634244D01*
X694160Y634224D01*
X694085Y634212D01*
X693922Y634158D01*
X693758Y634113D01*
X693688Y634081D01*
X693616Y634058D01*
X693464Y633979D01*
X693309Y633907D01*
X693246Y633865D01*
X693178Y633830D01*
X693096Y633764D01*
X692900Y633632D01*
X692728Y633470D01*
X692645Y633404D01*
X689887Y630646D01*
X684834Y628553D01*
X679366Y628553D01*
X674313Y630646D01*
X671555Y633404D01*
X671497Y633454D01*
X671444Y633509D01*
X671309Y633613D01*
X671179Y633724D01*
X671114Y633763D01*
X671053Y633810D01*
X670903Y633890D01*
X670756Y633979D01*
X670685Y634007D01*
X670618Y634043D01*
X670457Y634098D01*
X670298Y634162D01*
X670224Y634178D01*
X670152Y634203D01*
X669983Y634231D01*
X669816Y634268D01*
X669740Y634273D01*
X669665Y634285D01*
X669494Y634286D01*
X669324Y634296D01*
X669248Y634288D01*
X669172Y634288D01*
X669003Y634262D01*
X668833Y634244D01*
X668760Y634224D01*
X668685Y634212D01*
X668522Y634158D01*
X668358Y634113D01*
X668288Y634081D01*
X668216Y634058D01*
X668065Y633979D01*
X667909Y633907D01*
X667846Y633865D01*
X667778Y633830D01*
X667696Y633764D01*
X667500Y633632D01*
X667328Y633470D01*
X667245Y633404D01*
X664487Y630646D01*
X659434Y628553D01*
X653966Y628553D01*
X648913Y630646D01*
X646155Y633404D01*
X646097Y633454D01*
X646044Y633509D01*
X645909Y633613D01*
X645779Y633724D01*
X645714Y633763D01*
X645653Y633810D01*
X645503Y633890D01*
X645356Y633979D01*
X645285Y634007D01*
X645218Y634043D01*
X645057Y634098D01*
X644898Y634162D01*
X644824Y634178D01*
X644752Y634203D01*
X644583Y634231D01*
X644416Y634268D01*
X644340Y634273D01*
X644265Y634285D01*
X644094Y634286D01*
X643924Y634296D01*
X643848Y634288D01*
X643772Y634288D01*
X643603Y634262D01*
X643433Y634244D01*
X643360Y634224D01*
X643285Y634212D01*
X643122Y634158D01*
X642958Y634113D01*
X642888Y634081D01*
X642816Y634058D01*
X642665Y633979D01*
X642509Y633907D01*
X642446Y633865D01*
X642378Y633830D01*
X642296Y633764D01*
X642100Y633632D01*
X641928Y633470D01*
X641845Y633404D01*
X639087Y630646D01*
X634034Y628553D01*
X628566Y628553D01*
X623513Y630646D01*
X620755Y633404D01*
X620697Y633454D01*
X620645Y633509D01*
X620509Y633613D01*
X620379Y633724D01*
X620313Y633763D01*
X620253Y633810D01*
X620103Y633890D01*
X619956Y633978D01*
X619886Y634007D01*
X619818Y634043D01*
X619657Y634098D01*
X619498Y634162D01*
X619424Y634178D01*
X619352Y634203D01*
X619183Y634231D01*
X619017Y634268D01*
X618940Y634273D01*
X618865Y634285D01*
X618694Y634286D01*
X618524Y634296D01*
X618448Y634288D01*
X618372Y634288D01*
X618203Y634262D01*
X618033Y634244D01*
X617960Y634224D01*
X617885Y634212D01*
X617722Y634158D01*
X617558Y634113D01*
X617488Y634081D01*
X617416Y634058D01*
X617264Y633979D01*
X617109Y633907D01*
X617046Y633865D01*
X616978Y633830D01*
X616896Y633764D01*
X616700Y633632D01*
X616528Y633470D01*
X616445Y633404D01*
X613687Y630646D01*
X608634Y628553D01*
X603166Y628553D01*
X598113Y630646D01*
X595355Y633404D01*
X595297Y633454D01*
X595244Y633509D01*
X595109Y633613D01*
X594979Y633724D01*
X594914Y633763D01*
X594853Y633810D01*
X594703Y633890D01*
X594556Y633979D01*
X594485Y634007D01*
X594418Y634043D01*
X594257Y634098D01*
X594098Y634162D01*
X594024Y634178D01*
X593952Y634203D01*
X593783Y634231D01*
X593616Y634268D01*
X593540Y634273D01*
X593465Y634285D01*
X593294Y634286D01*
X593124Y634296D01*
X593048Y634288D01*
X592972Y634288D01*
X592803Y634262D01*
X592633Y634244D01*
X592560Y634224D01*
X592485Y634212D01*
X592322Y634158D01*
X592158Y634113D01*
X592088Y634081D01*
X592016Y634058D01*
X591865Y633979D01*
X591709Y633907D01*
X591646Y633865D01*
X591578Y633830D01*
X591496Y633764D01*
X591300Y633632D01*
X591128Y633470D01*
X591045Y633404D01*
X588287Y630646D01*
X583234Y628553D01*
X577766Y628553D01*
X572713Y630646D01*
X569955Y633404D01*
X569897Y633454D01*
X569844Y633509D01*
X569709Y633613D01*
X569579Y633724D01*
X569514Y633763D01*
X569453Y633810D01*
X569303Y633890D01*
X569156Y633979D01*
X569085Y634007D01*
X569018Y634043D01*
X568857Y634098D01*
X568698Y634162D01*
X568624Y634178D01*
X568552Y634203D01*
X568383Y634231D01*
X568216Y634268D01*
X568140Y634273D01*
X568065Y634285D01*
X567894Y634286D01*
X567724Y634296D01*
X567648Y634288D01*
X567572Y634288D01*
X567403Y634262D01*
X567233Y634244D01*
X567160Y634224D01*
X567085Y634212D01*
X566922Y634158D01*
X566758Y634113D01*
X566688Y634081D01*
X566616Y634058D01*
X566465Y633979D01*
X566309Y633907D01*
X566246Y633865D01*
X566178Y633830D01*
X566096Y633764D01*
X565900Y633632D01*
X565728Y633470D01*
X565645Y633404D01*
X562887Y630646D01*
X557834Y628553D01*
X552366Y628553D01*
X547313Y630646D01*
X544555Y633404D01*
X544497Y633454D01*
X544444Y633509D01*
X544309Y633613D01*
X544179Y633724D01*
X544114Y633763D01*
X544053Y633810D01*
X543903Y633890D01*
X543756Y633979D01*
X543685Y634007D01*
X543618Y634043D01*
X543457Y634098D01*
X543298Y634162D01*
X543224Y634178D01*
X543152Y634203D01*
X542983Y634231D01*
X542816Y634268D01*
X542740Y634273D01*
X542665Y634285D01*
X542494Y634286D01*
X542324Y634296D01*
X542248Y634288D01*
X542172Y634288D01*
X542003Y634262D01*
X541833Y634244D01*
X541760Y634224D01*
X541685Y634212D01*
X541522Y634158D01*
X541358Y634113D01*
X541288Y634081D01*
X541216Y634058D01*
X541065Y633979D01*
X540909Y633907D01*
X540846Y633865D01*
X540778Y633830D01*
X540696Y633764D01*
X540500Y633632D01*
X540328Y633470D01*
X540245Y633404D01*
X537487Y630646D01*
X534286Y629320D01*
X534126Y629238D01*
X533962Y629163D01*
X533906Y629126D01*
X533847Y629095D01*
X533702Y628988D01*
X533552Y628887D01*
X533504Y628842D01*
X533450Y628802D01*
X533324Y628673D01*
X533193Y628550D01*
X533152Y628497D01*
X533106Y628449D01*
X533002Y628301D01*
X532893Y628158D01*
X532861Y628100D01*
X532823Y628045D01*
X532745Y627882D01*
X532659Y627723D01*
X532638Y627661D01*
X532609Y627601D01*
X532558Y627427D01*
X532499Y627257D01*
X532488Y627191D01*
X532469Y627127D01*
X532447Y626949D01*
X532417Y626770D01*
X532416Y626704D01*
X532408Y626638D01*
X532415Y626458D01*
X532414Y626277D01*
X532424Y626211D01*
X532427Y626145D01*
X532462Y625968D01*
X532490Y625790D01*
X532511Y625727D01*
X532524Y625661D01*
X532588Y625492D01*
X532645Y625321D01*
X532675Y625262D01*
X532699Y625200D01*
X532789Y625043D01*
X532872Y624884D01*
X532905Y624842D01*
X532946Y624773D01*
X533258Y624391D01*
X533283Y624369D01*
X533298Y624350D01*
X582533Y575115D01*
X582620Y575041D01*
X582700Y574960D01*
X582808Y574882D01*
X582909Y574796D01*
X583007Y574737D01*
X583099Y574670D01*
X583217Y574610D01*
X583331Y574541D01*
X583437Y574499D01*
X583539Y574447D01*
X583666Y574407D01*
X583789Y574358D01*
X583901Y574333D01*
X584010Y574299D01*
X584103Y574289D01*
X584271Y574251D01*
X584595Y574233D01*
X584688Y574223D01*
X948041Y574223D01*
X951402Y572831D01*
X975963Y548270D01*
X976003Y548235D01*
X976039Y548196D01*
X976191Y548076D01*
X976339Y547950D01*
X976384Y547923D01*
X976426Y547890D01*
X976595Y547796D01*
X976761Y547696D01*
X976811Y547676D01*
X976857Y547650D01*
X977040Y547584D01*
X977219Y547513D01*
X977271Y547501D01*
X977322Y547483D01*
X977512Y547448D01*
X977701Y547406D01*
X977754Y547403D01*
X977807Y547393D01*
X978000Y547389D01*
X978194Y547378D01*
X978247Y547384D01*
X978300Y547383D01*
X978492Y547410D01*
X978684Y547430D01*
X978735Y547445D01*
X978788Y547452D01*
X978973Y547510D01*
X979160Y547561D01*
X979208Y547583D01*
X979259Y547599D01*
X979432Y547686D01*
X979608Y547767D01*
X979653Y547797D01*
X979700Y547821D01*
X979857Y547934D01*
X980018Y548042D01*
X980056Y548079D01*
X980100Y548110D01*
X980236Y548248D01*
X980377Y548380D01*
X980410Y548422D01*
X980447Y548460D01*
X980560Y548618D01*
X980677Y548771D01*
X980703Y548819D01*
X980734Y548862D01*
X980776Y548955D01*
X980911Y549206D01*
X980974Y549392D01*
X981016Y549483D01*
X981184Y550000D01*
X981910Y551425D01*
X982850Y552719D01*
X983981Y553850D01*
X984439Y554183D01*
X984458Y554199D01*
X984477Y554211D01*
X984578Y554302D01*
X984707Y554402D01*
X984757Y554456D01*
X984814Y554505D01*
X984839Y554535D01*
X984845Y554540D01*
X984877Y554580D01*
X984925Y554637D01*
X985042Y554764D01*
X985084Y554826D01*
X985131Y554882D01*
X985219Y555030D01*
X985315Y555175D01*
X985346Y555242D01*
X985384Y555306D01*
X985447Y555467D01*
X985518Y555624D01*
X985537Y555696D01*
X985564Y555765D01*
X985601Y555934D01*
X985646Y556101D01*
X985653Y556175D01*
X985669Y556247D01*
X985678Y556420D01*
X985695Y556592D01*
X985690Y556666D01*
X985694Y556740D01*
X985675Y556912D01*
X985664Y557084D01*
X985648Y557156D01*
X985639Y557230D01*
X985593Y557397D01*
X985554Y557565D01*
X985526Y557634D01*
X985506Y557705D01*
X985433Y557862D01*
X985368Y558022D01*
X985330Y558085D01*
X985298Y558153D01*
X985201Y558296D01*
X985111Y558443D01*
X985063Y558499D01*
X985021Y558561D01*
X984902Y558686D01*
X984789Y558817D01*
X984732Y558865D01*
X984681Y558918D01*
X984544Y559023D01*
X984411Y559134D01*
X984360Y559162D01*
X984288Y559217D01*
X983852Y559448D01*
X983829Y559455D01*
X983814Y559464D01*
X982830Y559872D01*
X978972Y563730D01*
X976883Y568772D01*
X976883Y574228D01*
X978972Y579270D01*
X982830Y583128D01*
X987872Y585217D01*
X993328Y585217D01*
X998370Y583128D01*
X1002228Y579270D01*
X1004317Y574228D01*
X1004317Y568772D01*
X1002228Y563730D01*
X998370Y559872D01*
X997386Y559464D01*
X997232Y559385D01*
X997074Y559314D01*
X997013Y559273D01*
X996947Y559239D01*
X996807Y559136D01*
X996664Y559040D01*
X996609Y558990D01*
X996550Y558946D01*
X996429Y558822D01*
X996303Y558704D01*
X996257Y558646D01*
X996205Y558593D01*
X996106Y558451D01*
X996000Y558314D01*
X995965Y558249D01*
X995922Y558189D01*
X995847Y558033D01*
X995765Y557881D01*
X995741Y557811D01*
X995708Y557744D01*
X995659Y557578D01*
X995603Y557415D01*
X995590Y557342D01*
X995569Y557271D01*
X995547Y557099D01*
X995518Y556929D01*
X995517Y556855D01*
X995508Y556781D01*
X995514Y556609D01*
X995512Y556436D01*
X995523Y556362D01*
X995526Y556288D01*
X995560Y556119D01*
X995586Y555948D01*
X995609Y555878D01*
X995624Y555805D01*
X995685Y555643D01*
X995738Y555479D01*
X995772Y555413D01*
X995798Y555343D01*
X995885Y555194D01*
X995964Y555040D01*
X996008Y554980D01*
X996045Y554916D01*
X996155Y554782D01*
X996224Y554689D01*
X996229Y554682D01*
X996230Y554681D01*
X996257Y554643D01*
X996300Y554604D01*
X996357Y554534D01*
X996489Y554418D01*
X996576Y554331D01*
X996649Y554277D01*
X996727Y554208D01*
X996748Y554195D01*
X996761Y554183D01*
X997219Y553850D01*
X998350Y552719D01*
X999290Y551425D01*
X1000016Y550000D01*
X1000293Y549147D01*
X990600Y549147D01*
X990524Y549141D01*
X990448Y549144D01*
X990279Y549121D01*
X990109Y549107D01*
X990035Y549089D01*
X989959Y549079D01*
X989795Y549030D01*
X989630Y548989D01*
X989560Y548959D01*
X989487Y548937D01*
X989333Y548862D01*
X989176Y548794D01*
X989112Y548753D01*
X989044Y548720D01*
X988904Y548621D01*
X988760Y548529D01*
X988704Y548478D01*
X988641Y548434D01*
X988520Y548314D01*
X988392Y548200D01*
X988345Y548141D01*
X988290Y548088D01*
X988190Y547949D01*
X988083Y547817D01*
X988045Y547750D01*
X988000Y547689D01*
X987923Y547536D01*
X987839Y547388D01*
X987812Y547316D01*
X987778Y547248D01*
X987726Y547086D01*
X987667Y546925D01*
X987652Y546851D01*
X987629Y546778D01*
X987618Y546673D01*
X987572Y546441D01*
X987565Y546205D01*
X987553Y546100D01*
X987559Y546024D01*
X987557Y545948D01*
X987579Y545778D01*
X987593Y545608D01*
X987611Y545534D01*
X987621Y545459D01*
X987671Y545295D01*
X987712Y545129D01*
X987742Y545059D01*
X987764Y544986D01*
X987839Y544833D01*
X987906Y544676D01*
X987947Y544612D01*
X987981Y544543D01*
X988080Y544404D01*
X988171Y544260D01*
X988222Y544203D01*
X988266Y544141D01*
X988386Y544019D01*
X988500Y543892D01*
X988559Y543844D01*
X988613Y543790D01*
X988751Y543689D01*
X988884Y543582D01*
X988950Y543544D01*
X989012Y543499D01*
X989164Y543423D01*
X989313Y543338D01*
X989384Y543311D01*
X989452Y543277D01*
X989615Y543226D01*
X989775Y543166D01*
X989850Y543152D01*
X989923Y543129D01*
X990027Y543117D01*
X990259Y543072D01*
X990495Y543064D01*
X990600Y543053D01*
X1000293Y543053D01*
X1000016Y542200D01*
X999290Y540775D01*
X998350Y539481D01*
X997219Y538350D01*
X996761Y538017D01*
X996630Y537904D01*
X996493Y537798D01*
X996443Y537744D01*
X996386Y537695D01*
X996275Y537563D01*
X996157Y537436D01*
X996116Y537374D01*
X996069Y537318D01*
X995980Y537169D01*
X995885Y537025D01*
X995854Y536958D01*
X995816Y536894D01*
X995753Y536733D01*
X995682Y536576D01*
X995663Y536504D01*
X995636Y536435D01*
X995599Y536266D01*
X995554Y536099D01*
X995547Y536025D01*
X995531Y535953D01*
X995522Y535780D01*
X995505Y535608D01*
X995510Y535534D01*
X995506Y535460D01*
X995525Y535288D01*
X995536Y535116D01*
X995552Y535044D01*
X995561Y534970D01*
X995607Y534803D01*
X995646Y534635D01*
X995674Y534566D01*
X995694Y534495D01*
X995766Y534338D01*
X995832Y534178D01*
X995870Y534115D01*
X995902Y534047D01*
X995999Y533905D01*
X996089Y533757D01*
X996137Y533701D01*
X996179Y533640D01*
X996298Y533514D01*
X996411Y533383D01*
X996468Y533335D01*
X996519Y533282D01*
X996656Y533177D01*
X996789Y533066D01*
X996840Y533038D01*
X996912Y532983D01*
X997347Y532752D01*
X997371Y532744D01*
X997386Y532736D01*
X998370Y532328D01*
X1002228Y528470D01*
X1004317Y523428D01*
X1004317Y517972D01*
X1002228Y512930D01*
X998370Y509072D01*
X993328Y506983D01*
X987872Y506983D01*
X982830Y509072D01*
X978972Y512930D01*
X976883Y517972D01*
X976883Y520222D01*
X976874Y520336D01*
X976875Y520450D01*
X976854Y520581D01*
X976843Y520714D01*
X976816Y520824D01*
X976798Y520937D01*
X976757Y521064D01*
X976725Y521192D01*
X976680Y521297D01*
X976644Y521406D01*
X976582Y521524D01*
X976530Y521646D01*
X976469Y521742D01*
X976416Y521843D01*
X976357Y521917D01*
X976265Y522062D01*
X976049Y522304D01*
X975991Y522377D01*
X943327Y555041D01*
X943240Y555115D01*
X943159Y555196D01*
X943052Y555274D01*
X942951Y555360D01*
X942853Y555419D01*
X942761Y555486D01*
X942642Y555546D01*
X942528Y555615D01*
X942422Y555657D01*
X942320Y555709D01*
X942193Y555749D01*
X942070Y555798D01*
X941959Y555823D01*
X941850Y555857D01*
X941756Y555867D01*
X941588Y555905D01*
X941264Y555923D01*
X941172Y555933D01*
X577818Y555933D01*
X574457Y557325D01*
X571456Y560327D01*
X504122Y627661D01*
X504035Y627735D01*
X503955Y627816D01*
X503848Y627894D01*
X503746Y627980D01*
X503648Y628039D01*
X503556Y628106D01*
X503438Y628166D01*
X503324Y628235D01*
X503217Y628277D01*
X503116Y628329D01*
X502989Y628369D01*
X502866Y628418D01*
X502754Y628443D01*
X502645Y628477D01*
X502552Y628487D01*
X502384Y628525D01*
X502060Y628543D01*
X501967Y628553D01*
X501566Y628553D01*
X496513Y630646D01*
X493755Y633404D01*
X493697Y633454D01*
X493644Y633509D01*
X493509Y633613D01*
X493379Y633724D01*
X493314Y633763D01*
X493253Y633810D01*
X493103Y633890D01*
X492956Y633979D01*
X492885Y634007D01*
X492818Y634043D01*
X492657Y634098D01*
X492498Y634162D01*
X492424Y634178D01*
X492352Y634203D01*
X492183Y634231D01*
X492016Y634268D01*
X491940Y634273D01*
X491865Y634285D01*
X491694Y634286D01*
X491524Y634296D01*
X491448Y634288D01*
X491372Y634288D01*
X491203Y634262D01*
X491033Y634244D01*
X490960Y634224D01*
X490885Y634212D01*
X490722Y634158D01*
X490558Y634113D01*
X490488Y634081D01*
X490416Y634058D01*
X490265Y633979D01*
X490109Y633907D01*
X490046Y633865D01*
X489978Y633830D01*
X489896Y633764D01*
X489700Y633632D01*
X489528Y633470D01*
X489445Y633404D01*
X486687Y630646D01*
X481634Y628553D01*
X476166Y628553D01*
X471113Y630646D01*
X467246Y634513D01*
X466857Y635453D01*
X466778Y635607D01*
X466706Y635765D01*
X466665Y635826D01*
X466632Y635892D01*
X466529Y636031D01*
X466433Y636175D01*
X466383Y636230D01*
X466339Y636289D01*
X466215Y636410D01*
X466097Y636537D01*
X466038Y636582D01*
X465985Y636634D01*
X465844Y636733D01*
X465707Y636839D01*
X465642Y636874D01*
X465581Y636917D01*
X465426Y636992D01*
X465274Y637074D01*
X465204Y637098D01*
X465137Y637131D01*
X464971Y637180D01*
X464808Y637236D01*
X464735Y637249D01*
X464664Y637270D01*
X464492Y637292D01*
X464322Y637321D01*
X464248Y637322D01*
X464174Y637331D01*
X464002Y637325D01*
X463828Y637327D01*
X463755Y637316D01*
X463681Y637313D01*
X463512Y637279D01*
X463341Y637253D01*
X463270Y637230D01*
X463198Y637215D01*
X463036Y637154D01*
X462871Y637101D01*
X462805Y637067D01*
X462736Y637041D01*
X462586Y636954D01*
X462433Y636875D01*
X462373Y636831D01*
X462309Y636794D01*
X462175Y636685D01*
X462036Y636582D01*
X461997Y636539D01*
X461927Y636482D01*
X461601Y636112D01*
X461588Y636091D01*
X461576Y636078D01*
X461273Y635661D01*
X460139Y634527D01*
X458841Y633584D01*
X457412Y632856D01*
X456547Y632575D01*
X456547Y642300D01*
X456541Y642376D01*
X456544Y642452D01*
X456521Y642621D01*
X456507Y642791D01*
X456489Y642865D01*
X456479Y642941D01*
X456430Y643105D01*
X456389Y643270D01*
X456359Y643340D01*
X456337Y643413D01*
X456262Y643567D01*
X456194Y643724D01*
X456153Y643788D01*
X456120Y643856D01*
X456021Y643996D01*
X455929Y644140D01*
X455878Y644196D01*
X455834Y644259D01*
X455714Y644380D01*
X455600Y644508D01*
X455541Y644555D01*
X455488Y644610D01*
X455349Y644710D01*
X455217Y644817D01*
X455150Y644855D01*
X455089Y644900D01*
X454936Y644977D01*
X454788Y645061D01*
X454716Y645088D01*
X454648Y645122D01*
X454486Y645174D01*
X454325Y645233D01*
X454251Y645248D01*
X454178Y645271D01*
X454073Y645282D01*
X453841Y645328D01*
X453605Y645335D01*
X453500Y645347D01*
X453424Y645341D01*
X453348Y645343D01*
X453178Y645321D01*
X453008Y645307D01*
X452934Y645289D01*
X452859Y645279D01*
X452695Y645229D01*
X452529Y645188D01*
X452459Y645158D01*
X452386Y645136D01*
X452233Y645061D01*
X452076Y644994D01*
X452012Y644953D01*
X451943Y644919D01*
X451804Y644820D01*
X451660Y644729D01*
X451603Y644678D01*
X451541Y644634D01*
X451419Y644514D01*
X451292Y644400D01*
X451244Y644341D01*
X451190Y644287D01*
X451089Y644149D01*
X450982Y644016D01*
X450944Y643950D01*
X450899Y643888D01*
X450823Y643736D01*
X450738Y643587D01*
X450711Y643516D01*
X450677Y643448D01*
X450626Y643285D01*
X450566Y643125D01*
X450552Y643050D01*
X450529Y642977D01*
X450517Y642873D01*
X450472Y642641D01*
X450464Y642405D01*
X450453Y642300D01*
X450453Y632575D01*
X449588Y632856D01*
X448159Y633584D01*
X446861Y634527D01*
X445727Y635661D01*
X445424Y636078D01*
X445312Y636209D01*
X445205Y636346D01*
X445151Y636396D01*
X445103Y636453D01*
X444970Y636564D01*
X444844Y636681D01*
X444782Y636722D01*
X444725Y636770D01*
X444576Y636859D01*
X444432Y636954D01*
X444365Y636985D01*
X444301Y637023D01*
X444140Y637086D01*
X443983Y637157D01*
X443911Y637176D01*
X443842Y637203D01*
X443674Y637240D01*
X443506Y637285D01*
X443432Y637292D01*
X443360Y637308D01*
X443188Y637317D01*
X443015Y637334D01*
X442941Y637329D01*
X442867Y637333D01*
X442695Y637314D01*
X442523Y637303D01*
X442451Y637287D01*
X442377Y637278D01*
X442211Y637232D01*
X442042Y637193D01*
X441973Y637165D01*
X441902Y637145D01*
X441746Y637073D01*
X441585Y637007D01*
X441522Y636969D01*
X441455Y636937D01*
X441312Y636840D01*
X441164Y636750D01*
X441108Y636702D01*
X441047Y636660D01*
X440921Y636541D01*
X440790Y636428D01*
X440743Y636371D01*
X440689Y636320D01*
X440584Y636183D01*
X440473Y636050D01*
X440445Y635999D01*
X440391Y635927D01*
X440160Y635492D01*
X440152Y635468D01*
X440143Y635453D01*
X439754Y634513D01*
X435887Y630646D01*
X430834Y628553D01*
X425366Y628553D01*
X420313Y630646D01*
X417555Y633404D01*
X417497Y633454D01*
X417444Y633509D01*
X417309Y633613D01*
X417179Y633724D01*
X417114Y633763D01*
X417053Y633810D01*
X416903Y633890D01*
X416756Y633979D01*
X416685Y634007D01*
X416618Y634043D01*
X416457Y634098D01*
X416298Y634162D01*
X416224Y634178D01*
X416152Y634203D01*
X415983Y634231D01*
X415816Y634268D01*
X415740Y634273D01*
X415665Y634285D01*
X415494Y634286D01*
X415324Y634296D01*
X415248Y634288D01*
X415172Y634288D01*
X415003Y634262D01*
X414833Y634244D01*
X414760Y634224D01*
X414685Y634212D01*
X414522Y634158D01*
X414358Y634113D01*
X414288Y634081D01*
X414216Y634058D01*
X414065Y633979D01*
X413909Y633907D01*
X413846Y633865D01*
X413778Y633830D01*
X413696Y633764D01*
X413500Y633632D01*
X413328Y633470D01*
X413245Y633404D01*
X410487Y630646D01*
X405434Y628553D01*
X399966Y628553D01*
X394913Y630646D01*
X392155Y633404D01*
X392097Y633454D01*
X392044Y633509D01*
X391909Y633613D01*
X391779Y633724D01*
X391714Y633763D01*
X391653Y633810D01*
X391503Y633890D01*
X391356Y633979D01*
X391285Y634007D01*
X391218Y634043D01*
X391057Y634098D01*
X390898Y634162D01*
X390824Y634178D01*
X390752Y634203D01*
X390583Y634231D01*
X390416Y634268D01*
X390340Y634273D01*
X390265Y634285D01*
X390094Y634286D01*
X389924Y634296D01*
X389848Y634288D01*
X389772Y634288D01*
X389603Y634262D01*
X389433Y634244D01*
X389360Y634224D01*
X389285Y634212D01*
X389122Y634158D01*
X388958Y634113D01*
X388888Y634081D01*
X388816Y634058D01*
X388665Y633979D01*
X388509Y633907D01*
X388446Y633865D01*
X388378Y633830D01*
X388296Y633764D01*
X388100Y633632D01*
X387928Y633470D01*
X387845Y633404D01*
X385087Y630646D01*
X380034Y628553D01*
X374566Y628553D01*
X369513Y630646D01*
X365646Y634513D01*
X363553Y639566D01*
X363553Y645034D01*
X363923Y645926D01*
X363978Y646097D01*
X364041Y646267D01*
X364053Y646332D01*
X364074Y646395D01*
X364101Y646574D01*
X364135Y646751D01*
X364137Y646817D01*
X364147Y646883D01*
X364145Y647064D01*
X364151Y647244D01*
X364142Y647310D01*
X364141Y647377D01*
X364110Y647554D01*
X364086Y647733D01*
X364067Y647797D01*
X364055Y647862D01*
X363996Y648033D01*
X363944Y648206D01*
X363914Y648265D01*
X363893Y648328D01*
X363806Y648486D01*
X363727Y648649D01*
X363688Y648703D01*
X363657Y648761D01*
X363546Y648904D01*
X363441Y649051D01*
X363395Y649098D01*
X363354Y649151D01*
X363222Y649273D01*
X363095Y649402D01*
X363041Y649441D01*
X362992Y649486D01*
X362842Y649586D01*
X362696Y649692D01*
X362637Y649722D01*
X362581Y649759D01*
X362417Y649833D01*
X362255Y649915D01*
X362192Y649935D01*
X362131Y649962D01*
X361958Y650009D01*
X361785Y650063D01*
X361732Y650069D01*
X361655Y650090D01*
X361164Y650139D01*
X361131Y650137D01*
X361107Y650139D01*
X508Y650139D01*
X432Y650133D01*
X356Y650135D01*
X187Y650113D01*
X16Y650099D01*
X-58Y650081D01*
X-133Y650071D01*
X-297Y650022D01*
X-463Y649981D01*
X-533Y649951D01*
X-606Y649929D01*
X-759Y649853D01*
X-916Y649786D01*
X-980Y649745D01*
X-1049Y649712D01*
X-1188Y649613D01*
X-1332Y649521D01*
X-1389Y649470D01*
X-1451Y649426D01*
X-1573Y649306D01*
X-1700Y649192D01*
X-1748Y649133D01*
X-1802Y649079D01*
X-1903Y648941D01*
X-2010Y648808D01*
X-2047Y648742D01*
X-2092Y648681D01*
X-2169Y648528D01*
X-2254Y648380D01*
X-2280Y648308D01*
X-2315Y648240D01*
X-2366Y648077D01*
X-2425Y647917D01*
X-2440Y647842D01*
X-2463Y647770D01*
X-2475Y647665D01*
X-2520Y647433D01*
X-2527Y647197D01*
X-2539Y647092D01*
X-2539Y38608D01*
X-2533Y38532D01*
X-2535Y38456D01*
X-2513Y38287D01*
X-2499Y38116D01*
X-2481Y38042D01*
X-2471Y37967D01*
X-2422Y37803D01*
X-2381Y37637D01*
X-2351Y37568D01*
X-2329Y37494D01*
X-2253Y37341D01*
X-2186Y37184D01*
X-2145Y37120D01*
X-2112Y37051D01*
X-2013Y36912D01*
X-1921Y36768D01*
X-1870Y36711D01*
X-1826Y36649D01*
X-1706Y36528D01*
X-1592Y36400D01*
X-1533Y36352D01*
X-1480Y36298D01*
X-1341Y36197D01*
X-1209Y36090D01*
X-1142Y36053D01*
X-1081Y36008D01*
X-928Y35931D01*
X-780Y35846D01*
X-708Y35820D01*
X-640Y35785D01*
X-477Y35734D01*
X-317Y35675D01*
X-243Y35660D01*
X-170Y35637D01*
X-65Y35625D01*
X167Y35580D01*
X403Y35573D01*
X508Y35561D01*
X344242Y35561D01*
X344280Y35564D01*
G37*
G36*
X674480Y35564D02*
X674480Y35564D01*
X674518Y35562D01*
X674726Y35584D01*
X674933Y35601D01*
X674970Y35610D01*
X675008Y35614D01*
X675210Y35669D01*
X675412Y35719D01*
X675447Y35734D01*
X675484Y35745D01*
X675674Y35832D01*
X675866Y35914D01*
X675898Y35934D01*
X675932Y35950D01*
X676106Y36067D01*
X676282Y36179D01*
X676310Y36204D01*
X676342Y36226D01*
X676494Y36369D01*
X676650Y36508D01*
X676674Y36537D01*
X676701Y36563D01*
X676829Y36730D01*
X676960Y36892D01*
X676978Y36924D01*
X677002Y36955D01*
X677101Y37139D01*
X677204Y37320D01*
X677217Y37356D01*
X677235Y37390D01*
X677302Y37587D01*
X677375Y37783D01*
X677382Y37820D01*
X677395Y37856D01*
X677430Y38063D01*
X677470Y38267D01*
X677471Y38305D01*
X677477Y38343D01*
X677479Y38552D01*
X677485Y38760D01*
X677480Y38798D01*
X677480Y38836D01*
X677448Y39043D01*
X677421Y39249D01*
X677410Y39286D01*
X677404Y39323D01*
X677339Y39522D01*
X677278Y39721D01*
X677261Y39756D01*
X677250Y39792D01*
X677153Y39977D01*
X677061Y40165D01*
X677039Y40196D01*
X677022Y40230D01*
X676964Y40302D01*
X676776Y40567D01*
X676655Y40689D01*
X676596Y40763D01*
X674246Y43113D01*
X672150Y48173D01*
X672130Y48359D01*
X672113Y48567D01*
X672104Y48604D01*
X672100Y48642D01*
X672045Y48843D01*
X671995Y49046D01*
X671980Y49081D01*
X671969Y49118D01*
X671882Y49308D01*
X671800Y49499D01*
X671780Y49531D01*
X671764Y49566D01*
X671647Y49740D01*
X671535Y49915D01*
X671510Y49944D01*
X671488Y49975D01*
X671345Y50127D01*
X671206Y50283D01*
X671177Y50307D01*
X671151Y50335D01*
X670985Y50462D01*
X670822Y50593D01*
X670789Y50612D01*
X670759Y50635D01*
X670575Y50734D01*
X670394Y50837D01*
X670358Y50850D01*
X670324Y50868D01*
X670127Y50936D01*
X669931Y51009D01*
X669894Y51016D01*
X669858Y51028D01*
X669651Y51064D01*
X669447Y51103D01*
X669409Y51105D01*
X669371Y51111D01*
X669162Y51112D01*
X668954Y51119D01*
X668916Y51114D01*
X668878Y51114D01*
X668671Y51082D01*
X668465Y51054D01*
X668428Y51043D01*
X668391Y51037D01*
X668192Y50972D01*
X667993Y50912D01*
X667958Y50895D01*
X667922Y50883D01*
X667737Y50787D01*
X667549Y50695D01*
X667518Y50673D01*
X667484Y50655D01*
X667412Y50597D01*
X667147Y50410D01*
X667025Y50289D01*
X666951Y50230D01*
X662605Y45884D01*
X654491Y42523D01*
X645709Y42523D01*
X637595Y45884D01*
X631384Y52095D01*
X628023Y60209D01*
X628023Y68991D01*
X628910Y71132D01*
X628977Y71339D01*
X629048Y71547D01*
X629053Y71575D01*
X629061Y71602D01*
X629094Y71817D01*
X629130Y72033D01*
X629131Y72061D01*
X629135Y72090D01*
X629132Y72307D01*
X629133Y72526D01*
X629129Y72554D01*
X629129Y72583D01*
X629091Y72797D01*
X629057Y73014D01*
X629048Y73041D01*
X629043Y73069D01*
X628971Y73274D01*
X628903Y73482D01*
X628889Y73508D01*
X628880Y73534D01*
X628776Y73726D01*
X628675Y73920D01*
X628660Y73938D01*
X628644Y73968D01*
X628341Y74357D01*
X628282Y74412D01*
X628249Y74453D01*
X614797Y87906D01*
X611795Y90907D01*
X610403Y94268D01*
X610403Y239932D01*
X611795Y243293D01*
X627722Y259220D01*
X627864Y259386D01*
X628008Y259550D01*
X628023Y259574D01*
X628042Y259596D01*
X628155Y259784D01*
X628271Y259968D01*
X628282Y259994D01*
X628296Y260018D01*
X628378Y260222D01*
X628462Y260422D01*
X628469Y260450D01*
X628479Y260476D01*
X628527Y260689D01*
X628578Y260902D01*
X628580Y260930D01*
X628586Y260958D01*
X628598Y261177D01*
X628615Y261394D01*
X628612Y261422D01*
X628614Y261451D01*
X628591Y261668D01*
X628572Y261885D01*
X628565Y261908D01*
X628562Y261941D01*
X628431Y262417D01*
X628397Y262490D01*
X628383Y262541D01*
X628023Y263409D01*
X628023Y272191D01*
X631384Y280305D01*
X637594Y286516D01*
X645969Y289985D01*
X646003Y290002D01*
X646039Y290015D01*
X646223Y290115D01*
X646408Y290210D01*
X646439Y290232D01*
X646472Y290251D01*
X646637Y290379D01*
X646805Y290503D01*
X646832Y290530D01*
X646862Y290553D01*
X647004Y290707D01*
X647150Y290856D01*
X647172Y290887D01*
X647198Y290915D01*
X647313Y291089D01*
X647433Y291260D01*
X647449Y291294D01*
X647470Y291326D01*
X647556Y291516D01*
X647647Y291704D01*
X647658Y291741D01*
X647673Y291776D01*
X647727Y291977D01*
X647786Y292178D01*
X647791Y292216D01*
X647801Y292252D01*
X647822Y292460D01*
X647848Y292667D01*
X647846Y292705D01*
X647850Y292743D01*
X647837Y292952D01*
X647829Y293160D01*
X647822Y293198D01*
X647819Y293236D01*
X647773Y293439D01*
X647731Y293644D01*
X647718Y293679D01*
X647709Y293717D01*
X647631Y293910D01*
X647557Y294105D01*
X647538Y294138D01*
X647523Y294173D01*
X647414Y294352D01*
X647310Y294532D01*
X647286Y294562D01*
X647266Y294594D01*
X647130Y294753D01*
X646998Y294914D01*
X646969Y294939D01*
X646944Y294968D01*
X646784Y295102D01*
X646628Y295241D01*
X646595Y295261D01*
X646566Y295285D01*
X646485Y295330D01*
X646210Y295503D01*
X646052Y295570D01*
X645969Y295615D01*
X637595Y299084D01*
X631384Y305295D01*
X628023Y313409D01*
X628023Y322191D01*
X631384Y330305D01*
X637595Y336516D01*
X645969Y339985D01*
X646003Y340002D01*
X646039Y340015D01*
X646223Y340115D01*
X646408Y340210D01*
X646439Y340232D01*
X646473Y340251D01*
X646638Y340379D01*
X646805Y340503D01*
X646832Y340530D01*
X646862Y340553D01*
X647004Y340707D01*
X647150Y340856D01*
X647172Y340887D01*
X647198Y340915D01*
X647313Y341089D01*
X647433Y341260D01*
X647449Y341294D01*
X647470Y341326D01*
X647556Y341516D01*
X647647Y341705D01*
X647658Y341741D01*
X647673Y341776D01*
X647727Y341977D01*
X647786Y342178D01*
X647791Y342216D01*
X647801Y342252D01*
X647822Y342460D01*
X647848Y342667D01*
X647846Y342705D01*
X647850Y342743D01*
X647837Y342952D01*
X647829Y343160D01*
X647822Y343198D01*
X647819Y343236D01*
X647773Y343439D01*
X647731Y343644D01*
X647718Y343679D01*
X647709Y343717D01*
X647631Y343910D01*
X647557Y344105D01*
X647538Y344138D01*
X647523Y344174D01*
X647415Y344352D01*
X647310Y344532D01*
X647286Y344562D01*
X647266Y344594D01*
X647129Y344753D01*
X646998Y344914D01*
X646969Y344939D01*
X646944Y344968D01*
X646784Y345103D01*
X646628Y345241D01*
X646596Y345261D01*
X646566Y345285D01*
X646485Y345331D01*
X646210Y345503D01*
X646052Y345570D01*
X645969Y345615D01*
X637594Y349084D01*
X631384Y355295D01*
X628023Y363409D01*
X628023Y372191D01*
X631384Y380305D01*
X637595Y386516D01*
X645709Y389877D01*
X654491Y389877D01*
X660629Y387334D01*
X660666Y387323D01*
X660700Y387306D01*
X660900Y387247D01*
X661099Y387183D01*
X661137Y387177D01*
X661173Y387166D01*
X661380Y387141D01*
X661587Y387109D01*
X661625Y387110D01*
X661663Y387105D01*
X661871Y387113D01*
X662080Y387116D01*
X662118Y387122D01*
X662156Y387124D01*
X662360Y387165D01*
X662566Y387201D01*
X662602Y387214D01*
X662639Y387221D01*
X662835Y387295D01*
X663032Y387364D01*
X663065Y387382D01*
X663101Y387396D01*
X663282Y387500D01*
X663465Y387600D01*
X663495Y387624D01*
X663528Y387643D01*
X663689Y387775D01*
X663854Y387903D01*
X663880Y387931D01*
X663910Y387955D01*
X664048Y388111D01*
X664190Y388265D01*
X664211Y388296D01*
X664236Y388325D01*
X664347Y388502D01*
X664463Y388676D01*
X664478Y388710D01*
X664499Y388743D01*
X664580Y388935D01*
X664666Y389125D01*
X664675Y389162D01*
X664690Y389197D01*
X664739Y389400D01*
X664793Y389602D01*
X664797Y389640D01*
X664806Y389677D01*
X664822Y389885D01*
X664842Y390093D01*
X664840Y390131D01*
X664843Y390169D01*
X664825Y390377D01*
X664812Y390585D01*
X664803Y390622D01*
X664800Y390660D01*
X664774Y390750D01*
X664702Y391066D01*
X664637Y391225D01*
X664611Y391316D01*
X664533Y391503D01*
X664533Y399469D01*
X664522Y399602D01*
X664522Y399735D01*
X664503Y399847D01*
X664493Y399961D01*
X664461Y400090D01*
X664439Y400221D01*
X664402Y400329D01*
X664375Y400440D01*
X664322Y400562D01*
X664279Y400688D01*
X664225Y400788D01*
X664180Y400893D01*
X664109Y401005D01*
X664046Y401123D01*
X663976Y401213D01*
X663915Y401309D01*
X663826Y401408D01*
X663745Y401514D01*
X663662Y401592D01*
X663586Y401677D01*
X663483Y401761D01*
X663386Y401852D01*
X663291Y401915D01*
X663202Y401987D01*
X663087Y402053D01*
X662976Y402127D01*
X662873Y402175D01*
X662774Y402231D01*
X662649Y402277D01*
X662528Y402333D01*
X662418Y402363D01*
X662311Y402403D01*
X662181Y402428D01*
X662052Y402463D01*
X661939Y402475D01*
X661827Y402497D01*
X661694Y402501D01*
X661562Y402515D01*
X661448Y402509D01*
X661334Y402513D01*
X661202Y402495D01*
X661069Y402488D01*
X660958Y402463D01*
X660845Y402448D01*
X660717Y402410D01*
X660587Y402381D01*
X660510Y402347D01*
X660373Y402306D01*
X660022Y402134D01*
X659962Y402108D01*
X658309Y401154D01*
X656066Y400225D01*
X655549Y400086D01*
X655549Y415398D01*
X655543Y415474D01*
X655545Y415550D01*
X655523Y415719D01*
X655509Y415890D01*
X655491Y415963D01*
X655481Y416039D01*
X655432Y416203D01*
X655391Y416368D01*
X655361Y416438D01*
X655339Y416511D01*
X655263Y416665D01*
X655196Y416822D01*
X655155Y416886D01*
X655122Y416954D01*
X655023Y417094D01*
X654931Y417238D01*
X654880Y417295D01*
X654836Y417357D01*
X654716Y417478D01*
X654602Y417606D01*
X654543Y417654D01*
X654489Y417708D01*
X654368Y417796D01*
X654399Y417824D01*
X654461Y417868D01*
X654582Y417988D01*
X654710Y418102D01*
X654758Y418161D01*
X654812Y418215D01*
X654913Y418353D01*
X655020Y418486D01*
X655057Y418552D01*
X655102Y418614D01*
X655179Y418766D01*
X655264Y418915D01*
X655290Y418986D01*
X655325Y419054D01*
X655376Y419217D01*
X655435Y419377D01*
X655450Y419452D01*
X655473Y419524D01*
X655485Y419629D01*
X655530Y419861D01*
X655537Y420097D01*
X655549Y420202D01*
X655549Y435514D01*
X656066Y435375D01*
X658309Y434446D01*
X659962Y433492D01*
X660083Y433435D01*
X660198Y433369D01*
X660305Y433329D01*
X660408Y433281D01*
X660536Y433244D01*
X660661Y433197D01*
X660773Y433176D01*
X660882Y433144D01*
X661015Y433128D01*
X661145Y433103D01*
X661259Y433099D01*
X661372Y433086D01*
X661505Y433092D01*
X661638Y433087D01*
X661751Y433102D01*
X661865Y433107D01*
X661995Y433134D01*
X662127Y433152D01*
X662236Y433185D01*
X662348Y433208D01*
X662472Y433256D01*
X662600Y433294D01*
X662702Y433344D01*
X662808Y433385D01*
X662923Y433453D01*
X663043Y433511D01*
X663136Y433577D01*
X663234Y433635D01*
X663336Y433720D01*
X663445Y433797D01*
X663526Y433877D01*
X663614Y433949D01*
X663701Y434050D01*
X663796Y434143D01*
X663863Y434235D01*
X663938Y434321D01*
X664008Y434435D01*
X664086Y434542D01*
X664138Y434644D01*
X664198Y434741D01*
X664249Y434864D01*
X664309Y434983D01*
X664343Y435091D01*
X664387Y435197D01*
X664417Y435326D01*
X664457Y435453D01*
X664466Y435537D01*
X664499Y435677D01*
X664526Y436066D01*
X664533Y436131D01*
X664533Y438782D01*
X665925Y442143D01*
X672063Y448280D01*
X672137Y448367D01*
X672218Y448447D01*
X672296Y448555D01*
X672382Y448656D01*
X672441Y448754D01*
X672508Y448846D01*
X672568Y448964D01*
X672637Y449078D01*
X672679Y449185D01*
X672731Y449286D01*
X672771Y449413D01*
X672820Y449537D01*
X672845Y449648D01*
X672879Y449757D01*
X672889Y449850D01*
X672927Y450018D01*
X672945Y450342D01*
X672955Y450435D01*
X672955Y457666D01*
X672952Y457704D01*
X672954Y457742D01*
X672932Y457950D01*
X672915Y458158D01*
X672906Y458195D01*
X672902Y458233D01*
X672847Y458434D01*
X672797Y458637D01*
X672782Y458672D01*
X672771Y458708D01*
X672684Y458898D01*
X672602Y459090D01*
X672582Y459122D01*
X672566Y459157D01*
X672449Y459330D01*
X672337Y459506D01*
X672312Y459534D01*
X672290Y459566D01*
X672147Y459718D01*
X672008Y459874D01*
X671979Y459898D01*
X671953Y459926D01*
X671787Y460053D01*
X671624Y460184D01*
X671591Y460203D01*
X671561Y460226D01*
X671377Y460325D01*
X671196Y460428D01*
X671160Y460441D01*
X671126Y460459D01*
X670929Y460527D01*
X670733Y460599D01*
X670696Y460607D01*
X670660Y460619D01*
X670453Y460654D01*
X670249Y460694D01*
X670211Y460695D01*
X670173Y460702D01*
X669964Y460703D01*
X669756Y460709D01*
X669718Y460704D01*
X669680Y460705D01*
X669473Y460672D01*
X669267Y460645D01*
X669230Y460634D01*
X669193Y460628D01*
X668994Y460563D01*
X668795Y460503D01*
X668760Y460486D01*
X668724Y460474D01*
X668539Y460377D01*
X668351Y460286D01*
X668320Y460264D01*
X668286Y460246D01*
X668214Y460188D01*
X667949Y460000D01*
X667827Y459879D01*
X667753Y459821D01*
X645543Y437611D01*
X645469Y437524D01*
X645388Y437443D01*
X645310Y437336D01*
X645224Y437235D01*
X645165Y437137D01*
X645098Y437045D01*
X645038Y436926D01*
X644969Y436812D01*
X644927Y436706D01*
X644875Y436604D01*
X644835Y436477D01*
X644786Y436354D01*
X644761Y436243D01*
X644727Y436134D01*
X644716Y436040D01*
X644679Y435872D01*
X644661Y435548D01*
X644651Y435456D01*
X644651Y423249D01*
X632444Y423249D01*
X632330Y423240D01*
X632216Y423241D01*
X632085Y423220D01*
X631952Y423209D01*
X631842Y423182D01*
X631729Y423164D01*
X631602Y423123D01*
X631474Y423091D01*
X631369Y423046D01*
X631260Y423010D01*
X631142Y422948D01*
X631020Y422896D01*
X630924Y422835D01*
X630823Y422782D01*
X630749Y422723D01*
X630604Y422631D01*
X630362Y422414D01*
X630289Y422357D01*
X466733Y258800D01*
X463372Y257408D01*
X372494Y257408D01*
X372418Y257402D01*
X372342Y257404D01*
X372173Y257382D01*
X372002Y257368D01*
X371928Y257350D01*
X371853Y257340D01*
X371689Y257291D01*
X371523Y257250D01*
X371454Y257220D01*
X371380Y257198D01*
X371227Y257122D01*
X371070Y257055D01*
X371006Y257014D01*
X370937Y256981D01*
X370798Y256882D01*
X370654Y256790D01*
X370597Y256739D01*
X370535Y256695D01*
X370414Y256575D01*
X370286Y256461D01*
X370238Y256402D01*
X370184Y256348D01*
X370083Y256210D01*
X369976Y256077D01*
X369939Y256011D01*
X369894Y255950D01*
X369817Y255797D01*
X369732Y255649D01*
X369706Y255577D01*
X369671Y255509D01*
X369620Y255346D01*
X369561Y255186D01*
X369546Y255111D01*
X369523Y255039D01*
X369511Y254934D01*
X369466Y254702D01*
X369459Y254466D01*
X369447Y254361D01*
X369447Y251366D01*
X367354Y246313D01*
X364596Y243555D01*
X364546Y243497D01*
X364491Y243444D01*
X364387Y243309D01*
X364276Y243179D01*
X364237Y243114D01*
X364190Y243053D01*
X364110Y242903D01*
X364021Y242756D01*
X363993Y242685D01*
X363957Y242618D01*
X363902Y242457D01*
X363838Y242298D01*
X363822Y242224D01*
X363797Y242152D01*
X363769Y241983D01*
X363732Y241816D01*
X363727Y241740D01*
X363715Y241665D01*
X363714Y241494D01*
X363704Y241324D01*
X363712Y241248D01*
X363712Y241172D01*
X363738Y241003D01*
X363756Y240833D01*
X363776Y240760D01*
X363788Y240685D01*
X363842Y240522D01*
X363887Y240358D01*
X363919Y240288D01*
X363942Y240216D01*
X364021Y240065D01*
X364093Y239909D01*
X364135Y239846D01*
X364170Y239778D01*
X364236Y239696D01*
X364368Y239500D01*
X364530Y239328D01*
X364596Y239245D01*
X367354Y236487D01*
X369447Y231434D01*
X369447Y225966D01*
X367354Y220913D01*
X364596Y218155D01*
X364546Y218097D01*
X364491Y218044D01*
X364387Y217909D01*
X364276Y217779D01*
X364237Y217714D01*
X364190Y217653D01*
X364110Y217503D01*
X364021Y217356D01*
X363993Y217285D01*
X363957Y217218D01*
X363902Y217057D01*
X363838Y216898D01*
X363822Y216824D01*
X363797Y216752D01*
X363769Y216583D01*
X363732Y216416D01*
X363727Y216340D01*
X363715Y216265D01*
X363714Y216094D01*
X363704Y215924D01*
X363712Y215848D01*
X363712Y215772D01*
X363738Y215603D01*
X363756Y215433D01*
X363776Y215360D01*
X363788Y215285D01*
X363842Y215122D01*
X363887Y214958D01*
X363919Y214888D01*
X363942Y214816D01*
X364021Y214665D01*
X364093Y214509D01*
X364135Y214446D01*
X364170Y214378D01*
X364236Y214296D01*
X364368Y214100D01*
X364530Y213928D01*
X364596Y213845D01*
X367354Y211087D01*
X369447Y206034D01*
X369447Y200566D01*
X367354Y195513D01*
X364596Y192755D01*
X364546Y192697D01*
X364491Y192644D01*
X364387Y192509D01*
X364276Y192379D01*
X364237Y192314D01*
X364190Y192253D01*
X364110Y192103D01*
X364021Y191956D01*
X363993Y191885D01*
X363957Y191818D01*
X363902Y191657D01*
X363838Y191498D01*
X363822Y191424D01*
X363797Y191352D01*
X363769Y191183D01*
X363732Y191016D01*
X363727Y190940D01*
X363715Y190865D01*
X363714Y190694D01*
X363704Y190524D01*
X363712Y190448D01*
X363712Y190372D01*
X363738Y190203D01*
X363756Y190033D01*
X363776Y189960D01*
X363788Y189885D01*
X363842Y189722D01*
X363887Y189558D01*
X363919Y189488D01*
X363942Y189416D01*
X364021Y189265D01*
X364093Y189109D01*
X364135Y189046D01*
X364170Y188978D01*
X364236Y188896D01*
X364368Y188700D01*
X364530Y188528D01*
X364596Y188445D01*
X367354Y185687D01*
X369447Y180634D01*
X369447Y175166D01*
X367354Y170113D01*
X364596Y167355D01*
X364546Y167297D01*
X364491Y167244D01*
X364387Y167109D01*
X364276Y166979D01*
X364237Y166914D01*
X364190Y166853D01*
X364110Y166703D01*
X364021Y166556D01*
X363993Y166485D01*
X363957Y166418D01*
X363902Y166257D01*
X363838Y166098D01*
X363822Y166024D01*
X363797Y165952D01*
X363769Y165783D01*
X363732Y165616D01*
X363727Y165540D01*
X363715Y165465D01*
X363714Y165294D01*
X363704Y165124D01*
X363712Y165048D01*
X363712Y164972D01*
X363738Y164803D01*
X363756Y164633D01*
X363776Y164560D01*
X363788Y164485D01*
X363842Y164322D01*
X363887Y164158D01*
X363919Y164088D01*
X363942Y164016D01*
X364021Y163865D01*
X364093Y163709D01*
X364135Y163646D01*
X364170Y163578D01*
X364236Y163496D01*
X364368Y163300D01*
X364530Y163128D01*
X364596Y163045D01*
X367354Y160287D01*
X369447Y155234D01*
X369447Y149766D01*
X367354Y144713D01*
X364596Y141955D01*
X364546Y141897D01*
X364491Y141844D01*
X364387Y141709D01*
X364276Y141579D01*
X364237Y141514D01*
X364190Y141453D01*
X364110Y141303D01*
X364021Y141156D01*
X363993Y141085D01*
X363957Y141018D01*
X363902Y140857D01*
X363838Y140698D01*
X363822Y140624D01*
X363797Y140552D01*
X363769Y140383D01*
X363732Y140216D01*
X363727Y140140D01*
X363715Y140065D01*
X363714Y139894D01*
X363704Y139724D01*
X363712Y139648D01*
X363712Y139572D01*
X363738Y139403D01*
X363756Y139233D01*
X363776Y139160D01*
X363788Y139085D01*
X363842Y138922D01*
X363887Y138758D01*
X363919Y138688D01*
X363942Y138616D01*
X364021Y138465D01*
X364093Y138309D01*
X364135Y138246D01*
X364170Y138178D01*
X364236Y138096D01*
X364368Y137900D01*
X364530Y137728D01*
X364596Y137645D01*
X367354Y134887D01*
X369447Y129834D01*
X369447Y124366D01*
X367354Y119313D01*
X364596Y116555D01*
X364546Y116497D01*
X364491Y116444D01*
X364387Y116309D01*
X364276Y116179D01*
X364237Y116114D01*
X364190Y116053D01*
X364110Y115903D01*
X364021Y115756D01*
X363993Y115685D01*
X363957Y115618D01*
X363902Y115457D01*
X363838Y115298D01*
X363822Y115224D01*
X363797Y115152D01*
X363769Y114983D01*
X363732Y114816D01*
X363727Y114740D01*
X363715Y114665D01*
X363714Y114494D01*
X363704Y114324D01*
X363712Y114248D01*
X363712Y114172D01*
X363738Y114003D01*
X363756Y113833D01*
X363776Y113760D01*
X363788Y113685D01*
X363842Y113522D01*
X363887Y113358D01*
X363919Y113288D01*
X363942Y113216D01*
X364021Y113065D01*
X364093Y112909D01*
X364135Y112846D01*
X364170Y112778D01*
X364236Y112696D01*
X364368Y112500D01*
X364530Y112328D01*
X364596Y112245D01*
X367354Y109487D01*
X369447Y104434D01*
X369447Y98966D01*
X367354Y93913D01*
X364596Y91155D01*
X364546Y91097D01*
X364491Y91044D01*
X364387Y90909D01*
X364276Y90779D01*
X364237Y90714D01*
X364190Y90653D01*
X364110Y90503D01*
X364021Y90356D01*
X363993Y90285D01*
X363957Y90218D01*
X363902Y90057D01*
X363838Y89898D01*
X363822Y89824D01*
X363797Y89752D01*
X363769Y89583D01*
X363732Y89416D01*
X363727Y89340D01*
X363715Y89265D01*
X363714Y89094D01*
X363704Y88924D01*
X363712Y88848D01*
X363712Y88772D01*
X363738Y88603D01*
X363756Y88433D01*
X363776Y88360D01*
X363788Y88285D01*
X363842Y88122D01*
X363887Y87958D01*
X363919Y87888D01*
X363942Y87816D01*
X364021Y87665D01*
X364093Y87509D01*
X364135Y87446D01*
X364170Y87378D01*
X364236Y87296D01*
X364368Y87100D01*
X364530Y86928D01*
X364596Y86845D01*
X367354Y84087D01*
X369447Y79034D01*
X369447Y73566D01*
X367354Y68513D01*
X364596Y65755D01*
X364546Y65697D01*
X364491Y65644D01*
X364387Y65509D01*
X364276Y65379D01*
X364237Y65314D01*
X364190Y65253D01*
X364110Y65103D01*
X364021Y64956D01*
X363993Y64885D01*
X363957Y64818D01*
X363902Y64657D01*
X363838Y64498D01*
X363822Y64424D01*
X363797Y64352D01*
X363769Y64183D01*
X363732Y64016D01*
X363727Y63940D01*
X363715Y63865D01*
X363714Y63694D01*
X363704Y63524D01*
X363712Y63448D01*
X363712Y63372D01*
X363738Y63203D01*
X363756Y63033D01*
X363776Y62960D01*
X363788Y62885D01*
X363842Y62722D01*
X363887Y62558D01*
X363919Y62488D01*
X363942Y62416D01*
X364021Y62265D01*
X364093Y62109D01*
X364135Y62046D01*
X364170Y61978D01*
X364236Y61896D01*
X364368Y61700D01*
X364530Y61528D01*
X364596Y61445D01*
X367354Y58687D01*
X369447Y53634D01*
X369447Y48166D01*
X367354Y43113D01*
X365004Y40763D01*
X364979Y40734D01*
X364950Y40708D01*
X364820Y40546D01*
X364684Y40387D01*
X364664Y40354D01*
X364640Y40324D01*
X364537Y40143D01*
X364429Y39964D01*
X364415Y39929D01*
X364396Y39896D01*
X364324Y39700D01*
X364246Y39506D01*
X364238Y39469D01*
X364225Y39433D01*
X364185Y39228D01*
X364140Y39024D01*
X364137Y38986D01*
X364130Y38949D01*
X364124Y38741D01*
X364112Y38532D01*
X364116Y38494D01*
X364115Y38456D01*
X364142Y38249D01*
X364164Y38041D01*
X364174Y38005D01*
X364179Y37967D01*
X364240Y37767D01*
X364295Y37566D01*
X364311Y37531D01*
X364322Y37494D01*
X364414Y37307D01*
X364501Y37117D01*
X364522Y37086D01*
X364539Y37051D01*
X364659Y36881D01*
X364776Y36708D01*
X364802Y36680D01*
X364824Y36649D01*
X364971Y36501D01*
X365114Y36348D01*
X365144Y36325D01*
X365171Y36298D01*
X365340Y36175D01*
X365505Y36048D01*
X365539Y36030D01*
X365570Y36008D01*
X365756Y35914D01*
X365940Y35815D01*
X365976Y35802D01*
X366010Y35785D01*
X366209Y35723D01*
X366407Y35655D01*
X366444Y35649D01*
X366481Y35637D01*
X366573Y35627D01*
X366893Y35572D01*
X367065Y35571D01*
X367158Y35561D01*
X674442Y35561D01*
X674480Y35564D01*
G37*
G36*
X1128012Y384456D02*
X1128012Y384456D01*
X1128192Y384463D01*
X1128257Y384476D01*
X1128324Y384482D01*
X1128499Y384525D01*
X1128676Y384561D01*
X1128738Y384584D01*
X1128803Y384600D01*
X1128969Y384672D01*
X1129137Y384735D01*
X1129195Y384769D01*
X1129256Y384795D01*
X1129408Y384892D01*
X1129565Y384982D01*
X1129616Y385024D01*
X1129672Y385060D01*
X1129806Y385180D01*
X1129946Y385295D01*
X1129990Y385344D01*
X1130040Y385389D01*
X1130153Y385529D01*
X1130273Y385664D01*
X1130308Y385721D01*
X1130350Y385773D01*
X1130439Y385929D01*
X1130535Y386082D01*
X1130561Y386144D01*
X1130594Y386201D01*
X1130657Y386371D01*
X1130727Y386537D01*
X1130742Y386601D01*
X1130765Y386664D01*
X1130800Y386841D01*
X1130842Y387016D01*
X1130847Y387083D01*
X1130860Y387148D01*
X1130866Y387328D01*
X1130879Y387508D01*
X1130873Y387575D01*
X1130876Y387641D01*
X1130852Y387820D01*
X1130836Y388000D01*
X1130822Y388050D01*
X1130811Y388130D01*
X1130669Y388602D01*
X1130654Y388633D01*
X1130647Y388655D01*
X1128828Y393047D01*
X1128828Y400753D01*
X1131777Y407873D01*
X1137227Y413323D01*
X1144347Y416272D01*
X1152053Y416272D01*
X1159173Y413323D01*
X1161700Y410795D01*
X1161729Y410771D01*
X1161755Y410742D01*
X1161917Y410611D01*
X1162076Y410476D01*
X1162109Y410456D01*
X1162139Y410432D01*
X1162320Y410329D01*
X1162499Y410221D01*
X1162534Y410207D01*
X1162567Y410188D01*
X1162763Y410116D01*
X1162957Y410038D01*
X1162994Y410030D01*
X1163030Y410017D01*
X1163235Y409977D01*
X1163439Y409932D01*
X1163477Y409929D01*
X1163514Y409922D01*
X1163722Y409916D01*
X1163931Y409904D01*
X1163969Y409908D01*
X1164007Y409907D01*
X1164214Y409934D01*
X1164422Y409956D01*
X1164458Y409966D01*
X1164496Y409971D01*
X1164696Y410031D01*
X1164897Y410087D01*
X1164932Y410103D01*
X1164969Y410114D01*
X1165156Y410205D01*
X1165346Y410292D01*
X1165377Y410314D01*
X1165412Y410331D01*
X1165582Y410451D01*
X1165755Y410568D01*
X1165783Y410594D01*
X1165814Y410616D01*
X1165962Y410762D01*
X1166115Y410906D01*
X1166138Y410936D01*
X1166165Y410963D01*
X1166288Y411132D01*
X1166415Y411297D01*
X1166433Y411331D01*
X1166455Y411361D01*
X1166549Y411548D01*
X1166648Y411732D01*
X1166661Y411768D01*
X1166678Y411802D01*
X1166740Y412001D01*
X1166808Y412198D01*
X1166814Y412236D01*
X1166826Y412272D01*
X1166836Y412365D01*
X1166891Y412685D01*
X1166892Y412857D01*
X1166902Y412950D01*
X1166902Y430766D01*
X1166883Y431002D01*
X1166865Y431239D01*
X1166863Y431249D01*
X1166862Y431258D01*
X1166806Y431487D01*
X1166750Y431719D01*
X1166746Y431728D01*
X1166744Y431737D01*
X1166650Y431956D01*
X1166558Y432173D01*
X1166553Y432181D01*
X1166549Y432190D01*
X1166423Y432388D01*
X1166295Y432591D01*
X1166289Y432598D01*
X1166284Y432606D01*
X1166125Y432784D01*
X1165969Y432961D01*
X1165962Y432967D01*
X1165955Y432974D01*
X1165771Y433123D01*
X1165587Y433273D01*
X1165579Y433278D01*
X1165571Y433284D01*
X1165366Y433401D01*
X1165160Y433520D01*
X1165151Y433523D01*
X1165143Y433528D01*
X1164920Y433611D01*
X1164698Y433694D01*
X1164689Y433696D01*
X1164680Y433700D01*
X1164448Y433745D01*
X1164215Y433792D01*
X1164205Y433793D01*
X1164196Y433794D01*
X1163962Y433802D01*
X1163722Y433811D01*
X1163712Y433809D01*
X1163703Y433810D01*
X1163469Y433779D01*
X1163232Y433749D01*
X1163223Y433747D01*
X1163214Y433745D01*
X1162985Y433676D01*
X1162759Y433610D01*
X1162751Y433606D01*
X1162742Y433603D01*
X1162529Y433499D01*
X1162315Y433395D01*
X1162307Y433390D01*
X1162298Y433386D01*
X1162106Y433249D01*
X1161911Y433112D01*
X1161905Y433107D01*
X1161896Y433100D01*
X1161545Y432754D01*
X1161483Y432669D01*
X1161437Y432621D01*
X1160116Y430899D01*
X1158651Y429434D01*
X1157006Y428172D01*
X1155210Y427135D01*
X1153295Y426341D01*
X1152624Y426162D01*
X1152624Y439973D01*
X1152618Y440049D01*
X1152620Y440125D01*
X1152598Y440294D01*
X1152584Y440465D01*
X1152566Y440538D01*
X1152556Y440614D01*
X1152507Y440778D01*
X1152466Y440943D01*
X1152436Y441013D01*
X1152414Y441086D01*
X1152338Y441240D01*
X1152271Y441397D01*
X1152230Y441461D01*
X1152197Y441529D01*
X1152098Y441669D01*
X1152006Y441813D01*
X1151955Y441870D01*
X1151911Y441932D01*
X1151791Y442053D01*
X1151677Y442181D01*
X1151618Y442229D01*
X1151564Y442283D01*
X1151426Y442383D01*
X1151293Y442491D01*
X1151227Y442528D01*
X1151166Y442573D01*
X1151013Y442650D01*
X1150865Y442735D01*
X1150793Y442761D01*
X1150725Y442795D01*
X1150562Y442847D01*
X1150402Y442906D01*
X1150327Y442921D01*
X1150255Y442944D01*
X1150150Y442956D01*
X1149918Y443001D01*
X1149850Y443003D01*
X1149844Y443048D01*
X1149830Y443219D01*
X1149812Y443293D01*
X1149802Y443368D01*
X1149752Y443532D01*
X1149711Y443698D01*
X1149681Y443767D01*
X1149659Y443841D01*
X1149584Y443994D01*
X1149517Y444151D01*
X1149476Y444215D01*
X1149442Y444284D01*
X1149344Y444423D01*
X1149252Y444567D01*
X1149201Y444624D01*
X1149157Y444686D01*
X1149037Y444807D01*
X1148923Y444935D01*
X1148864Y444983D01*
X1148810Y445037D01*
X1148672Y445138D01*
X1148539Y445245D01*
X1148473Y445282D01*
X1148411Y445327D01*
X1148259Y445404D01*
X1148110Y445489D01*
X1148039Y445515D01*
X1147971Y445550D01*
X1147808Y445601D01*
X1147648Y445660D01*
X1147573Y445675D01*
X1147501Y445698D01*
X1147396Y445710D01*
X1147164Y445755D01*
X1146928Y445762D01*
X1146823Y445774D01*
X1133012Y445774D01*
X1133191Y446445D01*
X1133985Y448360D01*
X1135027Y450166D01*
X1135064Y450222D01*
X1135117Y450289D01*
X1135197Y450428D01*
X1135285Y450564D01*
X1135319Y450643D01*
X1135361Y450717D01*
X1135418Y450869D01*
X1135482Y451016D01*
X1135503Y451099D01*
X1135533Y451180D01*
X1135564Y451338D01*
X1135604Y451494D01*
X1135611Y451580D01*
X1135628Y451664D01*
X1135633Y451825D01*
X1135647Y451986D01*
X1135640Y452071D01*
X1135643Y452157D01*
X1135622Y452317D01*
X1135610Y452478D01*
X1135590Y452561D01*
X1135579Y452646D01*
X1135532Y452801D01*
X1135494Y452957D01*
X1135461Y453036D01*
X1135436Y453119D01*
X1135365Y453263D01*
X1135303Y453412D01*
X1135257Y453485D01*
X1135219Y453562D01*
X1135126Y453693D01*
X1135040Y453830D01*
X1134983Y453894D01*
X1134934Y453964D01*
X1134821Y454079D01*
X1134714Y454200D01*
X1134647Y454254D01*
X1134587Y454315D01*
X1134457Y454410D01*
X1134332Y454512D01*
X1134258Y454555D01*
X1134188Y454605D01*
X1134044Y454678D01*
X1133905Y454759D01*
X1133824Y454789D01*
X1133748Y454828D01*
X1133594Y454876D01*
X1133443Y454933D01*
X1133359Y454950D01*
X1133277Y454976D01*
X1133174Y454988D01*
X1132960Y455031D01*
X1132704Y455040D01*
X1132600Y455052D01*
X1117321Y455052D01*
X1117207Y455043D01*
X1117093Y455044D01*
X1116961Y455023D01*
X1116829Y455012D01*
X1116718Y454985D01*
X1116605Y454967D01*
X1116479Y454926D01*
X1116350Y454894D01*
X1116245Y454849D01*
X1116137Y454813D01*
X1116019Y454751D01*
X1115897Y454699D01*
X1115801Y454638D01*
X1115699Y454585D01*
X1115626Y454526D01*
X1115481Y454434D01*
X1115239Y454218D01*
X1115166Y454160D01*
X1050650Y389644D01*
X1050625Y389615D01*
X1050597Y389589D01*
X1050466Y389427D01*
X1050331Y389268D01*
X1050311Y389235D01*
X1050287Y389205D01*
X1050184Y389025D01*
X1050076Y388845D01*
X1050062Y388810D01*
X1050043Y388777D01*
X1049970Y388581D01*
X1049893Y388387D01*
X1049885Y388350D01*
X1049871Y388314D01*
X1049831Y388109D01*
X1049786Y387905D01*
X1049784Y387867D01*
X1049777Y387830D01*
X1049770Y387622D01*
X1049758Y387413D01*
X1049762Y387375D01*
X1049761Y387337D01*
X1049789Y387130D01*
X1049811Y386922D01*
X1049821Y386886D01*
X1049826Y386848D01*
X1049886Y386648D01*
X1049941Y386447D01*
X1049957Y386412D01*
X1049968Y386375D01*
X1050060Y386188D01*
X1050147Y385998D01*
X1050168Y385966D01*
X1050185Y385932D01*
X1050306Y385762D01*
X1050422Y385589D01*
X1050448Y385561D01*
X1050471Y385530D01*
X1050617Y385381D01*
X1050760Y385229D01*
X1050791Y385206D01*
X1050817Y385179D01*
X1050986Y385056D01*
X1051152Y384929D01*
X1051185Y384911D01*
X1051216Y384889D01*
X1051402Y384795D01*
X1051586Y384696D01*
X1051623Y384684D01*
X1051656Y384666D01*
X1051855Y384604D01*
X1052053Y384536D01*
X1052091Y384530D01*
X1052127Y384518D01*
X1052219Y384508D01*
X1052539Y384453D01*
X1052711Y384452D01*
X1052805Y384442D01*
X1127832Y384442D01*
X1128012Y384456D01*
G37*
G36*
X963006Y198780D02*
X963006Y198780D01*
X963092Y198778D01*
X963252Y198800D01*
X963412Y198813D01*
X963495Y198833D01*
X963580Y198845D01*
X963735Y198893D01*
X963891Y198931D01*
X963970Y198965D01*
X964052Y198990D01*
X964196Y199062D01*
X964345Y199126D01*
X964417Y199172D01*
X964494Y199210D01*
X964625Y199304D01*
X964761Y199391D01*
X964825Y199448D01*
X964894Y199498D01*
X965008Y199612D01*
X965128Y199720D01*
X965182Y199786D01*
X965243Y199847D01*
X965337Y199978D01*
X965438Y200104D01*
X965481Y200178D01*
X965531Y200248D01*
X965603Y200392D01*
X965682Y200532D01*
X965712Y200613D01*
X965750Y200689D01*
X965798Y200844D01*
X965854Y200995D01*
X965870Y201079D01*
X965896Y201161D01*
X965918Y201321D01*
X965949Y201479D01*
X965951Y201565D01*
X965963Y201650D01*
X965959Y201811D01*
X965964Y201972D01*
X965953Y202057D01*
X965951Y202143D01*
X965921Y202301D01*
X965900Y202461D01*
X965875Y202543D01*
X965859Y202627D01*
X965804Y202779D01*
X965757Y202933D01*
X965719Y203010D01*
X965690Y203091D01*
X965637Y203180D01*
X965540Y203377D01*
X965392Y203585D01*
X965338Y203675D01*
X964868Y204288D01*
X963654Y206391D01*
X962725Y208634D01*
X962586Y209151D01*
X977898Y209151D01*
X977974Y209157D01*
X978050Y209155D01*
X978219Y209177D01*
X978390Y209191D01*
X978463Y209209D01*
X978539Y209219D01*
X978703Y209268D01*
X978868Y209309D01*
X978938Y209339D01*
X979011Y209361D01*
X979165Y209437D01*
X979322Y209504D01*
X979386Y209545D01*
X979454Y209578D01*
X979594Y209677D01*
X979738Y209769D01*
X979795Y209820D01*
X979857Y209864D01*
X979978Y209984D01*
X980106Y210098D01*
X980154Y210157D01*
X980208Y210210D01*
X980296Y210332D01*
X980324Y210301D01*
X980368Y210239D01*
X980488Y210117D01*
X980602Y209990D01*
X980661Y209942D01*
X980715Y209888D01*
X980853Y209787D01*
X980986Y209680D01*
X981052Y209643D01*
X981114Y209598D01*
X981266Y209521D01*
X981415Y209436D01*
X981486Y209410D01*
X981554Y209375D01*
X981717Y209324D01*
X981877Y209265D01*
X981952Y209250D01*
X982024Y209227D01*
X982129Y209215D01*
X982361Y209170D01*
X982597Y209163D01*
X982702Y209151D01*
X998014Y209151D01*
X997875Y208634D01*
X996946Y206391D01*
X995732Y204288D01*
X995262Y203675D01*
X995215Y203603D01*
X995162Y203536D01*
X995082Y203396D01*
X994994Y203261D01*
X994960Y203182D01*
X994918Y203108D01*
X994861Y202956D01*
X994797Y202809D01*
X994776Y202726D01*
X994746Y202645D01*
X994715Y202487D01*
X994675Y202330D01*
X994668Y202245D01*
X994651Y202161D01*
X994646Y202000D01*
X994632Y201839D01*
X994639Y201753D01*
X994636Y201668D01*
X994657Y201508D01*
X994669Y201347D01*
X994689Y201264D01*
X994700Y201179D01*
X994747Y201024D01*
X994785Y200867D01*
X994818Y200789D01*
X994843Y200706D01*
X994914Y200562D01*
X994976Y200413D01*
X995022Y200340D01*
X995060Y200263D01*
X995153Y200132D01*
X995239Y199995D01*
X995296Y199931D01*
X995345Y199861D01*
X995459Y199746D01*
X995565Y199625D01*
X995632Y199571D01*
X995692Y199510D01*
X995822Y199415D01*
X995947Y199313D01*
X996021Y199270D01*
X996091Y199220D01*
X996235Y199147D01*
X996374Y199066D01*
X996455Y199036D01*
X996531Y198997D01*
X996685Y198949D01*
X996836Y198892D01*
X996920Y198875D01*
X997002Y198849D01*
X997105Y198837D01*
X997319Y198794D01*
X997575Y198785D01*
X997679Y198773D01*
X1034517Y198773D01*
X1034631Y198782D01*
X1034745Y198781D01*
X1034877Y198802D01*
X1035009Y198813D01*
X1035120Y198840D01*
X1035233Y198858D01*
X1035359Y198899D01*
X1035488Y198931D01*
X1035593Y198976D01*
X1035701Y199012D01*
X1035819Y199074D01*
X1035941Y199126D01*
X1036038Y199187D01*
X1036139Y199240D01*
X1036213Y199299D01*
X1036357Y199391D01*
X1036600Y199607D01*
X1036672Y199665D01*
X1062660Y225653D01*
X1062685Y225682D01*
X1062713Y225708D01*
X1062844Y225870D01*
X1062980Y226029D01*
X1062999Y226062D01*
X1063023Y226092D01*
X1063126Y226272D01*
X1063234Y226452D01*
X1063248Y226487D01*
X1063267Y226520D01*
X1063340Y226716D01*
X1063417Y226910D01*
X1063426Y226947D01*
X1063439Y226983D01*
X1063479Y227188D01*
X1063524Y227392D01*
X1063526Y227430D01*
X1063534Y227467D01*
X1063540Y227675D01*
X1063552Y227884D01*
X1063548Y227922D01*
X1063549Y227960D01*
X1063522Y228167D01*
X1063500Y228375D01*
X1063490Y228411D01*
X1063485Y228449D01*
X1063424Y228649D01*
X1063369Y228850D01*
X1063353Y228885D01*
X1063342Y228922D01*
X1063250Y229109D01*
X1063163Y229299D01*
X1063142Y229331D01*
X1063125Y229365D01*
X1063004Y229535D01*
X1062888Y229708D01*
X1062862Y229736D01*
X1062840Y229767D01*
X1062693Y229916D01*
X1062550Y230068D01*
X1062520Y230091D01*
X1062493Y230118D01*
X1062324Y230241D01*
X1062159Y230368D01*
X1062125Y230386D01*
X1062094Y230408D01*
X1061908Y230502D01*
X1061724Y230601D01*
X1061688Y230613D01*
X1061654Y230631D01*
X1061455Y230693D01*
X1061257Y230761D01*
X1061220Y230767D01*
X1061183Y230779D01*
X1061091Y230789D01*
X1060771Y230844D01*
X1060599Y230845D01*
X1060505Y230855D01*
X997351Y230855D01*
X997266Y230848D01*
X997180Y230850D01*
X997020Y230828D01*
X996859Y230815D01*
X996776Y230795D01*
X996691Y230783D01*
X996537Y230735D01*
X996380Y230697D01*
X996302Y230663D01*
X996220Y230638D01*
X996075Y230566D01*
X995927Y230502D01*
X995855Y230456D01*
X995778Y230418D01*
X995647Y230324D01*
X995511Y230237D01*
X995447Y230180D01*
X995378Y230130D01*
X995263Y230016D01*
X995143Y229908D01*
X995089Y229842D01*
X995029Y229781D01*
X994934Y229650D01*
X994833Y229524D01*
X994791Y229450D01*
X994741Y229380D01*
X994669Y229236D01*
X994589Y229096D01*
X994559Y229015D01*
X994521Y228939D01*
X994474Y228785D01*
X994418Y228633D01*
X994401Y228549D01*
X994376Y228467D01*
X994354Y228307D01*
X994323Y228149D01*
X994320Y228064D01*
X994308Y227979D01*
X994313Y227817D01*
X994308Y227656D01*
X994319Y227571D01*
X994321Y227485D01*
X994351Y227327D01*
X994372Y227167D01*
X994397Y227085D01*
X994413Y227001D01*
X994468Y226849D01*
X994514Y226695D01*
X994552Y226618D01*
X994581Y226537D01*
X994635Y226448D01*
X994731Y226251D01*
X994879Y226043D01*
X994933Y225953D01*
X995732Y224912D01*
X996946Y222809D01*
X997875Y220566D01*
X998014Y220049D01*
X982702Y220049D01*
X982626Y220043D01*
X982550Y220045D01*
X982381Y220023D01*
X982210Y220009D01*
X982137Y219991D01*
X982061Y219981D01*
X981897Y219932D01*
X981732Y219891D01*
X981662Y219861D01*
X981589Y219839D01*
X981435Y219763D01*
X981278Y219696D01*
X981214Y219655D01*
X981146Y219622D01*
X981006Y219523D01*
X980862Y219431D01*
X980805Y219380D01*
X980743Y219336D01*
X980622Y219216D01*
X980494Y219102D01*
X980446Y219043D01*
X980392Y218989D01*
X980304Y218868D01*
X980276Y218899D01*
X980232Y218961D01*
X980112Y219082D01*
X979998Y219210D01*
X979939Y219258D01*
X979885Y219312D01*
X979747Y219413D01*
X979614Y219520D01*
X979548Y219557D01*
X979486Y219602D01*
X979334Y219679D01*
X979185Y219764D01*
X979114Y219790D01*
X979046Y219825D01*
X978883Y219876D01*
X978723Y219935D01*
X978648Y219950D01*
X978576Y219973D01*
X978471Y219985D01*
X978239Y220030D01*
X978003Y220037D01*
X977898Y220049D01*
X962586Y220049D01*
X962725Y220566D01*
X963654Y222809D01*
X964868Y224912D01*
X965667Y225953D01*
X965713Y226025D01*
X965767Y226092D01*
X965847Y226232D01*
X965934Y226367D01*
X965969Y226446D01*
X966011Y226520D01*
X966067Y226672D01*
X966132Y226820D01*
X966153Y226903D01*
X966182Y226983D01*
X966213Y227141D01*
X966253Y227298D01*
X966261Y227383D01*
X966277Y227467D01*
X966282Y227628D01*
X966296Y227789D01*
X966290Y227875D01*
X966292Y227960D01*
X966271Y228120D01*
X966259Y228281D01*
X966239Y228364D01*
X966228Y228449D01*
X966181Y228604D01*
X966144Y228761D01*
X966110Y228839D01*
X966086Y228922D01*
X966015Y229067D01*
X965952Y229215D01*
X965906Y229288D01*
X965869Y229365D01*
X965775Y229496D01*
X965689Y229633D01*
X965633Y229697D01*
X965583Y229767D01*
X965470Y229882D01*
X965363Y230003D01*
X965297Y230057D01*
X965237Y230118D01*
X965106Y230213D01*
X964981Y230315D01*
X964907Y230358D01*
X964838Y230408D01*
X964694Y230481D01*
X964554Y230562D01*
X964474Y230592D01*
X964397Y230631D01*
X964244Y230679D01*
X964092Y230736D01*
X964008Y230753D01*
X963927Y230779D01*
X963824Y230791D01*
X963609Y230834D01*
X963354Y230843D01*
X963249Y230855D01*
X950050Y230855D01*
X949936Y230846D01*
X949822Y230847D01*
X949691Y230826D01*
X949558Y230815D01*
X949448Y230788D01*
X949335Y230770D01*
X949208Y230729D01*
X949080Y230697D01*
X948975Y230652D01*
X948866Y230616D01*
X948748Y230554D01*
X948626Y230502D01*
X948530Y230441D01*
X948429Y230388D01*
X948355Y230329D01*
X948210Y230237D01*
X947968Y230021D01*
X947895Y229963D01*
X921907Y203975D01*
X921883Y203946D01*
X921854Y203920D01*
X921723Y203758D01*
X921588Y203599D01*
X921568Y203566D01*
X921544Y203536D01*
X921441Y203356D01*
X921333Y203176D01*
X921319Y203141D01*
X921300Y203108D01*
X921228Y202912D01*
X921150Y202718D01*
X921142Y202681D01*
X921129Y202645D01*
X921089Y202440D01*
X921043Y202236D01*
X921041Y202198D01*
X921034Y202161D01*
X921027Y201953D01*
X921016Y201744D01*
X921020Y201706D01*
X921019Y201668D01*
X921046Y201461D01*
X921068Y201253D01*
X921078Y201217D01*
X921083Y201179D01*
X921143Y200979D01*
X921199Y200778D01*
X921214Y200743D01*
X921225Y200706D01*
X921317Y200519D01*
X921404Y200329D01*
X921426Y200297D01*
X921442Y200263D01*
X921563Y200093D01*
X921680Y199920D01*
X921706Y199892D01*
X921728Y199861D01*
X921875Y199712D01*
X922018Y199560D01*
X922048Y199537D01*
X922075Y199510D01*
X922244Y199387D01*
X922409Y199260D01*
X922442Y199242D01*
X922473Y199220D01*
X922660Y199126D01*
X922844Y199027D01*
X922880Y199015D01*
X922914Y198997D01*
X923113Y198935D01*
X923310Y198867D01*
X923348Y198861D01*
X923384Y198849D01*
X923477Y198839D01*
X923797Y198784D01*
X923969Y198783D01*
X924062Y198773D01*
X962921Y198773D01*
X963006Y198780D01*
G37*
G36*
X669220Y178082D02*
X669220Y178082D01*
X669258Y178081D01*
X669465Y178108D01*
X669673Y178131D01*
X669709Y178141D01*
X669747Y178146D01*
X669947Y178206D01*
X670148Y178261D01*
X670183Y178277D01*
X670220Y178288D01*
X670407Y178380D01*
X670597Y178467D01*
X670629Y178488D01*
X670663Y178505D01*
X670832Y178625D01*
X671006Y178742D01*
X671034Y178768D01*
X671065Y178790D01*
X671213Y178937D01*
X671366Y179080D01*
X671389Y179110D01*
X671416Y179137D01*
X671539Y179306D01*
X671666Y179472D01*
X671684Y179505D01*
X671706Y179536D01*
X671800Y179722D01*
X671899Y179906D01*
X671912Y179942D01*
X671929Y179976D01*
X671991Y180175D01*
X672059Y180373D01*
X672065Y180411D01*
X672077Y180447D01*
X672077Y180451D01*
X674246Y185687D01*
X677004Y188445D01*
X677054Y188503D01*
X677109Y188556D01*
X677213Y188691D01*
X677324Y188821D01*
X677363Y188886D01*
X677410Y188947D01*
X677490Y189097D01*
X677579Y189244D01*
X677607Y189315D01*
X677643Y189382D01*
X677698Y189543D01*
X677762Y189702D01*
X677778Y189776D01*
X677803Y189848D01*
X677831Y190017D01*
X677868Y190184D01*
X677873Y190260D01*
X677885Y190335D01*
X677886Y190506D01*
X677896Y190676D01*
X677888Y190752D01*
X677888Y190828D01*
X677862Y190997D01*
X677844Y191167D01*
X677824Y191240D01*
X677812Y191315D01*
X677758Y191478D01*
X677713Y191642D01*
X677681Y191712D01*
X677658Y191784D01*
X677579Y191935D01*
X677507Y192091D01*
X677465Y192154D01*
X677430Y192222D01*
X677364Y192304D01*
X677232Y192500D01*
X677070Y192672D01*
X677004Y192755D01*
X674246Y195513D01*
X672153Y200566D01*
X672153Y204383D01*
X672138Y204573D01*
X672130Y204762D01*
X672118Y204818D01*
X672113Y204875D01*
X672068Y205059D01*
X672029Y205245D01*
X672008Y205299D01*
X671995Y205354D01*
X671920Y205529D01*
X671851Y205706D01*
X671823Y205755D01*
X671800Y205807D01*
X671698Y205968D01*
X671602Y206131D01*
X671566Y206175D01*
X671535Y206223D01*
X671409Y206365D01*
X671287Y206511D01*
X671244Y206549D01*
X671206Y206591D01*
X671059Y206711D01*
X670915Y206835D01*
X670867Y206865D01*
X670822Y206901D01*
X670658Y206995D01*
X670496Y207095D01*
X670443Y207117D01*
X670394Y207145D01*
X670216Y207211D01*
X670040Y207284D01*
X669985Y207297D01*
X669931Y207317D01*
X669745Y207353D01*
X669560Y207397D01*
X669503Y207401D01*
X669447Y207412D01*
X669257Y207417D01*
X669068Y207430D01*
X669011Y207425D01*
X668954Y207427D01*
X668766Y207402D01*
X668577Y207384D01*
X668521Y207370D01*
X668465Y207362D01*
X668283Y207308D01*
X668099Y207260D01*
X668047Y207236D01*
X667993Y207220D01*
X667822Y207137D01*
X667648Y207059D01*
X667601Y207028D01*
X667549Y207003D01*
X667395Y206893D01*
X667236Y206789D01*
X667194Y206751D01*
X667147Y206718D01*
X667012Y206584D01*
X666872Y206456D01*
X666845Y206419D01*
X666796Y206371D01*
X666506Y205972D01*
X666485Y205932D01*
X666467Y205907D01*
X665533Y204288D01*
X664054Y202362D01*
X662338Y200646D01*
X660412Y199168D01*
X658309Y197954D01*
X656066Y197025D01*
X655549Y196886D01*
X655549Y209151D01*
X671408Y209151D01*
X671626Y209168D01*
X671844Y209182D01*
X671871Y209188D01*
X671900Y209191D01*
X672111Y209243D01*
X672325Y209292D01*
X672351Y209303D01*
X672379Y209309D01*
X672579Y209395D01*
X672782Y209478D01*
X672806Y209493D01*
X672832Y209504D01*
X673016Y209621D01*
X673203Y209735D01*
X673224Y209754D01*
X673248Y209769D01*
X673411Y209914D01*
X673576Y210057D01*
X673595Y210079D01*
X673616Y210098D01*
X673753Y210267D01*
X673893Y210435D01*
X673905Y210456D01*
X673926Y210481D01*
X674170Y210910D01*
X674198Y210986D01*
X674223Y211032D01*
X674246Y211087D01*
X677004Y213845D01*
X677054Y213903D01*
X677109Y213955D01*
X677213Y214091D01*
X677324Y214221D01*
X677363Y214287D01*
X677410Y214347D01*
X677490Y214497D01*
X677578Y214644D01*
X677607Y214714D01*
X677643Y214782D01*
X677698Y214943D01*
X677762Y215102D01*
X677778Y215176D01*
X677803Y215248D01*
X677831Y215417D01*
X677868Y215583D01*
X677873Y215660D01*
X677885Y215735D01*
X677886Y215906D01*
X677896Y216076D01*
X677888Y216152D01*
X677888Y216228D01*
X677862Y216397D01*
X677844Y216567D01*
X677824Y216640D01*
X677812Y216715D01*
X677758Y216878D01*
X677713Y217042D01*
X677681Y217112D01*
X677658Y217184D01*
X677579Y217336D01*
X677507Y217491D01*
X677465Y217554D01*
X677430Y217622D01*
X677364Y217704D01*
X677232Y217900D01*
X677070Y218072D01*
X677004Y218155D01*
X674246Y220913D01*
X672153Y225966D01*
X672153Y231434D01*
X674246Y236487D01*
X677004Y239245D01*
X677054Y239303D01*
X677109Y239355D01*
X677213Y239491D01*
X677324Y239621D01*
X677363Y239687D01*
X677410Y239747D01*
X677490Y239897D01*
X677578Y240044D01*
X677607Y240114D01*
X677643Y240182D01*
X677698Y240343D01*
X677762Y240502D01*
X677778Y240576D01*
X677803Y240648D01*
X677831Y240817D01*
X677868Y240983D01*
X677873Y241060D01*
X677885Y241135D01*
X677886Y241306D01*
X677896Y241476D01*
X677888Y241552D01*
X677888Y241628D01*
X677862Y241797D01*
X677844Y241967D01*
X677824Y242040D01*
X677812Y242115D01*
X677758Y242278D01*
X677713Y242442D01*
X677681Y242512D01*
X677658Y242584D01*
X677579Y242736D01*
X677507Y242891D01*
X677465Y242954D01*
X677430Y243022D01*
X677364Y243104D01*
X677232Y243300D01*
X677070Y243472D01*
X677004Y243555D01*
X674246Y246313D01*
X672150Y251373D01*
X672130Y251559D01*
X672113Y251767D01*
X672104Y251804D01*
X672100Y251842D01*
X672045Y252043D01*
X671995Y252246D01*
X671980Y252281D01*
X671969Y252318D01*
X671882Y252508D01*
X671800Y252699D01*
X671780Y252731D01*
X671764Y252766D01*
X671647Y252940D01*
X671535Y253115D01*
X671510Y253144D01*
X671488Y253175D01*
X671345Y253327D01*
X671206Y253483D01*
X671177Y253507D01*
X671151Y253535D01*
X670985Y253662D01*
X670822Y253793D01*
X670789Y253812D01*
X670759Y253835D01*
X670575Y253934D01*
X670394Y254037D01*
X670358Y254050D01*
X670324Y254068D01*
X670127Y254136D01*
X669931Y254209D01*
X669894Y254216D01*
X669858Y254228D01*
X669651Y254264D01*
X669447Y254303D01*
X669409Y254305D01*
X669371Y254311D01*
X669162Y254312D01*
X668954Y254319D01*
X668916Y254314D01*
X668878Y254314D01*
X668671Y254282D01*
X668465Y254254D01*
X668428Y254243D01*
X668391Y254237D01*
X668192Y254172D01*
X667993Y254112D01*
X667958Y254095D01*
X667922Y254083D01*
X667737Y253987D01*
X667549Y253895D01*
X667518Y253873D01*
X667484Y253855D01*
X667412Y253797D01*
X667147Y253610D01*
X667025Y253489D01*
X666951Y253430D01*
X662605Y249084D01*
X654491Y245723D01*
X645709Y245723D01*
X643617Y246589D01*
X643410Y246656D01*
X643203Y246727D01*
X643175Y246732D01*
X643148Y246741D01*
X642932Y246773D01*
X642717Y246810D01*
X642688Y246810D01*
X642660Y246814D01*
X642442Y246812D01*
X642223Y246813D01*
X642195Y246808D01*
X642167Y246808D01*
X641952Y246770D01*
X641736Y246736D01*
X641709Y246727D01*
X641681Y246722D01*
X641475Y246651D01*
X641267Y246582D01*
X641242Y246569D01*
X641215Y246560D01*
X641024Y246455D01*
X640830Y246354D01*
X640811Y246340D01*
X640782Y246324D01*
X640393Y246021D01*
X640338Y245962D01*
X640297Y245929D01*
X629585Y235218D01*
X629511Y235131D01*
X629430Y235050D01*
X629352Y234943D01*
X629266Y234842D01*
X629207Y234744D01*
X629140Y234652D01*
X629080Y234533D01*
X629011Y234419D01*
X628969Y234313D01*
X628917Y234211D01*
X628877Y234084D01*
X628828Y233961D01*
X628803Y233850D01*
X628769Y233741D01*
X628759Y233647D01*
X628721Y233479D01*
X628703Y233155D01*
X628693Y233063D01*
X628693Y225935D01*
X628708Y225746D01*
X628716Y225556D01*
X628728Y225500D01*
X628733Y225444D01*
X628778Y225259D01*
X628817Y225073D01*
X628838Y225020D01*
X628851Y224965D01*
X628926Y224791D01*
X628995Y224613D01*
X629023Y224564D01*
X629046Y224512D01*
X629148Y224351D01*
X629244Y224187D01*
X629280Y224144D01*
X629311Y224095D01*
X629438Y223954D01*
X629559Y223808D01*
X629602Y223770D01*
X629640Y223728D01*
X629787Y223608D01*
X629931Y223483D01*
X629979Y223453D01*
X630024Y223418D01*
X630188Y223324D01*
X630350Y223224D01*
X630403Y223202D01*
X630452Y223174D01*
X630631Y223108D01*
X630806Y223035D01*
X630861Y223022D01*
X630915Y223002D01*
X631101Y222966D01*
X631286Y222922D01*
X631343Y222918D01*
X631399Y222907D01*
X631589Y222901D01*
X631778Y222888D01*
X631835Y222894D01*
X631892Y222892D01*
X632080Y222917D01*
X632269Y222935D01*
X632325Y222949D01*
X632381Y222956D01*
X632563Y223011D01*
X632747Y223059D01*
X632799Y223082D01*
X632853Y223099D01*
X633024Y223182D01*
X633198Y223259D01*
X633245Y223291D01*
X633297Y223316D01*
X633451Y223426D01*
X633610Y223530D01*
X633652Y223568D01*
X633699Y223601D01*
X633834Y223735D01*
X633974Y223863D01*
X634001Y223900D01*
X634050Y223948D01*
X634340Y224347D01*
X634361Y224387D01*
X634379Y224412D01*
X634668Y224912D01*
X636146Y226838D01*
X637862Y228554D01*
X639788Y230032D01*
X641891Y231246D01*
X644134Y232175D01*
X644651Y232314D01*
X644651Y217002D01*
X644657Y216926D01*
X644655Y216850D01*
X644677Y216681D01*
X644691Y216510D01*
X644709Y216437D01*
X644719Y216361D01*
X644768Y216197D01*
X644809Y216032D01*
X644839Y215962D01*
X644861Y215889D01*
X644937Y215735D01*
X645004Y215578D01*
X645045Y215514D01*
X645078Y215446D01*
X645177Y215306D01*
X645269Y215162D01*
X645320Y215105D01*
X645364Y215043D01*
X645484Y214922D01*
X645598Y214794D01*
X645657Y214746D01*
X645710Y214692D01*
X645832Y214604D01*
X645801Y214576D01*
X645739Y214532D01*
X645617Y214412D01*
X645490Y214298D01*
X645442Y214239D01*
X645388Y214185D01*
X645287Y214047D01*
X645180Y213914D01*
X645143Y213848D01*
X645098Y213786D01*
X645021Y213634D01*
X644936Y213485D01*
X644910Y213414D01*
X644875Y213346D01*
X644824Y213183D01*
X644765Y213023D01*
X644750Y212948D01*
X644727Y212876D01*
X644715Y212771D01*
X644670Y212539D01*
X644663Y212303D01*
X644651Y212198D01*
X644651Y196886D01*
X644134Y197025D01*
X641891Y197954D01*
X639788Y199168D01*
X637862Y200646D01*
X636146Y202362D01*
X634668Y204288D01*
X634379Y204788D01*
X634271Y204945D01*
X634169Y205105D01*
X634131Y205147D01*
X634099Y205194D01*
X633967Y205331D01*
X633840Y205472D01*
X633796Y205508D01*
X633756Y205549D01*
X633604Y205663D01*
X633456Y205782D01*
X633407Y205811D01*
X633361Y205845D01*
X633193Y205932D01*
X633028Y206026D01*
X632974Y206046D01*
X632924Y206073D01*
X632743Y206132D01*
X632565Y206198D01*
X632509Y206209D01*
X632455Y206227D01*
X632268Y206256D01*
X632081Y206293D01*
X632024Y206294D01*
X631968Y206303D01*
X631777Y206302D01*
X631588Y206308D01*
X631531Y206301D01*
X631474Y206300D01*
X631287Y206268D01*
X631099Y206244D01*
X631044Y206227D01*
X630988Y206218D01*
X630808Y206156D01*
X630626Y206101D01*
X630575Y206076D01*
X630521Y206058D01*
X630354Y205968D01*
X630183Y205884D01*
X630137Y205851D01*
X630087Y205824D01*
X629936Y205708D01*
X629781Y205599D01*
X629741Y205559D01*
X629695Y205524D01*
X629565Y205385D01*
X629430Y205252D01*
X629397Y205206D01*
X629357Y205164D01*
X629251Y205007D01*
X629140Y204853D01*
X629114Y204802D01*
X629082Y204755D01*
X629003Y204582D01*
X628917Y204413D01*
X628900Y204358D01*
X628876Y204307D01*
X628826Y204124D01*
X628769Y203942D01*
X628764Y203897D01*
X628746Y203831D01*
X628694Y203340D01*
X628696Y203295D01*
X628693Y203265D01*
X628693Y181771D01*
X628696Y181733D01*
X628694Y181695D01*
X628716Y181487D01*
X628733Y181279D01*
X628742Y181242D01*
X628746Y181204D01*
X628801Y181003D01*
X628851Y180800D01*
X628866Y180765D01*
X628877Y180728D01*
X628964Y180538D01*
X629046Y180347D01*
X629066Y180314D01*
X629082Y180280D01*
X629199Y180107D01*
X629311Y179931D01*
X629336Y179902D01*
X629358Y179871D01*
X629501Y179719D01*
X629640Y179563D01*
X629669Y179539D01*
X629695Y179511D01*
X629862Y179384D01*
X630024Y179253D01*
X630056Y179234D01*
X630087Y179211D01*
X630271Y179112D01*
X630452Y179009D01*
X630488Y178996D01*
X630522Y178978D01*
X630719Y178910D01*
X630915Y178837D01*
X630952Y178830D01*
X630988Y178818D01*
X631195Y178782D01*
X631399Y178743D01*
X631437Y178741D01*
X631475Y178735D01*
X631684Y178734D01*
X631892Y178727D01*
X631930Y178732D01*
X631968Y178732D01*
X632175Y178764D01*
X632381Y178792D01*
X632418Y178803D01*
X632455Y178809D01*
X632654Y178874D01*
X632853Y178934D01*
X632888Y178951D01*
X632924Y178963D01*
X633109Y179059D01*
X633297Y179151D01*
X633328Y179173D01*
X633362Y179191D01*
X633434Y179249D01*
X633699Y179436D01*
X633821Y179557D01*
X633895Y179616D01*
X637595Y183316D01*
X645709Y186677D01*
X654491Y186677D01*
X662605Y183316D01*
X666951Y178970D01*
X666980Y178945D01*
X667006Y178917D01*
X667168Y178786D01*
X667327Y178650D01*
X667360Y178631D01*
X667390Y178607D01*
X667571Y178504D01*
X667750Y178396D01*
X667785Y178382D01*
X667818Y178363D01*
X668014Y178290D01*
X668208Y178213D01*
X668245Y178205D01*
X668281Y178191D01*
X668486Y178151D01*
X668690Y178106D01*
X668728Y178104D01*
X668765Y178097D01*
X668973Y178090D01*
X669182Y178078D01*
X669220Y178082D01*
G37*
%LPC*%
G36*
X34794Y491889D02*
X34794Y491889D01*
X28408Y493600D01*
X22682Y496906D01*
X18006Y501582D01*
X14700Y507308D01*
X12989Y513694D01*
X12989Y520306D01*
X14700Y526692D01*
X18006Y532418D01*
X22682Y537094D01*
X28408Y540400D01*
X34794Y542111D01*
X41406Y542111D01*
X47792Y540400D01*
X53518Y537094D01*
X58194Y532418D01*
X61500Y526692D01*
X63211Y520306D01*
X63211Y513694D01*
X61500Y507308D01*
X58194Y501582D01*
X53518Y496906D01*
X47792Y493600D01*
X41406Y491889D01*
X34794Y491889D01*
G37*
%LPD*%
%LPC*%
G36*
X1297194Y480539D02*
X1297194Y480539D01*
X1290808Y482250D01*
X1285082Y485556D01*
X1280406Y490232D01*
X1277100Y495958D01*
X1275389Y502344D01*
X1275389Y508956D01*
X1277100Y515342D01*
X1280406Y521068D01*
X1285082Y525744D01*
X1290808Y529050D01*
X1297194Y530761D01*
X1303806Y530761D01*
X1310192Y529050D01*
X1315918Y525744D01*
X1320594Y521068D01*
X1323900Y515342D01*
X1325611Y508956D01*
X1325611Y502344D01*
X1323900Y495958D01*
X1320594Y490232D01*
X1315918Y485556D01*
X1310192Y482250D01*
X1303806Y480539D01*
X1297194Y480539D01*
G37*
%LPD*%
%LPC*%
G36*
X288794Y143689D02*
X288794Y143689D01*
X282408Y145400D01*
X276682Y148706D01*
X272006Y153382D01*
X268700Y159108D01*
X266989Y165494D01*
X266989Y172106D01*
X268700Y178492D01*
X272006Y184218D01*
X276682Y188894D01*
X282408Y192200D01*
X288794Y193911D01*
X295406Y193911D01*
X301792Y192200D01*
X307518Y188894D01*
X312194Y184218D01*
X315500Y178492D01*
X317211Y172106D01*
X317211Y165494D01*
X315500Y159108D01*
X312194Y153382D01*
X307518Y148706D01*
X301792Y145400D01*
X295406Y143689D01*
X288794Y143689D01*
G37*
%LPD*%
%LPC*%
G36*
X34794Y143689D02*
X34794Y143689D01*
X28408Y145400D01*
X22682Y148706D01*
X18006Y153382D01*
X14700Y159108D01*
X12989Y165494D01*
X12989Y172106D01*
X14700Y178492D01*
X18006Y184218D01*
X22682Y188894D01*
X28408Y192200D01*
X34794Y193911D01*
X41406Y193911D01*
X47792Y192200D01*
X53518Y188894D01*
X58194Y184218D01*
X61500Y178492D01*
X63211Y172106D01*
X63211Y165494D01*
X61500Y159108D01*
X58194Y153382D01*
X53518Y148706D01*
X47792Y145400D01*
X41406Y143689D01*
X34794Y143689D01*
G37*
%LPD*%
%LPC*%
G36*
X1297194Y129739D02*
X1297194Y129739D01*
X1290808Y131450D01*
X1285082Y134756D01*
X1280406Y139432D01*
X1277100Y145158D01*
X1275389Y151544D01*
X1275389Y158156D01*
X1277100Y164542D01*
X1280406Y170268D01*
X1285082Y174944D01*
X1290808Y178250D01*
X1297194Y179961D01*
X1303806Y179961D01*
X1310192Y178250D01*
X1315918Y174944D01*
X1320594Y170268D01*
X1323900Y164542D01*
X1325611Y158156D01*
X1325611Y151544D01*
X1323900Y145158D01*
X1320594Y139432D01*
X1315918Y134756D01*
X1310192Y131450D01*
X1303806Y129739D01*
X1297194Y129739D01*
G37*
%LPD*%
%LPC*%
G36*
X1296984Y584839D02*
X1296984Y584839D01*
X1291412Y587147D01*
X1287147Y591412D01*
X1284839Y596984D01*
X1284839Y603016D01*
X1287147Y608588D01*
X1291412Y612853D01*
X1296984Y615161D01*
X1303016Y615161D01*
X1308588Y612853D01*
X1312853Y608588D01*
X1315161Y603016D01*
X1315161Y596984D01*
X1312853Y591412D01*
X1308588Y587147D01*
X1303016Y584839D01*
X1296984Y584839D01*
G37*
%LPD*%
%LPC*%
G36*
X36984Y584839D02*
X36984Y584839D01*
X31412Y587147D01*
X27147Y591412D01*
X24839Y596984D01*
X24839Y603016D01*
X27147Y608588D01*
X31412Y612853D01*
X36984Y615161D01*
X43016Y615161D01*
X48588Y612853D01*
X52853Y608588D01*
X55161Y603016D01*
X55161Y596984D01*
X52853Y591412D01*
X48588Y587147D01*
X43016Y584839D01*
X36984Y584839D01*
G37*
%LPD*%
%LPC*%
G36*
X1296984Y84839D02*
X1296984Y84839D01*
X1291412Y87147D01*
X1287147Y91412D01*
X1284839Y96984D01*
X1284839Y103016D01*
X1287147Y108588D01*
X1291412Y112853D01*
X1296984Y115161D01*
X1303016Y115161D01*
X1308588Y112853D01*
X1312853Y108588D01*
X1315161Y103016D01*
X1315161Y96984D01*
X1312853Y91412D01*
X1308588Y87147D01*
X1303016Y84839D01*
X1296984Y84839D01*
G37*
%LPD*%
%LPC*%
G36*
X36984Y84839D02*
X36984Y84839D01*
X31412Y87147D01*
X27147Y91412D01*
X24839Y96984D01*
X24839Y103016D01*
X27147Y108588D01*
X31412Y112853D01*
X36984Y115161D01*
X43016Y115161D01*
X48588Y112853D01*
X52853Y108588D01*
X55161Y103016D01*
X55161Y96984D01*
X52853Y91412D01*
X48588Y87147D01*
X43016Y84839D01*
X36984Y84839D01*
G37*
%LPD*%
%LPC*%
G36*
X197662Y348828D02*
X197662Y348828D01*
X192141Y351115D01*
X187915Y355341D01*
X185628Y360862D01*
X185628Y366838D01*
X187915Y372359D01*
X192141Y376585D01*
X197662Y378872D01*
X203638Y378872D01*
X209159Y376585D01*
X213385Y372359D01*
X215672Y366838D01*
X215672Y360862D01*
X213385Y355341D01*
X209159Y351115D01*
X203638Y348828D01*
X197662Y348828D01*
G37*
%LPD*%
%LPC*%
G36*
X126562Y348828D02*
X126562Y348828D01*
X121041Y351115D01*
X116815Y355341D01*
X114528Y360862D01*
X114528Y366838D01*
X116815Y372359D01*
X121041Y376585D01*
X126562Y378872D01*
X132538Y378872D01*
X138059Y376585D01*
X142285Y372359D01*
X144572Y366838D01*
X144572Y360862D01*
X142285Y355341D01*
X138059Y351115D01*
X132538Y348828D01*
X126562Y348828D01*
G37*
%LPD*%
%LPC*%
G36*
X126562Y306928D02*
X126562Y306928D01*
X121041Y309215D01*
X116815Y313441D01*
X114528Y318962D01*
X114528Y324938D01*
X116815Y330459D01*
X121041Y334685D01*
X126562Y336972D01*
X132538Y336972D01*
X138059Y334685D01*
X142285Y330459D01*
X144572Y324938D01*
X144572Y318962D01*
X142285Y313441D01*
X138059Y309215D01*
X132538Y306928D01*
X126562Y306928D01*
G37*
%LPD*%
%LPC*%
G36*
X126562Y223128D02*
X126562Y223128D01*
X121041Y225415D01*
X116815Y229641D01*
X114528Y235162D01*
X114528Y241138D01*
X116815Y246659D01*
X121041Y250885D01*
X126562Y253172D01*
X132538Y253172D01*
X138059Y250885D01*
X142285Y246659D01*
X144572Y241138D01*
X144572Y235162D01*
X142285Y229641D01*
X138059Y225415D01*
X132538Y223128D01*
X126562Y223128D01*
G37*
%LPD*%
%LPC*%
G36*
X985749Y423249D02*
X985749Y423249D01*
X985749Y435514D01*
X986266Y435375D01*
X988509Y434446D01*
X990612Y433232D01*
X992538Y431754D01*
X994254Y430038D01*
X995732Y428112D01*
X996946Y426009D01*
X997875Y423766D01*
X998014Y423249D01*
X985749Y423249D01*
G37*
%LPD*%
%LPC*%
G36*
X655549Y220049D02*
X655549Y220049D01*
X655549Y232314D01*
X656066Y232175D01*
X658309Y231246D01*
X660412Y230032D01*
X662338Y228554D01*
X664054Y226838D01*
X665532Y224912D01*
X666746Y222809D01*
X667675Y220566D01*
X667814Y220049D01*
X655549Y220049D01*
G37*
%LPD*%
%LPC*%
G36*
X962586Y423249D02*
X962586Y423249D01*
X962725Y423766D01*
X963654Y426009D01*
X964868Y428112D01*
X966346Y430038D01*
X968062Y431754D01*
X969988Y433232D01*
X972091Y434446D01*
X974334Y435375D01*
X974851Y435514D01*
X974851Y423249D01*
X962586Y423249D01*
G37*
%LPD*%
%LPC*%
G36*
X985749Y412351D02*
X985749Y412351D01*
X998014Y412351D01*
X997875Y411834D01*
X996946Y409591D01*
X995732Y407488D01*
X994254Y405562D01*
X992538Y403846D01*
X990612Y402368D01*
X988509Y401154D01*
X986266Y400225D01*
X985749Y400086D01*
X985749Y412351D01*
G37*
%LPD*%
%LPC*%
G36*
X974334Y400225D02*
X974334Y400225D01*
X972091Y401154D01*
X969988Y402368D01*
X968062Y403846D01*
X966346Y405562D01*
X964868Y407488D01*
X963654Y409591D01*
X962725Y411834D01*
X962586Y412351D01*
X974851Y412351D01*
X974851Y400086D01*
X974334Y400225D01*
G37*
%LPD*%
%LPC*%
G36*
X644134Y400225D02*
X644134Y400225D01*
X641891Y401154D01*
X639788Y402368D01*
X637862Y403846D01*
X636146Y405562D01*
X634668Y407488D01*
X633454Y409591D01*
X632525Y411834D01*
X632386Y412351D01*
X644651Y412351D01*
X644651Y400086D01*
X644134Y400225D01*
G37*
%LPD*%
%LPC*%
G36*
X1143105Y426341D02*
X1143105Y426341D01*
X1141190Y427135D01*
X1139394Y428172D01*
X1137749Y429434D01*
X1136284Y430899D01*
X1135022Y432544D01*
X1133985Y434340D01*
X1133191Y436255D01*
X1133012Y436926D01*
X1143776Y436926D01*
X1143776Y426162D01*
X1143105Y426341D01*
G37*
%LPD*%
%LPC*%
G36*
X203697Y408797D02*
X203697Y408797D01*
X203697Y416816D01*
X205051Y416376D01*
X206659Y415556D01*
X208120Y414496D01*
X209396Y413220D01*
X210456Y411759D01*
X211276Y410151D01*
X211716Y408797D01*
X203697Y408797D01*
G37*
%LPD*%
%LPC*%
G36*
X189584Y408797D02*
X189584Y408797D01*
X190024Y410151D01*
X190844Y411759D01*
X191904Y413220D01*
X193180Y414496D01*
X194641Y415556D01*
X196249Y416376D01*
X197603Y416816D01*
X197603Y408797D01*
X189584Y408797D01*
G37*
%LPD*%
%LPC*%
G36*
X203697Y402703D02*
X203697Y402703D01*
X211716Y402703D01*
X211276Y401349D01*
X210456Y399741D01*
X209396Y398280D01*
X208120Y397004D01*
X206659Y395944D01*
X205051Y395124D01*
X203697Y394684D01*
X203697Y402703D01*
G37*
%LPD*%
%LPC*%
G36*
X196249Y395124D02*
X196249Y395124D01*
X194641Y395944D01*
X193180Y397004D01*
X191904Y398280D01*
X190844Y399741D01*
X190024Y401349D01*
X189584Y402703D01*
X197603Y402703D01*
X197603Y394684D01*
X196249Y395124D01*
G37*
%LPD*%
D10*
X835762Y634793D02*
X840278Y634793D01*
X840278Y634794D02*
X840411Y634792D01*
X840543Y634786D01*
X840675Y634776D01*
X840807Y634763D01*
X840939Y634745D01*
X841069Y634724D01*
X841200Y634699D01*
X841329Y634670D01*
X841457Y634637D01*
X841585Y634601D01*
X841711Y634561D01*
X841836Y634517D01*
X841960Y634469D01*
X842082Y634418D01*
X842203Y634363D01*
X842322Y634305D01*
X842440Y634243D01*
X842555Y634178D01*
X842669Y634109D01*
X842780Y634038D01*
X842889Y633962D01*
X842996Y633884D01*
X843101Y633803D01*
X843203Y633718D01*
X843303Y633631D01*
X843400Y633541D01*
X843495Y633448D01*
X843586Y633352D01*
X843675Y633254D01*
X843761Y633153D01*
X843844Y633049D01*
X843924Y632943D01*
X844000Y632835D01*
X844074Y632725D01*
X844144Y632612D01*
X844211Y632498D01*
X844274Y632381D01*
X844334Y632263D01*
X844391Y632143D01*
X844444Y632021D01*
X844493Y631898D01*
X844539Y631774D01*
X844581Y631648D01*
X844619Y631521D01*
X844654Y631393D01*
X844685Y631264D01*
X844712Y631135D01*
X844735Y631004D01*
X844755Y630873D01*
X844770Y630741D01*
X844782Y630609D01*
X844790Y630477D01*
X844794Y630344D01*
X844794Y630212D01*
X844790Y630079D01*
X844782Y629947D01*
X844770Y629815D01*
X844755Y629683D01*
X844735Y629552D01*
X844712Y629421D01*
X844685Y629292D01*
X844654Y629163D01*
X844619Y629035D01*
X844581Y628908D01*
X844539Y628782D01*
X844493Y628658D01*
X844444Y628535D01*
X844391Y628413D01*
X844334Y628293D01*
X844274Y628175D01*
X844211Y628058D01*
X844144Y627944D01*
X844074Y627831D01*
X844000Y627721D01*
X843924Y627613D01*
X843844Y627507D01*
X843761Y627403D01*
X843675Y627302D01*
X843586Y627204D01*
X843495Y627108D01*
X843400Y627015D01*
X843303Y626925D01*
X843203Y626838D01*
X843101Y626753D01*
X842996Y626672D01*
X842889Y626594D01*
X842780Y626518D01*
X842669Y626447D01*
X842555Y626378D01*
X842440Y626313D01*
X842322Y626251D01*
X842203Y626193D01*
X842082Y626138D01*
X841960Y626087D01*
X841836Y626039D01*
X841711Y625995D01*
X841585Y625955D01*
X841457Y625919D01*
X841329Y625886D01*
X841200Y625857D01*
X841069Y625832D01*
X840939Y625811D01*
X840807Y625793D01*
X840675Y625780D01*
X840543Y625770D01*
X840411Y625764D01*
X840278Y625762D01*
X835762Y625762D01*
X835762Y642018D01*
X840278Y642018D01*
X840397Y642016D01*
X840517Y642010D01*
X840636Y642000D01*
X840754Y641986D01*
X840873Y641969D01*
X840990Y641947D01*
X841107Y641922D01*
X841222Y641892D01*
X841337Y641859D01*
X841451Y641822D01*
X841563Y641782D01*
X841674Y641737D01*
X841783Y641689D01*
X841891Y641638D01*
X841997Y641583D01*
X842101Y641524D01*
X842203Y641462D01*
X842303Y641397D01*
X842401Y641328D01*
X842497Y641256D01*
X842590Y641181D01*
X842680Y641104D01*
X842768Y641023D01*
X842853Y640939D01*
X842935Y640852D01*
X843015Y640763D01*
X843091Y640671D01*
X843165Y640577D01*
X843235Y640480D01*
X843302Y640382D01*
X843366Y640281D01*
X843426Y640177D01*
X843483Y640072D01*
X843536Y639965D01*
X843586Y639857D01*
X843632Y639747D01*
X843674Y639635D01*
X843713Y639522D01*
X843748Y639408D01*
X843779Y639293D01*
X843807Y639176D01*
X843830Y639059D01*
X843850Y638942D01*
X843866Y638823D01*
X843878Y638704D01*
X843886Y638585D01*
X843890Y638466D01*
X843890Y638346D01*
X843886Y638227D01*
X843878Y638108D01*
X843866Y637989D01*
X843850Y637870D01*
X843830Y637753D01*
X843807Y637636D01*
X843779Y637519D01*
X843748Y637404D01*
X843713Y637290D01*
X843674Y637177D01*
X843632Y637065D01*
X843586Y636955D01*
X843536Y636847D01*
X843483Y636740D01*
X843426Y636635D01*
X843366Y636531D01*
X843302Y636430D01*
X843235Y636332D01*
X843165Y636235D01*
X843091Y636141D01*
X843015Y636049D01*
X842935Y635960D01*
X842853Y635873D01*
X842768Y635789D01*
X842680Y635708D01*
X842590Y635631D01*
X842497Y635556D01*
X842401Y635484D01*
X842303Y635415D01*
X842203Y635350D01*
X842101Y635288D01*
X841997Y635229D01*
X841891Y635174D01*
X841783Y635123D01*
X841674Y635075D01*
X841563Y635030D01*
X841451Y634990D01*
X841337Y634953D01*
X841222Y634920D01*
X841107Y634890D01*
X840990Y634865D01*
X840873Y634843D01*
X840754Y634826D01*
X840636Y634812D01*
X840517Y634802D01*
X840397Y634796D01*
X840278Y634794D01*
X850661Y625762D02*
X855177Y625762D01*
X855310Y625764D01*
X855442Y625770D01*
X855574Y625780D01*
X855706Y625793D01*
X855838Y625811D01*
X855968Y625832D01*
X856099Y625857D01*
X856228Y625886D01*
X856356Y625919D01*
X856484Y625955D01*
X856610Y625995D01*
X856735Y626039D01*
X856859Y626087D01*
X856981Y626138D01*
X857102Y626193D01*
X857221Y626251D01*
X857339Y626313D01*
X857454Y626378D01*
X857568Y626447D01*
X857679Y626518D01*
X857788Y626594D01*
X857895Y626672D01*
X858000Y626753D01*
X858102Y626838D01*
X858202Y626925D01*
X858299Y627015D01*
X858394Y627108D01*
X858485Y627204D01*
X858574Y627302D01*
X858660Y627403D01*
X858743Y627507D01*
X858823Y627613D01*
X858899Y627721D01*
X858973Y627831D01*
X859043Y627944D01*
X859110Y628058D01*
X859173Y628175D01*
X859233Y628293D01*
X859290Y628413D01*
X859343Y628535D01*
X859392Y628658D01*
X859438Y628782D01*
X859480Y628908D01*
X859518Y629035D01*
X859553Y629163D01*
X859584Y629292D01*
X859611Y629421D01*
X859634Y629552D01*
X859654Y629683D01*
X859669Y629815D01*
X859681Y629947D01*
X859689Y630079D01*
X859693Y630212D01*
X859693Y630344D01*
X859689Y630477D01*
X859681Y630609D01*
X859669Y630741D01*
X859654Y630873D01*
X859634Y631004D01*
X859611Y631135D01*
X859584Y631264D01*
X859553Y631393D01*
X859518Y631521D01*
X859480Y631648D01*
X859438Y631774D01*
X859392Y631898D01*
X859343Y632021D01*
X859290Y632143D01*
X859233Y632263D01*
X859173Y632381D01*
X859110Y632498D01*
X859043Y632612D01*
X858973Y632725D01*
X858899Y632835D01*
X858823Y632943D01*
X858743Y633049D01*
X858660Y633153D01*
X858574Y633254D01*
X858485Y633352D01*
X858394Y633448D01*
X858299Y633541D01*
X858202Y633631D01*
X858102Y633718D01*
X858000Y633803D01*
X857895Y633884D01*
X857788Y633962D01*
X857679Y634038D01*
X857568Y634109D01*
X857454Y634178D01*
X857339Y634243D01*
X857221Y634305D01*
X857102Y634363D01*
X856981Y634418D01*
X856859Y634469D01*
X856735Y634517D01*
X856610Y634561D01*
X856484Y634601D01*
X856356Y634637D01*
X856228Y634670D01*
X856099Y634699D01*
X855968Y634724D01*
X855838Y634745D01*
X855706Y634763D01*
X855574Y634776D01*
X855442Y634786D01*
X855310Y634792D01*
X855177Y634794D01*
X856080Y642018D02*
X850661Y642018D01*
X856080Y642018D02*
X856199Y642016D01*
X856319Y642010D01*
X856438Y642000D01*
X856556Y641986D01*
X856675Y641969D01*
X856792Y641947D01*
X856909Y641922D01*
X857024Y641892D01*
X857139Y641859D01*
X857253Y641822D01*
X857365Y641782D01*
X857476Y641737D01*
X857585Y641689D01*
X857693Y641638D01*
X857799Y641583D01*
X857903Y641524D01*
X858005Y641462D01*
X858105Y641397D01*
X858203Y641328D01*
X858299Y641256D01*
X858392Y641181D01*
X858482Y641104D01*
X858570Y641023D01*
X858655Y640939D01*
X858737Y640852D01*
X858817Y640763D01*
X858893Y640671D01*
X858967Y640577D01*
X859037Y640480D01*
X859104Y640382D01*
X859168Y640281D01*
X859228Y640177D01*
X859285Y640072D01*
X859338Y639965D01*
X859388Y639857D01*
X859434Y639747D01*
X859476Y639635D01*
X859515Y639522D01*
X859550Y639408D01*
X859581Y639293D01*
X859609Y639176D01*
X859632Y639059D01*
X859652Y638942D01*
X859668Y638823D01*
X859680Y638704D01*
X859688Y638585D01*
X859692Y638466D01*
X859692Y638346D01*
X859688Y638227D01*
X859680Y638108D01*
X859668Y637989D01*
X859652Y637870D01*
X859632Y637753D01*
X859609Y637636D01*
X859581Y637519D01*
X859550Y637404D01*
X859515Y637290D01*
X859476Y637177D01*
X859434Y637065D01*
X859388Y636955D01*
X859338Y636847D01*
X859285Y636740D01*
X859228Y636635D01*
X859168Y636531D01*
X859104Y636430D01*
X859037Y636332D01*
X858967Y636235D01*
X858893Y636141D01*
X858817Y636049D01*
X858737Y635960D01*
X858655Y635873D01*
X858570Y635789D01*
X858482Y635708D01*
X858392Y635631D01*
X858299Y635556D01*
X858203Y635484D01*
X858105Y635415D01*
X858005Y635350D01*
X857903Y635288D01*
X857799Y635229D01*
X857693Y635174D01*
X857585Y635123D01*
X857476Y635075D01*
X857365Y635030D01*
X857253Y634990D01*
X857139Y634953D01*
X857024Y634920D01*
X856909Y634890D01*
X856792Y634865D01*
X856675Y634843D01*
X856556Y634826D01*
X856438Y634812D01*
X856319Y634802D01*
X856199Y634796D01*
X856080Y634794D01*
X856080Y634793D02*
X852467Y634793D01*
X869766Y642018D02*
X869766Y625762D01*
X865250Y642018D02*
X874281Y642018D01*
X880222Y636599D02*
X880222Y628471D01*
X880224Y628370D01*
X880230Y628269D01*
X880239Y628168D01*
X880252Y628067D01*
X880269Y627967D01*
X880290Y627868D01*
X880314Y627770D01*
X880342Y627673D01*
X880374Y627576D01*
X880409Y627481D01*
X880448Y627388D01*
X880490Y627296D01*
X880536Y627205D01*
X880585Y627117D01*
X880637Y627030D01*
X880693Y626945D01*
X880751Y626862D01*
X880813Y626782D01*
X880878Y626704D01*
X880945Y626628D01*
X881015Y626555D01*
X881088Y626485D01*
X881164Y626418D01*
X881242Y626353D01*
X881322Y626291D01*
X881405Y626233D01*
X881490Y626177D01*
X881577Y626125D01*
X881665Y626076D01*
X881756Y626030D01*
X881848Y625988D01*
X881941Y625949D01*
X882036Y625914D01*
X882133Y625882D01*
X882230Y625854D01*
X882328Y625830D01*
X882427Y625809D01*
X882527Y625792D01*
X882628Y625779D01*
X882729Y625770D01*
X882830Y625764D01*
X882931Y625762D01*
X887446Y625762D01*
X887446Y636599D01*
X894811Y636599D02*
X894811Y625762D01*
X894811Y636599D02*
X899326Y636599D01*
X899430Y636597D01*
X899533Y636591D01*
X899637Y636581D01*
X899740Y636567D01*
X899842Y636549D01*
X899943Y636528D01*
X900044Y636502D01*
X900143Y636473D01*
X900242Y636440D01*
X900339Y636403D01*
X900434Y636362D01*
X900528Y636318D01*
X900620Y636270D01*
X900710Y636219D01*
X900799Y636164D01*
X900885Y636106D01*
X900968Y636044D01*
X901050Y635980D01*
X901128Y635912D01*
X901204Y635842D01*
X901278Y635769D01*
X901348Y635692D01*
X901416Y635614D01*
X901480Y635532D01*
X901542Y635449D01*
X901600Y635363D01*
X901655Y635274D01*
X901706Y635184D01*
X901754Y635092D01*
X901798Y634998D01*
X901839Y634903D01*
X901876Y634806D01*
X901909Y634707D01*
X901938Y634608D01*
X901964Y634507D01*
X901985Y634406D01*
X902003Y634304D01*
X902017Y634201D01*
X902027Y634097D01*
X902033Y633994D01*
X902035Y633890D01*
X902036Y633890D02*
X902036Y625762D01*
X908844Y625762D02*
X908844Y636599D01*
X908392Y641115D02*
X908392Y642018D01*
X909296Y642018D01*
X909296Y641115D01*
X908392Y641115D01*
X915652Y636599D02*
X915652Y625762D01*
X915652Y636599D02*
X920168Y636599D01*
X920272Y636597D01*
X920375Y636591D01*
X920479Y636581D01*
X920582Y636567D01*
X920684Y636549D01*
X920785Y636528D01*
X920886Y636502D01*
X920985Y636473D01*
X921084Y636440D01*
X921181Y636403D01*
X921276Y636362D01*
X921370Y636318D01*
X921462Y636270D01*
X921552Y636219D01*
X921641Y636164D01*
X921727Y636106D01*
X921810Y636044D01*
X921892Y635980D01*
X921970Y635912D01*
X922046Y635842D01*
X922120Y635769D01*
X922190Y635692D01*
X922258Y635614D01*
X922322Y635532D01*
X922384Y635449D01*
X922442Y635363D01*
X922497Y635274D01*
X922548Y635184D01*
X922596Y635092D01*
X922640Y634998D01*
X922681Y634903D01*
X922718Y634806D01*
X922751Y634707D01*
X922780Y634608D01*
X922806Y634507D01*
X922827Y634406D01*
X922845Y634304D01*
X922859Y634201D01*
X922869Y634097D01*
X922875Y633994D01*
X922877Y633890D01*
X922877Y625762D01*
X932356Y625762D02*
X936872Y625762D01*
X932356Y625762D02*
X932255Y625764D01*
X932154Y625770D01*
X932053Y625779D01*
X931952Y625792D01*
X931852Y625809D01*
X931753Y625830D01*
X931655Y625854D01*
X931558Y625882D01*
X931461Y625914D01*
X931366Y625949D01*
X931273Y625988D01*
X931181Y626030D01*
X931090Y626076D01*
X931002Y626125D01*
X930915Y626177D01*
X930830Y626233D01*
X930747Y626291D01*
X930667Y626353D01*
X930589Y626418D01*
X930513Y626485D01*
X930440Y626555D01*
X930370Y626628D01*
X930303Y626704D01*
X930238Y626782D01*
X930176Y626862D01*
X930118Y626945D01*
X930062Y627030D01*
X930010Y627117D01*
X929961Y627205D01*
X929915Y627296D01*
X929873Y627388D01*
X929834Y627481D01*
X929799Y627576D01*
X929767Y627673D01*
X929739Y627770D01*
X929715Y627868D01*
X929694Y627967D01*
X929677Y628067D01*
X929664Y628168D01*
X929655Y628269D01*
X929649Y628370D01*
X929647Y628471D01*
X929647Y633890D01*
X929649Y633991D01*
X929655Y634092D01*
X929664Y634193D01*
X929677Y634294D01*
X929694Y634394D01*
X929715Y634493D01*
X929739Y634591D01*
X929767Y634688D01*
X929799Y634785D01*
X929834Y634880D01*
X929873Y634973D01*
X929915Y635065D01*
X929961Y635156D01*
X930010Y635245D01*
X930062Y635331D01*
X930118Y635416D01*
X930176Y635499D01*
X930238Y635579D01*
X930303Y635657D01*
X930370Y635733D01*
X930440Y635806D01*
X930513Y635876D01*
X930589Y635943D01*
X930667Y636008D01*
X930747Y636070D01*
X930830Y636128D01*
X930915Y636184D01*
X931002Y636236D01*
X931090Y636285D01*
X931181Y636331D01*
X931273Y636373D01*
X931366Y636412D01*
X931461Y636447D01*
X931558Y636479D01*
X931655Y636507D01*
X931753Y636531D01*
X931852Y636552D01*
X931952Y636569D01*
X932053Y636582D01*
X932154Y636591D01*
X932255Y636597D01*
X932356Y636599D01*
X936872Y636599D01*
X936872Y623053D01*
X936870Y622949D01*
X936864Y622846D01*
X936854Y622742D01*
X936840Y622639D01*
X936822Y622537D01*
X936801Y622436D01*
X936775Y622335D01*
X936746Y622236D01*
X936713Y622137D01*
X936676Y622040D01*
X936635Y621945D01*
X936591Y621851D01*
X936543Y621759D01*
X936492Y621669D01*
X936437Y621580D01*
X936379Y621494D01*
X936317Y621411D01*
X936253Y621329D01*
X936185Y621251D01*
X936115Y621175D01*
X936042Y621101D01*
X935965Y621031D01*
X935887Y620963D01*
X935805Y620899D01*
X935722Y620837D01*
X935636Y620779D01*
X935547Y620724D01*
X935457Y620673D01*
X935365Y620625D01*
X935271Y620581D01*
X935176Y620540D01*
X935079Y620503D01*
X934980Y620470D01*
X934881Y620441D01*
X934780Y620415D01*
X934679Y620394D01*
X934577Y620376D01*
X934474Y620362D01*
X934370Y620352D01*
X934267Y620346D01*
X934163Y620344D01*
X934163Y620343D02*
X930550Y620343D01*
X957231Y642018D02*
X957356Y642016D01*
X957481Y642010D01*
X957606Y642001D01*
X957730Y641987D01*
X957854Y641970D01*
X957978Y641949D01*
X958100Y641924D01*
X958222Y641895D01*
X958343Y641863D01*
X958463Y641827D01*
X958582Y641787D01*
X958699Y641744D01*
X958815Y641697D01*
X958930Y641646D01*
X959042Y641592D01*
X959154Y641534D01*
X959263Y641474D01*
X959370Y641409D01*
X959476Y641342D01*
X959579Y641271D01*
X959680Y641197D01*
X959779Y641120D01*
X959875Y641040D01*
X959969Y640957D01*
X960060Y640872D01*
X960149Y640783D01*
X960234Y640692D01*
X960317Y640598D01*
X960397Y640502D01*
X960474Y640403D01*
X960548Y640302D01*
X960619Y640199D01*
X960686Y640093D01*
X960751Y639986D01*
X960811Y639877D01*
X960869Y639765D01*
X960923Y639653D01*
X960974Y639538D01*
X961021Y639422D01*
X961064Y639305D01*
X961104Y639186D01*
X961140Y639066D01*
X961172Y638945D01*
X961201Y638823D01*
X961226Y638701D01*
X961247Y638577D01*
X961264Y638453D01*
X961278Y638329D01*
X961287Y638204D01*
X961293Y638079D01*
X961295Y637954D01*
X957231Y642018D02*
X957088Y642016D01*
X956946Y642010D01*
X956803Y642000D01*
X956661Y641987D01*
X956520Y641969D01*
X956378Y641948D01*
X956238Y641923D01*
X956098Y641894D01*
X955959Y641861D01*
X955821Y641824D01*
X955684Y641784D01*
X955549Y641740D01*
X955414Y641692D01*
X955281Y641640D01*
X955149Y641585D01*
X955019Y641526D01*
X954891Y641464D01*
X954764Y641398D01*
X954639Y641329D01*
X954516Y641257D01*
X954396Y641181D01*
X954277Y641102D01*
X954160Y641019D01*
X954046Y640934D01*
X953934Y640845D01*
X953825Y640754D01*
X953718Y640659D01*
X953613Y640562D01*
X953512Y640461D01*
X953413Y640358D01*
X953317Y640253D01*
X953224Y640144D01*
X953134Y640033D01*
X953047Y639920D01*
X952963Y639805D01*
X952883Y639687D01*
X952805Y639567D01*
X952731Y639445D01*
X952661Y639321D01*
X952593Y639195D01*
X952530Y639067D01*
X952469Y638938D01*
X952412Y638807D01*
X952359Y638675D01*
X952310Y638541D01*
X952264Y638406D01*
X959940Y634793D02*
X960034Y634885D01*
X960124Y634979D01*
X960212Y635076D01*
X960297Y635176D01*
X960379Y635278D01*
X960458Y635383D01*
X960533Y635490D01*
X960605Y635599D01*
X960674Y635710D01*
X960740Y635824D01*
X960802Y635939D01*
X960861Y636056D01*
X960916Y636175D01*
X960967Y636295D01*
X961015Y636417D01*
X961060Y636540D01*
X961100Y636664D01*
X961137Y636790D01*
X961170Y636917D01*
X961199Y637044D01*
X961225Y637173D01*
X961246Y637302D01*
X961264Y637432D01*
X961277Y637562D01*
X961287Y637692D01*
X961293Y637823D01*
X961295Y637954D01*
X959941Y634793D02*
X952264Y625762D01*
X961295Y625762D01*
X967895Y633890D02*
X967899Y634210D01*
X967910Y634529D01*
X967929Y634849D01*
X967956Y635167D01*
X967990Y635485D01*
X968032Y635802D01*
X968082Y636118D01*
X968139Y636433D01*
X968203Y636746D01*
X968275Y637058D01*
X968354Y637368D01*
X968441Y637675D01*
X968535Y637981D01*
X968636Y638284D01*
X968745Y638585D01*
X968860Y638883D01*
X968983Y639179D01*
X969113Y639471D01*
X969250Y639760D01*
X969250Y639761D02*
X969289Y639869D01*
X969332Y639976D01*
X969378Y640081D01*
X969429Y640185D01*
X969482Y640287D01*
X969539Y640387D01*
X969600Y640485D01*
X969664Y640580D01*
X969731Y640674D01*
X969802Y640765D01*
X969875Y640854D01*
X969952Y640940D01*
X970031Y641023D01*
X970113Y641104D01*
X970198Y641182D01*
X970286Y641256D01*
X970376Y641328D01*
X970468Y641396D01*
X970563Y641462D01*
X970660Y641524D01*
X970759Y641582D01*
X970861Y641638D01*
X970963Y641689D01*
X971068Y641737D01*
X971174Y641782D01*
X971282Y641823D01*
X971391Y641860D01*
X971501Y641893D01*
X971613Y641922D01*
X971725Y641948D01*
X971838Y641970D01*
X971952Y641987D01*
X972066Y642001D01*
X972181Y642011D01*
X972296Y642017D01*
X972411Y642019D01*
X972411Y642018D02*
X972526Y642016D01*
X972641Y642010D01*
X972756Y642000D01*
X972870Y641986D01*
X972984Y641969D01*
X973097Y641947D01*
X973209Y641921D01*
X973321Y641892D01*
X973431Y641859D01*
X973540Y641822D01*
X973648Y641781D01*
X973754Y641736D01*
X973859Y641688D01*
X973961Y641637D01*
X974062Y641581D01*
X974162Y641523D01*
X974259Y641461D01*
X974353Y641396D01*
X974446Y641327D01*
X974536Y641255D01*
X974624Y641181D01*
X974709Y641103D01*
X974791Y641022D01*
X974870Y640939D01*
X974947Y640853D01*
X975020Y640764D01*
X975091Y640673D01*
X975158Y640579D01*
X975222Y640484D01*
X975283Y640386D01*
X975340Y640286D01*
X975393Y640184D01*
X975444Y640080D01*
X975490Y639975D01*
X975533Y639868D01*
X975572Y639760D01*
X975571Y639760D02*
X975708Y639471D01*
X975838Y639179D01*
X975961Y638883D01*
X976076Y638585D01*
X976185Y638284D01*
X976286Y637981D01*
X976380Y637675D01*
X976467Y637368D01*
X976546Y637058D01*
X976618Y636746D01*
X976682Y636433D01*
X976739Y636118D01*
X976789Y635802D01*
X976831Y635485D01*
X976865Y635167D01*
X976892Y634849D01*
X976911Y634529D01*
X976922Y634210D01*
X976926Y633890D01*
X967896Y633890D02*
X967900Y633570D01*
X967911Y633251D01*
X967930Y632931D01*
X967957Y632613D01*
X967991Y632295D01*
X968033Y631978D01*
X968083Y631662D01*
X968140Y631347D01*
X968204Y631034D01*
X968276Y630722D01*
X968355Y630412D01*
X968442Y630105D01*
X968536Y629799D01*
X968637Y629496D01*
X968746Y629195D01*
X968861Y628897D01*
X968984Y628601D01*
X969114Y628309D01*
X969251Y628020D01*
X969250Y628020D02*
X969289Y627912D01*
X969332Y627805D01*
X969378Y627700D01*
X969429Y627596D01*
X969482Y627494D01*
X969539Y627394D01*
X969600Y627296D01*
X969664Y627201D01*
X969731Y627107D01*
X969802Y627016D01*
X969875Y626927D01*
X969952Y626841D01*
X970031Y626758D01*
X970113Y626677D01*
X970198Y626599D01*
X970286Y626525D01*
X970376Y626453D01*
X970469Y626384D01*
X970563Y626319D01*
X970660Y626257D01*
X970760Y626199D01*
X970861Y626143D01*
X970963Y626092D01*
X971068Y626044D01*
X971174Y625999D01*
X971282Y625958D01*
X971391Y625921D01*
X971501Y625888D01*
X971613Y625859D01*
X971725Y625833D01*
X971838Y625811D01*
X971952Y625794D01*
X972066Y625780D01*
X972181Y625770D01*
X972296Y625764D01*
X972411Y625762D01*
X975571Y628020D02*
X975708Y628309D01*
X975838Y628601D01*
X975961Y628897D01*
X976076Y629195D01*
X976185Y629496D01*
X976286Y629799D01*
X976380Y630105D01*
X976467Y630412D01*
X976546Y630722D01*
X976618Y631034D01*
X976682Y631347D01*
X976739Y631662D01*
X976789Y631978D01*
X976831Y632295D01*
X976865Y632613D01*
X976892Y632931D01*
X976911Y633251D01*
X976922Y633570D01*
X976926Y633890D01*
X975572Y628020D02*
X975533Y627912D01*
X975490Y627805D01*
X975444Y627700D01*
X975393Y627596D01*
X975340Y627494D01*
X975283Y627394D01*
X975222Y627296D01*
X975158Y627201D01*
X975091Y627107D01*
X975020Y627016D01*
X974947Y626927D01*
X974870Y626841D01*
X974791Y626758D01*
X974709Y626677D01*
X974624Y626599D01*
X974536Y626525D01*
X974446Y626453D01*
X974353Y626384D01*
X974259Y626319D01*
X974162Y626257D01*
X974062Y626199D01*
X973961Y626143D01*
X973858Y626092D01*
X973754Y626044D01*
X973648Y625999D01*
X973540Y625958D01*
X973431Y625921D01*
X973321Y625888D01*
X973209Y625859D01*
X973097Y625833D01*
X972984Y625811D01*
X972870Y625794D01*
X972756Y625780D01*
X972641Y625770D01*
X972526Y625764D01*
X972411Y625762D01*
X968798Y629374D02*
X976023Y638406D01*
X983527Y638406D02*
X988042Y642018D01*
X988042Y625762D01*
X983527Y625762D02*
X992558Y625762D01*
X999157Y630278D02*
X999159Y630411D01*
X999165Y630543D01*
X999175Y630675D01*
X999188Y630807D01*
X999206Y630939D01*
X999227Y631069D01*
X999252Y631200D01*
X999281Y631329D01*
X999314Y631457D01*
X999350Y631585D01*
X999390Y631711D01*
X999434Y631836D01*
X999482Y631960D01*
X999533Y632082D01*
X999588Y632203D01*
X999646Y632322D01*
X999708Y632440D01*
X999773Y632555D01*
X999842Y632669D01*
X999913Y632780D01*
X999989Y632889D01*
X1000067Y632996D01*
X1000148Y633101D01*
X1000233Y633203D01*
X1000320Y633303D01*
X1000410Y633400D01*
X1000503Y633495D01*
X1000599Y633586D01*
X1000697Y633675D01*
X1000798Y633761D01*
X1000902Y633844D01*
X1001008Y633924D01*
X1001116Y634000D01*
X1001226Y634074D01*
X1001339Y634144D01*
X1001453Y634211D01*
X1001570Y634274D01*
X1001688Y634334D01*
X1001808Y634391D01*
X1001930Y634444D01*
X1002053Y634493D01*
X1002177Y634539D01*
X1002303Y634581D01*
X1002430Y634619D01*
X1002558Y634654D01*
X1002687Y634685D01*
X1002816Y634712D01*
X1002947Y634735D01*
X1003078Y634755D01*
X1003210Y634770D01*
X1003342Y634782D01*
X1003474Y634790D01*
X1003607Y634794D01*
X1003739Y634794D01*
X1003872Y634790D01*
X1004004Y634782D01*
X1004136Y634770D01*
X1004268Y634755D01*
X1004399Y634735D01*
X1004530Y634712D01*
X1004659Y634685D01*
X1004788Y634654D01*
X1004916Y634619D01*
X1005043Y634581D01*
X1005169Y634539D01*
X1005293Y634493D01*
X1005416Y634444D01*
X1005538Y634391D01*
X1005658Y634334D01*
X1005776Y634274D01*
X1005893Y634211D01*
X1006007Y634144D01*
X1006120Y634074D01*
X1006230Y634000D01*
X1006338Y633924D01*
X1006444Y633844D01*
X1006548Y633761D01*
X1006649Y633675D01*
X1006747Y633586D01*
X1006843Y633495D01*
X1006936Y633400D01*
X1007026Y633303D01*
X1007113Y633203D01*
X1007198Y633101D01*
X1007279Y632996D01*
X1007357Y632889D01*
X1007433Y632780D01*
X1007504Y632669D01*
X1007573Y632555D01*
X1007638Y632440D01*
X1007700Y632322D01*
X1007758Y632203D01*
X1007813Y632082D01*
X1007864Y631960D01*
X1007912Y631836D01*
X1007956Y631711D01*
X1007996Y631585D01*
X1008032Y631457D01*
X1008065Y631329D01*
X1008094Y631200D01*
X1008119Y631069D01*
X1008140Y630939D01*
X1008158Y630807D01*
X1008171Y630675D01*
X1008181Y630543D01*
X1008187Y630411D01*
X1008189Y630278D01*
X1008187Y630145D01*
X1008181Y630013D01*
X1008171Y629881D01*
X1008158Y629749D01*
X1008140Y629617D01*
X1008119Y629487D01*
X1008094Y629356D01*
X1008065Y629227D01*
X1008032Y629099D01*
X1007996Y628971D01*
X1007956Y628845D01*
X1007912Y628720D01*
X1007864Y628596D01*
X1007813Y628474D01*
X1007758Y628353D01*
X1007700Y628234D01*
X1007638Y628116D01*
X1007573Y628001D01*
X1007504Y627887D01*
X1007433Y627776D01*
X1007357Y627667D01*
X1007279Y627560D01*
X1007198Y627455D01*
X1007113Y627353D01*
X1007026Y627253D01*
X1006936Y627156D01*
X1006843Y627061D01*
X1006747Y626970D01*
X1006649Y626881D01*
X1006548Y626795D01*
X1006444Y626712D01*
X1006338Y626632D01*
X1006230Y626556D01*
X1006120Y626482D01*
X1006007Y626412D01*
X1005893Y626345D01*
X1005776Y626282D01*
X1005658Y626222D01*
X1005538Y626165D01*
X1005416Y626112D01*
X1005293Y626063D01*
X1005169Y626017D01*
X1005043Y625975D01*
X1004916Y625937D01*
X1004788Y625902D01*
X1004659Y625871D01*
X1004530Y625844D01*
X1004399Y625821D01*
X1004268Y625801D01*
X1004136Y625786D01*
X1004004Y625774D01*
X1003872Y625766D01*
X1003739Y625762D01*
X1003607Y625762D01*
X1003474Y625766D01*
X1003342Y625774D01*
X1003210Y625786D01*
X1003078Y625801D01*
X1002947Y625821D01*
X1002816Y625844D01*
X1002687Y625871D01*
X1002558Y625902D01*
X1002430Y625937D01*
X1002303Y625975D01*
X1002177Y626017D01*
X1002053Y626063D01*
X1001930Y626112D01*
X1001808Y626165D01*
X1001688Y626222D01*
X1001570Y626282D01*
X1001453Y626345D01*
X1001339Y626412D01*
X1001226Y626482D01*
X1001116Y626556D01*
X1001008Y626632D01*
X1000902Y626712D01*
X1000798Y626795D01*
X1000697Y626881D01*
X1000599Y626970D01*
X1000503Y627061D01*
X1000410Y627156D01*
X1000320Y627253D01*
X1000233Y627353D01*
X1000148Y627455D01*
X1000067Y627560D01*
X999989Y627667D01*
X999913Y627776D01*
X999842Y627887D01*
X999773Y628001D01*
X999708Y628116D01*
X999646Y628234D01*
X999588Y628353D01*
X999533Y628474D01*
X999482Y628596D01*
X999434Y628720D01*
X999390Y628845D01*
X999350Y628971D01*
X999314Y629099D01*
X999281Y629227D01*
X999252Y629356D01*
X999227Y629487D01*
X999206Y629617D01*
X999188Y629749D01*
X999175Y629881D01*
X999165Y630013D01*
X999159Y630145D01*
X999157Y630278D01*
X1000061Y638406D02*
X1000063Y638525D01*
X1000069Y638645D01*
X1000079Y638764D01*
X1000093Y638882D01*
X1000110Y639001D01*
X1000132Y639118D01*
X1000157Y639235D01*
X1000187Y639350D01*
X1000220Y639465D01*
X1000257Y639579D01*
X1000297Y639691D01*
X1000342Y639802D01*
X1000390Y639911D01*
X1000441Y640019D01*
X1000496Y640125D01*
X1000555Y640229D01*
X1000617Y640331D01*
X1000682Y640431D01*
X1000751Y640529D01*
X1000823Y640625D01*
X1000898Y640718D01*
X1000975Y640808D01*
X1001056Y640896D01*
X1001140Y640981D01*
X1001227Y641063D01*
X1001316Y641143D01*
X1001408Y641219D01*
X1001502Y641293D01*
X1001599Y641363D01*
X1001697Y641430D01*
X1001798Y641494D01*
X1001902Y641554D01*
X1002007Y641611D01*
X1002114Y641664D01*
X1002222Y641714D01*
X1002332Y641760D01*
X1002444Y641802D01*
X1002557Y641841D01*
X1002671Y641876D01*
X1002786Y641907D01*
X1002903Y641935D01*
X1003020Y641958D01*
X1003137Y641978D01*
X1003256Y641994D01*
X1003375Y642006D01*
X1003494Y642014D01*
X1003613Y642018D01*
X1003733Y642018D01*
X1003852Y642014D01*
X1003971Y642006D01*
X1004090Y641994D01*
X1004209Y641978D01*
X1004326Y641958D01*
X1004443Y641935D01*
X1004560Y641907D01*
X1004675Y641876D01*
X1004789Y641841D01*
X1004902Y641802D01*
X1005014Y641760D01*
X1005124Y641714D01*
X1005232Y641664D01*
X1005339Y641611D01*
X1005444Y641554D01*
X1005548Y641494D01*
X1005649Y641430D01*
X1005747Y641363D01*
X1005844Y641293D01*
X1005938Y641219D01*
X1006030Y641143D01*
X1006119Y641063D01*
X1006206Y640981D01*
X1006290Y640896D01*
X1006371Y640808D01*
X1006448Y640718D01*
X1006523Y640625D01*
X1006595Y640529D01*
X1006664Y640431D01*
X1006729Y640331D01*
X1006791Y640229D01*
X1006850Y640125D01*
X1006905Y640019D01*
X1006956Y639911D01*
X1007004Y639802D01*
X1007049Y639691D01*
X1007089Y639579D01*
X1007126Y639465D01*
X1007159Y639350D01*
X1007189Y639235D01*
X1007214Y639118D01*
X1007236Y639001D01*
X1007253Y638882D01*
X1007267Y638764D01*
X1007277Y638645D01*
X1007283Y638525D01*
X1007285Y638406D01*
X1007283Y638287D01*
X1007277Y638167D01*
X1007267Y638048D01*
X1007253Y637930D01*
X1007236Y637811D01*
X1007214Y637694D01*
X1007189Y637577D01*
X1007159Y637462D01*
X1007126Y637347D01*
X1007089Y637233D01*
X1007049Y637121D01*
X1007004Y637010D01*
X1006956Y636901D01*
X1006905Y636793D01*
X1006850Y636687D01*
X1006791Y636583D01*
X1006729Y636481D01*
X1006664Y636381D01*
X1006595Y636283D01*
X1006523Y636187D01*
X1006448Y636094D01*
X1006371Y636004D01*
X1006290Y635916D01*
X1006206Y635831D01*
X1006119Y635749D01*
X1006030Y635669D01*
X1005938Y635593D01*
X1005844Y635519D01*
X1005747Y635449D01*
X1005649Y635382D01*
X1005548Y635318D01*
X1005444Y635258D01*
X1005339Y635201D01*
X1005232Y635148D01*
X1005124Y635098D01*
X1005014Y635052D01*
X1004902Y635010D01*
X1004789Y634971D01*
X1004675Y634936D01*
X1004560Y634905D01*
X1004443Y634877D01*
X1004326Y634854D01*
X1004209Y634834D01*
X1004090Y634818D01*
X1003971Y634806D01*
X1003852Y634798D01*
X1003733Y634794D01*
X1003613Y634794D01*
X1003494Y634798D01*
X1003375Y634806D01*
X1003256Y634818D01*
X1003137Y634834D01*
X1003020Y634854D01*
X1002903Y634877D01*
X1002786Y634905D01*
X1002671Y634936D01*
X1002557Y634971D01*
X1002444Y635010D01*
X1002332Y635052D01*
X1002222Y635098D01*
X1002114Y635148D01*
X1002007Y635201D01*
X1001902Y635258D01*
X1001798Y635318D01*
X1001697Y635382D01*
X1001599Y635449D01*
X1001502Y635519D01*
X1001408Y635593D01*
X1001316Y635669D01*
X1001227Y635749D01*
X1001140Y635831D01*
X1001056Y635916D01*
X1000975Y636004D01*
X1000898Y636094D01*
X1000823Y636187D01*
X1000751Y636283D01*
X1000682Y636381D01*
X1000617Y636481D01*
X1000555Y636583D01*
X1000496Y636687D01*
X1000441Y636793D01*
X1000390Y636901D01*
X1000342Y637010D01*
X1000297Y637121D01*
X1000257Y637233D01*
X1000220Y637347D01*
X1000187Y637462D01*
X1000157Y637577D01*
X1000132Y637694D01*
X1000110Y637811D01*
X1000093Y637930D01*
X1000079Y638048D01*
X1000069Y638167D01*
X1000063Y638287D01*
X1000061Y638406D01*
D11*
X200650Y447650D03*
D12*
X200650Y405750D03*
X200650Y363850D03*
X200650Y321950D03*
X200650Y280050D03*
X200650Y238150D03*
X129550Y238150D03*
X129550Y280050D03*
X129550Y321950D03*
X129550Y363850D03*
X129550Y405750D03*
X129550Y447650D03*
D13*
X1239400Y307950D03*
X1239400Y219050D03*
D14*
X1239400Y441350D03*
D13*
X1239400Y396900D03*
X1239400Y352450D03*
X1239400Y263500D03*
X1148200Y219050D03*
X1148200Y263500D03*
X1148200Y307950D03*
X1148200Y352450D03*
X1148200Y396900D03*
X1148200Y441350D03*
D15*
X685900Y254100D03*
X685900Y279500D03*
X685900Y304900D03*
X685900Y330300D03*
X685900Y355700D03*
X685900Y381100D03*
X685900Y406500D03*
X685900Y431900D03*
D16*
X980300Y267800D03*
X980300Y317800D03*
X980300Y367800D03*
X980300Y417800D03*
D15*
X685900Y50900D03*
X685900Y76300D03*
X685900Y101700D03*
X685900Y127100D03*
X685900Y152500D03*
X685900Y177900D03*
X685900Y203300D03*
X685900Y228700D03*
D16*
X980300Y64600D03*
X980300Y114600D03*
X980300Y164600D03*
X980300Y214600D03*
D15*
X355700Y50900D03*
X355700Y76300D03*
X355700Y101700D03*
X355700Y127100D03*
X355700Y152500D03*
X355700Y177900D03*
X355700Y203300D03*
X355700Y228700D03*
D16*
X650100Y64600D03*
X650100Y114600D03*
X650100Y164600D03*
X650100Y214600D03*
D15*
X355700Y254100D03*
X355700Y279500D03*
X355700Y304900D03*
X355700Y330300D03*
X355700Y355700D03*
X355700Y381100D03*
X355700Y406500D03*
X355700Y431900D03*
D16*
X650100Y267800D03*
X650100Y317800D03*
X650100Y367800D03*
X650100Y417800D03*
D15*
X377300Y489900D03*
X402700Y489900D03*
X428100Y489900D03*
X453500Y489900D03*
X478900Y489900D03*
X504300Y489900D03*
X529700Y489900D03*
X555100Y489900D03*
X580500Y489900D03*
X605900Y489900D03*
X631300Y489900D03*
X656700Y489900D03*
X682100Y489900D03*
X707500Y489900D03*
X732900Y489900D03*
X758300Y489900D03*
X783700Y489900D03*
X377300Y642300D03*
X402700Y642300D03*
X428100Y642300D03*
X453500Y642300D03*
X504300Y642300D03*
X529700Y642300D03*
X555100Y642300D03*
X580500Y642300D03*
X605900Y642300D03*
X631300Y642300D03*
X656700Y642300D03*
X707500Y642300D03*
X732900Y642300D03*
X758300Y642300D03*
X783700Y642300D03*
X682100Y642300D03*
X478900Y642300D03*
D17*
X990600Y520700D03*
X990600Y546100D03*
X990600Y571500D03*
D18*
X650100Y65535D02*
X650100Y64600D01*
X650100Y65535D02*
X619548Y96087D01*
X619548Y238113D02*
X649235Y267800D01*
X619548Y238113D02*
X619548Y96087D01*
X649235Y267800D02*
X650100Y267800D01*
X541754Y550000D02*
X453500Y642300D01*
X985550Y498508D02*
X995650Y498508D01*
X1012792Y515650D01*
X1012792Y525750D01*
X934058Y550000D02*
X541754Y550000D01*
X934058Y550000D02*
X985550Y498508D01*
X1012792Y525750D02*
X992442Y546100D01*
X990600Y546100D01*
X630742Y466681D02*
X542941Y378880D01*
X630742Y489342D02*
X631300Y489900D01*
X630742Y489342D02*
X630742Y466681D01*
X542941Y378880D02*
X357920Y378880D01*
X355700Y381100D01*
X544785Y406500D02*
X618122Y479837D01*
X618122Y499007D01*
X544785Y406500D02*
X355700Y406500D01*
X656700Y489900D02*
X656700Y499900D01*
X655100Y499900D01*
X645000Y510000D01*
X629115Y510000D02*
X618122Y499007D01*
X629115Y510000D02*
X645000Y510000D01*
X682100Y489900D02*
X682100Y445385D01*
X673678Y436963D01*
X673678Y393322D01*
X685900Y381100D01*
X707500Y428100D02*
X707500Y489900D01*
X707500Y428100D02*
X685900Y406500D01*
X579637Y565078D02*
X504300Y640415D01*
X579637Y565078D02*
X946222Y565078D01*
X504300Y640415D02*
X504300Y642300D01*
X946222Y565078D02*
X990600Y520700D01*
D19*
X985300Y372800D02*
X1007224Y372800D01*
X1108273Y473849D02*
X1169591Y473849D01*
X1185699Y457741D01*
X1185699Y406151D01*
X1108273Y473849D02*
X1007224Y372800D01*
X1185699Y406151D02*
X1239400Y352450D01*
X985300Y372800D02*
X980300Y367800D01*
X1020300Y317800D02*
X1054950Y352450D01*
X1148200Y352450D01*
X1020300Y317800D02*
X980300Y317800D01*
D18*
X680715Y367800D02*
X650100Y367800D01*
X680715Y367800D02*
X680837Y367922D01*
X941113Y367922D01*
X966787Y342248D01*
X1043371Y375297D02*
X1172053Y375297D01*
X1010322Y342248D02*
X966787Y342248D01*
X1010322Y342248D02*
X1043371Y375297D01*
X1172053Y375297D02*
X1239400Y307950D01*
X1148050Y307800D02*
X1044726Y307800D01*
X941235Y317800D02*
X650100Y317800D01*
X941235Y317800D02*
X966787Y292248D01*
X1029174Y292248D01*
X1044726Y307800D01*
X1148050Y307800D02*
X1148200Y307950D01*
X675778Y140278D02*
X650100Y114600D01*
X1093440Y243500D02*
X1165000Y243500D01*
X1219400Y243500D01*
X866054Y140278D02*
X675778Y140278D01*
X866054Y140278D02*
X915404Y189628D01*
X1039568Y189628D01*
X1093440Y243500D01*
X1219400Y243500D02*
X1239400Y263500D01*
X680715Y164600D02*
X650100Y164600D01*
X680715Y164600D02*
X680837Y164722D01*
X690963Y164722D01*
X691085Y164600D01*
X869600Y164600D01*
X945000Y240000D01*
X1070000Y240000D01*
X1095000Y265000D01*
X1146700Y265000D01*
X1148200Y263500D01*
X1183440Y219050D02*
X1239400Y219050D01*
X1183440Y219050D02*
X1160593Y196203D01*
X1086903Y196203D02*
X1005300Y114600D01*
X1086903Y196203D02*
X1160593Y196203D01*
X1005300Y114600D02*
X980300Y114600D01*
X1035300Y164600D02*
X1089750Y219050D01*
X1148200Y219050D01*
X1035300Y164600D02*
X980300Y164600D01*
X210678Y457678D02*
X200650Y447650D01*
X397763Y457678D02*
X428100Y488015D01*
X397763Y457678D02*
X210678Y457678D01*
X428100Y488015D02*
X428100Y489900D01*
X158121Y473842D02*
X152157Y470257D01*
X158121Y473842D02*
X338957Y473842D01*
X433163Y512122D02*
X453500Y491785D01*
X377237Y512122D02*
X338957Y473842D01*
X377237Y512122D02*
X433163Y512122D01*
X453500Y491785D02*
X453500Y489900D01*
X152157Y470257D02*
X129550Y447650D01*
X139031Y486218D02*
X140329Y486999D01*
X780585Y489900D02*
X783700Y489900D01*
X381701Y537362D02*
X331338Y486999D01*
X733123Y537362D02*
X780585Y489900D01*
X331338Y486999D02*
X140329Y486999D01*
X381701Y537362D02*
X733123Y537362D01*
X129550Y405750D02*
X110000Y425300D01*
X110000Y457188D01*
X139031Y486218D01*
X335000Y445000D02*
X200650Y280050D01*
X557508Y445000D02*
X593678Y481170D01*
X593678Y494963D01*
X623457Y524742D01*
X725343Y524742D01*
X758300Y491785D01*
X557508Y445000D02*
X335000Y445000D01*
X758300Y489900D02*
X758300Y491785D01*
X682037Y512122D02*
X669878Y499963D01*
X712563Y512122D02*
X732900Y491785D01*
X669878Y499963D02*
X669878Y474878D01*
X682037Y512122D02*
X712563Y512122D01*
X669878Y474878D02*
X461553Y266553D01*
X140059Y266553D01*
X129550Y277062D01*
X129550Y280050D01*
X732900Y489900D02*
X732900Y491785D01*
M02*
