M48
;GenerationSoftware,Autodesk,EAGLE,9.1.2*%
;CreationDate,2018-08-08T23:13:46Z*%
FMAT,2
ICI,OFF
METRIC,TZ,000.000
T7C1.000
T6C1.016
T5C1.020
T4C1.190
T3C1.770
T2C2.180
T1C2.990
%
G90
M71
T1
X3810Y51700
X29210Y51700
X29210Y16880
X3810Y16880
X130050Y15485
X108710Y15485
X108710Y50565
X130050Y50565
T2
X65010Y36780
X65010Y31780
X65010Y26780
X65010Y21460
X65010Y16460
X65010Y11460
X65010Y6460
X65010Y41780
X98030Y26780
X98030Y16460
X98030Y21460
X98030Y31780
X98030Y36780
X98030Y41780
X98030Y6460
X98030Y11460
T3
X123940Y44135
X123940Y35245
X123940Y26350
X114820Y21905
X114820Y30795
X114820Y35245
X114820Y39690
X114820Y44135
X123940Y30795
X123940Y21905
X123940Y39690
X114820Y26350
T4
X20065Y44765
X20065Y40575
X20065Y32195
X20065Y28005
X20065Y23815
X12955Y23815
X12955Y28005
X12955Y36385
X12955Y40575
X20065Y36385
X12955Y44765
X12955Y32195
T5
X68590Y27950
X68590Y30490
X68590Y33030
X68590Y35570
X68590Y38110
X68590Y40650
X68590Y5090
X68590Y7630
X68590Y10170
X68590Y12710
X68590Y15250
X68590Y17790
X68590Y20330
X68590Y22870
X68590Y43190
X35570Y5090
X35570Y7630
X35570Y10170
X35570Y12710
X35570Y15250
X35570Y17790
X35570Y20330
X35570Y22870
X35570Y25410
X35570Y27950
X35570Y30490
X35570Y33030
X35570Y35570
X35570Y38110
X35570Y40650
X35570Y43190
X68590Y25410
X37730Y48990
X40270Y48990
X42810Y48990
X45350Y48990
X47890Y48990
X50430Y48990
X52970Y48990
X55510Y48990
X58050Y48990
X60590Y48990
X63130Y48990
X65670Y48990
X68210Y48990
X70750Y48990
X73290Y48990
X75830Y48990
X78370Y48990
X37730Y64230
X40270Y64230
X42810Y64230
X45350Y64230
X50430Y64230
X52970Y64230
X55510Y64230
X58050Y64230
X60590Y64230
X63130Y64230
X65670Y64230
X70750Y64230
X73290Y64230
X75830Y64230
X78370Y64230
X68210Y64230
X47890Y64230
T6
X99060Y52070
X99060Y54610
X99060Y57150
T7
X130000Y60000
X4000Y10000
X130000Y60000
X4000Y10000
X4000Y60000
X4000Y60000
X130000Y10000
X130000Y10000
M30