G04 EAGLE Gerber X2 export*
%TF.Part,Single*%
%TF.FileFunction,Soldermask,Top,1*%
%TF.FilePolarity,Negative*%
%TF.GenerationSoftware,Autodesk,EAGLE,9.1.2*%
%TF.CreationDate,2018-08-08T23:13:48Z*%
G75*
%MOMM*%
%FSLAX34Y34*%
%LPD*%
%AMOC8*
5,1,8,0,0,1.08239X$1,22.5*%
G01*
%ADD10C,1.203200*%
%ADD11R,1.988200X1.988200*%
%ADD12C,1.988200*%
%ADD13C,3.193200*%
%ADD14C,2.858200*%
%ADD15R,2.858200X2.858200*%
%ADD16C,1.733200*%
%ADD17C,3.399200*%
%ADD18C,1.727200*%


D10*
X40000Y600000D03*
X40000Y100000D03*
X1300000Y600000D03*
X1300000Y100000D03*
X40000Y600000D03*
X40000Y100000D03*
X1300000Y600000D03*
X1300000Y100000D03*
D11*
X200650Y447650D03*
D12*
X200650Y405750D03*
X200650Y363850D03*
X200650Y321950D03*
X200650Y280050D03*
X200650Y238150D03*
X129550Y238150D03*
X129550Y280050D03*
X129550Y321950D03*
X129550Y363850D03*
X129550Y405750D03*
X129550Y447650D03*
D13*
X38100Y517000D03*
X292100Y517000D03*
X292100Y168800D03*
X38100Y168800D03*
D14*
X1239400Y307950D03*
X1239400Y219050D03*
D15*
X1239400Y441350D03*
D14*
X1239400Y396900D03*
X1239400Y352450D03*
X1239400Y263500D03*
X1148200Y219050D03*
X1148200Y263500D03*
X1148200Y307950D03*
X1148200Y352450D03*
X1148200Y396900D03*
X1148200Y441350D03*
D13*
X1300500Y154850D03*
X1087100Y154850D03*
X1087100Y505650D03*
X1300500Y505650D03*
D16*
X685900Y254100D03*
X685900Y279500D03*
X685900Y304900D03*
X685900Y330300D03*
X685900Y355700D03*
X685900Y381100D03*
X685900Y406500D03*
X685900Y431900D03*
D17*
X980300Y267800D03*
X980300Y317800D03*
X980300Y367800D03*
X980300Y417800D03*
D16*
X685900Y50900D03*
X685900Y76300D03*
X685900Y101700D03*
X685900Y127100D03*
X685900Y152500D03*
X685900Y177900D03*
X685900Y203300D03*
X685900Y228700D03*
D17*
X980300Y64600D03*
X980300Y114600D03*
X980300Y164600D03*
X980300Y214600D03*
D16*
X355700Y50900D03*
X355700Y76300D03*
X355700Y101700D03*
X355700Y127100D03*
X355700Y152500D03*
X355700Y177900D03*
X355700Y203300D03*
X355700Y228700D03*
D17*
X650100Y64600D03*
X650100Y114600D03*
X650100Y164600D03*
X650100Y214600D03*
D16*
X355700Y254100D03*
X355700Y279500D03*
X355700Y304900D03*
X355700Y330300D03*
X355700Y355700D03*
X355700Y381100D03*
X355700Y406500D03*
X355700Y431900D03*
D17*
X650100Y267800D03*
X650100Y317800D03*
X650100Y367800D03*
X650100Y417800D03*
D16*
X377300Y489900D03*
X402700Y489900D03*
X428100Y489900D03*
X453500Y489900D03*
X478900Y489900D03*
X504300Y489900D03*
X529700Y489900D03*
X555100Y489900D03*
X580500Y489900D03*
X605900Y489900D03*
X631300Y489900D03*
X656700Y489900D03*
X682100Y489900D03*
X707500Y489900D03*
X732900Y489900D03*
X758300Y489900D03*
X783700Y489900D03*
X377300Y642300D03*
X402700Y642300D03*
X428100Y642300D03*
X453500Y642300D03*
X504300Y642300D03*
X529700Y642300D03*
X555100Y642300D03*
X580500Y642300D03*
X605900Y642300D03*
X631300Y642300D03*
X656700Y642300D03*
X707500Y642300D03*
X732900Y642300D03*
X758300Y642300D03*
X783700Y642300D03*
X682100Y642300D03*
X478900Y642300D03*
D18*
X990600Y520700D03*
X990600Y546100D03*
X990600Y571500D03*
M02*
