G04 EAGLE Gerber X2 export*
%TF.Part,Single*%
%TF.FileFunction,Copper,L2,Bot,Mixed*%
%TF.FilePolarity,Positive*%
%TF.GenerationSoftware,Autodesk,EAGLE,9.1.2*%
%TF.CreationDate,2018-08-08T23:14:23Z*%
G75*
%MOMM*%
%FSLAX34Y34*%
%LPD*%
%AMOC8*
5,1,8,0,0,1.08239X$1,22.5*%
G01*
%ADD10R,1.785000X1.785000*%
%ADD11C,1.785000*%
%ADD12C,2.655000*%
%ADD13R,2.655000X2.655000*%
%ADD14C,1.530000*%
%ADD15C,3.196000*%
%ADD16C,1.524000*%
%ADD17C,0.609600*%
%ADD18C,2.540000*%
%ADD19C,0.508000*%

G36*
X1367868Y35567D02*
X1367868Y35567D01*
X1367944Y35565D01*
X1368113Y35587D01*
X1368284Y35601D01*
X1368358Y35619D01*
X1368433Y35629D01*
X1368597Y35678D01*
X1368763Y35719D01*
X1368832Y35749D01*
X1368906Y35771D01*
X1369059Y35847D01*
X1369216Y35914D01*
X1369280Y35955D01*
X1369349Y35988D01*
X1369488Y36087D01*
X1369632Y36179D01*
X1369689Y36230D01*
X1369751Y36274D01*
X1369872Y36394D01*
X1370000Y36508D01*
X1370048Y36567D01*
X1370102Y36621D01*
X1370203Y36759D01*
X1370310Y36892D01*
X1370347Y36958D01*
X1370392Y37019D01*
X1370469Y37172D01*
X1370554Y37320D01*
X1370580Y37392D01*
X1370615Y37460D01*
X1370666Y37623D01*
X1370725Y37783D01*
X1370740Y37858D01*
X1370763Y37930D01*
X1370775Y38035D01*
X1370820Y38267D01*
X1370827Y38503D01*
X1370839Y38608D01*
X1370839Y647092D01*
X1370833Y647168D01*
X1370835Y647244D01*
X1370813Y647413D01*
X1370799Y647584D01*
X1370781Y647658D01*
X1370771Y647733D01*
X1370722Y647897D01*
X1370681Y648063D01*
X1370651Y648132D01*
X1370629Y648206D01*
X1370553Y648359D01*
X1370486Y648516D01*
X1370445Y648580D01*
X1370412Y648649D01*
X1370313Y648788D01*
X1370221Y648932D01*
X1370170Y648989D01*
X1370126Y649051D01*
X1370006Y649172D01*
X1369892Y649300D01*
X1369833Y649348D01*
X1369779Y649402D01*
X1369641Y649503D01*
X1369508Y649610D01*
X1369442Y649647D01*
X1369381Y649692D01*
X1369228Y649769D01*
X1369080Y649854D01*
X1369008Y649880D01*
X1368940Y649915D01*
X1368777Y649966D01*
X1368617Y650025D01*
X1368542Y650040D01*
X1368470Y650063D01*
X1368365Y650075D01*
X1368133Y650120D01*
X1367897Y650127D01*
X1367792Y650139D01*
X799893Y650139D01*
X799713Y650125D01*
X799532Y650118D01*
X799467Y650105D01*
X799401Y650099D01*
X799226Y650056D01*
X799049Y650020D01*
X798987Y649997D01*
X798922Y649981D01*
X798756Y649909D01*
X798587Y649846D01*
X798530Y649812D01*
X798469Y649786D01*
X798317Y649689D01*
X798160Y649599D01*
X798109Y649557D01*
X798053Y649521D01*
X797918Y649401D01*
X797778Y649286D01*
X797734Y649237D01*
X797685Y649192D01*
X797572Y649052D01*
X797452Y648917D01*
X797417Y648860D01*
X797375Y648808D01*
X797286Y648652D01*
X797190Y648499D01*
X797164Y648437D01*
X797131Y648380D01*
X797068Y648211D01*
X796998Y648044D01*
X796982Y647979D01*
X796959Y647917D01*
X796925Y647740D01*
X796882Y647565D01*
X796877Y647498D01*
X796865Y647433D01*
X796859Y647253D01*
X796846Y647073D01*
X796851Y647006D01*
X796849Y646940D01*
X796873Y646761D01*
X796889Y646581D01*
X796903Y646530D01*
X796914Y646451D01*
X797056Y645979D01*
X797071Y645948D01*
X797077Y645926D01*
X797447Y645034D01*
X797447Y639566D01*
X795354Y634513D01*
X791487Y630646D01*
X786434Y628553D01*
X780966Y628553D01*
X775913Y630646D01*
X773155Y633404D01*
X773097Y633454D01*
X773044Y633509D01*
X772909Y633613D01*
X772779Y633724D01*
X772714Y633763D01*
X772653Y633810D01*
X772503Y633890D01*
X772356Y633979D01*
X772285Y634007D01*
X772218Y634043D01*
X772057Y634098D01*
X771898Y634162D01*
X771824Y634178D01*
X771752Y634203D01*
X771583Y634231D01*
X771416Y634268D01*
X771340Y634273D01*
X771265Y634285D01*
X771094Y634286D01*
X770924Y634296D01*
X770848Y634288D01*
X770772Y634288D01*
X770603Y634262D01*
X770433Y634244D01*
X770360Y634224D01*
X770285Y634212D01*
X770122Y634158D01*
X769958Y634113D01*
X769888Y634081D01*
X769816Y634058D01*
X769665Y633979D01*
X769509Y633907D01*
X769446Y633865D01*
X769378Y633830D01*
X769296Y633764D01*
X769100Y633632D01*
X768928Y633470D01*
X768845Y633404D01*
X766087Y630646D01*
X761034Y628553D01*
X755566Y628553D01*
X750513Y630646D01*
X747755Y633404D01*
X747697Y633454D01*
X747644Y633509D01*
X747509Y633613D01*
X747379Y633724D01*
X747314Y633763D01*
X747253Y633810D01*
X747103Y633890D01*
X746956Y633979D01*
X746885Y634007D01*
X746818Y634043D01*
X746657Y634098D01*
X746498Y634162D01*
X746424Y634178D01*
X746352Y634203D01*
X746183Y634231D01*
X746016Y634268D01*
X745940Y634273D01*
X745865Y634285D01*
X745694Y634286D01*
X745524Y634296D01*
X745448Y634288D01*
X745372Y634288D01*
X745203Y634262D01*
X745033Y634244D01*
X744960Y634224D01*
X744885Y634212D01*
X744722Y634158D01*
X744558Y634113D01*
X744488Y634081D01*
X744416Y634058D01*
X744265Y633979D01*
X744109Y633907D01*
X744046Y633865D01*
X743978Y633830D01*
X743896Y633764D01*
X743700Y633632D01*
X743528Y633470D01*
X743445Y633404D01*
X740687Y630646D01*
X735634Y628553D01*
X730166Y628553D01*
X725113Y630646D01*
X722355Y633404D01*
X722297Y633454D01*
X722244Y633509D01*
X722109Y633613D01*
X721979Y633724D01*
X721914Y633763D01*
X721853Y633810D01*
X721703Y633890D01*
X721556Y633979D01*
X721485Y634007D01*
X721418Y634043D01*
X721257Y634098D01*
X721098Y634162D01*
X721024Y634178D01*
X720952Y634203D01*
X720783Y634231D01*
X720616Y634268D01*
X720540Y634273D01*
X720465Y634285D01*
X720294Y634286D01*
X720124Y634296D01*
X720048Y634288D01*
X719972Y634288D01*
X719803Y634262D01*
X719633Y634244D01*
X719560Y634224D01*
X719485Y634212D01*
X719322Y634158D01*
X719158Y634113D01*
X719088Y634081D01*
X719016Y634058D01*
X718865Y633979D01*
X718709Y633907D01*
X718646Y633865D01*
X718578Y633830D01*
X718496Y633764D01*
X718300Y633632D01*
X718128Y633470D01*
X718045Y633404D01*
X715287Y630646D01*
X710234Y628553D01*
X707748Y628553D01*
X707634Y628544D01*
X707520Y628545D01*
X707389Y628524D01*
X707256Y628513D01*
X707146Y628486D01*
X707033Y628468D01*
X706906Y628427D01*
X706778Y628395D01*
X706673Y628350D01*
X706564Y628314D01*
X706446Y628252D01*
X706324Y628200D01*
X706228Y628139D01*
X706127Y628086D01*
X706053Y628027D01*
X705908Y627935D01*
X705666Y627719D01*
X705593Y627661D01*
X629401Y551469D01*
X629377Y551440D01*
X629348Y551414D01*
X629217Y551252D01*
X629082Y551093D01*
X629062Y551060D01*
X629038Y551030D01*
X628935Y550850D01*
X628827Y550670D01*
X628813Y550635D01*
X628794Y550602D01*
X628722Y550406D01*
X628644Y550212D01*
X628636Y550175D01*
X628623Y550139D01*
X628583Y549934D01*
X628537Y549730D01*
X628535Y549692D01*
X628528Y549655D01*
X628521Y549447D01*
X628510Y549238D01*
X628514Y549200D01*
X628513Y549162D01*
X628540Y548955D01*
X628562Y548747D01*
X628572Y548711D01*
X628577Y548673D01*
X628637Y548473D01*
X628693Y548272D01*
X628708Y548237D01*
X628719Y548200D01*
X628811Y548013D01*
X628898Y547823D01*
X628920Y547791D01*
X628936Y547757D01*
X629057Y547587D01*
X629174Y547414D01*
X629200Y547386D01*
X629222Y547355D01*
X629369Y547206D01*
X629512Y547054D01*
X629542Y547031D01*
X629569Y547004D01*
X629737Y546881D01*
X629903Y546754D01*
X629936Y546736D01*
X629967Y546714D01*
X630154Y546620D01*
X630338Y546521D01*
X630374Y546509D01*
X630408Y546491D01*
X630607Y546429D01*
X630804Y546361D01*
X630842Y546355D01*
X630878Y546343D01*
X630971Y546333D01*
X631291Y546278D01*
X631463Y546277D01*
X631556Y546267D01*
X697497Y546267D01*
X700858Y544875D01*
X728653Y517080D01*
X730045Y513719D01*
X730045Y510081D01*
X729769Y509415D01*
X729766Y509405D01*
X729761Y509397D01*
X729689Y509167D01*
X729617Y508945D01*
X729616Y508936D01*
X729613Y508926D01*
X729609Y508886D01*
X729544Y508457D01*
X729546Y508326D01*
X729537Y508248D01*
X729537Y506694D01*
X729543Y506618D01*
X729541Y506542D01*
X729563Y506373D01*
X729577Y506202D01*
X729595Y506128D01*
X729605Y506053D01*
X729654Y505889D01*
X729695Y505723D01*
X729725Y505654D01*
X729747Y505580D01*
X729823Y505427D01*
X729890Y505270D01*
X729931Y505206D01*
X729964Y505137D01*
X730063Y504998D01*
X730155Y504854D01*
X730206Y504797D01*
X730250Y504735D01*
X730370Y504614D01*
X730484Y504486D01*
X730543Y504438D01*
X730597Y504384D01*
X730735Y504283D01*
X730868Y504176D01*
X730934Y504139D01*
X730995Y504094D01*
X731148Y504017D01*
X731296Y503932D01*
X731368Y503906D01*
X731436Y503871D01*
X731599Y503820D01*
X731759Y503761D01*
X731834Y503746D01*
X731906Y503723D01*
X732011Y503711D01*
X732243Y503666D01*
X732479Y503659D01*
X732584Y503647D01*
X735634Y503647D01*
X740687Y501554D01*
X743445Y498796D01*
X743503Y498746D01*
X743555Y498691D01*
X743691Y498587D01*
X743821Y498476D01*
X743887Y498437D01*
X743947Y498390D01*
X744097Y498310D01*
X744244Y498222D01*
X744314Y498193D01*
X744382Y498157D01*
X744543Y498102D01*
X744702Y498038D01*
X744776Y498022D01*
X744848Y497997D01*
X745017Y497969D01*
X745183Y497932D01*
X745260Y497927D01*
X745335Y497915D01*
X745506Y497914D01*
X745676Y497904D01*
X745752Y497912D01*
X745828Y497912D01*
X745997Y497938D01*
X746167Y497956D01*
X746240Y497976D01*
X746315Y497988D01*
X746478Y498042D01*
X746642Y498087D01*
X746712Y498119D01*
X746784Y498142D01*
X746936Y498221D01*
X747091Y498293D01*
X747154Y498335D01*
X747222Y498370D01*
X747304Y498436D01*
X747500Y498568D01*
X747672Y498730D01*
X747755Y498796D01*
X750513Y501554D01*
X755566Y503647D01*
X761034Y503647D01*
X766087Y501554D01*
X768845Y498796D01*
X768903Y498746D01*
X768955Y498691D01*
X769091Y498587D01*
X769221Y498476D01*
X769287Y498437D01*
X769347Y498390D01*
X769497Y498310D01*
X769644Y498222D01*
X769714Y498193D01*
X769782Y498157D01*
X769943Y498102D01*
X770102Y498038D01*
X770176Y498022D01*
X770248Y497997D01*
X770417Y497969D01*
X770583Y497932D01*
X770660Y497927D01*
X770735Y497915D01*
X770906Y497914D01*
X771076Y497904D01*
X771152Y497912D01*
X771228Y497912D01*
X771397Y497938D01*
X771567Y497956D01*
X771640Y497976D01*
X771715Y497988D01*
X771878Y498042D01*
X772042Y498087D01*
X772112Y498119D01*
X772184Y498142D01*
X772336Y498221D01*
X772491Y498293D01*
X772554Y498335D01*
X772622Y498370D01*
X772704Y498436D01*
X772900Y498568D01*
X773072Y498730D01*
X773155Y498796D01*
X775913Y501554D01*
X780966Y503647D01*
X786434Y503647D01*
X791487Y501554D01*
X795354Y497687D01*
X797447Y492634D01*
X797447Y487166D01*
X795354Y482113D01*
X791487Y478246D01*
X786434Y476153D01*
X780966Y476153D01*
X775913Y478246D01*
X773155Y481004D01*
X773097Y481054D01*
X773044Y481109D01*
X772909Y481213D01*
X772779Y481324D01*
X772714Y481363D01*
X772653Y481410D01*
X772503Y481490D01*
X772356Y481579D01*
X772285Y481607D01*
X772218Y481643D01*
X772057Y481698D01*
X771898Y481762D01*
X771824Y481778D01*
X771752Y481803D01*
X771583Y481831D01*
X771416Y481868D01*
X771340Y481873D01*
X771265Y481885D01*
X771094Y481886D01*
X770924Y481896D01*
X770848Y481888D01*
X770772Y481888D01*
X770603Y481862D01*
X770433Y481844D01*
X770360Y481824D01*
X770285Y481812D01*
X770122Y481758D01*
X769958Y481713D01*
X769888Y481681D01*
X769816Y481658D01*
X769665Y481579D01*
X769509Y481507D01*
X769446Y481465D01*
X769378Y481430D01*
X769296Y481364D01*
X769100Y481232D01*
X768928Y481070D01*
X768845Y481004D01*
X766087Y478246D01*
X761034Y476153D01*
X755566Y476153D01*
X750513Y478246D01*
X747755Y481004D01*
X747697Y481054D01*
X747644Y481109D01*
X747509Y481213D01*
X747379Y481324D01*
X747314Y481363D01*
X747253Y481410D01*
X747103Y481490D01*
X746956Y481579D01*
X746885Y481607D01*
X746818Y481643D01*
X746657Y481698D01*
X746498Y481762D01*
X746424Y481778D01*
X746352Y481803D01*
X746183Y481831D01*
X746016Y481868D01*
X745940Y481873D01*
X745865Y481885D01*
X745694Y481886D01*
X745524Y481896D01*
X745448Y481888D01*
X745372Y481888D01*
X745203Y481862D01*
X745033Y481844D01*
X744960Y481824D01*
X744885Y481812D01*
X744722Y481758D01*
X744558Y481713D01*
X744488Y481681D01*
X744416Y481658D01*
X744265Y481579D01*
X744109Y481507D01*
X744046Y481465D01*
X743978Y481430D01*
X743896Y481364D01*
X743700Y481232D01*
X743528Y481070D01*
X743445Y481004D01*
X740687Y478246D01*
X735634Y476153D01*
X732584Y476153D01*
X732508Y476147D01*
X732432Y476149D01*
X732263Y476127D01*
X732092Y476113D01*
X732018Y476095D01*
X731943Y476085D01*
X731779Y476036D01*
X731613Y475995D01*
X731544Y475965D01*
X731470Y475943D01*
X731317Y475867D01*
X731160Y475800D01*
X731096Y475759D01*
X731027Y475726D01*
X730888Y475627D01*
X730744Y475535D01*
X730687Y475484D01*
X730625Y475440D01*
X730504Y475320D01*
X730376Y475206D01*
X730328Y475147D01*
X730274Y475093D01*
X730173Y474955D01*
X730066Y474822D01*
X730029Y474756D01*
X729984Y474695D01*
X729907Y474542D01*
X729822Y474394D01*
X729796Y474322D01*
X729761Y474254D01*
X729710Y474091D01*
X729651Y473931D01*
X729636Y473856D01*
X729613Y473784D01*
X729601Y473679D01*
X729556Y473447D01*
X729549Y473211D01*
X729537Y473106D01*
X729537Y470552D01*
X729538Y470542D01*
X729537Y470532D01*
X729558Y470296D01*
X729577Y470060D01*
X729579Y470050D01*
X729580Y470041D01*
X729591Y470002D01*
X729695Y469581D01*
X729747Y469461D01*
X729769Y469385D01*
X730045Y468719D01*
X730045Y465081D01*
X728653Y461720D01*
X701930Y434997D01*
X701880Y434939D01*
X701825Y434887D01*
X701721Y434751D01*
X701610Y434621D01*
X701571Y434556D01*
X701524Y434495D01*
X701444Y434345D01*
X701356Y434199D01*
X701327Y434128D01*
X701291Y434061D01*
X701236Y433899D01*
X701172Y433740D01*
X701156Y433666D01*
X701131Y433594D01*
X701103Y433425D01*
X701066Y433259D01*
X701061Y433183D01*
X701049Y433108D01*
X701048Y432937D01*
X701038Y432766D01*
X701046Y432690D01*
X701046Y432614D01*
X701072Y432445D01*
X701090Y432276D01*
X701110Y432202D01*
X701122Y432127D01*
X701176Y431965D01*
X701221Y431800D01*
X701253Y431731D01*
X701276Y431658D01*
X701355Y431507D01*
X701427Y431352D01*
X701469Y431288D01*
X701504Y431221D01*
X701570Y431138D01*
X701702Y430942D01*
X701864Y430770D01*
X701930Y430688D01*
X707873Y424744D01*
X707874Y424743D01*
X710875Y421743D01*
X712267Y418382D01*
X712267Y242218D01*
X710875Y238857D01*
X700539Y228522D01*
X700465Y228435D01*
X700384Y228355D01*
X700306Y228247D01*
X700220Y228146D01*
X700161Y228048D01*
X700094Y227956D01*
X700034Y227838D01*
X699965Y227724D01*
X699923Y227617D01*
X699871Y227516D01*
X699831Y227389D01*
X699782Y227265D01*
X699757Y227154D01*
X699723Y227045D01*
X699713Y226952D01*
X699675Y226784D01*
X699657Y226460D01*
X699647Y226367D01*
X699647Y225966D01*
X697554Y220913D01*
X694796Y218155D01*
X694746Y218097D01*
X694691Y218044D01*
X694587Y217909D01*
X694476Y217779D01*
X694437Y217714D01*
X694390Y217653D01*
X694310Y217503D01*
X694221Y217356D01*
X694193Y217285D01*
X694157Y217218D01*
X694102Y217057D01*
X694038Y216898D01*
X694022Y216824D01*
X693997Y216752D01*
X693969Y216583D01*
X693932Y216416D01*
X693927Y216340D01*
X693915Y216265D01*
X693914Y216094D01*
X693904Y215924D01*
X693912Y215848D01*
X693912Y215772D01*
X693938Y215603D01*
X693956Y215433D01*
X693976Y215360D01*
X693988Y215285D01*
X694042Y215122D01*
X694087Y214958D01*
X694119Y214888D01*
X694142Y214816D01*
X694221Y214665D01*
X694293Y214509D01*
X694335Y214446D01*
X694370Y214378D01*
X694436Y214296D01*
X694568Y214100D01*
X694730Y213928D01*
X694796Y213845D01*
X697554Y211087D01*
X699647Y206034D01*
X699647Y200566D01*
X697554Y195513D01*
X694796Y192755D01*
X694746Y192697D01*
X694691Y192644D01*
X694587Y192509D01*
X694476Y192379D01*
X694437Y192314D01*
X694390Y192253D01*
X694310Y192103D01*
X694221Y191956D01*
X694193Y191885D01*
X694157Y191818D01*
X694102Y191657D01*
X694038Y191498D01*
X694022Y191424D01*
X693997Y191352D01*
X693969Y191183D01*
X693932Y191016D01*
X693927Y190940D01*
X693915Y190865D01*
X693914Y190694D01*
X693904Y190524D01*
X693912Y190448D01*
X693912Y190372D01*
X693938Y190203D01*
X693956Y190033D01*
X693976Y189960D01*
X693988Y189885D01*
X694042Y189722D01*
X694087Y189558D01*
X694119Y189488D01*
X694142Y189416D01*
X694221Y189265D01*
X694293Y189109D01*
X694335Y189046D01*
X694370Y188978D01*
X694436Y188896D01*
X694568Y188700D01*
X694730Y188528D01*
X694796Y188445D01*
X697554Y185687D01*
X699647Y180634D01*
X699647Y178348D01*
X699656Y178234D01*
X699655Y178120D01*
X699676Y177989D01*
X699687Y177856D01*
X699714Y177746D01*
X699732Y177633D01*
X699773Y177507D01*
X699805Y177378D01*
X699850Y177273D01*
X699886Y177164D01*
X699948Y177046D01*
X700000Y176924D01*
X700061Y176828D01*
X700114Y176727D01*
X700173Y176653D01*
X700265Y176508D01*
X700481Y176266D01*
X700539Y176193D01*
X705651Y171081D01*
X705652Y171081D01*
X708653Y168080D01*
X710045Y164719D01*
X710045Y144081D01*
X708653Y140720D01*
X705652Y137719D01*
X705651Y137719D01*
X700536Y132603D01*
X700402Y132445D01*
X700384Y132428D01*
X700372Y132411D01*
X700249Y132272D01*
X700234Y132249D01*
X700216Y132227D01*
X700113Y132056D01*
X700094Y132029D01*
X700081Y132004D01*
X699987Y131854D01*
X699976Y131829D01*
X699962Y131805D01*
X699891Y131628D01*
X699871Y131589D01*
X699860Y131552D01*
X699796Y131400D01*
X699789Y131373D01*
X699779Y131347D01*
X699740Y131172D01*
X699723Y131118D01*
X699719Y131081D01*
X699680Y130920D01*
X699678Y130892D01*
X699672Y130865D01*
X699660Y130647D01*
X699643Y130428D01*
X699646Y130400D01*
X699644Y130373D01*
X699647Y130350D01*
X699647Y124366D01*
X697554Y119313D01*
X694796Y116555D01*
X694746Y116497D01*
X694691Y116444D01*
X694587Y116309D01*
X694476Y116179D01*
X694437Y116114D01*
X694390Y116053D01*
X694310Y115903D01*
X694221Y115756D01*
X694193Y115685D01*
X694157Y115618D01*
X694102Y115457D01*
X694038Y115298D01*
X694022Y115224D01*
X693997Y115152D01*
X693969Y114983D01*
X693932Y114816D01*
X693927Y114740D01*
X693915Y114665D01*
X693914Y114494D01*
X693904Y114324D01*
X693912Y114248D01*
X693912Y114172D01*
X693938Y114003D01*
X693956Y113833D01*
X693976Y113760D01*
X693988Y113685D01*
X694042Y113522D01*
X694087Y113358D01*
X694119Y113288D01*
X694142Y113216D01*
X694221Y113065D01*
X694293Y112909D01*
X694335Y112846D01*
X694370Y112778D01*
X694436Y112696D01*
X694568Y112500D01*
X694730Y112328D01*
X694796Y112245D01*
X697554Y109487D01*
X699647Y104434D01*
X699647Y98966D01*
X697554Y93913D01*
X694796Y91155D01*
X694746Y91097D01*
X694691Y91044D01*
X694587Y90909D01*
X694476Y90779D01*
X694437Y90714D01*
X694390Y90653D01*
X694310Y90503D01*
X694221Y90356D01*
X694193Y90285D01*
X694157Y90218D01*
X694102Y90057D01*
X694038Y89898D01*
X694022Y89824D01*
X693997Y89752D01*
X693969Y89583D01*
X693932Y89416D01*
X693927Y89340D01*
X693915Y89265D01*
X693914Y89094D01*
X693904Y88924D01*
X693912Y88848D01*
X693912Y88772D01*
X693938Y88603D01*
X693956Y88433D01*
X693976Y88360D01*
X693988Y88285D01*
X694042Y88122D01*
X694087Y87958D01*
X694119Y87888D01*
X694142Y87816D01*
X694221Y87665D01*
X694293Y87509D01*
X694335Y87446D01*
X694370Y87378D01*
X694436Y87296D01*
X694568Y87100D01*
X694730Y86928D01*
X694796Y86845D01*
X697554Y84087D01*
X699647Y79034D01*
X699647Y76792D01*
X699653Y76716D01*
X699651Y76640D01*
X699673Y76471D01*
X699687Y76300D01*
X699705Y76226D01*
X699715Y76151D01*
X699764Y75987D01*
X699805Y75821D01*
X699835Y75752D01*
X699857Y75678D01*
X699933Y75525D01*
X700000Y75368D01*
X700041Y75304D01*
X700074Y75235D01*
X700173Y75096D01*
X700265Y74952D01*
X700316Y74895D01*
X700360Y74833D01*
X700480Y74712D01*
X700594Y74584D01*
X700653Y74536D01*
X700707Y74482D01*
X700845Y74381D01*
X700978Y74274D01*
X701044Y74237D01*
X701105Y74192D01*
X701258Y74115D01*
X701406Y74030D01*
X701478Y74004D01*
X701546Y73969D01*
X701709Y73918D01*
X701869Y73859D01*
X701944Y73844D01*
X702016Y73821D01*
X702121Y73809D01*
X702353Y73764D01*
X702589Y73757D01*
X702694Y73745D01*
X958156Y73745D01*
X958374Y73762D01*
X958592Y73776D01*
X958619Y73782D01*
X958648Y73785D01*
X958860Y73837D01*
X959073Y73886D01*
X959099Y73897D01*
X959127Y73903D01*
X959327Y73989D01*
X959530Y74072D01*
X959554Y74087D01*
X959580Y74098D01*
X959764Y74215D01*
X959951Y74329D01*
X959972Y74348D01*
X959996Y74363D01*
X960159Y74508D01*
X960324Y74651D01*
X960343Y74673D01*
X960364Y74692D01*
X960501Y74862D01*
X960642Y75029D01*
X960653Y75049D01*
X960674Y75076D01*
X960918Y75504D01*
X960946Y75580D01*
X960971Y75626D01*
X961584Y77106D01*
X967794Y83316D01*
X976169Y86785D01*
X976203Y86802D01*
X976239Y86815D01*
X976423Y86915D01*
X976608Y87010D01*
X976639Y87032D01*
X976673Y87051D01*
X976837Y87178D01*
X977005Y87303D01*
X977032Y87330D01*
X977062Y87353D01*
X977204Y87506D01*
X977350Y87656D01*
X977372Y87687D01*
X977398Y87715D01*
X977513Y87889D01*
X977633Y88060D01*
X977649Y88094D01*
X977670Y88126D01*
X977756Y88316D01*
X977847Y88504D01*
X977858Y88541D01*
X977873Y88576D01*
X977927Y88777D01*
X977986Y88978D01*
X977991Y89016D01*
X978001Y89052D01*
X978022Y89260D01*
X978048Y89467D01*
X978046Y89505D01*
X978050Y89543D01*
X978037Y89752D01*
X978029Y89960D01*
X978022Y89998D01*
X978019Y90036D01*
X977973Y90239D01*
X977931Y90444D01*
X977918Y90479D01*
X977909Y90517D01*
X977831Y90710D01*
X977757Y90905D01*
X977738Y90938D01*
X977723Y90974D01*
X977614Y91152D01*
X977510Y91332D01*
X977486Y91362D01*
X977466Y91394D01*
X977330Y91553D01*
X977198Y91714D01*
X977169Y91739D01*
X977144Y91768D01*
X976984Y91902D01*
X976828Y92041D01*
X976795Y92061D01*
X976766Y92085D01*
X976685Y92130D01*
X976410Y92303D01*
X976251Y92370D01*
X976169Y92415D01*
X967795Y95884D01*
X961584Y102095D01*
X958223Y110209D01*
X958223Y118991D01*
X961584Y127105D01*
X967794Y133316D01*
X976169Y136785D01*
X976203Y136802D01*
X976239Y136815D01*
X976423Y136915D01*
X976608Y137010D01*
X976639Y137032D01*
X976673Y137051D01*
X976837Y137178D01*
X977005Y137303D01*
X977032Y137330D01*
X977062Y137353D01*
X977204Y137506D01*
X977350Y137656D01*
X977372Y137687D01*
X977398Y137715D01*
X977513Y137889D01*
X977633Y138060D01*
X977649Y138094D01*
X977670Y138126D01*
X977756Y138316D01*
X977847Y138504D01*
X977858Y138541D01*
X977873Y138576D01*
X977927Y138777D01*
X977986Y138978D01*
X977991Y139016D01*
X978001Y139052D01*
X978022Y139260D01*
X978048Y139467D01*
X978046Y139505D01*
X978050Y139543D01*
X978037Y139752D01*
X978029Y139960D01*
X978022Y139998D01*
X978019Y140036D01*
X977973Y140239D01*
X977931Y140444D01*
X977918Y140479D01*
X977909Y140517D01*
X977831Y140710D01*
X977757Y140905D01*
X977738Y140938D01*
X977723Y140974D01*
X977614Y141152D01*
X977510Y141332D01*
X977486Y141362D01*
X977466Y141394D01*
X977330Y141553D01*
X977198Y141714D01*
X977169Y141739D01*
X977144Y141768D01*
X976984Y141902D01*
X976828Y142041D01*
X976795Y142061D01*
X976766Y142085D01*
X976685Y142130D01*
X976410Y142303D01*
X976251Y142370D01*
X976169Y142415D01*
X967795Y145884D01*
X961584Y152095D01*
X958223Y160209D01*
X958223Y168991D01*
X961584Y177105D01*
X967795Y183316D01*
X975909Y186677D01*
X984691Y186677D01*
X992805Y183316D01*
X996505Y179616D01*
X996534Y179591D01*
X996560Y179563D01*
X996722Y179432D01*
X996881Y179296D01*
X996914Y179277D01*
X996944Y179253D01*
X997125Y179150D01*
X997304Y179042D01*
X997339Y179028D01*
X997372Y179009D01*
X997568Y178936D01*
X997762Y178859D01*
X997799Y178851D01*
X997835Y178837D01*
X998040Y178797D01*
X998244Y178752D01*
X998282Y178750D01*
X998319Y178743D01*
X998527Y178736D01*
X998736Y178724D01*
X998774Y178728D01*
X998812Y178727D01*
X999019Y178754D01*
X999227Y178777D01*
X999263Y178787D01*
X999301Y178792D01*
X999501Y178852D01*
X999702Y178907D01*
X999737Y178923D01*
X999774Y178934D01*
X999961Y179026D01*
X1000151Y179113D01*
X1000182Y179134D01*
X1000217Y179151D01*
X1000387Y179272D01*
X1000560Y179388D01*
X1000588Y179414D01*
X1000619Y179436D01*
X1000767Y179583D01*
X1000920Y179726D01*
X1000943Y179756D01*
X1000970Y179783D01*
X1001093Y179952D01*
X1001220Y180118D01*
X1001238Y180151D01*
X1001260Y180182D01*
X1001354Y180368D01*
X1001453Y180552D01*
X1001466Y180588D01*
X1001483Y180622D01*
X1001545Y180821D01*
X1001613Y181019D01*
X1001619Y181057D01*
X1001631Y181093D01*
X1001641Y181185D01*
X1001696Y181505D01*
X1001697Y181677D01*
X1001707Y181771D01*
X1001707Y203265D01*
X1001692Y203454D01*
X1001684Y203644D01*
X1001672Y203700D01*
X1001667Y203756D01*
X1001622Y203941D01*
X1001583Y204127D01*
X1001562Y204180D01*
X1001549Y204235D01*
X1001474Y204409D01*
X1001405Y204587D01*
X1001377Y204636D01*
X1001354Y204688D01*
X1001252Y204849D01*
X1001156Y205013D01*
X1001120Y205056D01*
X1001089Y205105D01*
X1000962Y205246D01*
X1000841Y205392D01*
X1000798Y205430D01*
X1000760Y205472D01*
X1000613Y205592D01*
X1000469Y205717D01*
X1000421Y205747D01*
X1000376Y205782D01*
X1000212Y205876D01*
X1000050Y205976D01*
X999997Y205998D01*
X999948Y206026D01*
X999769Y206092D01*
X999594Y206165D01*
X999539Y206178D01*
X999485Y206198D01*
X999299Y206234D01*
X999114Y206278D01*
X999057Y206282D01*
X999001Y206293D01*
X998811Y206299D01*
X998622Y206312D01*
X998565Y206306D01*
X998508Y206308D01*
X998320Y206283D01*
X998131Y206265D01*
X998075Y206251D01*
X998019Y206244D01*
X997837Y206189D01*
X997653Y206141D01*
X997601Y206118D01*
X997547Y206101D01*
X997376Y206018D01*
X997202Y205941D01*
X997155Y205909D01*
X997103Y205884D01*
X996949Y205774D01*
X996790Y205670D01*
X996748Y205632D01*
X996701Y205599D01*
X996566Y205465D01*
X996426Y205337D01*
X996399Y205300D01*
X996350Y205252D01*
X996060Y204853D01*
X996039Y204813D01*
X996021Y204788D01*
X995732Y204288D01*
X994254Y202362D01*
X992538Y200646D01*
X990612Y199168D01*
X988509Y197954D01*
X986266Y197025D01*
X985749Y196886D01*
X985749Y212198D01*
X985743Y212274D01*
X985745Y212350D01*
X985723Y212519D01*
X985709Y212690D01*
X985691Y212763D01*
X985681Y212839D01*
X985632Y213003D01*
X985591Y213168D01*
X985561Y213238D01*
X985539Y213311D01*
X985463Y213465D01*
X985396Y213622D01*
X985355Y213686D01*
X985322Y213754D01*
X985223Y213894D01*
X985131Y214038D01*
X985080Y214095D01*
X985036Y214157D01*
X984916Y214278D01*
X984802Y214406D01*
X984743Y214454D01*
X984689Y214508D01*
X984568Y214596D01*
X984599Y214624D01*
X984661Y214668D01*
X984782Y214788D01*
X984910Y214902D01*
X984958Y214961D01*
X985012Y215015D01*
X985113Y215153D01*
X985220Y215286D01*
X985257Y215352D01*
X985302Y215414D01*
X985379Y215566D01*
X985464Y215715D01*
X985490Y215786D01*
X985525Y215854D01*
X985576Y216017D01*
X985635Y216177D01*
X985650Y216252D01*
X985673Y216324D01*
X985685Y216429D01*
X985730Y216661D01*
X985737Y216897D01*
X985749Y217002D01*
X985749Y234021D01*
X985740Y234135D01*
X985741Y234249D01*
X985720Y234380D01*
X985709Y234513D01*
X985682Y234623D01*
X985664Y234736D01*
X985623Y234862D01*
X985591Y234991D01*
X985546Y235096D01*
X985510Y235205D01*
X985448Y235323D01*
X985396Y235445D01*
X985335Y235541D01*
X985282Y235642D01*
X985223Y235716D01*
X985131Y235861D01*
X984915Y236103D01*
X984857Y236176D01*
X975314Y245719D01*
X975306Y245725D01*
X975300Y245732D01*
X975119Y245884D01*
X974938Y246038D01*
X974929Y246043D01*
X974922Y246049D01*
X974887Y246069D01*
X974515Y246293D01*
X974394Y246341D01*
X974325Y246379D01*
X967794Y249084D01*
X961584Y255295D01*
X958223Y263409D01*
X958223Y272191D01*
X961584Y280305D01*
X967794Y286516D01*
X976169Y289985D01*
X976203Y290002D01*
X976239Y290015D01*
X976423Y290115D01*
X976608Y290210D01*
X976639Y290232D01*
X976673Y290251D01*
X976837Y290378D01*
X977005Y290503D01*
X977032Y290530D01*
X977062Y290553D01*
X977204Y290706D01*
X977350Y290856D01*
X977372Y290887D01*
X977398Y290915D01*
X977513Y291089D01*
X977633Y291260D01*
X977649Y291294D01*
X977670Y291326D01*
X977756Y291516D01*
X977847Y291704D01*
X977858Y291741D01*
X977873Y291776D01*
X977927Y291977D01*
X977986Y292178D01*
X977991Y292216D01*
X978001Y292252D01*
X978022Y292460D01*
X978048Y292667D01*
X978046Y292705D01*
X978050Y292743D01*
X978037Y292952D01*
X978029Y293160D01*
X978022Y293198D01*
X978019Y293236D01*
X977973Y293439D01*
X977931Y293644D01*
X977918Y293679D01*
X977909Y293717D01*
X977831Y293910D01*
X977757Y294105D01*
X977738Y294138D01*
X977723Y294174D01*
X977614Y294352D01*
X977510Y294532D01*
X977486Y294562D01*
X977466Y294594D01*
X977330Y294753D01*
X977198Y294914D01*
X977169Y294939D01*
X977144Y294968D01*
X976984Y295102D01*
X976828Y295241D01*
X976795Y295261D01*
X976766Y295285D01*
X976685Y295330D01*
X976410Y295503D01*
X976251Y295570D01*
X976169Y295615D01*
X967795Y299084D01*
X961584Y305295D01*
X958223Y313409D01*
X958223Y322191D01*
X961584Y330305D01*
X967794Y336516D01*
X976169Y339985D01*
X976203Y340002D01*
X976239Y340015D01*
X976423Y340115D01*
X976608Y340210D01*
X976639Y340232D01*
X976673Y340251D01*
X976837Y340378D01*
X977005Y340503D01*
X977032Y340530D01*
X977062Y340553D01*
X977204Y340706D01*
X977350Y340856D01*
X977372Y340887D01*
X977398Y340915D01*
X977513Y341089D01*
X977633Y341260D01*
X977649Y341294D01*
X977670Y341326D01*
X977756Y341516D01*
X977847Y341704D01*
X977858Y341741D01*
X977873Y341776D01*
X977927Y341977D01*
X977986Y342178D01*
X977991Y342216D01*
X978001Y342252D01*
X978022Y342460D01*
X978048Y342667D01*
X978046Y342705D01*
X978050Y342743D01*
X978037Y342952D01*
X978029Y343160D01*
X978022Y343198D01*
X978019Y343236D01*
X977973Y343439D01*
X977931Y343644D01*
X977918Y343679D01*
X977909Y343717D01*
X977831Y343910D01*
X977757Y344105D01*
X977738Y344138D01*
X977723Y344174D01*
X977614Y344352D01*
X977510Y344532D01*
X977486Y344562D01*
X977466Y344594D01*
X977330Y344753D01*
X977198Y344914D01*
X977169Y344939D01*
X977144Y344968D01*
X976984Y345102D01*
X976828Y345241D01*
X976795Y345261D01*
X976766Y345285D01*
X976685Y345330D01*
X976410Y345503D01*
X976251Y345570D01*
X976169Y345615D01*
X967795Y349084D01*
X961584Y355295D01*
X958223Y363409D01*
X958223Y372191D01*
X961584Y380305D01*
X967795Y386516D01*
X975909Y389877D01*
X984691Y389877D01*
X992805Y386516D01*
X999016Y380305D01*
X1002377Y372191D01*
X1002377Y363409D01*
X999016Y355295D01*
X992805Y349084D01*
X984431Y345615D01*
X984397Y345598D01*
X984361Y345585D01*
X984177Y345485D01*
X983992Y345390D01*
X983961Y345368D01*
X983927Y345349D01*
X983762Y345221D01*
X983595Y345097D01*
X983568Y345070D01*
X983538Y345047D01*
X983396Y344893D01*
X983250Y344744D01*
X983228Y344713D01*
X983202Y344685D01*
X983087Y344511D01*
X982967Y344340D01*
X982951Y344306D01*
X982930Y344274D01*
X982844Y344084D01*
X982753Y343895D01*
X982742Y343859D01*
X982727Y343824D01*
X982673Y343623D01*
X982614Y343422D01*
X982609Y343384D01*
X982599Y343348D01*
X982578Y343140D01*
X982552Y342933D01*
X982554Y342895D01*
X982550Y342857D01*
X982563Y342648D01*
X982571Y342440D01*
X982578Y342402D01*
X982581Y342364D01*
X982627Y342161D01*
X982669Y341956D01*
X982682Y341921D01*
X982691Y341883D01*
X982769Y341690D01*
X982843Y341495D01*
X982862Y341462D01*
X982877Y341426D01*
X982985Y341248D01*
X983090Y341068D01*
X983114Y341038D01*
X983134Y341006D01*
X983271Y340847D01*
X983402Y340686D01*
X983431Y340661D01*
X983456Y340632D01*
X983616Y340497D01*
X983772Y340359D01*
X983804Y340339D01*
X983834Y340315D01*
X983915Y340269D01*
X984190Y340097D01*
X984348Y340030D01*
X984431Y339985D01*
X992806Y336516D01*
X999016Y330305D01*
X1002377Y322191D01*
X1002377Y313409D01*
X999016Y305295D01*
X992805Y299084D01*
X984431Y295615D01*
X984397Y295598D01*
X984361Y295585D01*
X984177Y295485D01*
X983992Y295390D01*
X983961Y295368D01*
X983927Y295349D01*
X983762Y295221D01*
X983595Y295097D01*
X983568Y295070D01*
X983538Y295047D01*
X983396Y294893D01*
X983250Y294744D01*
X983228Y294713D01*
X983202Y294685D01*
X983087Y294511D01*
X982967Y294340D01*
X982951Y294306D01*
X982930Y294274D01*
X982844Y294084D01*
X982753Y293895D01*
X982742Y293859D01*
X982727Y293824D01*
X982673Y293623D01*
X982614Y293422D01*
X982609Y293384D01*
X982599Y293348D01*
X982578Y293140D01*
X982552Y292933D01*
X982554Y292895D01*
X982550Y292857D01*
X982563Y292648D01*
X982571Y292440D01*
X982578Y292402D01*
X982581Y292364D01*
X982627Y292161D01*
X982669Y291956D01*
X982682Y291921D01*
X982691Y291883D01*
X982769Y291690D01*
X982843Y291495D01*
X982862Y291462D01*
X982877Y291426D01*
X982985Y291248D01*
X983090Y291068D01*
X983114Y291038D01*
X983134Y291006D01*
X983271Y290847D01*
X983402Y290686D01*
X983431Y290661D01*
X983456Y290632D01*
X983616Y290497D01*
X983772Y290359D01*
X983804Y290339D01*
X983834Y290315D01*
X983915Y290269D01*
X984190Y290097D01*
X984348Y290030D01*
X984431Y289985D01*
X992805Y286516D01*
X994632Y284689D01*
X994719Y284615D01*
X994799Y284534D01*
X994906Y284456D01*
X995008Y284370D01*
X995106Y284311D01*
X995198Y284244D01*
X995317Y284184D01*
X995430Y284115D01*
X995536Y284073D01*
X995638Y284021D01*
X995765Y283981D01*
X995889Y283932D01*
X996000Y283907D01*
X996109Y283873D01*
X996202Y283863D01*
X996370Y283825D01*
X996694Y283807D01*
X996787Y283797D01*
X1052099Y283797D01*
X1059008Y280935D01*
X1064724Y275219D01*
X1123626Y216317D01*
X1123655Y216292D01*
X1123681Y216264D01*
X1123843Y216133D01*
X1124002Y215997D01*
X1124035Y215978D01*
X1124065Y215954D01*
X1124245Y215851D01*
X1124425Y215743D01*
X1124460Y215729D01*
X1124493Y215710D01*
X1124689Y215637D01*
X1124883Y215560D01*
X1124920Y215551D01*
X1124956Y215538D01*
X1125161Y215498D01*
X1125365Y215453D01*
X1125403Y215451D01*
X1125440Y215443D01*
X1125648Y215437D01*
X1125857Y215425D01*
X1125895Y215429D01*
X1125933Y215428D01*
X1126140Y215455D01*
X1126348Y215477D01*
X1126384Y215488D01*
X1126422Y215493D01*
X1126622Y215553D01*
X1126823Y215608D01*
X1126858Y215624D01*
X1126895Y215635D01*
X1127082Y215727D01*
X1127272Y215814D01*
X1127304Y215835D01*
X1127338Y215852D01*
X1127508Y215973D01*
X1127681Y216089D01*
X1127709Y216115D01*
X1127740Y216137D01*
X1127889Y216284D01*
X1128041Y216427D01*
X1128064Y216457D01*
X1128091Y216484D01*
X1128214Y216653D01*
X1128341Y216818D01*
X1128359Y216852D01*
X1128381Y216883D01*
X1128475Y217069D01*
X1128574Y217253D01*
X1128586Y217289D01*
X1128604Y217323D01*
X1128666Y217522D01*
X1128734Y217720D01*
X1128740Y217757D01*
X1128752Y217794D01*
X1128762Y217886D01*
X1128817Y218206D01*
X1128818Y218378D01*
X1128828Y218472D01*
X1128828Y222903D01*
X1131777Y230023D01*
X1137227Y235473D01*
X1144438Y238460D01*
X1144472Y238477D01*
X1144508Y238490D01*
X1144692Y238590D01*
X1144877Y238685D01*
X1144908Y238707D01*
X1144942Y238726D01*
X1145106Y238854D01*
X1145274Y238978D01*
X1145301Y239005D01*
X1145331Y239028D01*
X1145473Y239182D01*
X1145619Y239331D01*
X1145641Y239362D01*
X1145667Y239390D01*
X1145782Y239564D01*
X1145902Y239735D01*
X1145918Y239769D01*
X1145939Y239801D01*
X1146025Y239991D01*
X1146116Y240179D01*
X1146127Y240216D01*
X1146142Y240251D01*
X1146196Y240452D01*
X1146255Y240653D01*
X1146260Y240691D01*
X1146270Y240727D01*
X1146291Y240935D01*
X1146317Y241142D01*
X1146315Y241180D01*
X1146319Y241218D01*
X1146306Y241427D01*
X1146298Y241635D01*
X1146291Y241673D01*
X1146288Y241711D01*
X1146242Y241914D01*
X1146200Y242119D01*
X1146187Y242154D01*
X1146178Y242192D01*
X1146100Y242385D01*
X1146026Y242580D01*
X1146007Y242613D01*
X1145992Y242648D01*
X1145883Y242827D01*
X1145779Y243007D01*
X1145755Y243037D01*
X1145735Y243069D01*
X1145599Y243228D01*
X1145467Y243389D01*
X1145438Y243414D01*
X1145413Y243443D01*
X1145253Y243577D01*
X1145097Y243716D01*
X1145065Y243736D01*
X1145035Y243760D01*
X1144954Y243805D01*
X1144679Y243978D01*
X1144521Y244045D01*
X1144438Y244090D01*
X1137227Y247077D01*
X1131777Y252527D01*
X1128828Y259647D01*
X1128828Y267353D01*
X1131777Y274473D01*
X1137227Y279923D01*
X1144438Y282910D01*
X1144472Y282927D01*
X1144508Y282940D01*
X1144692Y283040D01*
X1144877Y283135D01*
X1144908Y283157D01*
X1144942Y283176D01*
X1145106Y283304D01*
X1145274Y283428D01*
X1145301Y283455D01*
X1145331Y283478D01*
X1145473Y283632D01*
X1145619Y283781D01*
X1145641Y283812D01*
X1145667Y283840D01*
X1145782Y284014D01*
X1145902Y284185D01*
X1145918Y284219D01*
X1145939Y284251D01*
X1146025Y284441D01*
X1146116Y284629D01*
X1146127Y284666D01*
X1146142Y284701D01*
X1146196Y284902D01*
X1146255Y285103D01*
X1146260Y285141D01*
X1146270Y285177D01*
X1146291Y285385D01*
X1146317Y285592D01*
X1146315Y285630D01*
X1146319Y285668D01*
X1146306Y285877D01*
X1146298Y286085D01*
X1146291Y286123D01*
X1146288Y286161D01*
X1146242Y286364D01*
X1146200Y286569D01*
X1146187Y286604D01*
X1146178Y286642D01*
X1146100Y286835D01*
X1146026Y287030D01*
X1146007Y287063D01*
X1145992Y287098D01*
X1145883Y287277D01*
X1145779Y287457D01*
X1145755Y287487D01*
X1145735Y287519D01*
X1145599Y287678D01*
X1145467Y287839D01*
X1145438Y287864D01*
X1145413Y287893D01*
X1145253Y288027D01*
X1145097Y288166D01*
X1145065Y288186D01*
X1145035Y288210D01*
X1144954Y288255D01*
X1144679Y288428D01*
X1144521Y288495D01*
X1144438Y288540D01*
X1137227Y291527D01*
X1131777Y296977D01*
X1128828Y304097D01*
X1128828Y311803D01*
X1131777Y318923D01*
X1137227Y324373D01*
X1144499Y327385D01*
X1144533Y327402D01*
X1144569Y327415D01*
X1144752Y327515D01*
X1144938Y327610D01*
X1144968Y327632D01*
X1145002Y327651D01*
X1145166Y327778D01*
X1145335Y327903D01*
X1145361Y327930D01*
X1145391Y327953D01*
X1145533Y328106D01*
X1145679Y328256D01*
X1145701Y328287D01*
X1145727Y328315D01*
X1145842Y328489D01*
X1145962Y328660D01*
X1145979Y328694D01*
X1146000Y328726D01*
X1146085Y328916D01*
X1146176Y329104D01*
X1146187Y329141D01*
X1146203Y329176D01*
X1146256Y329377D01*
X1146316Y329578D01*
X1146320Y329616D01*
X1146330Y329652D01*
X1146351Y329860D01*
X1146377Y330067D01*
X1146376Y330105D01*
X1146379Y330143D01*
X1146366Y330352D01*
X1146359Y330560D01*
X1146351Y330598D01*
X1146349Y330636D01*
X1146302Y330839D01*
X1146261Y331044D01*
X1146247Y331079D01*
X1146239Y331117D01*
X1146160Y331310D01*
X1146086Y331505D01*
X1146067Y331538D01*
X1146053Y331574D01*
X1145944Y331752D01*
X1145840Y331932D01*
X1145815Y331962D01*
X1145796Y331994D01*
X1145659Y332152D01*
X1145527Y332314D01*
X1145499Y332339D01*
X1145474Y332368D01*
X1145314Y332502D01*
X1145157Y332641D01*
X1145125Y332661D01*
X1145096Y332685D01*
X1145015Y332730D01*
X1144740Y332903D01*
X1144581Y332970D01*
X1144499Y333015D01*
X1137227Y336027D01*
X1131777Y341477D01*
X1128828Y348597D01*
X1128828Y356303D01*
X1131777Y363423D01*
X1137227Y368873D01*
X1144438Y371860D01*
X1144472Y371877D01*
X1144508Y371890D01*
X1144692Y371990D01*
X1144877Y372085D01*
X1144908Y372107D01*
X1144942Y372126D01*
X1145106Y372254D01*
X1145274Y372378D01*
X1145301Y372405D01*
X1145331Y372428D01*
X1145473Y372582D01*
X1145619Y372731D01*
X1145641Y372762D01*
X1145667Y372790D01*
X1145782Y372964D01*
X1145902Y373135D01*
X1145918Y373169D01*
X1145939Y373201D01*
X1146025Y373391D01*
X1146116Y373579D01*
X1146127Y373616D01*
X1146142Y373651D01*
X1146196Y373852D01*
X1146255Y374053D01*
X1146260Y374091D01*
X1146270Y374127D01*
X1146291Y374335D01*
X1146317Y374542D01*
X1146315Y374580D01*
X1146319Y374618D01*
X1146306Y374826D01*
X1146298Y375035D01*
X1146291Y375073D01*
X1146288Y375111D01*
X1146242Y375314D01*
X1146200Y375519D01*
X1146187Y375554D01*
X1146178Y375592D01*
X1146100Y375785D01*
X1146026Y375980D01*
X1146007Y376013D01*
X1145992Y376048D01*
X1145884Y376226D01*
X1145779Y376407D01*
X1145755Y376437D01*
X1145735Y376469D01*
X1145599Y376628D01*
X1145467Y376789D01*
X1145438Y376814D01*
X1145413Y376843D01*
X1145253Y376977D01*
X1145097Y377116D01*
X1145065Y377136D01*
X1145035Y377160D01*
X1144954Y377205D01*
X1144679Y377378D01*
X1144521Y377445D01*
X1144438Y377490D01*
X1137227Y380477D01*
X1131777Y385927D01*
X1128828Y393047D01*
X1128828Y400753D01*
X1131777Y407873D01*
X1137227Y413323D01*
X1144347Y416272D01*
X1152053Y416272D01*
X1159173Y413323D01*
X1164623Y407873D01*
X1167188Y401679D01*
X1167270Y401519D01*
X1167346Y401355D01*
X1167383Y401300D01*
X1167413Y401240D01*
X1167520Y401095D01*
X1167621Y400945D01*
X1167667Y400897D01*
X1167706Y400843D01*
X1167835Y400717D01*
X1167959Y400586D01*
X1168012Y400545D01*
X1168059Y400499D01*
X1168207Y400396D01*
X1168350Y400286D01*
X1168409Y400254D01*
X1168463Y400216D01*
X1168626Y400138D01*
X1168785Y400052D01*
X1168848Y400031D01*
X1168908Y400002D01*
X1169081Y399951D01*
X1169252Y399892D01*
X1169317Y399881D01*
X1169381Y399862D01*
X1169560Y399840D01*
X1169738Y399810D01*
X1169805Y399809D01*
X1169871Y399801D01*
X1170050Y399808D01*
X1170231Y399807D01*
X1170297Y399817D01*
X1170364Y399820D01*
X1170540Y399855D01*
X1170719Y399883D01*
X1170782Y399904D01*
X1170847Y399917D01*
X1171016Y399981D01*
X1171187Y400038D01*
X1171246Y400068D01*
X1171309Y400092D01*
X1171465Y400182D01*
X1171625Y400265D01*
X1171666Y400298D01*
X1171736Y400339D01*
X1172118Y400651D01*
X1172140Y400676D01*
X1172158Y400691D01*
X1175480Y404013D01*
X1217488Y446020D01*
X1217537Y446078D01*
X1217593Y446131D01*
X1217697Y446266D01*
X1217807Y446396D01*
X1217847Y446462D01*
X1217893Y446522D01*
X1217973Y446672D01*
X1218062Y446819D01*
X1218090Y446890D01*
X1218126Y446957D01*
X1218182Y447118D01*
X1218245Y447277D01*
X1218261Y447351D01*
X1218286Y447423D01*
X1218315Y447592D01*
X1218352Y447759D01*
X1218356Y447835D01*
X1218369Y447910D01*
X1218370Y448081D01*
X1218379Y448251D01*
X1218371Y448327D01*
X1218372Y448403D01*
X1218345Y448572D01*
X1218327Y448742D01*
X1218307Y448815D01*
X1218295Y448890D01*
X1218242Y449053D01*
X1218196Y449217D01*
X1218165Y449287D01*
X1218141Y449359D01*
X1218062Y449510D01*
X1217991Y449666D01*
X1217948Y449729D01*
X1217913Y449797D01*
X1217847Y449879D01*
X1217715Y450075D01*
X1217553Y450247D01*
X1217488Y450330D01*
X1106355Y561463D01*
X1106268Y561537D01*
X1106187Y561618D01*
X1106080Y561696D01*
X1105979Y561782D01*
X1105881Y561841D01*
X1105789Y561908D01*
X1105670Y561968D01*
X1105556Y562037D01*
X1105450Y562079D01*
X1105348Y562131D01*
X1105221Y562171D01*
X1105098Y562220D01*
X1104987Y562245D01*
X1104878Y562279D01*
X1104784Y562289D01*
X1104616Y562327D01*
X1104292Y562345D01*
X1104200Y562355D01*
X1002116Y562355D01*
X1002002Y562346D01*
X1001888Y562347D01*
X1001756Y562326D01*
X1001624Y562315D01*
X1001513Y562288D01*
X1001401Y562270D01*
X1001274Y562229D01*
X1001145Y562197D01*
X1001040Y562152D01*
X1000932Y562116D01*
X1000814Y562054D01*
X1000692Y562002D01*
X1000596Y561941D01*
X1000494Y561888D01*
X1000421Y561829D01*
X1000276Y561737D01*
X1000034Y561521D01*
X999961Y561463D01*
X998370Y559872D01*
X997386Y559464D01*
X997232Y559385D01*
X997074Y559314D01*
X997013Y559273D01*
X996947Y559239D01*
X996807Y559136D01*
X996664Y559040D01*
X996609Y558990D01*
X996550Y558946D01*
X996429Y558822D01*
X996303Y558704D01*
X996257Y558646D01*
X996205Y558593D01*
X996106Y558451D01*
X996000Y558314D01*
X995965Y558249D01*
X995922Y558189D01*
X995847Y558033D01*
X995765Y557881D01*
X995741Y557811D01*
X995708Y557744D01*
X995659Y557578D01*
X995603Y557415D01*
X995590Y557342D01*
X995569Y557271D01*
X995547Y557099D01*
X995518Y556929D01*
X995517Y556855D01*
X995508Y556781D01*
X995514Y556609D01*
X995512Y556436D01*
X995523Y556362D01*
X995526Y556288D01*
X995560Y556119D01*
X995586Y555948D01*
X995609Y555878D01*
X995624Y555805D01*
X995685Y555643D01*
X995738Y555479D01*
X995772Y555413D01*
X995798Y555343D01*
X995885Y555194D01*
X995964Y555040D01*
X996008Y554980D01*
X996045Y554916D01*
X996155Y554782D01*
X996224Y554689D01*
X996229Y554682D01*
X996230Y554681D01*
X996257Y554643D01*
X996300Y554604D01*
X996357Y554534D01*
X996489Y554418D01*
X996576Y554331D01*
X996649Y554277D01*
X996727Y554208D01*
X996748Y554195D01*
X996761Y554183D01*
X997219Y553850D01*
X998350Y552719D01*
X999290Y551425D01*
X1000016Y550000D01*
X1000293Y549147D01*
X990600Y549147D01*
X980907Y549147D01*
X981184Y550000D01*
X981910Y551425D01*
X982850Y552719D01*
X983981Y553850D01*
X984439Y554183D01*
X984458Y554199D01*
X984477Y554211D01*
X984578Y554302D01*
X984707Y554402D01*
X984757Y554456D01*
X984814Y554505D01*
X984839Y554535D01*
X984845Y554540D01*
X984877Y554580D01*
X984925Y554637D01*
X985042Y554764D01*
X985084Y554826D01*
X985131Y554882D01*
X985219Y555030D01*
X985315Y555175D01*
X985346Y555242D01*
X985384Y555306D01*
X985447Y555467D01*
X985518Y555624D01*
X985537Y555696D01*
X985564Y555765D01*
X985601Y555934D01*
X985646Y556101D01*
X985653Y556175D01*
X985669Y556247D01*
X985678Y556419D01*
X985695Y556592D01*
X985690Y556666D01*
X985694Y556740D01*
X985675Y556912D01*
X985664Y557084D01*
X985648Y557156D01*
X985639Y557230D01*
X985593Y557397D01*
X985554Y557565D01*
X985526Y557634D01*
X985506Y557705D01*
X985433Y557862D01*
X985368Y558022D01*
X985330Y558085D01*
X985298Y558153D01*
X985201Y558296D01*
X985111Y558443D01*
X985063Y558499D01*
X985021Y558561D01*
X984902Y558686D01*
X984789Y558817D01*
X984732Y558865D01*
X984681Y558918D01*
X984544Y559023D01*
X984411Y559134D01*
X984360Y559162D01*
X984288Y559217D01*
X983852Y559448D01*
X983829Y559455D01*
X983814Y559464D01*
X982830Y559872D01*
X978972Y563730D01*
X976883Y568772D01*
X976883Y574228D01*
X978972Y579270D01*
X982830Y583128D01*
X987872Y585217D01*
X993328Y585217D01*
X998370Y583128D01*
X999961Y581537D01*
X1000048Y581463D01*
X1000128Y581382D01*
X1000236Y581304D01*
X1000337Y581218D01*
X1000435Y581159D01*
X1000527Y581092D01*
X1000646Y581032D01*
X1000760Y580963D01*
X1000866Y580921D01*
X1000968Y580869D01*
X1001094Y580829D01*
X1001218Y580780D01*
X1001329Y580755D01*
X1001438Y580721D01*
X1001532Y580711D01*
X1001699Y580673D01*
X1002024Y580655D01*
X1002116Y580645D01*
X1111069Y580645D01*
X1114430Y579253D01*
X1232068Y461614D01*
X1232155Y461540D01*
X1232236Y461459D01*
X1232343Y461381D01*
X1232444Y461295D01*
X1232542Y461236D01*
X1232634Y461169D01*
X1232753Y461109D01*
X1232867Y461040D01*
X1232973Y460998D01*
X1233075Y460946D01*
X1233202Y460906D01*
X1233325Y460857D01*
X1233436Y460832D01*
X1233545Y460798D01*
X1233639Y460788D01*
X1233807Y460750D01*
X1234131Y460732D01*
X1234223Y460722D01*
X1253888Y460722D01*
X1256129Y459794D01*
X1257844Y458079D01*
X1258772Y455838D01*
X1258772Y426862D01*
X1257844Y424621D01*
X1256129Y422906D01*
X1253888Y421978D01*
X1247873Y421978D01*
X1247759Y421969D01*
X1247645Y421970D01*
X1247514Y421949D01*
X1247381Y421938D01*
X1247271Y421911D01*
X1247158Y421893D01*
X1247032Y421852D01*
X1246903Y421820D01*
X1246798Y421775D01*
X1246689Y421739D01*
X1246571Y421677D01*
X1246449Y421625D01*
X1246353Y421564D01*
X1246252Y421511D01*
X1246178Y421452D01*
X1246033Y421360D01*
X1245791Y421144D01*
X1245718Y421086D01*
X1244817Y420185D01*
X1244700Y420047D01*
X1244577Y419915D01*
X1244541Y419859D01*
X1244498Y419809D01*
X1244405Y419654D01*
X1244305Y419504D01*
X1244277Y419443D01*
X1244243Y419386D01*
X1244176Y419219D01*
X1244102Y419054D01*
X1244085Y418990D01*
X1244060Y418928D01*
X1244021Y418752D01*
X1243974Y418577D01*
X1243968Y418511D01*
X1243953Y418446D01*
X1243943Y418266D01*
X1243925Y418087D01*
X1243929Y418020D01*
X1243926Y417954D01*
X1243945Y417774D01*
X1243956Y417594D01*
X1243971Y417530D01*
X1243978Y417463D01*
X1244026Y417289D01*
X1244066Y417113D01*
X1244091Y417052D01*
X1244108Y416987D01*
X1244184Y416824D01*
X1244252Y416656D01*
X1244286Y416599D01*
X1244314Y416539D01*
X1244415Y416389D01*
X1244509Y416235D01*
X1244552Y416185D01*
X1244589Y416130D01*
X1244713Y415998D01*
X1244831Y415861D01*
X1244882Y415819D01*
X1244927Y415770D01*
X1245070Y415660D01*
X1245209Y415544D01*
X1245255Y415519D01*
X1245319Y415470D01*
X1245753Y415237D01*
X1245785Y415226D01*
X1245806Y415214D01*
X1250373Y413323D01*
X1255823Y407873D01*
X1258772Y400753D01*
X1258772Y393047D01*
X1255823Y385927D01*
X1250373Y380477D01*
X1243162Y377490D01*
X1243128Y377473D01*
X1243092Y377460D01*
X1242908Y377360D01*
X1242723Y377265D01*
X1242692Y377243D01*
X1242658Y377224D01*
X1242494Y377096D01*
X1242326Y376972D01*
X1242299Y376945D01*
X1242269Y376922D01*
X1242127Y376768D01*
X1241981Y376619D01*
X1241959Y376588D01*
X1241933Y376560D01*
X1241818Y376386D01*
X1241698Y376215D01*
X1241682Y376181D01*
X1241661Y376149D01*
X1241575Y375959D01*
X1241484Y375771D01*
X1241473Y375734D01*
X1241458Y375699D01*
X1241404Y375498D01*
X1241345Y375297D01*
X1241340Y375259D01*
X1241330Y375223D01*
X1241309Y375015D01*
X1241283Y374808D01*
X1241285Y374770D01*
X1241281Y374732D01*
X1241294Y374523D01*
X1241302Y374315D01*
X1241309Y374277D01*
X1241312Y374239D01*
X1241358Y374036D01*
X1241400Y373831D01*
X1241413Y373796D01*
X1241422Y373758D01*
X1241500Y373565D01*
X1241574Y373370D01*
X1241593Y373337D01*
X1241608Y373302D01*
X1241717Y373123D01*
X1241821Y372943D01*
X1241845Y372913D01*
X1241865Y372881D01*
X1242001Y372722D01*
X1242133Y372561D01*
X1242162Y372536D01*
X1242187Y372507D01*
X1242347Y372372D01*
X1242503Y372234D01*
X1242535Y372214D01*
X1242565Y372190D01*
X1242646Y372145D01*
X1242921Y371972D01*
X1243079Y371905D01*
X1243162Y371860D01*
X1250373Y368873D01*
X1255823Y363423D01*
X1258772Y356303D01*
X1258772Y348597D01*
X1255823Y341477D01*
X1250373Y336027D01*
X1243101Y333015D01*
X1243067Y332998D01*
X1243031Y332985D01*
X1242848Y332885D01*
X1242662Y332790D01*
X1242632Y332768D01*
X1242598Y332749D01*
X1242433Y332621D01*
X1242265Y332497D01*
X1242239Y332470D01*
X1242209Y332447D01*
X1242067Y332293D01*
X1241921Y332144D01*
X1241899Y332113D01*
X1241873Y332085D01*
X1241758Y331911D01*
X1241638Y331740D01*
X1241621Y331706D01*
X1241600Y331674D01*
X1241514Y331484D01*
X1241424Y331295D01*
X1241413Y331259D01*
X1241397Y331224D01*
X1241343Y331023D01*
X1241284Y330822D01*
X1241280Y330784D01*
X1241270Y330748D01*
X1241249Y330540D01*
X1241223Y330333D01*
X1241224Y330295D01*
X1241221Y330257D01*
X1241234Y330048D01*
X1241241Y329840D01*
X1241249Y329802D01*
X1241251Y329764D01*
X1241298Y329561D01*
X1241339Y329356D01*
X1241353Y329321D01*
X1241361Y329283D01*
X1241440Y329090D01*
X1241514Y328895D01*
X1241533Y328862D01*
X1241547Y328826D01*
X1241656Y328648D01*
X1241760Y328468D01*
X1241785Y328438D01*
X1241805Y328406D01*
X1241941Y328247D01*
X1242073Y328086D01*
X1242101Y328061D01*
X1242126Y328032D01*
X1242286Y327897D01*
X1242443Y327759D01*
X1242475Y327739D01*
X1242504Y327715D01*
X1242586Y327669D01*
X1242861Y327497D01*
X1243019Y327430D01*
X1243101Y327385D01*
X1250373Y324373D01*
X1255823Y318923D01*
X1258772Y311803D01*
X1258772Y304097D01*
X1255823Y296977D01*
X1250373Y291527D01*
X1243162Y288540D01*
X1243128Y288523D01*
X1243092Y288510D01*
X1242908Y288410D01*
X1242723Y288315D01*
X1242692Y288293D01*
X1242658Y288274D01*
X1242493Y288146D01*
X1242326Y288022D01*
X1242299Y287995D01*
X1242269Y287972D01*
X1242127Y287818D01*
X1241981Y287669D01*
X1241959Y287638D01*
X1241933Y287610D01*
X1241818Y287436D01*
X1241698Y287265D01*
X1241682Y287231D01*
X1241661Y287199D01*
X1241575Y287009D01*
X1241484Y286820D01*
X1241473Y286784D01*
X1241458Y286749D01*
X1241404Y286548D01*
X1241345Y286347D01*
X1241340Y286309D01*
X1241330Y286273D01*
X1241309Y286065D01*
X1241283Y285858D01*
X1241285Y285820D01*
X1241281Y285782D01*
X1241294Y285573D01*
X1241302Y285365D01*
X1241309Y285327D01*
X1241312Y285289D01*
X1241358Y285086D01*
X1241400Y284881D01*
X1241413Y284846D01*
X1241422Y284808D01*
X1241500Y284615D01*
X1241574Y284420D01*
X1241593Y284387D01*
X1241608Y284351D01*
X1241716Y284173D01*
X1241821Y283993D01*
X1241845Y283963D01*
X1241865Y283931D01*
X1242001Y283772D01*
X1242133Y283611D01*
X1242162Y283586D01*
X1242187Y283557D01*
X1242347Y283422D01*
X1242503Y283284D01*
X1242535Y283264D01*
X1242565Y283240D01*
X1242646Y283194D01*
X1242921Y283022D01*
X1243079Y282955D01*
X1243162Y282910D01*
X1250373Y279923D01*
X1255823Y274473D01*
X1258772Y267353D01*
X1258772Y259647D01*
X1255823Y252527D01*
X1250373Y247077D01*
X1243162Y244090D01*
X1243128Y244073D01*
X1243092Y244060D01*
X1242908Y243960D01*
X1242723Y243865D01*
X1242692Y243843D01*
X1242658Y243824D01*
X1242494Y243696D01*
X1242326Y243572D01*
X1242299Y243545D01*
X1242269Y243522D01*
X1242127Y243368D01*
X1241981Y243219D01*
X1241959Y243188D01*
X1241933Y243160D01*
X1241818Y242986D01*
X1241698Y242815D01*
X1241682Y242781D01*
X1241661Y242749D01*
X1241575Y242559D01*
X1241484Y242371D01*
X1241473Y242334D01*
X1241458Y242299D01*
X1241404Y242098D01*
X1241345Y241897D01*
X1241340Y241859D01*
X1241330Y241823D01*
X1241309Y241615D01*
X1241283Y241408D01*
X1241285Y241370D01*
X1241281Y241332D01*
X1241294Y241123D01*
X1241302Y240915D01*
X1241309Y240877D01*
X1241312Y240839D01*
X1241358Y240636D01*
X1241400Y240431D01*
X1241413Y240396D01*
X1241422Y240358D01*
X1241500Y240165D01*
X1241574Y239970D01*
X1241593Y239937D01*
X1241608Y239902D01*
X1241717Y239723D01*
X1241821Y239543D01*
X1241845Y239513D01*
X1241865Y239481D01*
X1242001Y239322D01*
X1242133Y239161D01*
X1242162Y239136D01*
X1242187Y239107D01*
X1242347Y238972D01*
X1242503Y238834D01*
X1242535Y238814D01*
X1242565Y238790D01*
X1242646Y238745D01*
X1242921Y238572D01*
X1243079Y238505D01*
X1243162Y238460D01*
X1250373Y235473D01*
X1255823Y230023D01*
X1258772Y222903D01*
X1258772Y215197D01*
X1255823Y208077D01*
X1250373Y202627D01*
X1243253Y199678D01*
X1235547Y199678D01*
X1228427Y202627D01*
X1222977Y208077D01*
X1220028Y215197D01*
X1220028Y222903D01*
X1222977Y230023D01*
X1228427Y235473D01*
X1235638Y238460D01*
X1235672Y238477D01*
X1235708Y238490D01*
X1235892Y238590D01*
X1236077Y238685D01*
X1236108Y238707D01*
X1236142Y238726D01*
X1236307Y238854D01*
X1236474Y238978D01*
X1236501Y239005D01*
X1236531Y239028D01*
X1236673Y239182D01*
X1236819Y239331D01*
X1236841Y239362D01*
X1236867Y239390D01*
X1236982Y239564D01*
X1237102Y239735D01*
X1237118Y239769D01*
X1237139Y239801D01*
X1237225Y239991D01*
X1237316Y240180D01*
X1237327Y240216D01*
X1237342Y240251D01*
X1237396Y240452D01*
X1237455Y240653D01*
X1237460Y240691D01*
X1237470Y240727D01*
X1237491Y240935D01*
X1237517Y241142D01*
X1237515Y241180D01*
X1237519Y241218D01*
X1237506Y241427D01*
X1237498Y241635D01*
X1237491Y241673D01*
X1237488Y241711D01*
X1237442Y241914D01*
X1237400Y242119D01*
X1237387Y242154D01*
X1237378Y242192D01*
X1237300Y242385D01*
X1237226Y242580D01*
X1237207Y242613D01*
X1237192Y242649D01*
X1237084Y242827D01*
X1236979Y243007D01*
X1236955Y243037D01*
X1236935Y243069D01*
X1236799Y243228D01*
X1236667Y243389D01*
X1236638Y243414D01*
X1236613Y243443D01*
X1236453Y243578D01*
X1236297Y243716D01*
X1236265Y243736D01*
X1236235Y243760D01*
X1236154Y243806D01*
X1235879Y243978D01*
X1235721Y244045D01*
X1235638Y244090D01*
X1228427Y247077D01*
X1222977Y252527D01*
X1220028Y259647D01*
X1220028Y267353D01*
X1222977Y274473D01*
X1228427Y279923D01*
X1235638Y282910D01*
X1235672Y282927D01*
X1235708Y282940D01*
X1235892Y283040D01*
X1236077Y283135D01*
X1236108Y283157D01*
X1236142Y283176D01*
X1236306Y283304D01*
X1236474Y283428D01*
X1236501Y283455D01*
X1236531Y283478D01*
X1236673Y283632D01*
X1236819Y283781D01*
X1236841Y283812D01*
X1236867Y283840D01*
X1236982Y284014D01*
X1237102Y284185D01*
X1237118Y284219D01*
X1237139Y284251D01*
X1237225Y284441D01*
X1237316Y284629D01*
X1237327Y284666D01*
X1237342Y284701D01*
X1237396Y284902D01*
X1237455Y285103D01*
X1237460Y285141D01*
X1237470Y285177D01*
X1237491Y285385D01*
X1237517Y285592D01*
X1237515Y285630D01*
X1237519Y285668D01*
X1237506Y285877D01*
X1237498Y286085D01*
X1237491Y286123D01*
X1237488Y286161D01*
X1237442Y286364D01*
X1237400Y286569D01*
X1237387Y286604D01*
X1237378Y286642D01*
X1237300Y286835D01*
X1237226Y287030D01*
X1237207Y287063D01*
X1237192Y287098D01*
X1237083Y287277D01*
X1236979Y287457D01*
X1236955Y287487D01*
X1236935Y287519D01*
X1236799Y287678D01*
X1236667Y287839D01*
X1236638Y287864D01*
X1236613Y287893D01*
X1236453Y288027D01*
X1236297Y288166D01*
X1236265Y288186D01*
X1236235Y288210D01*
X1236154Y288255D01*
X1235879Y288428D01*
X1235721Y288495D01*
X1235638Y288540D01*
X1228427Y291527D01*
X1222977Y296977D01*
X1220028Y304097D01*
X1220028Y311803D01*
X1222977Y318923D01*
X1228427Y324373D01*
X1235699Y327385D01*
X1235733Y327402D01*
X1235769Y327415D01*
X1235952Y327515D01*
X1236138Y327610D01*
X1236168Y327632D01*
X1236202Y327651D01*
X1236367Y327779D01*
X1236535Y327903D01*
X1236561Y327930D01*
X1236591Y327953D01*
X1236734Y328107D01*
X1236879Y328256D01*
X1236901Y328287D01*
X1236927Y328315D01*
X1237042Y328489D01*
X1237162Y328660D01*
X1237179Y328694D01*
X1237200Y328726D01*
X1237285Y328916D01*
X1237376Y329104D01*
X1237387Y329141D01*
X1237403Y329176D01*
X1237456Y329377D01*
X1237516Y329578D01*
X1237520Y329616D01*
X1237530Y329652D01*
X1237551Y329860D01*
X1237577Y330067D01*
X1237576Y330105D01*
X1237579Y330143D01*
X1237566Y330352D01*
X1237559Y330560D01*
X1237551Y330598D01*
X1237549Y330636D01*
X1237502Y330839D01*
X1237461Y331044D01*
X1237447Y331079D01*
X1237439Y331117D01*
X1237360Y331310D01*
X1237286Y331505D01*
X1237267Y331538D01*
X1237253Y331573D01*
X1237144Y331752D01*
X1237040Y331932D01*
X1237015Y331962D01*
X1236996Y331994D01*
X1236859Y332153D01*
X1236727Y332314D01*
X1236699Y332339D01*
X1236674Y332368D01*
X1236514Y332502D01*
X1236357Y332641D01*
X1236325Y332661D01*
X1236296Y332685D01*
X1236214Y332730D01*
X1235939Y332903D01*
X1235781Y332970D01*
X1235699Y333015D01*
X1228427Y336027D01*
X1222977Y341477D01*
X1220028Y348597D01*
X1220028Y356303D01*
X1222977Y363423D01*
X1228427Y368873D01*
X1235638Y371860D01*
X1235672Y371877D01*
X1235708Y371890D01*
X1235892Y371990D01*
X1236077Y372085D01*
X1236108Y372107D01*
X1236142Y372126D01*
X1236307Y372254D01*
X1236474Y372378D01*
X1236501Y372405D01*
X1236531Y372428D01*
X1236673Y372582D01*
X1236819Y372731D01*
X1236841Y372762D01*
X1236867Y372790D01*
X1236982Y372964D01*
X1237102Y373135D01*
X1237118Y373169D01*
X1237139Y373201D01*
X1237225Y373391D01*
X1237316Y373580D01*
X1237327Y373616D01*
X1237342Y373651D01*
X1237396Y373852D01*
X1237455Y374053D01*
X1237460Y374091D01*
X1237470Y374127D01*
X1237491Y374335D01*
X1237517Y374542D01*
X1237515Y374580D01*
X1237519Y374618D01*
X1237506Y374826D01*
X1237498Y375035D01*
X1237491Y375073D01*
X1237488Y375111D01*
X1237442Y375314D01*
X1237400Y375519D01*
X1237387Y375554D01*
X1237378Y375592D01*
X1237300Y375785D01*
X1237226Y375980D01*
X1237207Y376013D01*
X1237192Y376049D01*
X1237084Y376226D01*
X1236979Y376407D01*
X1236955Y376437D01*
X1236935Y376469D01*
X1236799Y376628D01*
X1236667Y376789D01*
X1236638Y376814D01*
X1236613Y376843D01*
X1236453Y376978D01*
X1236297Y377116D01*
X1236265Y377136D01*
X1236235Y377160D01*
X1236154Y377206D01*
X1235879Y377378D01*
X1235721Y377445D01*
X1235638Y377490D01*
X1228427Y380477D01*
X1222977Y385927D01*
X1221086Y390494D01*
X1221003Y390654D01*
X1220928Y390819D01*
X1220891Y390874D01*
X1220860Y390933D01*
X1220753Y391078D01*
X1220653Y391228D01*
X1220607Y391277D01*
X1220568Y391330D01*
X1220438Y391456D01*
X1220315Y391588D01*
X1220262Y391628D01*
X1220214Y391675D01*
X1220066Y391778D01*
X1219923Y391888D01*
X1219865Y391919D01*
X1219810Y391958D01*
X1219647Y392036D01*
X1219489Y392121D01*
X1219426Y392143D01*
X1219366Y392172D01*
X1219193Y392223D01*
X1219022Y392281D01*
X1218956Y392292D01*
X1218893Y392311D01*
X1218714Y392334D01*
X1218536Y392364D01*
X1218469Y392364D01*
X1218403Y392373D01*
X1218223Y392366D01*
X1218042Y392367D01*
X1217976Y392357D01*
X1217910Y392354D01*
X1217734Y392318D01*
X1217555Y392290D01*
X1217492Y392269D01*
X1217426Y392256D01*
X1217258Y392193D01*
X1217086Y392136D01*
X1217027Y392105D01*
X1216965Y392082D01*
X1216809Y391992D01*
X1216649Y391908D01*
X1216607Y391875D01*
X1216538Y391835D01*
X1216156Y391523D01*
X1216134Y391497D01*
X1216116Y391483D01*
X1205388Y380756D01*
X1205314Y380669D01*
X1205233Y380588D01*
X1205155Y380481D01*
X1205069Y380380D01*
X1205010Y380282D01*
X1204943Y380190D01*
X1204883Y380071D01*
X1204814Y379957D01*
X1204772Y379851D01*
X1204720Y379749D01*
X1204680Y379622D01*
X1204631Y379499D01*
X1204606Y379388D01*
X1204572Y379279D01*
X1204562Y379185D01*
X1204524Y379017D01*
X1204506Y378693D01*
X1204496Y378601D01*
X1204496Y203921D01*
X1201634Y197012D01*
X1170238Y165616D01*
X1163329Y162754D01*
X1128071Y162754D01*
X1121162Y165616D01*
X1041467Y245311D01*
X1041380Y245385D01*
X1041300Y245466D01*
X1041193Y245544D01*
X1041091Y245630D01*
X1040993Y245689D01*
X1040901Y245756D01*
X1040783Y245816D01*
X1040669Y245885D01*
X1040562Y245927D01*
X1040461Y245979D01*
X1040334Y246019D01*
X1040211Y246068D01*
X1040099Y246093D01*
X1039990Y246127D01*
X1039897Y246137D01*
X1039729Y246175D01*
X1039405Y246193D01*
X1039312Y246203D01*
X1008051Y246203D01*
X1008013Y246200D01*
X1007975Y246202D01*
X1007767Y246180D01*
X1007559Y246163D01*
X1007522Y246154D01*
X1007484Y246150D01*
X1007283Y246095D01*
X1007080Y246045D01*
X1007045Y246030D01*
X1007009Y246019D01*
X1006819Y245932D01*
X1006627Y245850D01*
X1006595Y245830D01*
X1006560Y245814D01*
X1006387Y245697D01*
X1006211Y245585D01*
X1006183Y245560D01*
X1006151Y245538D01*
X1005999Y245395D01*
X1005843Y245256D01*
X1005819Y245227D01*
X1005791Y245201D01*
X1005664Y245035D01*
X1005533Y244872D01*
X1005514Y244839D01*
X1005491Y244809D01*
X1005392Y244625D01*
X1005289Y244444D01*
X1005276Y244408D01*
X1005258Y244374D01*
X1005190Y244177D01*
X1005118Y243981D01*
X1005110Y243944D01*
X1005098Y243908D01*
X1005063Y243701D01*
X1005023Y243497D01*
X1005022Y243459D01*
X1005015Y243421D01*
X1005014Y243212D01*
X1005008Y243004D01*
X1005012Y242966D01*
X1005012Y242928D01*
X1005045Y242721D01*
X1005072Y242515D01*
X1005083Y242478D01*
X1005089Y242441D01*
X1005154Y242242D01*
X1005214Y242043D01*
X1005231Y242008D01*
X1005243Y241972D01*
X1005340Y241787D01*
X1005431Y241599D01*
X1005453Y241568D01*
X1005471Y241534D01*
X1005529Y241462D01*
X1005717Y241197D01*
X1005838Y241075D01*
X1005896Y241001D01*
X1015603Y231294D01*
X1015604Y231294D01*
X1018605Y228293D01*
X1019997Y224932D01*
X1019997Y104268D01*
X1018605Y100907D01*
X999064Y81367D01*
X999015Y81308D01*
X998959Y81256D01*
X998855Y81121D01*
X998745Y80991D01*
X998705Y80925D01*
X998659Y80865D01*
X998578Y80715D01*
X998490Y80568D01*
X998462Y80497D01*
X998426Y80430D01*
X998370Y80269D01*
X998307Y80110D01*
X998290Y80036D01*
X998266Y79963D01*
X998237Y79795D01*
X998200Y79628D01*
X998196Y79552D01*
X998183Y79477D01*
X998182Y79307D01*
X998173Y79136D01*
X998181Y79060D01*
X998180Y78984D01*
X998207Y78815D01*
X998225Y78645D01*
X998245Y78572D01*
X998257Y78496D01*
X998310Y78334D01*
X998355Y78169D01*
X998387Y78100D01*
X998411Y78028D01*
X998490Y77877D01*
X998561Y77721D01*
X998604Y77658D01*
X998639Y77590D01*
X998705Y77508D01*
X998837Y77312D01*
X998998Y77139D01*
X999005Y77131D01*
X1002377Y68991D01*
X1002377Y60209D01*
X999016Y52095D01*
X992805Y45884D01*
X984691Y42523D01*
X975909Y42523D01*
X967795Y45884D01*
X961584Y52094D01*
X960971Y53574D01*
X960872Y53768D01*
X960776Y53965D01*
X960759Y53988D01*
X960746Y54013D01*
X960617Y54189D01*
X960490Y54367D01*
X960470Y54387D01*
X960453Y54410D01*
X960297Y54562D01*
X960144Y54718D01*
X960121Y54735D01*
X960100Y54755D01*
X959921Y54880D01*
X959745Y55008D01*
X959719Y55021D01*
X959696Y55037D01*
X959499Y55132D01*
X959304Y55231D01*
X959277Y55239D01*
X959252Y55252D01*
X959043Y55313D01*
X958834Y55379D01*
X958811Y55382D01*
X958778Y55391D01*
X958289Y55452D01*
X958209Y55449D01*
X958156Y55455D01*
X702694Y55455D01*
X702618Y55449D01*
X702542Y55451D01*
X702373Y55429D01*
X702202Y55415D01*
X702128Y55397D01*
X702053Y55387D01*
X701889Y55338D01*
X701723Y55297D01*
X701654Y55267D01*
X701580Y55245D01*
X701427Y55169D01*
X701270Y55102D01*
X701206Y55061D01*
X701137Y55028D01*
X700998Y54929D01*
X700854Y54837D01*
X700797Y54786D01*
X700735Y54742D01*
X700614Y54622D01*
X700486Y54508D01*
X700438Y54449D01*
X700384Y54395D01*
X700283Y54257D01*
X700176Y54124D01*
X700139Y54058D01*
X700094Y53997D01*
X700017Y53844D01*
X699932Y53696D01*
X699906Y53624D01*
X699871Y53556D01*
X699820Y53393D01*
X699761Y53233D01*
X699746Y53158D01*
X699723Y53086D01*
X699711Y52981D01*
X699666Y52749D01*
X699659Y52513D01*
X699647Y52408D01*
X699647Y48166D01*
X697554Y43113D01*
X695204Y40763D01*
X695179Y40734D01*
X695150Y40708D01*
X695020Y40546D01*
X694884Y40387D01*
X694864Y40354D01*
X694840Y40324D01*
X694737Y40143D01*
X694629Y39964D01*
X694615Y39929D01*
X694596Y39896D01*
X694524Y39700D01*
X694446Y39506D01*
X694438Y39469D01*
X694425Y39433D01*
X694385Y39228D01*
X694340Y39024D01*
X694337Y38986D01*
X694330Y38949D01*
X694324Y38741D01*
X694312Y38532D01*
X694316Y38494D01*
X694315Y38456D01*
X694342Y38249D01*
X694364Y38041D01*
X694374Y38005D01*
X694379Y37967D01*
X694440Y37767D01*
X694495Y37566D01*
X694511Y37531D01*
X694522Y37494D01*
X694614Y37307D01*
X694701Y37117D01*
X694722Y37086D01*
X694739Y37051D01*
X694859Y36881D01*
X694976Y36708D01*
X695002Y36680D01*
X695024Y36649D01*
X695171Y36501D01*
X695314Y36348D01*
X695344Y36325D01*
X695371Y36298D01*
X695540Y36175D01*
X695705Y36048D01*
X695739Y36030D01*
X695770Y36008D01*
X695956Y35914D01*
X696140Y35815D01*
X696176Y35802D01*
X696210Y35785D01*
X696409Y35723D01*
X696607Y35655D01*
X696644Y35649D01*
X696681Y35637D01*
X696773Y35627D01*
X697093Y35572D01*
X697265Y35571D01*
X697358Y35561D01*
X1367792Y35561D01*
X1367868Y35567D01*
G37*
G36*
X344280Y35564D02*
X344280Y35564D01*
X344318Y35562D01*
X344526Y35584D01*
X344733Y35601D01*
X344770Y35610D01*
X344808Y35614D01*
X345010Y35669D01*
X345212Y35719D01*
X345247Y35734D01*
X345284Y35745D01*
X345474Y35832D01*
X345666Y35914D01*
X345698Y35934D01*
X345732Y35950D01*
X345906Y36067D01*
X346082Y36179D01*
X346110Y36204D01*
X346142Y36226D01*
X346294Y36369D01*
X346450Y36508D01*
X346474Y36537D01*
X346501Y36563D01*
X346629Y36730D01*
X346760Y36892D01*
X346778Y36924D01*
X346802Y36955D01*
X346901Y37139D01*
X347004Y37320D01*
X347017Y37356D01*
X347035Y37390D01*
X347102Y37587D01*
X347175Y37783D01*
X347182Y37820D01*
X347195Y37856D01*
X347230Y38063D01*
X347270Y38267D01*
X347271Y38305D01*
X347277Y38343D01*
X347279Y38552D01*
X347285Y38760D01*
X347280Y38798D01*
X347280Y38836D01*
X347248Y39043D01*
X347221Y39249D01*
X347210Y39286D01*
X347204Y39323D01*
X347139Y39522D01*
X347078Y39721D01*
X347061Y39756D01*
X347050Y39792D01*
X346953Y39977D01*
X346861Y40165D01*
X346839Y40196D01*
X346822Y40230D01*
X346764Y40302D01*
X346576Y40567D01*
X346455Y40689D01*
X346396Y40763D01*
X344046Y43113D01*
X341953Y48166D01*
X341953Y53634D01*
X344046Y58687D01*
X346804Y61445D01*
X346854Y61503D01*
X346909Y61555D01*
X347013Y61691D01*
X347124Y61821D01*
X347163Y61887D01*
X347210Y61947D01*
X347290Y62097D01*
X347378Y62244D01*
X347407Y62314D01*
X347443Y62382D01*
X347498Y62543D01*
X347562Y62702D01*
X347578Y62776D01*
X347603Y62848D01*
X347631Y63017D01*
X347668Y63183D01*
X347673Y63260D01*
X347685Y63335D01*
X347686Y63506D01*
X347696Y63676D01*
X347688Y63752D01*
X347688Y63828D01*
X347662Y63997D01*
X347644Y64167D01*
X347624Y64240D01*
X347612Y64315D01*
X347558Y64478D01*
X347513Y64642D01*
X347481Y64712D01*
X347458Y64784D01*
X347379Y64936D01*
X347307Y65091D01*
X347265Y65154D01*
X347230Y65222D01*
X347164Y65304D01*
X347032Y65500D01*
X346870Y65672D01*
X346804Y65755D01*
X344046Y68513D01*
X341953Y73566D01*
X341953Y79034D01*
X344046Y84087D01*
X346804Y86845D01*
X346854Y86903D01*
X346909Y86955D01*
X347013Y87091D01*
X347124Y87221D01*
X347163Y87287D01*
X347210Y87347D01*
X347290Y87497D01*
X347378Y87644D01*
X347407Y87714D01*
X347443Y87782D01*
X347498Y87943D01*
X347562Y88102D01*
X347578Y88176D01*
X347603Y88248D01*
X347631Y88417D01*
X347668Y88583D01*
X347673Y88660D01*
X347685Y88735D01*
X347686Y88906D01*
X347696Y89076D01*
X347688Y89152D01*
X347688Y89228D01*
X347662Y89397D01*
X347644Y89567D01*
X347624Y89640D01*
X347612Y89715D01*
X347558Y89878D01*
X347513Y90042D01*
X347481Y90112D01*
X347458Y90184D01*
X347379Y90336D01*
X347307Y90491D01*
X347265Y90554D01*
X347230Y90622D01*
X347164Y90704D01*
X347032Y90900D01*
X346870Y91072D01*
X346804Y91155D01*
X344046Y93913D01*
X341953Y98966D01*
X341953Y104434D01*
X344046Y109487D01*
X346804Y112245D01*
X346854Y112303D01*
X346909Y112355D01*
X347013Y112491D01*
X347124Y112621D01*
X347163Y112687D01*
X347210Y112747D01*
X347290Y112897D01*
X347378Y113044D01*
X347407Y113114D01*
X347443Y113182D01*
X347498Y113343D01*
X347562Y113502D01*
X347578Y113576D01*
X347603Y113648D01*
X347631Y113817D01*
X347668Y113983D01*
X347673Y114060D01*
X347685Y114135D01*
X347686Y114306D01*
X347696Y114476D01*
X347688Y114552D01*
X347688Y114628D01*
X347662Y114797D01*
X347644Y114967D01*
X347624Y115040D01*
X347612Y115115D01*
X347558Y115278D01*
X347513Y115442D01*
X347481Y115512D01*
X347458Y115584D01*
X347379Y115736D01*
X347307Y115891D01*
X347265Y115954D01*
X347230Y116022D01*
X347164Y116104D01*
X347032Y116300D01*
X346870Y116472D01*
X346804Y116555D01*
X344046Y119313D01*
X341953Y124366D01*
X341953Y129834D01*
X344046Y134887D01*
X346804Y137645D01*
X346854Y137703D01*
X346909Y137755D01*
X347013Y137891D01*
X347124Y138021D01*
X347163Y138087D01*
X347210Y138147D01*
X347290Y138297D01*
X347378Y138444D01*
X347407Y138514D01*
X347443Y138582D01*
X347498Y138743D01*
X347562Y138902D01*
X347578Y138976D01*
X347603Y139048D01*
X347631Y139217D01*
X347668Y139383D01*
X347673Y139460D01*
X347685Y139535D01*
X347686Y139706D01*
X347696Y139876D01*
X347688Y139952D01*
X347688Y140028D01*
X347662Y140197D01*
X347644Y140367D01*
X347624Y140440D01*
X347612Y140515D01*
X347558Y140678D01*
X347513Y140842D01*
X347481Y140912D01*
X347458Y140984D01*
X347379Y141136D01*
X347307Y141291D01*
X347265Y141354D01*
X347230Y141422D01*
X347164Y141504D01*
X347032Y141700D01*
X346870Y141872D01*
X346804Y141955D01*
X344046Y144713D01*
X341953Y149766D01*
X341953Y155234D01*
X344046Y160287D01*
X346804Y163045D01*
X346854Y163103D01*
X346909Y163155D01*
X347013Y163291D01*
X347124Y163421D01*
X347163Y163487D01*
X347210Y163547D01*
X347290Y163697D01*
X347378Y163844D01*
X347407Y163914D01*
X347443Y163982D01*
X347498Y164143D01*
X347562Y164302D01*
X347578Y164376D01*
X347603Y164448D01*
X347631Y164617D01*
X347668Y164783D01*
X347673Y164860D01*
X347685Y164935D01*
X347686Y165106D01*
X347696Y165276D01*
X347688Y165352D01*
X347688Y165428D01*
X347662Y165597D01*
X347644Y165767D01*
X347624Y165840D01*
X347612Y165915D01*
X347558Y166078D01*
X347513Y166242D01*
X347481Y166312D01*
X347458Y166384D01*
X347379Y166536D01*
X347307Y166691D01*
X347265Y166754D01*
X347230Y166822D01*
X347164Y166904D01*
X347032Y167100D01*
X346870Y167272D01*
X346804Y167355D01*
X344046Y170113D01*
X341953Y175166D01*
X341953Y180634D01*
X344046Y185687D01*
X346804Y188445D01*
X346854Y188503D01*
X346909Y188555D01*
X347013Y188691D01*
X347124Y188821D01*
X347163Y188887D01*
X347210Y188947D01*
X347290Y189097D01*
X347378Y189244D01*
X347407Y189314D01*
X347443Y189382D01*
X347498Y189543D01*
X347562Y189702D01*
X347578Y189776D01*
X347603Y189848D01*
X347631Y190017D01*
X347668Y190183D01*
X347673Y190260D01*
X347685Y190335D01*
X347686Y190506D01*
X347696Y190676D01*
X347688Y190752D01*
X347688Y190828D01*
X347662Y190997D01*
X347644Y191167D01*
X347624Y191240D01*
X347612Y191315D01*
X347558Y191478D01*
X347513Y191642D01*
X347481Y191712D01*
X347458Y191784D01*
X347379Y191936D01*
X347307Y192091D01*
X347265Y192154D01*
X347230Y192222D01*
X347164Y192304D01*
X347032Y192500D01*
X346870Y192672D01*
X346804Y192755D01*
X344046Y195513D01*
X341953Y200566D01*
X341953Y206034D01*
X344046Y211087D01*
X346804Y213845D01*
X346854Y213903D01*
X346909Y213955D01*
X347013Y214091D01*
X347124Y214221D01*
X347163Y214287D01*
X347210Y214347D01*
X347290Y214497D01*
X347378Y214644D01*
X347407Y214714D01*
X347443Y214782D01*
X347498Y214943D01*
X347562Y215102D01*
X347578Y215176D01*
X347603Y215248D01*
X347631Y215417D01*
X347668Y215583D01*
X347673Y215660D01*
X347685Y215735D01*
X347686Y215906D01*
X347696Y216076D01*
X347688Y216152D01*
X347688Y216228D01*
X347662Y216397D01*
X347644Y216567D01*
X347624Y216640D01*
X347612Y216715D01*
X347558Y216878D01*
X347513Y217042D01*
X347481Y217112D01*
X347458Y217184D01*
X347379Y217336D01*
X347307Y217491D01*
X347265Y217554D01*
X347230Y217622D01*
X347164Y217704D01*
X347032Y217900D01*
X346870Y218072D01*
X346804Y218155D01*
X344046Y220913D01*
X341953Y225966D01*
X341953Y231434D01*
X344046Y236487D01*
X346804Y239245D01*
X346854Y239303D01*
X346909Y239355D01*
X347013Y239491D01*
X347124Y239621D01*
X347163Y239687D01*
X347210Y239747D01*
X347290Y239897D01*
X347378Y240044D01*
X347407Y240114D01*
X347443Y240182D01*
X347498Y240343D01*
X347562Y240502D01*
X347578Y240576D01*
X347603Y240648D01*
X347631Y240817D01*
X347668Y240983D01*
X347673Y241060D01*
X347685Y241135D01*
X347686Y241306D01*
X347696Y241476D01*
X347688Y241552D01*
X347688Y241628D01*
X347662Y241797D01*
X347644Y241967D01*
X347624Y242040D01*
X347612Y242115D01*
X347558Y242278D01*
X347513Y242442D01*
X347481Y242512D01*
X347458Y242584D01*
X347379Y242736D01*
X347307Y242891D01*
X347265Y242954D01*
X347230Y243022D01*
X347164Y243104D01*
X347032Y243300D01*
X346870Y243472D01*
X346804Y243555D01*
X344046Y246313D01*
X341953Y251366D01*
X341953Y256834D01*
X344046Y261887D01*
X346804Y264645D01*
X346854Y264703D01*
X346909Y264755D01*
X347013Y264891D01*
X347124Y265021D01*
X347163Y265087D01*
X347210Y265147D01*
X347290Y265297D01*
X347378Y265444D01*
X347407Y265514D01*
X347443Y265582D01*
X347498Y265743D01*
X347562Y265902D01*
X347578Y265976D01*
X347603Y266048D01*
X347631Y266217D01*
X347668Y266383D01*
X347673Y266460D01*
X347685Y266535D01*
X347686Y266706D01*
X347696Y266876D01*
X347688Y266952D01*
X347688Y267028D01*
X347662Y267197D01*
X347644Y267367D01*
X347624Y267440D01*
X347612Y267515D01*
X347558Y267678D01*
X347513Y267842D01*
X347481Y267912D01*
X347458Y267984D01*
X347379Y268136D01*
X347307Y268291D01*
X347265Y268354D01*
X347230Y268422D01*
X347164Y268504D01*
X347032Y268700D01*
X346870Y268872D01*
X346804Y268955D01*
X344046Y271713D01*
X341953Y276766D01*
X341953Y282234D01*
X344046Y287287D01*
X346804Y290045D01*
X346854Y290103D01*
X346909Y290155D01*
X347013Y290291D01*
X347124Y290421D01*
X347163Y290487D01*
X347210Y290547D01*
X347290Y290697D01*
X347378Y290844D01*
X347407Y290914D01*
X347443Y290982D01*
X347498Y291143D01*
X347562Y291302D01*
X347578Y291376D01*
X347603Y291448D01*
X347631Y291617D01*
X347668Y291783D01*
X347673Y291860D01*
X347685Y291935D01*
X347686Y292106D01*
X347696Y292276D01*
X347688Y292352D01*
X347688Y292428D01*
X347662Y292597D01*
X347644Y292767D01*
X347624Y292840D01*
X347612Y292915D01*
X347558Y293078D01*
X347513Y293242D01*
X347481Y293312D01*
X347458Y293384D01*
X347379Y293536D01*
X347307Y293691D01*
X347265Y293754D01*
X347230Y293822D01*
X347164Y293904D01*
X347032Y294100D01*
X346870Y294272D01*
X346804Y294355D01*
X344046Y297113D01*
X341953Y302166D01*
X341953Y307634D01*
X344046Y312687D01*
X346804Y315445D01*
X346854Y315503D01*
X346909Y315555D01*
X347013Y315691D01*
X347124Y315821D01*
X347163Y315887D01*
X347210Y315947D01*
X347290Y316097D01*
X347378Y316244D01*
X347407Y316314D01*
X347443Y316382D01*
X347498Y316543D01*
X347562Y316702D01*
X347578Y316776D01*
X347603Y316848D01*
X347631Y317017D01*
X347668Y317183D01*
X347673Y317260D01*
X347685Y317335D01*
X347686Y317506D01*
X347696Y317676D01*
X347688Y317752D01*
X347688Y317828D01*
X347662Y317997D01*
X347644Y318167D01*
X347624Y318240D01*
X347612Y318315D01*
X347558Y318478D01*
X347513Y318642D01*
X347481Y318712D01*
X347458Y318784D01*
X347379Y318936D01*
X347307Y319091D01*
X347265Y319154D01*
X347230Y319222D01*
X347164Y319304D01*
X347032Y319500D01*
X346870Y319672D01*
X346804Y319755D01*
X344046Y322513D01*
X341953Y327566D01*
X341953Y333034D01*
X344046Y338087D01*
X346804Y340845D01*
X346854Y340903D01*
X346909Y340955D01*
X347013Y341091D01*
X347124Y341221D01*
X347163Y341287D01*
X347210Y341347D01*
X347290Y341497D01*
X347378Y341644D01*
X347407Y341714D01*
X347443Y341782D01*
X347498Y341943D01*
X347562Y342102D01*
X347578Y342176D01*
X347603Y342248D01*
X347631Y342417D01*
X347668Y342583D01*
X347673Y342660D01*
X347685Y342735D01*
X347686Y342906D01*
X347696Y343076D01*
X347688Y343152D01*
X347688Y343228D01*
X347662Y343397D01*
X347644Y343567D01*
X347624Y343640D01*
X347612Y343715D01*
X347558Y343878D01*
X347513Y344042D01*
X347481Y344112D01*
X347458Y344184D01*
X347379Y344336D01*
X347307Y344491D01*
X347265Y344554D01*
X347230Y344622D01*
X347164Y344704D01*
X347032Y344900D01*
X346870Y345072D01*
X346804Y345155D01*
X344046Y347913D01*
X341953Y352966D01*
X341953Y358434D01*
X344046Y363487D01*
X346804Y366245D01*
X346854Y366303D01*
X346909Y366355D01*
X347013Y366491D01*
X347124Y366621D01*
X347163Y366687D01*
X347210Y366747D01*
X347290Y366897D01*
X347378Y367044D01*
X347407Y367114D01*
X347443Y367182D01*
X347498Y367343D01*
X347562Y367502D01*
X347578Y367576D01*
X347603Y367648D01*
X347631Y367817D01*
X347668Y367983D01*
X347673Y368060D01*
X347685Y368135D01*
X347686Y368306D01*
X347696Y368476D01*
X347688Y368552D01*
X347688Y368628D01*
X347662Y368797D01*
X347644Y368967D01*
X347624Y369040D01*
X347612Y369115D01*
X347558Y369278D01*
X347513Y369442D01*
X347481Y369512D01*
X347458Y369584D01*
X347379Y369736D01*
X347307Y369891D01*
X347265Y369954D01*
X347230Y370022D01*
X347164Y370104D01*
X347032Y370300D01*
X346870Y370472D01*
X346804Y370555D01*
X344046Y373313D01*
X341953Y378366D01*
X341953Y383834D01*
X344046Y388887D01*
X346804Y391645D01*
X346854Y391703D01*
X346909Y391755D01*
X347013Y391891D01*
X347124Y392021D01*
X347163Y392087D01*
X347210Y392147D01*
X347290Y392297D01*
X347378Y392444D01*
X347407Y392514D01*
X347443Y392582D01*
X347498Y392743D01*
X347562Y392902D01*
X347578Y392976D01*
X347603Y393048D01*
X347631Y393217D01*
X347668Y393383D01*
X347673Y393460D01*
X347685Y393535D01*
X347686Y393706D01*
X347696Y393876D01*
X347688Y393952D01*
X347688Y394028D01*
X347662Y394197D01*
X347644Y394367D01*
X347624Y394440D01*
X347612Y394515D01*
X347558Y394678D01*
X347513Y394842D01*
X347481Y394912D01*
X347458Y394984D01*
X347379Y395136D01*
X347307Y395291D01*
X347265Y395354D01*
X347230Y395422D01*
X347164Y395504D01*
X347032Y395700D01*
X346870Y395872D01*
X346804Y395955D01*
X344046Y398713D01*
X341953Y403766D01*
X341953Y409234D01*
X344046Y414287D01*
X346804Y417045D01*
X346854Y417103D01*
X346909Y417155D01*
X347013Y417291D01*
X347124Y417421D01*
X347163Y417487D01*
X347210Y417547D01*
X347290Y417697D01*
X347378Y417844D01*
X347407Y417914D01*
X347443Y417982D01*
X347498Y418143D01*
X347562Y418302D01*
X347578Y418376D01*
X347603Y418448D01*
X347631Y418617D01*
X347668Y418783D01*
X347673Y418860D01*
X347685Y418935D01*
X347686Y419106D01*
X347696Y419276D01*
X347688Y419352D01*
X347688Y419428D01*
X347662Y419597D01*
X347644Y419767D01*
X347624Y419840D01*
X347612Y419915D01*
X347558Y420078D01*
X347513Y420242D01*
X347481Y420312D01*
X347458Y420384D01*
X347379Y420536D01*
X347307Y420691D01*
X347265Y420754D01*
X347230Y420822D01*
X347164Y420904D01*
X347032Y421100D01*
X346870Y421272D01*
X346804Y421355D01*
X344046Y424113D01*
X341953Y429166D01*
X341953Y434634D01*
X344046Y439687D01*
X347913Y443554D01*
X352966Y445647D01*
X358434Y445647D01*
X363487Y443554D01*
X365104Y441937D01*
X365191Y441863D01*
X365271Y441782D01*
X365378Y441704D01*
X365480Y441618D01*
X365577Y441559D01*
X365670Y441492D01*
X365788Y441432D01*
X365902Y441363D01*
X366008Y441321D01*
X366110Y441269D01*
X366237Y441229D01*
X366360Y441180D01*
X366471Y441155D01*
X366581Y441121D01*
X366674Y441111D01*
X366842Y441073D01*
X367166Y441055D01*
X367258Y441045D01*
X441850Y441045D01*
X441964Y441054D01*
X442078Y441053D01*
X442209Y441074D01*
X442342Y441085D01*
X442452Y441112D01*
X442565Y441130D01*
X442692Y441171D01*
X442820Y441203D01*
X442925Y441248D01*
X443034Y441284D01*
X443152Y441346D01*
X443274Y441398D01*
X443370Y441459D01*
X443471Y441512D01*
X443545Y441571D01*
X443690Y441663D01*
X443932Y441879D01*
X444005Y441937D01*
X474394Y472327D01*
X474511Y472464D01*
X474634Y472596D01*
X474670Y472652D01*
X474713Y472702D01*
X474807Y472857D01*
X474906Y473007D01*
X474934Y473068D01*
X474968Y473125D01*
X475035Y473293D01*
X475109Y473457D01*
X475127Y473522D01*
X475151Y473583D01*
X475190Y473759D01*
X475237Y473934D01*
X475244Y474000D01*
X475258Y474065D01*
X475268Y474245D01*
X475286Y474425D01*
X475282Y474491D01*
X475286Y474557D01*
X475266Y474737D01*
X475255Y474917D01*
X475240Y474982D01*
X475233Y475048D01*
X475186Y475222D01*
X475145Y475398D01*
X475120Y475460D01*
X475103Y475524D01*
X475027Y475688D01*
X474959Y475855D01*
X474925Y475911D01*
X474897Y475972D01*
X474796Y476122D01*
X474702Y476276D01*
X474659Y476326D01*
X474622Y476381D01*
X474498Y476513D01*
X474380Y476650D01*
X474329Y476692D01*
X474284Y476741D01*
X474141Y476851D01*
X474002Y476967D01*
X473956Y476992D01*
X473892Y477041D01*
X473458Y477274D01*
X473426Y477285D01*
X473405Y477297D01*
X471113Y478246D01*
X468355Y481004D01*
X468297Y481054D01*
X468244Y481109D01*
X468109Y481213D01*
X467979Y481324D01*
X467914Y481363D01*
X467853Y481410D01*
X467703Y481490D01*
X467556Y481579D01*
X467485Y481607D01*
X467418Y481643D01*
X467257Y481698D01*
X467098Y481762D01*
X467024Y481778D01*
X466952Y481803D01*
X466783Y481831D01*
X466616Y481868D01*
X466540Y481873D01*
X466465Y481885D01*
X466294Y481886D01*
X466124Y481896D01*
X466048Y481888D01*
X465972Y481888D01*
X465803Y481862D01*
X465633Y481844D01*
X465560Y481824D01*
X465485Y481812D01*
X465322Y481758D01*
X465158Y481713D01*
X465088Y481681D01*
X465016Y481658D01*
X464865Y481579D01*
X464709Y481507D01*
X464646Y481465D01*
X464578Y481430D01*
X464496Y481364D01*
X464300Y481232D01*
X464128Y481070D01*
X464045Y481004D01*
X461287Y478246D01*
X456234Y476153D01*
X450766Y476153D01*
X445713Y478246D01*
X442955Y481004D01*
X442897Y481054D01*
X442844Y481109D01*
X442709Y481213D01*
X442579Y481324D01*
X442514Y481363D01*
X442453Y481410D01*
X442303Y481490D01*
X442156Y481579D01*
X442085Y481607D01*
X442018Y481643D01*
X441857Y481698D01*
X441698Y481762D01*
X441624Y481778D01*
X441552Y481803D01*
X441383Y481831D01*
X441216Y481868D01*
X441140Y481873D01*
X441065Y481885D01*
X440894Y481886D01*
X440724Y481896D01*
X440648Y481888D01*
X440572Y481888D01*
X440403Y481862D01*
X440233Y481844D01*
X440160Y481824D01*
X440085Y481812D01*
X439922Y481758D01*
X439758Y481713D01*
X439688Y481681D01*
X439616Y481658D01*
X439465Y481579D01*
X439309Y481507D01*
X439246Y481465D01*
X439178Y481430D01*
X439096Y481364D01*
X438900Y481232D01*
X438728Y481070D01*
X438645Y481004D01*
X435887Y478246D01*
X430834Y476153D01*
X425366Y476153D01*
X420313Y478246D01*
X417555Y481004D01*
X417497Y481054D01*
X417444Y481109D01*
X417309Y481213D01*
X417179Y481324D01*
X417114Y481363D01*
X417053Y481410D01*
X416903Y481490D01*
X416756Y481579D01*
X416685Y481607D01*
X416618Y481643D01*
X416457Y481698D01*
X416298Y481762D01*
X416224Y481778D01*
X416152Y481803D01*
X415983Y481831D01*
X415816Y481868D01*
X415740Y481873D01*
X415665Y481885D01*
X415494Y481886D01*
X415324Y481896D01*
X415248Y481888D01*
X415172Y481888D01*
X415003Y481862D01*
X414833Y481844D01*
X414760Y481824D01*
X414685Y481812D01*
X414522Y481758D01*
X414358Y481713D01*
X414288Y481681D01*
X414216Y481658D01*
X414065Y481579D01*
X413909Y481507D01*
X413846Y481465D01*
X413778Y481430D01*
X413696Y481364D01*
X413500Y481232D01*
X413328Y481070D01*
X413245Y481004D01*
X410487Y478246D01*
X405434Y476153D01*
X399966Y476153D01*
X394913Y478246D01*
X392155Y481004D01*
X392097Y481054D01*
X392044Y481109D01*
X391909Y481213D01*
X391779Y481324D01*
X391714Y481363D01*
X391653Y481410D01*
X391503Y481490D01*
X391356Y481579D01*
X391285Y481607D01*
X391218Y481643D01*
X391057Y481698D01*
X390898Y481762D01*
X390824Y481778D01*
X390752Y481803D01*
X390583Y481831D01*
X390416Y481868D01*
X390340Y481873D01*
X390265Y481885D01*
X390094Y481886D01*
X389924Y481896D01*
X389848Y481888D01*
X389772Y481888D01*
X389603Y481862D01*
X389433Y481844D01*
X389360Y481824D01*
X389285Y481812D01*
X389122Y481758D01*
X388958Y481713D01*
X388888Y481681D01*
X388816Y481658D01*
X388665Y481579D01*
X388509Y481507D01*
X388446Y481465D01*
X388378Y481430D01*
X388296Y481364D01*
X388100Y481232D01*
X387928Y481070D01*
X387845Y481004D01*
X385087Y478246D01*
X380034Y476153D01*
X374566Y476153D01*
X369513Y478246D01*
X365646Y482113D01*
X364287Y485395D01*
X364204Y485555D01*
X364129Y485720D01*
X364092Y485775D01*
X364061Y485834D01*
X363954Y485980D01*
X363854Y486129D01*
X363808Y486178D01*
X363769Y486231D01*
X363639Y486357D01*
X363516Y486489D01*
X363463Y486529D01*
X363415Y486576D01*
X363267Y486679D01*
X363124Y486789D01*
X363066Y486821D01*
X363011Y486859D01*
X362849Y486937D01*
X362690Y487022D01*
X362627Y487044D01*
X362567Y487073D01*
X362394Y487124D01*
X362223Y487182D01*
X362157Y487193D01*
X362094Y487212D01*
X361915Y487235D01*
X361737Y487265D01*
X361670Y487265D01*
X361604Y487274D01*
X361424Y487267D01*
X361243Y487268D01*
X361177Y487258D01*
X361111Y487255D01*
X360935Y487219D01*
X360756Y487191D01*
X360693Y487170D01*
X360627Y487157D01*
X360459Y487094D01*
X360287Y487037D01*
X360228Y487006D01*
X360166Y486983D01*
X360010Y486893D01*
X359850Y486809D01*
X359808Y486776D01*
X359739Y486736D01*
X359357Y486424D01*
X359335Y486398D01*
X359317Y486384D01*
X320037Y447105D01*
X319963Y447018D01*
X319882Y446937D01*
X319804Y446830D01*
X319718Y446729D01*
X319659Y446631D01*
X319592Y446539D01*
X319532Y446420D01*
X319463Y446306D01*
X319421Y446200D01*
X319369Y446098D01*
X319329Y445971D01*
X319280Y445848D01*
X319255Y445737D01*
X319221Y445628D01*
X319211Y445534D01*
X319173Y445366D01*
X319155Y445042D01*
X319145Y444950D01*
X319145Y383181D01*
X317753Y379820D01*
X230037Y292105D01*
X229963Y292018D01*
X229882Y291937D01*
X229804Y291830D01*
X229718Y291729D01*
X229659Y291631D01*
X229592Y291539D01*
X229532Y291420D01*
X229463Y291306D01*
X229421Y291200D01*
X229369Y291098D01*
X229329Y290971D01*
X229280Y290848D01*
X229255Y290737D01*
X229221Y290628D01*
X229211Y290534D01*
X229173Y290366D01*
X229155Y290042D01*
X229145Y289950D01*
X229145Y255681D01*
X227753Y252320D01*
X224752Y249319D01*
X224751Y249319D01*
X216564Y241132D01*
X216490Y241045D01*
X216409Y240964D01*
X216331Y240857D01*
X216245Y240756D01*
X216186Y240658D01*
X216119Y240566D01*
X216059Y240447D01*
X215990Y240333D01*
X215948Y240227D01*
X215896Y240125D01*
X215856Y239998D01*
X215807Y239875D01*
X215782Y239764D01*
X215748Y239655D01*
X215738Y239561D01*
X215700Y239393D01*
X215682Y239069D01*
X215672Y238977D01*
X215672Y235162D01*
X213385Y229641D01*
X209159Y225415D01*
X203638Y223128D01*
X197662Y223128D01*
X192141Y225415D01*
X187915Y229641D01*
X185628Y235162D01*
X185628Y241138D01*
X187915Y246659D01*
X192141Y250885D01*
X197662Y253172D01*
X201477Y253172D01*
X201591Y253181D01*
X201705Y253180D01*
X201836Y253201D01*
X201969Y253212D01*
X202079Y253239D01*
X202192Y253257D01*
X202319Y253298D01*
X202447Y253330D01*
X202552Y253375D01*
X202661Y253411D01*
X202779Y253473D01*
X202901Y253525D01*
X202997Y253586D01*
X203098Y253639D01*
X203172Y253698D01*
X203317Y253790D01*
X203559Y254006D01*
X203632Y254064D01*
X209963Y260395D01*
X210037Y260482D01*
X210118Y260563D01*
X210196Y260670D01*
X210282Y260771D01*
X210341Y260869D01*
X210408Y260961D01*
X210468Y261080D01*
X210537Y261194D01*
X210579Y261300D01*
X210631Y261402D01*
X210671Y261529D01*
X210720Y261652D01*
X210745Y261763D01*
X210779Y261872D01*
X210789Y261966D01*
X210827Y262134D01*
X210845Y262458D01*
X210855Y262550D01*
X210855Y263457D01*
X210841Y263637D01*
X210834Y263817D01*
X210821Y263883D01*
X210815Y263949D01*
X210772Y264124D01*
X210736Y264301D01*
X210713Y264363D01*
X210697Y264428D01*
X210625Y264594D01*
X210562Y264762D01*
X210528Y264820D01*
X210502Y264881D01*
X210405Y265033D01*
X210315Y265190D01*
X210273Y265241D01*
X210237Y265297D01*
X210117Y265432D01*
X210002Y265571D01*
X209953Y265616D01*
X209908Y265665D01*
X209768Y265778D01*
X209633Y265898D01*
X209576Y265933D01*
X209524Y265975D01*
X209368Y266064D01*
X209215Y266160D01*
X209153Y266186D01*
X209096Y266219D01*
X208926Y266282D01*
X208760Y266352D01*
X208696Y266367D01*
X208633Y266391D01*
X208456Y266425D01*
X208281Y266468D01*
X208214Y266473D01*
X208149Y266485D01*
X207969Y266491D01*
X207789Y266504D01*
X207722Y266499D01*
X207656Y266501D01*
X207477Y266477D01*
X207297Y266461D01*
X207247Y266447D01*
X207167Y266436D01*
X206695Y266294D01*
X206664Y266279D01*
X206642Y266273D01*
X203638Y265028D01*
X197662Y265028D01*
X192141Y267315D01*
X187915Y271541D01*
X186133Y275842D01*
X186051Y276002D01*
X185976Y276167D01*
X185939Y276222D01*
X185908Y276281D01*
X185801Y276426D01*
X185701Y276576D01*
X185655Y276625D01*
X185615Y276678D01*
X185486Y276804D01*
X185363Y276936D01*
X185310Y276976D01*
X185262Y277023D01*
X185114Y277126D01*
X184971Y277236D01*
X184913Y277267D01*
X184858Y277306D01*
X184695Y277384D01*
X184537Y277469D01*
X184474Y277491D01*
X184414Y277520D01*
X184241Y277571D01*
X184070Y277629D01*
X184004Y277640D01*
X183940Y277659D01*
X183762Y277682D01*
X183584Y277712D01*
X183517Y277712D01*
X183451Y277720D01*
X183271Y277714D01*
X183090Y277715D01*
X183024Y277705D01*
X182958Y277702D01*
X182781Y277666D01*
X182603Y277638D01*
X182540Y277617D01*
X182474Y277604D01*
X182306Y277540D01*
X182134Y277484D01*
X182075Y277453D01*
X182013Y277430D01*
X181857Y277340D01*
X181697Y277256D01*
X181655Y277223D01*
X181586Y277183D01*
X181204Y276871D01*
X181182Y276845D01*
X181163Y276831D01*
X145464Y241132D01*
X145390Y241045D01*
X145309Y240964D01*
X145231Y240857D01*
X145145Y240756D01*
X145086Y240658D01*
X145019Y240566D01*
X144959Y240447D01*
X144890Y240333D01*
X144848Y240227D01*
X144796Y240125D01*
X144756Y239998D01*
X144707Y239875D01*
X144682Y239764D01*
X144648Y239655D01*
X144638Y239561D01*
X144600Y239393D01*
X144582Y239069D01*
X144572Y238977D01*
X144572Y235162D01*
X142285Y229641D01*
X138059Y225415D01*
X132538Y223128D01*
X126562Y223128D01*
X121041Y225415D01*
X116815Y229641D01*
X114528Y235162D01*
X114528Y241138D01*
X116815Y246659D01*
X121041Y250885D01*
X126562Y253172D01*
X130377Y253172D01*
X130491Y253181D01*
X130605Y253180D01*
X130736Y253201D01*
X130869Y253212D01*
X130979Y253239D01*
X131092Y253257D01*
X131219Y253298D01*
X131347Y253330D01*
X131452Y253375D01*
X131561Y253411D01*
X131679Y253473D01*
X131801Y253525D01*
X131897Y253586D01*
X131998Y253639D01*
X132072Y253698D01*
X132217Y253790D01*
X132459Y254006D01*
X132532Y254064D01*
X140411Y261944D01*
X140504Y262052D01*
X140603Y262155D01*
X140663Y262240D01*
X140731Y262320D01*
X140804Y262442D01*
X140886Y262559D01*
X140931Y262653D01*
X140985Y262742D01*
X141038Y262875D01*
X141100Y263003D01*
X141130Y263104D01*
X141169Y263201D01*
X141199Y263340D01*
X141240Y263476D01*
X141253Y263580D01*
X141275Y263682D01*
X141283Y263825D01*
X141301Y263966D01*
X141297Y264070D01*
X141303Y264175D01*
X141288Y264317D01*
X141283Y264459D01*
X141262Y264561D01*
X141251Y264665D01*
X141213Y264803D01*
X141185Y264942D01*
X141148Y265040D01*
X141120Y265141D01*
X141061Y265271D01*
X141010Y265404D01*
X140958Y265494D01*
X140914Y265589D01*
X140835Y265708D01*
X140764Y265831D01*
X140697Y265912D01*
X140639Y265999D01*
X140541Y266103D01*
X140451Y266213D01*
X140373Y266282D01*
X140301Y266358D01*
X140188Y266445D01*
X140081Y266539D01*
X139993Y266595D01*
X139910Y266659D01*
X139784Y266726D01*
X139663Y266802D01*
X139567Y266842D01*
X139475Y266892D01*
X139340Y266938D01*
X139209Y266993D01*
X139107Y267018D01*
X139008Y267052D01*
X138868Y267076D01*
X138729Y267109D01*
X138625Y267117D01*
X138522Y267134D01*
X138379Y267135D01*
X138237Y267146D01*
X138133Y267137D01*
X138029Y267137D01*
X137888Y267115D01*
X137746Y267103D01*
X137671Y267081D01*
X137541Y267061D01*
X137129Y266925D01*
X137090Y266914D01*
X132538Y265028D01*
X126562Y265028D01*
X121041Y267315D01*
X116815Y271541D01*
X114528Y277062D01*
X114528Y283038D01*
X116815Y288559D01*
X121041Y292785D01*
X126562Y295072D01*
X132538Y295072D01*
X138059Y292785D01*
X142285Y288559D01*
X144572Y283038D01*
X144572Y277062D01*
X142686Y272510D01*
X142642Y272374D01*
X142589Y272241D01*
X142567Y272140D01*
X142535Y272040D01*
X142513Y271899D01*
X142483Y271760D01*
X142477Y271655D01*
X142461Y271552D01*
X142463Y271410D01*
X142455Y271267D01*
X142466Y271163D01*
X142467Y271059D01*
X142492Y270918D01*
X142507Y270777D01*
X142535Y270676D01*
X142553Y270573D01*
X142600Y270439D01*
X142638Y270301D01*
X142681Y270206D01*
X142716Y270107D01*
X142784Y269982D01*
X142844Y269853D01*
X142902Y269766D01*
X142952Y269674D01*
X143040Y269561D01*
X143119Y269443D01*
X143190Y269367D01*
X143255Y269285D01*
X143359Y269188D01*
X143457Y269084D01*
X143540Y269020D01*
X143616Y268949D01*
X143735Y268870D01*
X143848Y268783D01*
X143940Y268734D01*
X144027Y268676D01*
X144157Y268618D01*
X144283Y268550D01*
X144382Y268516D01*
X144477Y268473D01*
X144615Y268437D01*
X144750Y268390D01*
X144853Y268373D01*
X144954Y268346D01*
X145095Y268332D01*
X145236Y268308D01*
X145341Y268307D01*
X145445Y268297D01*
X145587Y268306D01*
X145729Y268305D01*
X145833Y268321D01*
X145937Y268327D01*
X146076Y268359D01*
X146217Y268381D01*
X146316Y268414D01*
X146418Y268437D01*
X146550Y268491D01*
X146685Y268536D01*
X146778Y268584D01*
X146875Y268623D01*
X146996Y268698D01*
X147123Y268763D01*
X147184Y268812D01*
X147296Y268880D01*
X147625Y269164D01*
X147656Y269189D01*
X186220Y307753D01*
X187228Y308170D01*
X187388Y308252D01*
X187552Y308328D01*
X187607Y308365D01*
X187667Y308395D01*
X187812Y308502D01*
X187962Y308603D01*
X188010Y308648D01*
X188064Y308688D01*
X188189Y308817D01*
X188321Y308941D01*
X188362Y308994D01*
X188408Y309041D01*
X188512Y309189D01*
X188621Y309332D01*
X188653Y309391D01*
X188691Y309445D01*
X188769Y309608D01*
X188855Y309767D01*
X188876Y309830D01*
X188905Y309890D01*
X188956Y310063D01*
X189015Y310234D01*
X189026Y310299D01*
X189044Y310363D01*
X189067Y310542D01*
X189097Y310720D01*
X189098Y310787D01*
X189106Y310852D01*
X189099Y311033D01*
X189100Y311213D01*
X189090Y311279D01*
X189087Y311345D01*
X189051Y311522D01*
X189023Y311701D01*
X189003Y311764D01*
X188990Y311829D01*
X188926Y311998D01*
X188869Y312169D01*
X188838Y312228D01*
X188815Y312290D01*
X188725Y312447D01*
X188641Y312607D01*
X188608Y312648D01*
X188568Y312718D01*
X188256Y313099D01*
X188231Y313122D01*
X188216Y313140D01*
X187915Y313441D01*
X185628Y318962D01*
X185628Y324938D01*
X186519Y327089D01*
X186575Y327261D01*
X186637Y327430D01*
X186650Y327495D01*
X186670Y327558D01*
X186697Y327737D01*
X186732Y327914D01*
X186734Y327980D01*
X186744Y328046D01*
X186742Y328227D01*
X186747Y328407D01*
X186739Y328473D01*
X186738Y328540D01*
X186706Y328717D01*
X186683Y328896D01*
X186664Y328960D01*
X186652Y329025D01*
X186593Y329196D01*
X186540Y329369D01*
X186511Y329428D01*
X186489Y329491D01*
X186403Y329649D01*
X186324Y329812D01*
X186285Y329866D01*
X186253Y329924D01*
X186143Y330067D01*
X186038Y330214D01*
X185991Y330261D01*
X185951Y330314D01*
X185818Y330437D01*
X185691Y330565D01*
X185638Y330604D01*
X185589Y330649D01*
X185438Y330749D01*
X185293Y330855D01*
X185233Y330885D01*
X185178Y330922D01*
X185013Y330996D01*
X184852Y331078D01*
X184789Y331098D01*
X184728Y331125D01*
X184554Y331172D01*
X184382Y331226D01*
X184329Y331232D01*
X184252Y331253D01*
X183761Y331302D01*
X183727Y331300D01*
X183704Y331302D01*
X153097Y331302D01*
X152983Y331293D01*
X152869Y331294D01*
X152738Y331273D01*
X152605Y331262D01*
X152495Y331235D01*
X152382Y331217D01*
X152255Y331176D01*
X152127Y331144D01*
X152022Y331099D01*
X151913Y331063D01*
X151795Y331001D01*
X151673Y330949D01*
X151577Y330888D01*
X151476Y330835D01*
X151402Y330776D01*
X151257Y330684D01*
X151015Y330468D01*
X150942Y330410D01*
X145464Y324932D01*
X145390Y324845D01*
X145309Y324764D01*
X145231Y324657D01*
X145145Y324556D01*
X145086Y324458D01*
X145019Y324366D01*
X144959Y324247D01*
X144890Y324133D01*
X144848Y324027D01*
X144796Y323925D01*
X144756Y323798D01*
X144707Y323675D01*
X144682Y323564D01*
X144648Y323455D01*
X144638Y323361D01*
X144600Y323193D01*
X144582Y322869D01*
X144572Y322777D01*
X144572Y318962D01*
X142285Y313441D01*
X138059Y309215D01*
X132538Y306928D01*
X126562Y306928D01*
X121041Y309215D01*
X116815Y313441D01*
X114528Y318962D01*
X114528Y324938D01*
X116815Y330459D01*
X121041Y334685D01*
X126562Y336972D01*
X130377Y336972D01*
X130491Y336981D01*
X130605Y336980D01*
X130736Y337001D01*
X130869Y337012D01*
X130979Y337039D01*
X131092Y337057D01*
X131219Y337098D01*
X131347Y337130D01*
X131452Y337175D01*
X131561Y337211D01*
X131679Y337273D01*
X131801Y337325D01*
X131897Y337386D01*
X131998Y337439D01*
X132072Y337498D01*
X132217Y337590D01*
X132459Y337806D01*
X132532Y337864D01*
X139866Y345198D01*
X139866Y345199D01*
X140411Y345744D01*
X140504Y345852D01*
X140603Y345955D01*
X140663Y346040D01*
X140731Y346120D01*
X140804Y346242D01*
X140886Y346359D01*
X140931Y346453D01*
X140985Y346542D01*
X141038Y346675D01*
X141100Y346803D01*
X141130Y346904D01*
X141169Y347001D01*
X141199Y347140D01*
X141240Y347276D01*
X141253Y347380D01*
X141275Y347482D01*
X141283Y347625D01*
X141301Y347766D01*
X141297Y347870D01*
X141303Y347975D01*
X141288Y348117D01*
X141283Y348259D01*
X141262Y348361D01*
X141251Y348465D01*
X141213Y348603D01*
X141185Y348742D01*
X141148Y348840D01*
X141120Y348941D01*
X141061Y349071D01*
X141010Y349204D01*
X140958Y349294D01*
X140914Y349389D01*
X140835Y349508D01*
X140764Y349631D01*
X140697Y349712D01*
X140639Y349799D01*
X140541Y349903D01*
X140451Y350013D01*
X140373Y350082D01*
X140301Y350158D01*
X140188Y350245D01*
X140081Y350339D01*
X139993Y350395D01*
X139910Y350459D01*
X139784Y350526D01*
X139663Y350602D01*
X139567Y350642D01*
X139475Y350692D01*
X139340Y350738D01*
X139209Y350793D01*
X139107Y350818D01*
X139008Y350852D01*
X138868Y350876D01*
X138729Y350909D01*
X138625Y350917D01*
X138522Y350934D01*
X138379Y350935D01*
X138237Y350946D01*
X138133Y350937D01*
X138029Y350937D01*
X137888Y350915D01*
X137746Y350903D01*
X137671Y350881D01*
X137541Y350861D01*
X137129Y350725D01*
X137090Y350714D01*
X132538Y348828D01*
X126562Y348828D01*
X121041Y351115D01*
X116815Y355341D01*
X114528Y360862D01*
X114528Y366838D01*
X116815Y372359D01*
X121041Y376585D01*
X126562Y378872D01*
X130377Y378872D01*
X130491Y378881D01*
X130605Y378880D01*
X130736Y378901D01*
X130869Y378912D01*
X130979Y378939D01*
X131092Y378957D01*
X131219Y378998D01*
X131347Y379030D01*
X131452Y379075D01*
X131561Y379111D01*
X131679Y379173D01*
X131801Y379225D01*
X131897Y379286D01*
X131998Y379339D01*
X132072Y379398D01*
X132217Y379490D01*
X132459Y379706D01*
X132532Y379764D01*
X139772Y387004D01*
X140411Y387644D01*
X140504Y387753D01*
X140603Y387855D01*
X140663Y387940D01*
X140731Y388020D01*
X140804Y388142D01*
X140886Y388259D01*
X140931Y388353D01*
X140985Y388442D01*
X141038Y388575D01*
X141100Y388703D01*
X141130Y388803D01*
X141169Y388900D01*
X141199Y389040D01*
X141240Y389176D01*
X141253Y389280D01*
X141275Y389382D01*
X141283Y389525D01*
X141301Y389666D01*
X141297Y389770D01*
X141303Y389875D01*
X141288Y390017D01*
X141283Y390159D01*
X141262Y390261D01*
X141251Y390365D01*
X141214Y390500D01*
X141265Y390478D01*
X141357Y390429D01*
X141492Y390383D01*
X141623Y390327D01*
X141725Y390303D01*
X141824Y390269D01*
X141964Y390245D01*
X142103Y390212D01*
X142207Y390204D01*
X142310Y390186D01*
X142453Y390185D01*
X142595Y390175D01*
X142699Y390184D01*
X142803Y390183D01*
X142944Y390205D01*
X143086Y390218D01*
X143162Y390240D01*
X143291Y390260D01*
X143703Y390396D01*
X143742Y390407D01*
X146134Y391398D01*
X191519Y391398D01*
X191550Y391400D01*
X191580Y391398D01*
X191795Y391420D01*
X192011Y391438D01*
X192040Y391445D01*
X192071Y391448D01*
X192280Y391505D01*
X192490Y391556D01*
X192518Y391568D01*
X192547Y391576D01*
X192744Y391666D01*
X192943Y391751D01*
X192969Y391767D01*
X192997Y391780D01*
X193177Y391900D01*
X193359Y392016D01*
X193382Y392036D01*
X193407Y392053D01*
X193566Y392201D01*
X193727Y392345D01*
X193746Y392368D01*
X193769Y392389D01*
X193902Y392561D01*
X194037Y392729D01*
X194052Y392755D01*
X194071Y392779D01*
X194174Y392970D01*
X194281Y393157D01*
X194292Y393186D01*
X194306Y393213D01*
X194377Y393417D01*
X194452Y393620D01*
X194458Y393650D01*
X194468Y393679D01*
X194506Y393893D01*
X194547Y394104D01*
X194548Y394134D01*
X194553Y394165D01*
X194556Y394382D01*
X194563Y394597D01*
X194559Y394627D01*
X194559Y394658D01*
X194526Y394872D01*
X194498Y395086D01*
X194489Y395115D01*
X194485Y395146D01*
X194418Y395351D01*
X194356Y395558D01*
X194342Y395586D01*
X194333Y395615D01*
X194234Y395807D01*
X194139Y396002D01*
X194121Y396027D01*
X194107Y396054D01*
X193978Y396227D01*
X193853Y396404D01*
X193832Y396426D01*
X193814Y396450D01*
X193751Y396507D01*
X193507Y396755D01*
X193377Y396849D01*
X193310Y396910D01*
X193180Y397005D01*
X191904Y398280D01*
X190844Y399741D01*
X190024Y401349D01*
X189584Y402703D01*
X200650Y402703D01*
X200726Y402709D01*
X200802Y402706D01*
X200971Y402729D01*
X201141Y402743D01*
X201215Y402761D01*
X201291Y402771D01*
X201455Y402820D01*
X201620Y402861D01*
X201690Y402891D01*
X201763Y402913D01*
X201917Y402988D01*
X202074Y403056D01*
X202138Y403097D01*
X202206Y403130D01*
X202346Y403229D01*
X202490Y403321D01*
X202546Y403372D01*
X202609Y403416D01*
X202730Y403536D01*
X202858Y403650D01*
X202906Y403709D01*
X202960Y403762D01*
X202960Y403763D01*
X203061Y403901D01*
X203168Y404034D01*
X203206Y404100D01*
X203250Y404162D01*
X203327Y404314D01*
X203412Y404463D01*
X203438Y404534D01*
X203473Y404602D01*
X203524Y404765D01*
X203584Y404925D01*
X203598Y405000D01*
X203621Y405073D01*
X203633Y405177D01*
X203678Y405409D01*
X203686Y405645D01*
X203697Y405750D01*
X203697Y416816D01*
X205051Y416376D01*
X206659Y415556D01*
X208120Y414496D01*
X209396Y413220D01*
X210456Y411759D01*
X210866Y410955D01*
X210898Y410903D01*
X210923Y410848D01*
X211027Y410694D01*
X211125Y410535D01*
X211165Y410489D01*
X211199Y410439D01*
X211326Y410303D01*
X211448Y410163D01*
X211495Y410124D01*
X211537Y410079D01*
X211684Y409966D01*
X211827Y409847D01*
X211880Y409816D01*
X211928Y409779D01*
X212092Y409691D01*
X212252Y409596D01*
X212309Y409574D01*
X212363Y409546D01*
X212539Y409485D01*
X212712Y409418D01*
X212772Y409405D01*
X212830Y409386D01*
X213013Y409354D01*
X213195Y409316D01*
X213256Y409313D01*
X213316Y409303D01*
X213502Y409302D01*
X213688Y409293D01*
X213748Y409300D01*
X213809Y409300D01*
X213993Y409329D01*
X214178Y409350D01*
X214236Y409367D01*
X214297Y409377D01*
X214473Y409435D01*
X214652Y409486D01*
X214707Y409512D01*
X214765Y409531D01*
X214931Y409617D01*
X215098Y409696D01*
X215149Y409730D01*
X215203Y409759D01*
X215285Y409824D01*
X215505Y409975D01*
X215656Y410120D01*
X215736Y410184D01*
X224963Y419411D01*
X225037Y419498D01*
X225118Y419578D01*
X225196Y419685D01*
X225282Y419787D01*
X225341Y419885D01*
X225408Y419977D01*
X225468Y420095D01*
X225537Y420209D01*
X225579Y420315D01*
X225631Y420417D01*
X225671Y420544D01*
X225720Y420667D01*
X225745Y420779D01*
X225779Y420888D01*
X225789Y420981D01*
X225827Y421149D01*
X225845Y421473D01*
X225855Y421566D01*
X225855Y551819D01*
X227247Y555180D01*
X284820Y612753D01*
X288181Y614145D01*
X434174Y614145D01*
X434287Y614154D01*
X434402Y614153D01*
X434533Y614174D01*
X434665Y614185D01*
X434776Y614212D01*
X434889Y614230D01*
X435015Y614271D01*
X435144Y614303D01*
X435249Y614348D01*
X435358Y614384D01*
X435476Y614446D01*
X435598Y614498D01*
X435694Y614559D01*
X435795Y614612D01*
X435869Y614671D01*
X436014Y614763D01*
X436256Y614979D01*
X436328Y615037D01*
X448663Y627371D01*
X449642Y628351D01*
X449682Y628398D01*
X449727Y628439D01*
X449841Y628586D01*
X449962Y628727D01*
X449993Y628780D01*
X450031Y628828D01*
X450121Y628991D01*
X450217Y629150D01*
X450239Y629206D01*
X450269Y629260D01*
X450331Y629435D01*
X450400Y629608D01*
X450413Y629668D01*
X450433Y629725D01*
X450466Y629908D01*
X450506Y630090D01*
X450510Y630151D01*
X450521Y630211D01*
X450524Y630396D01*
X450534Y630582D01*
X450528Y630643D01*
X450529Y630704D01*
X450502Y630888D01*
X450482Y631073D01*
X450466Y631132D01*
X450457Y631192D01*
X450400Y631369D01*
X450351Y631548D01*
X450326Y631604D01*
X450307Y631662D01*
X450223Y631828D01*
X450145Y631997D01*
X450112Y632047D01*
X450084Y632102D01*
X449974Y632252D01*
X449870Y632406D01*
X449828Y632451D01*
X449792Y632500D01*
X449660Y632630D01*
X449532Y632766D01*
X449484Y632803D01*
X449440Y632846D01*
X449353Y632903D01*
X449141Y633066D01*
X448957Y633165D01*
X448871Y633221D01*
X448159Y633584D01*
X446861Y634527D01*
X445727Y635661D01*
X445424Y636078D01*
X445312Y636209D01*
X445205Y636346D01*
X445151Y636396D01*
X445103Y636453D01*
X444970Y636564D01*
X444844Y636681D01*
X444782Y636722D01*
X444725Y636770D01*
X444576Y636859D01*
X444432Y636954D01*
X444365Y636985D01*
X444301Y637023D01*
X444140Y637086D01*
X443983Y637157D01*
X443911Y637176D01*
X443842Y637203D01*
X443674Y637240D01*
X443506Y637285D01*
X443432Y637292D01*
X443360Y637308D01*
X443188Y637317D01*
X443015Y637334D01*
X442941Y637329D01*
X442867Y637333D01*
X442695Y637314D01*
X442523Y637303D01*
X442451Y637287D01*
X442377Y637278D01*
X442211Y637232D01*
X442042Y637193D01*
X441973Y637165D01*
X441902Y637145D01*
X441746Y637073D01*
X441585Y637007D01*
X441522Y636969D01*
X441455Y636937D01*
X441312Y636840D01*
X441164Y636750D01*
X441108Y636702D01*
X441047Y636660D01*
X440921Y636541D01*
X440790Y636428D01*
X440743Y636371D01*
X440689Y636320D01*
X440584Y636183D01*
X440473Y636050D01*
X440445Y635999D01*
X440391Y635927D01*
X440160Y635492D01*
X440152Y635468D01*
X440143Y635453D01*
X439754Y634513D01*
X435887Y630646D01*
X430834Y628553D01*
X425366Y628553D01*
X420313Y630646D01*
X417555Y633404D01*
X417497Y633454D01*
X417444Y633509D01*
X417309Y633613D01*
X417179Y633724D01*
X417114Y633763D01*
X417053Y633810D01*
X416903Y633890D01*
X416756Y633979D01*
X416685Y634007D01*
X416618Y634043D01*
X416457Y634098D01*
X416298Y634162D01*
X416224Y634178D01*
X416152Y634203D01*
X415983Y634231D01*
X415816Y634268D01*
X415740Y634273D01*
X415665Y634285D01*
X415494Y634286D01*
X415324Y634296D01*
X415248Y634288D01*
X415172Y634288D01*
X415003Y634262D01*
X414833Y634244D01*
X414760Y634224D01*
X414685Y634212D01*
X414522Y634158D01*
X414358Y634113D01*
X414288Y634081D01*
X414216Y634058D01*
X414065Y633979D01*
X413909Y633907D01*
X413846Y633865D01*
X413778Y633830D01*
X413696Y633764D01*
X413500Y633632D01*
X413328Y633470D01*
X413245Y633404D01*
X410487Y630646D01*
X405434Y628553D01*
X399966Y628553D01*
X394913Y630646D01*
X392155Y633404D01*
X392097Y633454D01*
X392044Y633509D01*
X391909Y633613D01*
X391779Y633724D01*
X391714Y633763D01*
X391653Y633810D01*
X391503Y633890D01*
X391356Y633979D01*
X391285Y634007D01*
X391218Y634043D01*
X391057Y634098D01*
X390898Y634162D01*
X390824Y634178D01*
X390752Y634203D01*
X390583Y634231D01*
X390416Y634268D01*
X390340Y634273D01*
X390265Y634285D01*
X390094Y634286D01*
X389924Y634296D01*
X389848Y634288D01*
X389772Y634288D01*
X389603Y634262D01*
X389433Y634244D01*
X389360Y634224D01*
X389285Y634212D01*
X389122Y634158D01*
X388958Y634113D01*
X388888Y634081D01*
X388816Y634058D01*
X388665Y633979D01*
X388509Y633907D01*
X388446Y633865D01*
X388378Y633830D01*
X388296Y633764D01*
X388100Y633632D01*
X387928Y633470D01*
X387845Y633404D01*
X385087Y630646D01*
X380034Y628553D01*
X374566Y628553D01*
X369513Y630646D01*
X365646Y634513D01*
X363553Y639566D01*
X363553Y645034D01*
X363923Y645926D01*
X363978Y646097D01*
X364041Y646267D01*
X364053Y646332D01*
X364074Y646395D01*
X364101Y646574D01*
X364135Y646751D01*
X364137Y646817D01*
X364147Y646883D01*
X364145Y647064D01*
X364151Y647244D01*
X364142Y647310D01*
X364141Y647377D01*
X364110Y647554D01*
X364086Y647733D01*
X364067Y647797D01*
X364055Y647862D01*
X363996Y648033D01*
X363944Y648206D01*
X363914Y648265D01*
X363893Y648328D01*
X363806Y648486D01*
X363727Y648649D01*
X363688Y648703D01*
X363657Y648761D01*
X363546Y648904D01*
X363441Y649051D01*
X363395Y649098D01*
X363354Y649151D01*
X363222Y649273D01*
X363095Y649402D01*
X363041Y649441D01*
X362992Y649486D01*
X362842Y649586D01*
X362696Y649692D01*
X362637Y649722D01*
X362581Y649759D01*
X362417Y649833D01*
X362255Y649915D01*
X362192Y649935D01*
X362131Y649962D01*
X361958Y650009D01*
X361785Y650063D01*
X361732Y650069D01*
X361655Y650090D01*
X361164Y650139D01*
X361131Y650137D01*
X361107Y650139D01*
X508Y650139D01*
X432Y650133D01*
X356Y650135D01*
X187Y650113D01*
X16Y650099D01*
X-58Y650081D01*
X-133Y650071D01*
X-297Y650022D01*
X-463Y649981D01*
X-533Y649951D01*
X-606Y649929D01*
X-759Y649853D01*
X-916Y649786D01*
X-980Y649745D01*
X-1049Y649712D01*
X-1188Y649613D01*
X-1332Y649521D01*
X-1389Y649470D01*
X-1451Y649426D01*
X-1573Y649306D01*
X-1700Y649192D01*
X-1748Y649133D01*
X-1802Y649079D01*
X-1903Y648941D01*
X-2010Y648808D01*
X-2047Y648742D01*
X-2092Y648681D01*
X-2169Y648528D01*
X-2254Y648380D01*
X-2280Y648308D01*
X-2315Y648240D01*
X-2366Y648077D01*
X-2425Y647917D01*
X-2440Y647842D01*
X-2463Y647770D01*
X-2475Y647665D01*
X-2520Y647433D01*
X-2527Y647197D01*
X-2539Y647092D01*
X-2539Y38608D01*
X-2533Y38532D01*
X-2535Y38456D01*
X-2513Y38287D01*
X-2499Y38116D01*
X-2481Y38042D01*
X-2471Y37967D01*
X-2422Y37803D01*
X-2381Y37637D01*
X-2351Y37568D01*
X-2329Y37494D01*
X-2253Y37341D01*
X-2186Y37184D01*
X-2145Y37120D01*
X-2112Y37051D01*
X-2013Y36912D01*
X-1921Y36768D01*
X-1870Y36711D01*
X-1826Y36649D01*
X-1706Y36528D01*
X-1592Y36400D01*
X-1533Y36352D01*
X-1480Y36298D01*
X-1341Y36197D01*
X-1209Y36090D01*
X-1142Y36053D01*
X-1081Y36008D01*
X-928Y35931D01*
X-780Y35846D01*
X-708Y35820D01*
X-640Y35785D01*
X-477Y35734D01*
X-317Y35675D01*
X-243Y35660D01*
X-170Y35637D01*
X-65Y35625D01*
X167Y35580D01*
X403Y35573D01*
X508Y35561D01*
X344242Y35561D01*
X344280Y35564D01*
G37*
G36*
X674480Y35564D02*
X674480Y35564D01*
X674518Y35562D01*
X674726Y35584D01*
X674933Y35601D01*
X674970Y35610D01*
X675008Y35614D01*
X675210Y35669D01*
X675412Y35719D01*
X675447Y35734D01*
X675484Y35745D01*
X675674Y35832D01*
X675866Y35914D01*
X675898Y35934D01*
X675932Y35950D01*
X676106Y36067D01*
X676282Y36179D01*
X676310Y36204D01*
X676342Y36226D01*
X676494Y36369D01*
X676650Y36508D01*
X676674Y36537D01*
X676701Y36563D01*
X676829Y36730D01*
X676960Y36892D01*
X676978Y36924D01*
X677002Y36955D01*
X677101Y37139D01*
X677204Y37320D01*
X677217Y37356D01*
X677235Y37390D01*
X677302Y37587D01*
X677375Y37783D01*
X677382Y37820D01*
X677395Y37856D01*
X677430Y38063D01*
X677470Y38267D01*
X677471Y38305D01*
X677477Y38343D01*
X677479Y38552D01*
X677485Y38760D01*
X677480Y38798D01*
X677480Y38836D01*
X677448Y39043D01*
X677421Y39249D01*
X677410Y39286D01*
X677404Y39323D01*
X677339Y39522D01*
X677278Y39721D01*
X677261Y39756D01*
X677250Y39792D01*
X677153Y39977D01*
X677061Y40165D01*
X677039Y40196D01*
X677022Y40230D01*
X676964Y40302D01*
X676776Y40567D01*
X676655Y40689D01*
X676596Y40763D01*
X674246Y43113D01*
X672150Y48173D01*
X672130Y48359D01*
X672113Y48567D01*
X672104Y48604D01*
X672100Y48642D01*
X672045Y48843D01*
X671995Y49046D01*
X671980Y49081D01*
X671969Y49118D01*
X671882Y49308D01*
X671800Y49499D01*
X671780Y49531D01*
X671764Y49566D01*
X671647Y49740D01*
X671535Y49915D01*
X671510Y49944D01*
X671488Y49975D01*
X671345Y50127D01*
X671206Y50283D01*
X671177Y50307D01*
X671151Y50335D01*
X670985Y50462D01*
X670822Y50593D01*
X670789Y50612D01*
X670759Y50635D01*
X670575Y50734D01*
X670394Y50837D01*
X670358Y50850D01*
X670324Y50868D01*
X670127Y50936D01*
X669931Y51009D01*
X669894Y51016D01*
X669858Y51028D01*
X669651Y51064D01*
X669447Y51103D01*
X669409Y51105D01*
X669371Y51111D01*
X669162Y51112D01*
X668954Y51119D01*
X668916Y51114D01*
X668878Y51114D01*
X668671Y51082D01*
X668465Y51054D01*
X668428Y51043D01*
X668391Y51037D01*
X668192Y50972D01*
X667993Y50912D01*
X667958Y50895D01*
X667922Y50883D01*
X667737Y50787D01*
X667549Y50695D01*
X667518Y50673D01*
X667484Y50655D01*
X667412Y50597D01*
X667147Y50410D01*
X667025Y50289D01*
X666951Y50230D01*
X662605Y45884D01*
X654491Y42523D01*
X645709Y42523D01*
X637595Y45884D01*
X631384Y52095D01*
X628023Y60209D01*
X628023Y68991D01*
X631384Y77105D01*
X637594Y83316D01*
X645969Y86785D01*
X646003Y86802D01*
X646039Y86815D01*
X646223Y86915D01*
X646408Y87010D01*
X646439Y87032D01*
X646473Y87051D01*
X646637Y87178D01*
X646805Y87303D01*
X646832Y87330D01*
X646862Y87353D01*
X647004Y87506D01*
X647150Y87656D01*
X647172Y87687D01*
X647198Y87715D01*
X647313Y87889D01*
X647433Y88060D01*
X647449Y88094D01*
X647470Y88126D01*
X647556Y88316D01*
X647647Y88504D01*
X647658Y88541D01*
X647673Y88576D01*
X647727Y88777D01*
X647786Y88978D01*
X647791Y89016D01*
X647801Y89052D01*
X647822Y89260D01*
X647848Y89467D01*
X647846Y89505D01*
X647850Y89543D01*
X647837Y89752D01*
X647829Y89960D01*
X647822Y89998D01*
X647819Y90036D01*
X647773Y90239D01*
X647731Y90444D01*
X647718Y90479D01*
X647709Y90517D01*
X647631Y90710D01*
X647557Y90905D01*
X647538Y90938D01*
X647523Y90974D01*
X647414Y91152D01*
X647310Y91332D01*
X647286Y91362D01*
X647266Y91394D01*
X647130Y91553D01*
X646998Y91714D01*
X646969Y91739D01*
X646944Y91768D01*
X646784Y91902D01*
X646628Y92041D01*
X646595Y92061D01*
X646566Y92085D01*
X646485Y92130D01*
X646210Y92303D01*
X646051Y92370D01*
X645969Y92415D01*
X637595Y95884D01*
X631384Y102095D01*
X628023Y110209D01*
X628023Y118991D01*
X631397Y127136D01*
X631413Y127155D01*
X631535Y127287D01*
X631572Y127342D01*
X631615Y127393D01*
X631709Y127548D01*
X631808Y127698D01*
X631836Y127758D01*
X631870Y127816D01*
X631937Y127983D01*
X632011Y128148D01*
X632028Y128212D01*
X632053Y128274D01*
X632092Y128450D01*
X632139Y128624D01*
X632145Y128690D01*
X632160Y128755D01*
X632170Y128936D01*
X632188Y129115D01*
X632184Y129181D01*
X632187Y129248D01*
X632168Y129428D01*
X632157Y129607D01*
X632142Y129672D01*
X632135Y129738D01*
X632087Y129912D01*
X632047Y130088D01*
X632022Y130150D01*
X632005Y130214D01*
X631929Y130378D01*
X631861Y130545D01*
X631827Y130602D01*
X631799Y130663D01*
X631698Y130812D01*
X631604Y130966D01*
X631560Y131017D01*
X631523Y131072D01*
X631400Y131203D01*
X631282Y131340D01*
X631231Y131383D01*
X631186Y131431D01*
X631042Y131541D01*
X630904Y131657D01*
X630858Y131683D01*
X630794Y131732D01*
X630359Y131965D01*
X630328Y131976D01*
X630307Y131987D01*
X629679Y132248D01*
X572747Y189179D01*
X571355Y192540D01*
X571355Y478342D01*
X571346Y478455D01*
X571347Y478570D01*
X571326Y478701D01*
X571315Y478833D01*
X571288Y478944D01*
X571270Y479057D01*
X571229Y479183D01*
X571197Y479312D01*
X571152Y479417D01*
X571116Y479526D01*
X571054Y479644D01*
X571002Y479766D01*
X570941Y479862D01*
X570888Y479963D01*
X570829Y480037D01*
X570737Y480182D01*
X570521Y480424D01*
X570463Y480496D01*
X569955Y481004D01*
X569897Y481054D01*
X569844Y481109D01*
X569709Y481213D01*
X569579Y481324D01*
X569514Y481363D01*
X569453Y481410D01*
X569303Y481490D01*
X569156Y481579D01*
X569085Y481607D01*
X569018Y481643D01*
X568857Y481698D01*
X568698Y481762D01*
X568624Y481778D01*
X568552Y481803D01*
X568383Y481831D01*
X568216Y481868D01*
X568140Y481873D01*
X568065Y481885D01*
X567895Y481886D01*
X567724Y481896D01*
X567648Y481888D01*
X567572Y481888D01*
X567403Y481862D01*
X567233Y481844D01*
X567160Y481824D01*
X567085Y481812D01*
X566922Y481758D01*
X566758Y481713D01*
X566688Y481681D01*
X566616Y481658D01*
X566464Y481579D01*
X566309Y481507D01*
X566246Y481465D01*
X566178Y481430D01*
X566096Y481364D01*
X565900Y481232D01*
X565728Y481070D01*
X565645Y481004D01*
X565137Y480496D01*
X565063Y480409D01*
X564982Y480329D01*
X564904Y480222D01*
X564818Y480120D01*
X564759Y480023D01*
X564692Y479930D01*
X564632Y479812D01*
X564563Y479698D01*
X564521Y479592D01*
X564469Y479490D01*
X564429Y479363D01*
X564380Y479240D01*
X564355Y479128D01*
X564321Y479019D01*
X564311Y478926D01*
X564273Y478758D01*
X564255Y478434D01*
X564245Y478342D01*
X564245Y375481D01*
X562853Y372120D01*
X559851Y369119D01*
X370339Y179607D01*
X370265Y179520D01*
X370184Y179439D01*
X370106Y179332D01*
X370020Y179231D01*
X369961Y179133D01*
X369894Y179041D01*
X369834Y178922D01*
X369765Y178808D01*
X369723Y178702D01*
X369671Y178600D01*
X369631Y178473D01*
X369582Y178350D01*
X369557Y178239D01*
X369523Y178130D01*
X369513Y178036D01*
X369475Y177868D01*
X369457Y177544D01*
X369447Y177452D01*
X369447Y175166D01*
X367354Y170113D01*
X364596Y167355D01*
X364546Y167297D01*
X364491Y167244D01*
X364387Y167109D01*
X364276Y166979D01*
X364237Y166914D01*
X364190Y166853D01*
X364110Y166703D01*
X364021Y166556D01*
X363993Y166485D01*
X363957Y166418D01*
X363902Y166257D01*
X363838Y166098D01*
X363822Y166024D01*
X363797Y165952D01*
X363769Y165783D01*
X363732Y165616D01*
X363727Y165540D01*
X363715Y165465D01*
X363714Y165294D01*
X363704Y165124D01*
X363712Y165048D01*
X363712Y164972D01*
X363738Y164803D01*
X363756Y164633D01*
X363776Y164560D01*
X363788Y164485D01*
X363842Y164322D01*
X363887Y164158D01*
X363919Y164088D01*
X363942Y164016D01*
X364021Y163865D01*
X364093Y163709D01*
X364135Y163646D01*
X364170Y163578D01*
X364236Y163496D01*
X364368Y163300D01*
X364530Y163128D01*
X364596Y163045D01*
X367354Y160287D01*
X369447Y155234D01*
X369447Y149766D01*
X367354Y144713D01*
X364596Y141955D01*
X364546Y141897D01*
X364491Y141844D01*
X364387Y141709D01*
X364276Y141579D01*
X364237Y141514D01*
X364190Y141453D01*
X364110Y141303D01*
X364021Y141156D01*
X363993Y141085D01*
X363957Y141018D01*
X363902Y140857D01*
X363838Y140698D01*
X363822Y140624D01*
X363797Y140552D01*
X363769Y140383D01*
X363732Y140216D01*
X363727Y140140D01*
X363715Y140065D01*
X363714Y139894D01*
X363704Y139724D01*
X363712Y139648D01*
X363712Y139572D01*
X363738Y139403D01*
X363756Y139233D01*
X363776Y139160D01*
X363788Y139085D01*
X363842Y138922D01*
X363887Y138758D01*
X363919Y138688D01*
X363942Y138616D01*
X364021Y138465D01*
X364093Y138309D01*
X364135Y138246D01*
X364170Y138178D01*
X364236Y138096D01*
X364368Y137900D01*
X364530Y137728D01*
X364596Y137645D01*
X367354Y134887D01*
X369447Y129834D01*
X369447Y124366D01*
X367354Y119313D01*
X364596Y116555D01*
X364546Y116497D01*
X364491Y116444D01*
X364387Y116309D01*
X364276Y116179D01*
X364237Y116114D01*
X364190Y116053D01*
X364110Y115903D01*
X364021Y115756D01*
X363993Y115685D01*
X363957Y115618D01*
X363902Y115457D01*
X363838Y115298D01*
X363822Y115224D01*
X363797Y115152D01*
X363769Y114983D01*
X363732Y114816D01*
X363727Y114740D01*
X363715Y114665D01*
X363714Y114494D01*
X363704Y114324D01*
X363712Y114248D01*
X363712Y114172D01*
X363738Y114003D01*
X363756Y113833D01*
X363776Y113760D01*
X363788Y113685D01*
X363842Y113522D01*
X363887Y113358D01*
X363919Y113288D01*
X363942Y113216D01*
X364021Y113065D01*
X364093Y112909D01*
X364135Y112846D01*
X364170Y112778D01*
X364236Y112696D01*
X364368Y112500D01*
X364530Y112328D01*
X364596Y112245D01*
X367354Y109487D01*
X369447Y104434D01*
X369447Y98966D01*
X367354Y93913D01*
X364596Y91155D01*
X364546Y91097D01*
X364491Y91044D01*
X364387Y90909D01*
X364276Y90779D01*
X364237Y90714D01*
X364190Y90653D01*
X364110Y90503D01*
X364021Y90356D01*
X363993Y90285D01*
X363957Y90218D01*
X363902Y90057D01*
X363838Y89898D01*
X363822Y89824D01*
X363797Y89752D01*
X363769Y89583D01*
X363732Y89416D01*
X363727Y89340D01*
X363715Y89265D01*
X363714Y89094D01*
X363704Y88924D01*
X363712Y88848D01*
X363712Y88772D01*
X363738Y88603D01*
X363756Y88433D01*
X363776Y88360D01*
X363788Y88285D01*
X363842Y88122D01*
X363887Y87958D01*
X363919Y87888D01*
X363942Y87816D01*
X364021Y87665D01*
X364093Y87509D01*
X364135Y87446D01*
X364170Y87378D01*
X364236Y87296D01*
X364368Y87100D01*
X364530Y86928D01*
X364596Y86845D01*
X367354Y84087D01*
X369447Y79034D01*
X369447Y73566D01*
X367354Y68513D01*
X364596Y65755D01*
X364546Y65697D01*
X364491Y65644D01*
X364387Y65509D01*
X364276Y65379D01*
X364237Y65314D01*
X364190Y65253D01*
X364110Y65103D01*
X364021Y64956D01*
X363993Y64885D01*
X363957Y64818D01*
X363902Y64657D01*
X363838Y64498D01*
X363822Y64424D01*
X363797Y64352D01*
X363769Y64183D01*
X363732Y64016D01*
X363727Y63940D01*
X363715Y63865D01*
X363714Y63694D01*
X363704Y63524D01*
X363712Y63448D01*
X363712Y63372D01*
X363738Y63203D01*
X363756Y63033D01*
X363776Y62960D01*
X363788Y62885D01*
X363842Y62722D01*
X363887Y62558D01*
X363919Y62488D01*
X363942Y62416D01*
X364021Y62265D01*
X364093Y62109D01*
X364135Y62046D01*
X364170Y61978D01*
X364236Y61896D01*
X364368Y61700D01*
X364530Y61528D01*
X364596Y61445D01*
X367354Y58687D01*
X369447Y53634D01*
X369447Y48166D01*
X367354Y43113D01*
X365004Y40763D01*
X364979Y40734D01*
X364950Y40708D01*
X364820Y40546D01*
X364684Y40387D01*
X364664Y40354D01*
X364640Y40324D01*
X364537Y40143D01*
X364429Y39964D01*
X364415Y39929D01*
X364396Y39896D01*
X364324Y39700D01*
X364246Y39506D01*
X364238Y39469D01*
X364225Y39433D01*
X364185Y39228D01*
X364140Y39024D01*
X364137Y38986D01*
X364130Y38949D01*
X364124Y38741D01*
X364112Y38532D01*
X364116Y38494D01*
X364115Y38456D01*
X364142Y38249D01*
X364164Y38041D01*
X364174Y38005D01*
X364179Y37967D01*
X364240Y37767D01*
X364295Y37566D01*
X364311Y37531D01*
X364322Y37494D01*
X364414Y37307D01*
X364501Y37117D01*
X364522Y37086D01*
X364539Y37051D01*
X364659Y36881D01*
X364776Y36708D01*
X364802Y36680D01*
X364824Y36649D01*
X364971Y36501D01*
X365114Y36348D01*
X365144Y36325D01*
X365171Y36298D01*
X365340Y36175D01*
X365505Y36048D01*
X365539Y36030D01*
X365570Y36008D01*
X365756Y35914D01*
X365940Y35815D01*
X365976Y35802D01*
X366010Y35785D01*
X366209Y35723D01*
X366407Y35655D01*
X366444Y35649D01*
X366481Y35637D01*
X366573Y35627D01*
X366893Y35572D01*
X367065Y35571D01*
X367158Y35561D01*
X674442Y35561D01*
X674480Y35564D01*
G37*
G36*
X633251Y198200D02*
X633251Y198200D01*
X633337Y198198D01*
X633496Y198220D01*
X633657Y198233D01*
X633741Y198253D01*
X633825Y198265D01*
X633979Y198313D01*
X634136Y198351D01*
X634215Y198385D01*
X634297Y198410D01*
X634441Y198482D01*
X634590Y198546D01*
X634662Y198592D01*
X634739Y198630D01*
X634870Y198724D01*
X635006Y198811D01*
X635069Y198868D01*
X635139Y198918D01*
X635253Y199032D01*
X635374Y199140D01*
X635427Y199206D01*
X635488Y199267D01*
X635582Y199398D01*
X635683Y199524D01*
X635726Y199598D01*
X635776Y199668D01*
X635848Y199812D01*
X635927Y199952D01*
X635957Y200033D01*
X635995Y200109D01*
X636043Y200264D01*
X636099Y200415D01*
X636116Y200499D01*
X636141Y200581D01*
X636163Y200741D01*
X636194Y200899D01*
X636196Y200984D01*
X636208Y201069D01*
X636204Y201231D01*
X636209Y201392D01*
X636198Y201477D01*
X636196Y201563D01*
X636166Y201721D01*
X636145Y201881D01*
X636120Y201963D01*
X636104Y202047D01*
X636049Y202199D01*
X636002Y202353D01*
X635965Y202430D01*
X635935Y202511D01*
X635882Y202600D01*
X635785Y202797D01*
X635638Y203005D01*
X635583Y203095D01*
X634668Y204288D01*
X633454Y206391D01*
X632525Y208634D01*
X632386Y209151D01*
X647698Y209151D01*
X647774Y209157D01*
X647850Y209155D01*
X648019Y209177D01*
X648190Y209191D01*
X648263Y209209D01*
X648339Y209219D01*
X648503Y209268D01*
X648668Y209309D01*
X648738Y209339D01*
X648811Y209361D01*
X648965Y209437D01*
X649122Y209504D01*
X649186Y209545D01*
X649254Y209578D01*
X649394Y209677D01*
X649538Y209769D01*
X649595Y209820D01*
X649657Y209864D01*
X649778Y209984D01*
X649906Y210098D01*
X649954Y210157D01*
X650008Y210210D01*
X650096Y210332D01*
X650124Y210301D01*
X650168Y210239D01*
X650288Y210117D01*
X650402Y209990D01*
X650461Y209942D01*
X650515Y209888D01*
X650653Y209787D01*
X650786Y209680D01*
X650852Y209643D01*
X650914Y209598D01*
X651066Y209521D01*
X651215Y209436D01*
X651286Y209410D01*
X651354Y209375D01*
X651517Y209324D01*
X651677Y209265D01*
X651752Y209250D01*
X651824Y209227D01*
X651929Y209215D01*
X652161Y209170D01*
X652397Y209163D01*
X652502Y209151D01*
X671048Y209151D01*
X671161Y209160D01*
X671276Y209159D01*
X671407Y209180D01*
X671539Y209191D01*
X671650Y209218D01*
X671763Y209236D01*
X671889Y209277D01*
X672018Y209309D01*
X672123Y209354D01*
X672232Y209390D01*
X672350Y209452D01*
X672472Y209504D01*
X672568Y209565D01*
X672669Y209618D01*
X672743Y209677D01*
X672888Y209769D01*
X673130Y209985D01*
X673202Y210043D01*
X674640Y211481D01*
X677004Y213845D01*
X677054Y213903D01*
X677109Y213955D01*
X677213Y214091D01*
X677324Y214221D01*
X677363Y214287D01*
X677410Y214347D01*
X677490Y214497D01*
X677579Y214644D01*
X677607Y214715D01*
X677643Y214782D01*
X677698Y214943D01*
X677762Y215102D01*
X677778Y215176D01*
X677803Y215248D01*
X677831Y215417D01*
X677868Y215583D01*
X677873Y215660D01*
X677885Y215735D01*
X677886Y215906D01*
X677896Y216076D01*
X677888Y216152D01*
X677888Y216228D01*
X677862Y216397D01*
X677844Y216567D01*
X677824Y216640D01*
X677812Y216715D01*
X677758Y216878D01*
X677713Y217042D01*
X677681Y217112D01*
X677658Y217184D01*
X677579Y217335D01*
X677507Y217491D01*
X677465Y217554D01*
X677430Y217622D01*
X677364Y217704D01*
X677232Y217900D01*
X677070Y218072D01*
X677004Y218155D01*
X674246Y220913D01*
X672153Y225966D01*
X672153Y231434D01*
X674246Y236487D01*
X677004Y239245D01*
X677054Y239303D01*
X677109Y239355D01*
X677213Y239491D01*
X677324Y239621D01*
X677363Y239687D01*
X677410Y239747D01*
X677490Y239897D01*
X677578Y240044D01*
X677607Y240114D01*
X677643Y240182D01*
X677698Y240343D01*
X677762Y240502D01*
X677778Y240576D01*
X677803Y240648D01*
X677831Y240817D01*
X677868Y240983D01*
X677873Y241060D01*
X677885Y241135D01*
X677886Y241306D01*
X677896Y241476D01*
X677888Y241552D01*
X677888Y241628D01*
X677862Y241797D01*
X677844Y241967D01*
X677824Y242040D01*
X677812Y242115D01*
X677758Y242278D01*
X677713Y242442D01*
X677681Y242512D01*
X677658Y242584D01*
X677579Y242736D01*
X677507Y242891D01*
X677465Y242954D01*
X677430Y243022D01*
X677364Y243104D01*
X677232Y243300D01*
X677070Y243472D01*
X677004Y243555D01*
X674246Y246313D01*
X672150Y251373D01*
X672130Y251559D01*
X672113Y251767D01*
X672104Y251804D01*
X672100Y251842D01*
X672045Y252043D01*
X671995Y252246D01*
X671980Y252281D01*
X671969Y252318D01*
X671882Y252508D01*
X671800Y252699D01*
X671780Y252731D01*
X671764Y252766D01*
X671647Y252940D01*
X671535Y253115D01*
X671510Y253144D01*
X671488Y253175D01*
X671345Y253327D01*
X671206Y253483D01*
X671177Y253507D01*
X671151Y253535D01*
X670985Y253662D01*
X670822Y253793D01*
X670789Y253812D01*
X670759Y253835D01*
X670575Y253934D01*
X670394Y254037D01*
X670358Y254050D01*
X670324Y254068D01*
X670127Y254136D01*
X669931Y254209D01*
X669894Y254216D01*
X669858Y254228D01*
X669651Y254264D01*
X669447Y254303D01*
X669409Y254305D01*
X669371Y254311D01*
X669162Y254312D01*
X668954Y254319D01*
X668916Y254314D01*
X668878Y254314D01*
X668671Y254282D01*
X668465Y254254D01*
X668428Y254243D01*
X668391Y254237D01*
X668192Y254172D01*
X667993Y254112D01*
X667958Y254095D01*
X667922Y254083D01*
X667737Y253987D01*
X667549Y253895D01*
X667518Y253873D01*
X667484Y253855D01*
X667412Y253797D01*
X667147Y253610D01*
X667025Y253489D01*
X666951Y253430D01*
X662605Y249084D01*
X654491Y245723D01*
X645709Y245723D01*
X637595Y249084D01*
X631384Y255295D01*
X628023Y263409D01*
X628023Y272191D01*
X631384Y280305D01*
X637595Y286516D01*
X645969Y289985D01*
X646003Y290002D01*
X646039Y290015D01*
X646223Y290115D01*
X646408Y290210D01*
X646439Y290232D01*
X646473Y290251D01*
X646638Y290379D01*
X646805Y290503D01*
X646832Y290530D01*
X646862Y290553D01*
X647004Y290707D01*
X647150Y290856D01*
X647172Y290887D01*
X647198Y290915D01*
X647313Y291089D01*
X647433Y291260D01*
X647449Y291294D01*
X647470Y291326D01*
X647556Y291516D01*
X647647Y291705D01*
X647658Y291741D01*
X647673Y291776D01*
X647727Y291977D01*
X647786Y292178D01*
X647791Y292216D01*
X647801Y292252D01*
X647822Y292460D01*
X647848Y292667D01*
X647846Y292705D01*
X647850Y292743D01*
X647837Y292952D01*
X647829Y293160D01*
X647822Y293198D01*
X647819Y293236D01*
X647773Y293439D01*
X647731Y293644D01*
X647718Y293679D01*
X647709Y293717D01*
X647631Y293910D01*
X647557Y294105D01*
X647538Y294138D01*
X647523Y294174D01*
X647415Y294352D01*
X647310Y294532D01*
X647286Y294562D01*
X647266Y294594D01*
X647129Y294753D01*
X646998Y294914D01*
X646969Y294939D01*
X646944Y294968D01*
X646784Y295103D01*
X646628Y295241D01*
X646596Y295261D01*
X646566Y295285D01*
X646485Y295331D01*
X646210Y295503D01*
X646052Y295570D01*
X645969Y295615D01*
X637594Y299084D01*
X631384Y305295D01*
X628023Y313409D01*
X628023Y322191D01*
X631384Y330305D01*
X637594Y336516D01*
X645969Y339985D01*
X646003Y340002D01*
X646039Y340015D01*
X646223Y340115D01*
X646408Y340210D01*
X646439Y340232D01*
X646473Y340251D01*
X646637Y340378D01*
X646805Y340503D01*
X646832Y340530D01*
X646862Y340553D01*
X647004Y340706D01*
X647150Y340856D01*
X647172Y340887D01*
X647198Y340915D01*
X647313Y341089D01*
X647433Y341260D01*
X647449Y341294D01*
X647470Y341326D01*
X647556Y341516D01*
X647647Y341704D01*
X647658Y341741D01*
X647673Y341776D01*
X647727Y341977D01*
X647786Y342178D01*
X647791Y342216D01*
X647801Y342252D01*
X647822Y342460D01*
X647848Y342667D01*
X647846Y342705D01*
X647850Y342743D01*
X647837Y342952D01*
X647829Y343160D01*
X647822Y343198D01*
X647819Y343236D01*
X647773Y343439D01*
X647731Y343644D01*
X647718Y343679D01*
X647709Y343717D01*
X647631Y343910D01*
X647557Y344105D01*
X647538Y344138D01*
X647523Y344174D01*
X647414Y344352D01*
X647310Y344532D01*
X647286Y344562D01*
X647266Y344594D01*
X647130Y344753D01*
X646998Y344914D01*
X646969Y344939D01*
X646944Y344968D01*
X646784Y345102D01*
X646628Y345241D01*
X646595Y345261D01*
X646566Y345285D01*
X646485Y345330D01*
X646210Y345503D01*
X646051Y345570D01*
X645969Y345615D01*
X637595Y349084D01*
X631384Y355295D01*
X628023Y363409D01*
X628023Y372191D01*
X631384Y380305D01*
X637595Y386516D01*
X645709Y389877D01*
X654491Y389877D01*
X662605Y386516D01*
X666951Y382170D01*
X666980Y382145D01*
X667006Y382117D01*
X667168Y381986D01*
X667327Y381850D01*
X667360Y381831D01*
X667390Y381807D01*
X667571Y381704D01*
X667750Y381596D01*
X667785Y381582D01*
X667818Y381563D01*
X668014Y381490D01*
X668208Y381413D01*
X668245Y381405D01*
X668281Y381391D01*
X668486Y381351D01*
X668690Y381306D01*
X668728Y381304D01*
X668765Y381297D01*
X668973Y381290D01*
X669182Y381278D01*
X669220Y381282D01*
X669258Y381281D01*
X669465Y381308D01*
X669673Y381331D01*
X669709Y381341D01*
X669747Y381346D01*
X669947Y381406D01*
X670148Y381461D01*
X670183Y381477D01*
X670220Y381488D01*
X670407Y381580D01*
X670597Y381667D01*
X670629Y381688D01*
X670663Y381705D01*
X670832Y381825D01*
X671006Y381942D01*
X671034Y381968D01*
X671065Y381990D01*
X671213Y382137D01*
X671366Y382280D01*
X671389Y382310D01*
X671416Y382337D01*
X671539Y382506D01*
X671666Y382672D01*
X671684Y382705D01*
X671706Y382736D01*
X671800Y382922D01*
X671899Y383106D01*
X671912Y383142D01*
X671929Y383176D01*
X671991Y383375D01*
X672059Y383573D01*
X672065Y383611D01*
X672077Y383647D01*
X672077Y383651D01*
X674246Y388887D01*
X677004Y391645D01*
X677054Y391703D01*
X677109Y391755D01*
X677213Y391891D01*
X677324Y392021D01*
X677363Y392087D01*
X677410Y392147D01*
X677490Y392297D01*
X677578Y392444D01*
X677607Y392514D01*
X677643Y392582D01*
X677698Y392743D01*
X677762Y392902D01*
X677778Y392976D01*
X677803Y393048D01*
X677831Y393217D01*
X677868Y393383D01*
X677873Y393460D01*
X677885Y393535D01*
X677886Y393706D01*
X677896Y393876D01*
X677888Y393952D01*
X677888Y394028D01*
X677862Y394197D01*
X677844Y394367D01*
X677824Y394440D01*
X677812Y394515D01*
X677758Y394678D01*
X677713Y394842D01*
X677681Y394912D01*
X677658Y394984D01*
X677579Y395136D01*
X677507Y395291D01*
X677465Y395354D01*
X677430Y395422D01*
X677364Y395504D01*
X677232Y395700D01*
X677070Y395872D01*
X677004Y395955D01*
X674246Y398713D01*
X672153Y403766D01*
X672153Y407583D01*
X672138Y407773D01*
X672130Y407962D01*
X672118Y408018D01*
X672113Y408075D01*
X672068Y408259D01*
X672029Y408445D01*
X672008Y408499D01*
X671995Y408554D01*
X671920Y408729D01*
X671851Y408906D01*
X671823Y408955D01*
X671800Y409007D01*
X671698Y409168D01*
X671602Y409331D01*
X671566Y409375D01*
X671535Y409423D01*
X671409Y409565D01*
X671287Y409711D01*
X671244Y409749D01*
X671206Y409791D01*
X671059Y409911D01*
X670915Y410035D01*
X670867Y410065D01*
X670822Y410101D01*
X670658Y410195D01*
X670496Y410295D01*
X670443Y410317D01*
X670394Y410345D01*
X670216Y410411D01*
X670040Y410484D01*
X669985Y410497D01*
X669931Y410517D01*
X669745Y410553D01*
X669560Y410597D01*
X669503Y410601D01*
X669447Y410612D01*
X669257Y410617D01*
X669068Y410630D01*
X669011Y410625D01*
X668954Y410627D01*
X668766Y410602D01*
X668577Y410584D01*
X668521Y410570D01*
X668465Y410562D01*
X668283Y410508D01*
X668099Y410460D01*
X668047Y410436D01*
X667993Y410420D01*
X667822Y410337D01*
X667648Y410259D01*
X667601Y410228D01*
X667549Y410203D01*
X667395Y410093D01*
X667236Y409989D01*
X667194Y409951D01*
X667147Y409918D01*
X667012Y409784D01*
X666872Y409656D01*
X666845Y409619D01*
X666796Y409571D01*
X666506Y409172D01*
X666485Y409132D01*
X666467Y409107D01*
X665533Y407488D01*
X664054Y405562D01*
X662338Y403846D01*
X660412Y402368D01*
X658309Y401154D01*
X656066Y400225D01*
X655549Y400086D01*
X655549Y412351D01*
X671408Y412351D01*
X671626Y412368D01*
X671844Y412382D01*
X671871Y412388D01*
X671900Y412391D01*
X672112Y412443D01*
X672325Y412492D01*
X672351Y412503D01*
X672378Y412509D01*
X672579Y412595D01*
X672781Y412678D01*
X672806Y412693D01*
X672832Y412704D01*
X673016Y412821D01*
X673202Y412935D01*
X673224Y412954D01*
X673248Y412969D01*
X673410Y413114D01*
X673576Y413257D01*
X673595Y413279D01*
X673616Y413298D01*
X673753Y413468D01*
X673893Y413635D01*
X673905Y413655D01*
X673926Y413681D01*
X674170Y414110D01*
X674198Y414186D01*
X674223Y414232D01*
X674246Y414287D01*
X677004Y417045D01*
X677054Y417103D01*
X677109Y417155D01*
X677213Y417291D01*
X677324Y417421D01*
X677363Y417487D01*
X677410Y417547D01*
X677490Y417697D01*
X677578Y417844D01*
X677607Y417914D01*
X677643Y417982D01*
X677698Y418143D01*
X677762Y418302D01*
X677778Y418376D01*
X677803Y418448D01*
X677831Y418617D01*
X677868Y418783D01*
X677873Y418860D01*
X677885Y418935D01*
X677886Y419106D01*
X677896Y419276D01*
X677888Y419352D01*
X677888Y419428D01*
X677862Y419597D01*
X677844Y419767D01*
X677824Y419840D01*
X677812Y419915D01*
X677758Y420078D01*
X677713Y420242D01*
X677681Y420312D01*
X677658Y420384D01*
X677579Y420536D01*
X677507Y420691D01*
X677465Y420754D01*
X677430Y420822D01*
X677364Y420904D01*
X677232Y421100D01*
X677070Y421272D01*
X677004Y421355D01*
X674246Y424113D01*
X672153Y429166D01*
X672153Y434634D01*
X674246Y439687D01*
X678113Y443554D01*
X683166Y445647D01*
X685452Y445647D01*
X685566Y445656D01*
X685680Y445655D01*
X685811Y445676D01*
X685944Y445687D01*
X686054Y445714D01*
X686167Y445732D01*
X686294Y445773D01*
X686422Y445805D01*
X686527Y445850D01*
X686636Y445886D01*
X686754Y445948D01*
X686876Y446000D01*
X686972Y446061D01*
X687073Y446114D01*
X687147Y446173D01*
X687292Y446265D01*
X687534Y446481D01*
X687607Y446539D01*
X711371Y470303D01*
X711445Y470390D01*
X711526Y470471D01*
X711604Y470578D01*
X711690Y470679D01*
X711749Y470777D01*
X711816Y470869D01*
X711876Y470988D01*
X711945Y471102D01*
X711987Y471208D01*
X712039Y471310D01*
X712079Y471437D01*
X712128Y471560D01*
X712153Y471671D01*
X712187Y471780D01*
X712197Y471874D01*
X712235Y472042D01*
X712253Y472366D01*
X712263Y472458D01*
X712263Y473106D01*
X712257Y473182D01*
X712259Y473258D01*
X712237Y473427D01*
X712223Y473598D01*
X712205Y473672D01*
X712195Y473747D01*
X712146Y473911D01*
X712105Y474077D01*
X712075Y474146D01*
X712053Y474220D01*
X711977Y474373D01*
X711910Y474530D01*
X711869Y474594D01*
X711836Y474663D01*
X711737Y474802D01*
X711645Y474946D01*
X711594Y475003D01*
X711550Y475065D01*
X711430Y475186D01*
X711316Y475314D01*
X711257Y475362D01*
X711203Y475416D01*
X711065Y475517D01*
X710932Y475624D01*
X710866Y475661D01*
X710805Y475706D01*
X710652Y475783D01*
X710504Y475868D01*
X710432Y475894D01*
X710364Y475929D01*
X710201Y475980D01*
X710041Y476039D01*
X709966Y476054D01*
X709894Y476077D01*
X709789Y476089D01*
X709557Y476134D01*
X709321Y476141D01*
X709216Y476153D01*
X704766Y476153D01*
X699713Y478246D01*
X696955Y481004D01*
X696897Y481054D01*
X696844Y481109D01*
X696709Y481213D01*
X696579Y481324D01*
X696514Y481363D01*
X696453Y481410D01*
X696303Y481490D01*
X696156Y481579D01*
X696085Y481607D01*
X696018Y481643D01*
X695857Y481698D01*
X695698Y481762D01*
X695624Y481778D01*
X695552Y481803D01*
X695383Y481831D01*
X695216Y481868D01*
X695140Y481873D01*
X695065Y481885D01*
X694894Y481886D01*
X694724Y481896D01*
X694648Y481888D01*
X694572Y481888D01*
X694403Y481862D01*
X694233Y481844D01*
X694160Y481824D01*
X694085Y481812D01*
X693922Y481758D01*
X693758Y481713D01*
X693688Y481681D01*
X693616Y481658D01*
X693465Y481579D01*
X693309Y481507D01*
X693246Y481465D01*
X693178Y481430D01*
X693096Y481364D01*
X692900Y481232D01*
X692728Y481070D01*
X692645Y481004D01*
X689887Y478246D01*
X684834Y476153D01*
X679366Y476153D01*
X674313Y478246D01*
X671555Y481004D01*
X671497Y481054D01*
X671444Y481109D01*
X671309Y481213D01*
X671179Y481324D01*
X671114Y481363D01*
X671053Y481410D01*
X670903Y481490D01*
X670756Y481579D01*
X670685Y481607D01*
X670618Y481643D01*
X670457Y481698D01*
X670298Y481762D01*
X670224Y481778D01*
X670152Y481803D01*
X669983Y481831D01*
X669816Y481868D01*
X669740Y481873D01*
X669665Y481885D01*
X669494Y481886D01*
X669324Y481896D01*
X669248Y481888D01*
X669172Y481888D01*
X669003Y481862D01*
X668833Y481844D01*
X668760Y481824D01*
X668685Y481812D01*
X668522Y481758D01*
X668358Y481713D01*
X668288Y481681D01*
X668216Y481658D01*
X668065Y481579D01*
X667909Y481507D01*
X667846Y481465D01*
X667778Y481430D01*
X667696Y481364D01*
X667500Y481232D01*
X667328Y481070D01*
X667245Y481004D01*
X664487Y478246D01*
X659434Y476153D01*
X653966Y476153D01*
X648913Y478246D01*
X646155Y481004D01*
X646097Y481054D01*
X646044Y481109D01*
X645909Y481213D01*
X645779Y481324D01*
X645714Y481363D01*
X645653Y481410D01*
X645503Y481490D01*
X645356Y481579D01*
X645285Y481607D01*
X645218Y481643D01*
X645057Y481698D01*
X644898Y481762D01*
X644824Y481778D01*
X644752Y481803D01*
X644583Y481831D01*
X644416Y481868D01*
X644340Y481873D01*
X644265Y481885D01*
X644094Y481886D01*
X643924Y481896D01*
X643848Y481888D01*
X643772Y481888D01*
X643603Y481862D01*
X643433Y481844D01*
X643360Y481824D01*
X643285Y481812D01*
X643122Y481758D01*
X642958Y481713D01*
X642888Y481681D01*
X642816Y481658D01*
X642665Y481579D01*
X642509Y481507D01*
X642446Y481465D01*
X642378Y481430D01*
X642296Y481364D01*
X642100Y481232D01*
X641928Y481070D01*
X641845Y481004D01*
X639087Y478246D01*
X634034Y476153D01*
X628566Y476153D01*
X623513Y478246D01*
X620755Y481004D01*
X620697Y481054D01*
X620644Y481109D01*
X620509Y481213D01*
X620379Y481324D01*
X620314Y481363D01*
X620253Y481410D01*
X620103Y481490D01*
X619956Y481579D01*
X619885Y481607D01*
X619818Y481643D01*
X619657Y481698D01*
X619498Y481762D01*
X619424Y481778D01*
X619352Y481803D01*
X619183Y481831D01*
X619016Y481868D01*
X618940Y481873D01*
X618865Y481885D01*
X618695Y481886D01*
X618524Y481896D01*
X618448Y481888D01*
X618372Y481888D01*
X618203Y481862D01*
X618033Y481844D01*
X617960Y481824D01*
X617885Y481812D01*
X617722Y481758D01*
X617558Y481713D01*
X617488Y481681D01*
X617416Y481658D01*
X617264Y481579D01*
X617109Y481507D01*
X617046Y481465D01*
X616978Y481430D01*
X616896Y481364D01*
X616700Y481232D01*
X616528Y481070D01*
X616445Y481004D01*
X615937Y480496D01*
X615863Y480409D01*
X615782Y480329D01*
X615704Y480222D01*
X615618Y480120D01*
X615559Y480023D01*
X615492Y479930D01*
X615432Y479812D01*
X615363Y479698D01*
X615321Y479592D01*
X615269Y479490D01*
X615229Y479363D01*
X615180Y479240D01*
X615155Y479128D01*
X615121Y479019D01*
X615111Y478926D01*
X615073Y478758D01*
X615055Y478434D01*
X615045Y478342D01*
X615045Y214785D01*
X615054Y214671D01*
X615053Y214557D01*
X615074Y214426D01*
X615085Y214293D01*
X615112Y214183D01*
X615130Y214070D01*
X615171Y213943D01*
X615203Y213815D01*
X615248Y213710D01*
X615284Y213601D01*
X615346Y213483D01*
X615398Y213361D01*
X615459Y213265D01*
X615512Y213164D01*
X615571Y213090D01*
X615663Y212945D01*
X615879Y212703D01*
X615937Y212630D01*
X629482Y199085D01*
X629569Y199011D01*
X629650Y198930D01*
X629757Y198852D01*
X629858Y198766D01*
X629956Y198707D01*
X630048Y198640D01*
X630167Y198580D01*
X630281Y198511D01*
X630387Y198469D01*
X630489Y198417D01*
X630616Y198377D01*
X630739Y198328D01*
X630850Y198303D01*
X630959Y198269D01*
X631053Y198259D01*
X631221Y198221D01*
X631545Y198203D01*
X631637Y198193D01*
X633166Y198193D01*
X633251Y198200D01*
G37*
%LPC*%
G36*
X288794Y143689D02*
X288794Y143689D01*
X282408Y145400D01*
X276682Y148706D01*
X272006Y153382D01*
X268700Y159108D01*
X266989Y165494D01*
X266989Y172106D01*
X268700Y178492D01*
X272006Y184218D01*
X276682Y188894D01*
X282408Y192200D01*
X288794Y193911D01*
X295406Y193911D01*
X301792Y192200D01*
X307518Y188894D01*
X312194Y184218D01*
X315500Y178492D01*
X317211Y172106D01*
X317211Y165494D01*
X315500Y159108D01*
X312194Y153382D01*
X307518Y148706D01*
X301792Y145400D01*
X295406Y143689D01*
X288794Y143689D01*
G37*
%LPD*%
%LPC*%
G36*
X1083794Y129739D02*
X1083794Y129739D01*
X1077408Y131450D01*
X1071682Y134756D01*
X1067006Y139432D01*
X1063700Y145158D01*
X1061989Y151544D01*
X1061989Y158156D01*
X1063700Y164542D01*
X1067006Y170268D01*
X1071682Y174944D01*
X1077408Y178250D01*
X1083794Y179961D01*
X1090406Y179961D01*
X1096792Y178250D01*
X1102518Y174944D01*
X1107194Y170268D01*
X1110500Y164542D01*
X1112211Y158156D01*
X1112211Y151544D01*
X1110500Y145158D01*
X1107194Y139432D01*
X1102518Y134756D01*
X1096792Y131450D01*
X1090406Y129739D01*
X1083794Y129739D01*
G37*
%LPD*%
%LPC*%
G36*
X1297194Y129739D02*
X1297194Y129739D01*
X1290808Y131450D01*
X1285082Y134756D01*
X1280406Y139432D01*
X1277100Y145158D01*
X1275389Y151544D01*
X1275389Y158156D01*
X1277100Y164542D01*
X1280406Y170268D01*
X1285082Y174944D01*
X1290808Y178250D01*
X1297194Y179961D01*
X1303806Y179961D01*
X1310192Y178250D01*
X1315918Y174944D01*
X1320594Y170268D01*
X1323900Y164542D01*
X1325611Y158156D01*
X1325611Y151544D01*
X1323900Y145158D01*
X1320594Y139432D01*
X1315918Y134756D01*
X1310192Y131450D01*
X1303806Y129739D01*
X1297194Y129739D01*
G37*
%LPD*%
%LPC*%
G36*
X34794Y491889D02*
X34794Y491889D01*
X28408Y493600D01*
X22682Y496906D01*
X18006Y501582D01*
X14700Y507308D01*
X12989Y513694D01*
X12989Y520306D01*
X14700Y526692D01*
X18006Y532418D01*
X22682Y537094D01*
X28408Y540400D01*
X34794Y542111D01*
X41406Y542111D01*
X47792Y540400D01*
X53518Y537094D01*
X58194Y532418D01*
X61500Y526692D01*
X63211Y520306D01*
X63211Y513694D01*
X61500Y507308D01*
X58194Y501582D01*
X53518Y496906D01*
X47792Y493600D01*
X41406Y491889D01*
X34794Y491889D01*
G37*
%LPD*%
%LPC*%
G36*
X1297194Y480539D02*
X1297194Y480539D01*
X1290808Y482250D01*
X1285082Y485556D01*
X1280406Y490232D01*
X1277100Y495958D01*
X1275389Y502344D01*
X1275389Y508956D01*
X1277100Y515342D01*
X1280406Y521068D01*
X1285082Y525744D01*
X1290808Y529050D01*
X1297194Y530761D01*
X1303806Y530761D01*
X1310192Y529050D01*
X1315918Y525744D01*
X1320594Y521068D01*
X1323900Y515342D01*
X1325611Y508956D01*
X1325611Y502344D01*
X1323900Y495958D01*
X1320594Y490232D01*
X1315918Y485556D01*
X1310192Y482250D01*
X1303806Y480539D01*
X1297194Y480539D01*
G37*
%LPD*%
%LPC*%
G36*
X1083794Y480539D02*
X1083794Y480539D01*
X1077408Y482250D01*
X1071682Y485556D01*
X1067006Y490232D01*
X1063700Y495958D01*
X1061989Y502344D01*
X1061989Y508956D01*
X1063700Y515342D01*
X1067006Y521068D01*
X1071682Y525744D01*
X1077408Y529050D01*
X1083794Y530761D01*
X1090406Y530761D01*
X1096792Y529050D01*
X1102518Y525744D01*
X1107194Y521068D01*
X1110500Y515342D01*
X1112211Y508956D01*
X1112211Y502344D01*
X1110500Y495958D01*
X1107194Y490232D01*
X1102518Y485556D01*
X1096792Y482250D01*
X1090406Y480539D01*
X1083794Y480539D01*
G37*
%LPD*%
%LPC*%
G36*
X34794Y143689D02*
X34794Y143689D01*
X28408Y145400D01*
X22682Y148706D01*
X18006Y153382D01*
X14700Y159108D01*
X12989Y165494D01*
X12989Y172106D01*
X14700Y178492D01*
X18006Y184218D01*
X22682Y188894D01*
X28408Y192200D01*
X34794Y193911D01*
X41406Y193911D01*
X47792Y192200D01*
X53518Y188894D01*
X58194Y184218D01*
X61500Y178492D01*
X63211Y172106D01*
X63211Y165494D01*
X61500Y159108D01*
X58194Y153382D01*
X53518Y148706D01*
X47792Y145400D01*
X41406Y143689D01*
X34794Y143689D01*
G37*
%LPD*%
%LPC*%
G36*
X190512Y432628D02*
X190512Y432628D01*
X188271Y433556D01*
X186556Y435271D01*
X185628Y437512D01*
X185628Y457788D01*
X186556Y460029D01*
X188271Y461744D01*
X190512Y462672D01*
X210788Y462672D01*
X213029Y461744D01*
X214744Y460029D01*
X215672Y457788D01*
X215672Y437512D01*
X214744Y435271D01*
X213029Y433556D01*
X210788Y432628D01*
X190512Y432628D01*
G37*
%LPD*%
%LPC*%
G36*
X36984Y584839D02*
X36984Y584839D01*
X31412Y587147D01*
X27147Y591412D01*
X24839Y596984D01*
X24839Y603016D01*
X27147Y608588D01*
X31412Y612853D01*
X36984Y615161D01*
X43016Y615161D01*
X48588Y612853D01*
X52853Y608588D01*
X55161Y603016D01*
X55161Y596984D01*
X52853Y591412D01*
X48588Y587147D01*
X43016Y584839D01*
X36984Y584839D01*
G37*
%LPD*%
%LPC*%
G36*
X1296984Y584839D02*
X1296984Y584839D01*
X1291412Y587147D01*
X1287147Y591412D01*
X1284839Y596984D01*
X1284839Y603016D01*
X1287147Y608588D01*
X1291412Y612853D01*
X1296984Y615161D01*
X1303016Y615161D01*
X1308588Y612853D01*
X1312853Y608588D01*
X1315161Y603016D01*
X1315161Y596984D01*
X1312853Y591412D01*
X1308588Y587147D01*
X1303016Y584839D01*
X1296984Y584839D01*
G37*
%LPD*%
%LPC*%
G36*
X1296984Y84839D02*
X1296984Y84839D01*
X1291412Y87147D01*
X1287147Y91412D01*
X1284839Y96984D01*
X1284839Y103016D01*
X1287147Y108588D01*
X1291412Y112853D01*
X1296984Y115161D01*
X1303016Y115161D01*
X1308588Y112853D01*
X1312853Y108588D01*
X1315161Y103016D01*
X1315161Y96984D01*
X1312853Y91412D01*
X1308588Y87147D01*
X1303016Y84839D01*
X1296984Y84839D01*
G37*
%LPD*%
%LPC*%
G36*
X36984Y84839D02*
X36984Y84839D01*
X31412Y87147D01*
X27147Y91412D01*
X24839Y96984D01*
X24839Y103016D01*
X27147Y108588D01*
X31412Y112853D01*
X36984Y115161D01*
X43016Y115161D01*
X48588Y112853D01*
X52853Y108588D01*
X55161Y103016D01*
X55161Y96984D01*
X52853Y91412D01*
X48588Y87147D01*
X43016Y84839D01*
X36984Y84839D01*
G37*
%LPD*%
%LPC*%
G36*
X987872Y506983D02*
X987872Y506983D01*
X982830Y509072D01*
X978972Y512930D01*
X976883Y517972D01*
X976883Y523428D01*
X978972Y528470D01*
X982830Y532328D01*
X983814Y532736D01*
X983968Y532815D01*
X984126Y532886D01*
X984187Y532927D01*
X984253Y532961D01*
X984393Y533064D01*
X984536Y533160D01*
X984591Y533210D01*
X984650Y533254D01*
X984771Y533378D01*
X984897Y533496D01*
X984943Y533554D01*
X984995Y533607D01*
X985094Y533749D01*
X985200Y533886D01*
X985235Y533951D01*
X985278Y534011D01*
X985353Y534167D01*
X985435Y534319D01*
X985459Y534389D01*
X985492Y534456D01*
X985541Y534622D01*
X985597Y534785D01*
X985610Y534858D01*
X985631Y534929D01*
X985653Y535101D01*
X985682Y535271D01*
X985683Y535345D01*
X985692Y535419D01*
X985686Y535591D01*
X985688Y535764D01*
X985677Y535838D01*
X985674Y535912D01*
X985640Y536081D01*
X985614Y536252D01*
X985591Y536322D01*
X985576Y536395D01*
X985515Y536557D01*
X985462Y536721D01*
X985428Y536787D01*
X985402Y536857D01*
X985315Y537006D01*
X985236Y537160D01*
X985192Y537220D01*
X985155Y537284D01*
X985045Y537418D01*
X984943Y537557D01*
X984900Y537596D01*
X984843Y537666D01*
X984473Y537992D01*
X984452Y538005D01*
X984439Y538017D01*
X983981Y538350D01*
X982850Y539481D01*
X981910Y540775D01*
X981184Y542200D01*
X980907Y543053D01*
X990600Y543053D01*
X1000293Y543053D01*
X1000016Y542200D01*
X999290Y540775D01*
X998350Y539481D01*
X997219Y538350D01*
X996761Y538017D01*
X996630Y537904D01*
X996493Y537798D01*
X996443Y537744D01*
X996386Y537695D01*
X996275Y537563D01*
X996157Y537436D01*
X996116Y537374D01*
X996069Y537318D01*
X995980Y537169D01*
X995885Y537025D01*
X995854Y536958D01*
X995816Y536894D01*
X995753Y536733D01*
X995682Y536576D01*
X995663Y536504D01*
X995636Y536435D01*
X995599Y536266D01*
X995554Y536099D01*
X995547Y536025D01*
X995531Y535953D01*
X995522Y535780D01*
X995505Y535608D01*
X995510Y535534D01*
X995506Y535460D01*
X995525Y535288D01*
X995536Y535116D01*
X995552Y535044D01*
X995561Y534970D01*
X995607Y534803D01*
X995646Y534635D01*
X995674Y534566D01*
X995694Y534495D01*
X995766Y534338D01*
X995832Y534178D01*
X995870Y534115D01*
X995902Y534047D01*
X995999Y533905D01*
X996089Y533757D01*
X996137Y533701D01*
X996179Y533640D01*
X996298Y533514D01*
X996411Y533383D01*
X996468Y533335D01*
X996519Y533282D01*
X996656Y533177D01*
X996789Y533066D01*
X996840Y533038D01*
X996912Y532983D01*
X997347Y532752D01*
X997371Y532744D01*
X997386Y532736D01*
X998370Y532328D01*
X1002228Y528470D01*
X1004317Y523428D01*
X1004317Y517972D01*
X1002228Y512930D01*
X998370Y509072D01*
X993328Y506983D01*
X987872Y506983D01*
G37*
%LPD*%
%LPC*%
G36*
X126562Y390728D02*
X126562Y390728D01*
X121041Y393015D01*
X116815Y397241D01*
X114528Y402762D01*
X114528Y408738D01*
X116815Y414259D01*
X121041Y418485D01*
X126562Y420772D01*
X132538Y420772D01*
X138059Y418485D01*
X142285Y414259D01*
X144572Y408738D01*
X144572Y402762D01*
X142285Y397241D01*
X140421Y395377D01*
X140328Y395268D01*
X140229Y395166D01*
X140169Y395081D01*
X140101Y395001D01*
X140028Y394879D01*
X139946Y394762D01*
X139900Y394668D01*
X139847Y394578D01*
X139794Y394446D01*
X139732Y394317D01*
X139702Y394217D01*
X139664Y394120D01*
X139633Y393981D01*
X139592Y393844D01*
X139579Y393741D01*
X139557Y393639D01*
X139549Y393496D01*
X139531Y393355D01*
X139535Y393251D01*
X139529Y393146D01*
X139544Y393004D01*
X139550Y392862D01*
X139570Y392759D01*
X139581Y392655D01*
X139618Y392521D01*
X139567Y392542D01*
X139475Y392592D01*
X139340Y392638D01*
X139209Y392693D01*
X139107Y392718D01*
X139008Y392752D01*
X138868Y392776D01*
X138729Y392809D01*
X138625Y392817D01*
X138522Y392834D01*
X138380Y392835D01*
X138237Y392846D01*
X138133Y392837D01*
X138029Y392837D01*
X137888Y392815D01*
X137746Y392803D01*
X137671Y392781D01*
X137541Y392761D01*
X137129Y392625D01*
X137091Y392614D01*
X132538Y390728D01*
X126562Y390728D01*
G37*
%LPD*%
%LPC*%
G36*
X126562Y432628D02*
X126562Y432628D01*
X121041Y434915D01*
X116815Y439141D01*
X114528Y444662D01*
X114528Y450638D01*
X116815Y456159D01*
X121041Y460385D01*
X126562Y462672D01*
X132538Y462672D01*
X138059Y460385D01*
X142285Y456159D01*
X144572Y450638D01*
X144572Y444662D01*
X142285Y439141D01*
X138059Y434915D01*
X132538Y432628D01*
X126562Y432628D01*
G37*
%LPD*%
%LPC*%
G36*
X655549Y220049D02*
X655549Y220049D01*
X655549Y232314D01*
X656066Y232175D01*
X658309Y231246D01*
X660412Y230032D01*
X662338Y228554D01*
X664054Y226838D01*
X665532Y224912D01*
X666746Y222809D01*
X667675Y220566D01*
X667814Y220049D01*
X655549Y220049D01*
G37*
%LPD*%
%LPC*%
G36*
X655549Y423249D02*
X655549Y423249D01*
X655549Y435514D01*
X656066Y435375D01*
X658309Y434446D01*
X660412Y433232D01*
X662338Y431754D01*
X664054Y430038D01*
X665532Y428112D01*
X666746Y426009D01*
X667675Y423766D01*
X667814Y423249D01*
X655549Y423249D01*
G37*
%LPD*%
%LPC*%
G36*
X985749Y423249D02*
X985749Y423249D01*
X985749Y435514D01*
X986266Y435375D01*
X988509Y434446D01*
X990612Y433232D01*
X992538Y431754D01*
X994254Y430038D01*
X995732Y428112D01*
X996946Y426009D01*
X997875Y423766D01*
X998014Y423249D01*
X985749Y423249D01*
G37*
%LPD*%
%LPC*%
G36*
X632386Y423249D02*
X632386Y423249D01*
X632525Y423766D01*
X633454Y426009D01*
X634668Y428112D01*
X636146Y430038D01*
X637862Y431754D01*
X639788Y433232D01*
X641891Y434446D01*
X644134Y435375D01*
X644651Y435514D01*
X644651Y423249D01*
X632386Y423249D01*
G37*
%LPD*%
%LPC*%
G36*
X985749Y412351D02*
X985749Y412351D01*
X998014Y412351D01*
X997875Y411834D01*
X996946Y409591D01*
X995732Y407488D01*
X994254Y405562D01*
X992538Y403846D01*
X990612Y402368D01*
X988509Y401154D01*
X986266Y400225D01*
X985749Y400086D01*
X985749Y412351D01*
G37*
%LPD*%
%LPC*%
G36*
X632386Y220049D02*
X632386Y220049D01*
X632525Y220566D01*
X633454Y222809D01*
X634668Y224912D01*
X636146Y226838D01*
X637862Y228554D01*
X639788Y230032D01*
X641891Y231246D01*
X644134Y232175D01*
X644651Y232314D01*
X644651Y220049D01*
X632386Y220049D01*
G37*
%LPD*%
%LPC*%
G36*
X962586Y220049D02*
X962586Y220049D01*
X962725Y220566D01*
X963654Y222809D01*
X964868Y224912D01*
X966346Y226838D01*
X968062Y228554D01*
X969988Y230032D01*
X972091Y231246D01*
X974334Y232175D01*
X974851Y232314D01*
X974851Y220049D01*
X962586Y220049D01*
G37*
%LPD*%
%LPC*%
G36*
X962586Y423249D02*
X962586Y423249D01*
X962725Y423766D01*
X963654Y426009D01*
X964868Y428112D01*
X966346Y430038D01*
X968062Y431754D01*
X969988Y433232D01*
X972091Y434446D01*
X974334Y435375D01*
X974851Y435514D01*
X974851Y423249D01*
X962586Y423249D01*
G37*
%LPD*%
%LPC*%
G36*
X644134Y400225D02*
X644134Y400225D01*
X641891Y401154D01*
X639788Y402368D01*
X637862Y403846D01*
X636146Y405562D01*
X634668Y407488D01*
X633454Y409591D01*
X632525Y411834D01*
X632386Y412351D01*
X644651Y412351D01*
X644651Y400086D01*
X644134Y400225D01*
G37*
%LPD*%
%LPC*%
G36*
X974334Y400225D02*
X974334Y400225D01*
X972091Y401154D01*
X969988Y402368D01*
X968062Y403846D01*
X966346Y405562D01*
X964868Y407488D01*
X963654Y409591D01*
X962725Y411834D01*
X962586Y412351D01*
X974851Y412351D01*
X974851Y400086D01*
X974334Y400225D01*
G37*
%LPD*%
%LPC*%
G36*
X974334Y197025D02*
X974334Y197025D01*
X972091Y197954D01*
X969988Y199168D01*
X968062Y200646D01*
X966346Y202362D01*
X964868Y204288D01*
X963654Y206391D01*
X962725Y208634D01*
X962586Y209151D01*
X974851Y209151D01*
X974851Y196886D01*
X974334Y197025D01*
G37*
%LPD*%
%LPC*%
G36*
X1152624Y445774D02*
X1152624Y445774D01*
X1152624Y456538D01*
X1153295Y456359D01*
X1155210Y455565D01*
X1157006Y454528D01*
X1158651Y453266D01*
X1160116Y451801D01*
X1161378Y450156D01*
X1162415Y448360D01*
X1163209Y446445D01*
X1163388Y445774D01*
X1152624Y445774D01*
G37*
%LPD*%
%LPC*%
G36*
X1133012Y445774D02*
X1133012Y445774D01*
X1133191Y446445D01*
X1133985Y448360D01*
X1135022Y450156D01*
X1136284Y451801D01*
X1137749Y453266D01*
X1139394Y454528D01*
X1141190Y455565D01*
X1143105Y456359D01*
X1143776Y456538D01*
X1143776Y445774D01*
X1133012Y445774D01*
G37*
%LPD*%
%LPC*%
G36*
X1152624Y436926D02*
X1152624Y436926D01*
X1163388Y436926D01*
X1163209Y436255D01*
X1162415Y434340D01*
X1161378Y432544D01*
X1160116Y430899D01*
X1158651Y429434D01*
X1157006Y428172D01*
X1155210Y427135D01*
X1153295Y426341D01*
X1152624Y426162D01*
X1152624Y436926D01*
G37*
%LPD*%
%LPC*%
G36*
X1143105Y426341D02*
X1143105Y426341D01*
X1141190Y427135D01*
X1139394Y428172D01*
X1137749Y429434D01*
X1136284Y430899D01*
X1135022Y432544D01*
X1133985Y434340D01*
X1133191Y436255D01*
X1133012Y436926D01*
X1143776Y436926D01*
X1143776Y426162D01*
X1143105Y426341D01*
G37*
%LPD*%
%LPC*%
G36*
X189584Y408797D02*
X189584Y408797D01*
X190024Y410151D01*
X190844Y411759D01*
X191904Y413220D01*
X193180Y414496D01*
X194641Y415556D01*
X196249Y416376D01*
X197603Y416816D01*
X197603Y408797D01*
X189584Y408797D01*
G37*
%LPD*%
D10*
X200650Y447650D03*
D11*
X200650Y405750D03*
X200650Y363850D03*
X200650Y321950D03*
X200650Y280050D03*
X200650Y238150D03*
X129550Y238150D03*
X129550Y280050D03*
X129550Y321950D03*
X129550Y363850D03*
X129550Y405750D03*
X129550Y447650D03*
D12*
X1239400Y307950D03*
X1239400Y219050D03*
D13*
X1239400Y441350D03*
D12*
X1239400Y396900D03*
X1239400Y352450D03*
X1239400Y263500D03*
X1148200Y219050D03*
X1148200Y263500D03*
X1148200Y307950D03*
X1148200Y352450D03*
X1148200Y396900D03*
X1148200Y441350D03*
D14*
X685900Y254100D03*
X685900Y279500D03*
X685900Y304900D03*
X685900Y330300D03*
X685900Y355700D03*
X685900Y381100D03*
X685900Y406500D03*
X685900Y431900D03*
D15*
X980300Y267800D03*
X980300Y317800D03*
X980300Y367800D03*
X980300Y417800D03*
D14*
X685900Y50900D03*
X685900Y76300D03*
X685900Y101700D03*
X685900Y127100D03*
X685900Y152500D03*
X685900Y177900D03*
X685900Y203300D03*
X685900Y228700D03*
D15*
X980300Y64600D03*
X980300Y114600D03*
X980300Y164600D03*
X980300Y214600D03*
D14*
X355700Y50900D03*
X355700Y76300D03*
X355700Y101700D03*
X355700Y127100D03*
X355700Y152500D03*
X355700Y177900D03*
X355700Y203300D03*
X355700Y228700D03*
D15*
X650100Y64600D03*
X650100Y114600D03*
X650100Y164600D03*
X650100Y214600D03*
D14*
X355700Y254100D03*
X355700Y279500D03*
X355700Y304900D03*
X355700Y330300D03*
X355700Y355700D03*
X355700Y381100D03*
X355700Y406500D03*
X355700Y431900D03*
D15*
X650100Y267800D03*
X650100Y317800D03*
X650100Y367800D03*
X650100Y417800D03*
D14*
X377300Y489900D03*
X402700Y489900D03*
X428100Y489900D03*
X453500Y489900D03*
X478900Y489900D03*
X504300Y489900D03*
X529700Y489900D03*
X555100Y489900D03*
X580500Y489900D03*
X605900Y489900D03*
X631300Y489900D03*
X656700Y489900D03*
X682100Y489900D03*
X707500Y489900D03*
X732900Y489900D03*
X758300Y489900D03*
X783700Y489900D03*
X377300Y642300D03*
X402700Y642300D03*
X428100Y642300D03*
X453500Y642300D03*
X504300Y642300D03*
X529700Y642300D03*
X555100Y642300D03*
X580500Y642300D03*
X605900Y642300D03*
X631300Y642300D03*
X656700Y642300D03*
X707500Y642300D03*
X732900Y642300D03*
X758300Y642300D03*
X783700Y642300D03*
X682100Y642300D03*
X478900Y642300D03*
D16*
X990600Y520700D03*
X990600Y546100D03*
X990600Y571500D03*
D17*
X1109250Y571500D01*
X1239400Y441350D01*
X980300Y267800D02*
X980300Y265000D01*
X980300Y253665D01*
X980300Y75535D02*
X980300Y64600D01*
X1010852Y223113D02*
X980300Y253665D01*
X1010852Y106087D02*
X980300Y75535D01*
X1010852Y106087D02*
X1010852Y223113D01*
X980300Y64600D02*
X691485Y64600D01*
X690963Y64078D01*
X680837Y64078D01*
X680315Y64600D01*
X650100Y64600D01*
D18*
X1159591Y181551D02*
X1185699Y207660D01*
X1159591Y181551D02*
X1131810Y181551D01*
X1185699Y387649D02*
X1239400Y441350D01*
X1185699Y387649D02*
X1185699Y207660D01*
X1131810Y181551D02*
X1048361Y265000D01*
X980300Y265000D01*
D17*
X283742Y618842D02*
X220650Y555750D01*
X283742Y618842D02*
X430042Y618842D01*
X453500Y642300D01*
X220650Y555750D02*
X220650Y425750D01*
X204950Y410050D02*
X200650Y405750D01*
X204950Y410050D02*
X220650Y425750D01*
X970000Y525500D02*
X990600Y546100D01*
X970000Y428100D02*
X980300Y417800D01*
X970000Y428100D02*
X970000Y525500D01*
X365763Y165678D02*
X345637Y165678D01*
X123959Y219653D02*
X111053Y232559D01*
X111053Y364441D02*
X141485Y394873D01*
X184873Y394873D01*
X111053Y364441D02*
X111053Y232559D01*
X291662Y219653D02*
X345637Y165678D01*
X291662Y219653D02*
X123959Y219653D01*
X184873Y394873D02*
X195000Y405000D01*
X199900Y405000D01*
X204950Y410050D01*
X566142Y496142D02*
X567322Y494963D01*
X567322Y367237D02*
X365763Y165678D01*
X567322Y367237D02*
X567322Y494963D01*
X566142Y496142D02*
X595000Y525000D01*
X643885Y525000D02*
X669878Y499007D01*
X643885Y525000D02*
X595000Y525000D01*
X669878Y437578D02*
X650100Y417800D01*
X669878Y437578D02*
X669878Y499007D01*
X650100Y228735D02*
X650100Y214900D01*
X620100Y258735D02*
X620100Y387800D01*
X975700Y210000D02*
X980300Y214600D01*
X680837Y215522D02*
X675315Y210000D01*
X680837Y215522D02*
X690963Y215522D01*
X696485Y210000D01*
X975700Y210000D01*
X980300Y417800D02*
X980300Y419600D01*
X950300Y389600D02*
X950300Y244600D01*
X980300Y214600D01*
X950300Y389600D02*
X980300Y419600D01*
D18*
X1003850Y441350D02*
X1148200Y441350D01*
X1003850Y441350D02*
X980300Y417800D01*
D17*
X650100Y214900D02*
X650100Y214600D01*
X654700Y210000D02*
X675315Y210000D01*
X654700Y210000D02*
X650100Y214600D01*
X620100Y387800D02*
X650100Y417800D01*
X620100Y258735D02*
X650100Y228735D01*
X390542Y350742D02*
X529700Y489900D01*
X355700Y206415D02*
X355700Y203300D01*
X390542Y241257D02*
X390542Y350742D01*
X390542Y241257D02*
X355700Y206415D01*
X355700Y177900D02*
X555100Y377300D01*
X555100Y489900D01*
X580500Y489900D02*
X580500Y194359D01*
X685900Y177900D02*
X700900Y162900D01*
X634859Y140000D02*
X580500Y194359D01*
X634859Y140000D02*
X695000Y140000D01*
X700900Y145900D01*
X700900Y162900D01*
X685900Y203300D02*
X679392Y203300D01*
X665140Y189048D01*
X626587Y189048D01*
X605900Y209735D01*
X605900Y489900D01*
X504300Y489900D02*
X504300Y489300D01*
X446900Y431900D02*
X355700Y431900D01*
X446900Y431900D02*
X504300Y489300D01*
X377922Y411563D02*
X357585Y431900D01*
X377922Y411563D02*
X377922Y252922D01*
X687785Y431900D02*
X703122Y416563D01*
X703122Y244037D02*
X687785Y228700D01*
X703122Y244037D02*
X703122Y416563D01*
X720900Y511900D02*
X695678Y537122D01*
X549637Y537122D02*
X504300Y491785D01*
X549637Y537122D02*
X695678Y537122D01*
D19*
X720900Y511900D02*
X720900Y466900D01*
D17*
X685900Y431900D01*
X504300Y489900D02*
X504300Y491785D01*
X357585Y431900D02*
X355700Y431900D01*
X377922Y252922D02*
X355700Y230700D01*
X355700Y228700D01*
X685900Y431900D02*
X687785Y431900D01*
X687785Y228700D02*
X685900Y228700D01*
X191400Y300000D02*
X129550Y238150D01*
X191400Y300000D02*
X205000Y300000D01*
X295000Y390000D01*
X295000Y455000D01*
X385000Y545000D01*
X465000Y545000D01*
X485000Y565000D01*
X605000Y565000D01*
X677100Y637100D01*
X677100Y637300D01*
X682100Y642300D01*
X220000Y257500D02*
X200650Y238150D01*
X220000Y257500D02*
X220000Y295000D01*
X310000Y385000D01*
X310000Y450000D01*
X390000Y530000D01*
X470000Y530000D01*
X490000Y550000D01*
X615000Y550000D01*
X707300Y642300D01*
X707500Y642300D01*
X201950Y321950D02*
X200650Y321950D01*
X201950Y321950D02*
X280000Y400000D01*
X280000Y465000D01*
X375000Y560000D01*
X460000Y560000D01*
X480000Y580000D01*
X594400Y580000D02*
X656700Y642300D01*
X594400Y580000D02*
X480000Y580000D01*
X200447Y340447D02*
X148047Y340447D01*
X585000Y595000D02*
X631300Y641300D01*
X265000Y405000D02*
X200447Y340447D01*
X265000Y405000D02*
X265000Y504279D01*
X263942Y505337D01*
X263942Y528663D01*
X265000Y529721D01*
X265000Y535000D01*
X305000Y575000D01*
X455000Y575000D02*
X475000Y595000D01*
X585000Y595000D01*
X455000Y575000D02*
X305000Y575000D01*
X631300Y641300D02*
X631300Y642300D01*
X148047Y340447D02*
X129550Y321950D01*
X465000Y610000D02*
X575000Y610000D01*
X605900Y640900D01*
X605900Y642300D01*
X250000Y413200D02*
X200650Y363850D01*
X250000Y413200D02*
X250000Y545000D01*
X295000Y590000D01*
X445000Y590000D02*
X465000Y610000D01*
X445000Y590000D02*
X295000Y590000D01*
X565163Y625078D02*
X580500Y640415D01*
X147953Y382253D02*
X129550Y363850D01*
X147953Y382253D02*
X200738Y382253D01*
X580500Y640415D02*
X580500Y642300D01*
X235000Y416515D02*
X200738Y382253D01*
X235000Y550000D02*
X290000Y605000D01*
X439224Y605000D01*
X456844Y622620D01*
X457620Y622620D01*
X460078Y625078D02*
X565163Y625078D01*
X235000Y550000D02*
X235000Y416515D01*
X457620Y622620D02*
X460078Y625078D01*
M02*
