G04 EAGLE Gerber RS-274X export*
G75*
%MOMM*%
%FSLAX34Y34*%
%LPD*%
%INSoldermask Bottom*%
%IPPOS*%
%AMOC8*
5,1,8,0,0,1.08239X$1,22.5*%
G01*
%ADD10C,2.858200*%
%ADD11R,2.858200X2.858200*%
%ADD12C,3.193200*%
%ADD13R,1.988200X1.988200*%
%ADD14C,1.988200*%
%ADD15C,1.902969*%
%ADD16C,4.013200*%
%ADD17R,1.903200X1.903200*%
%ADD18C,1.903200*%
%ADD19C,1.061200*%
%ADD20R,1.711200X1.711200*%
%ADD21C,1.711200*%
%ADD22C,0.959600*%
%ADD23P,1.038661X8X22.500000*%


D10*
X137534Y332384D03*
X137534Y421284D03*
D11*
X137534Y198984D03*
D10*
X137534Y243434D03*
X137534Y287884D03*
X137534Y376834D03*
X228734Y421284D03*
X228734Y376834D03*
X228734Y332384D03*
X228734Y287884D03*
X228734Y243434D03*
X228734Y198984D03*
D12*
X76434Y485484D03*
X289834Y485484D03*
X289834Y134684D03*
X76434Y134684D03*
D13*
X1061984Y205384D03*
D14*
X1061984Y247284D03*
X1061984Y289184D03*
X1061984Y331084D03*
X1061984Y372984D03*
X1061984Y414884D03*
X1133084Y414884D03*
X1133084Y372984D03*
X1133084Y331084D03*
X1133084Y289184D03*
X1133084Y247284D03*
X1133084Y205384D03*
D12*
X1224534Y136034D03*
X970534Y136034D03*
X970534Y484234D03*
X1224534Y484234D03*
D15*
X691034Y208434D03*
X691034Y183034D03*
X691034Y157634D03*
X691034Y132234D03*
X691034Y106834D03*
X691034Y81434D03*
X691034Y56034D03*
X691034Y30634D03*
D16*
X396634Y194734D03*
X396634Y144734D03*
X396634Y94734D03*
X396634Y44734D03*
D17*
X894334Y208534D03*
D18*
X894334Y233934D03*
X894334Y259334D03*
X894334Y284734D03*
X894334Y310134D03*
X894334Y335534D03*
X894334Y360934D03*
X894334Y386334D03*
X894334Y411734D03*
X894334Y437134D03*
X894334Y462534D03*
X894334Y487934D03*
X894334Y513334D03*
X894334Y538734D03*
X894334Y564134D03*
X741934Y564134D03*
X741934Y538734D03*
X741934Y513334D03*
X741934Y487934D03*
X741934Y462534D03*
X741934Y437134D03*
X741934Y411734D03*
X741934Y386334D03*
X741934Y360934D03*
X741934Y335534D03*
X741934Y310134D03*
X741934Y284734D03*
X741934Y259334D03*
X741934Y233934D03*
X741934Y208534D03*
D19*
X546354Y297434D03*
X531114Y297434D03*
X546354Y310134D03*
X531114Y310134D03*
X546354Y322834D03*
X531114Y322834D03*
X546354Y335534D03*
X531114Y335534D03*
X546354Y348234D03*
X531114Y348234D03*
D20*
X767334Y43434D03*
D21*
X767334Y68834D03*
X767334Y94234D03*
D22*
X749944Y68834D03*
X487934Y272034D03*
X703834Y310134D03*
X538734Y165354D03*
X818134Y233934D03*
X856234Y233934D03*
X538734Y263144D03*
X538734Y386334D03*
D23*
X691134Y411734D03*
D22*
X691134Y538734D03*
X233934Y157734D03*
X843534Y399034D03*
X868934Y284734D03*
X614934Y399034D03*
X627634Y538734D03*
X472694Y343154D03*
X528574Y500634D03*
X529844Y564134D03*
X462534Y306324D03*
X716534Y183134D03*
X716534Y297434D03*
X856234Y335534D03*
X754634Y145034D03*
X767334Y132334D03*
X856234Y310134D03*
X780034Y500634D03*
X717834Y565434D03*
X703834Y246634D03*
X754634Y246634D03*
X856234Y538734D03*
X856234Y564134D03*
X485394Y315214D03*
X614934Y500634D03*
X493014Y326644D03*
X627634Y487934D03*
X717834Y449834D03*
X475234Y279654D03*
X451104Y352044D03*
X597154Y345694D03*
X597154Y303784D03*
X462534Y259334D03*
X602234Y360934D03*
X627634Y278384D03*
X462534Y246634D03*
X462534Y272034D03*
X360934Y272034D03*
X332334Y243434D03*
X748674Y28584D03*
X710184Y28584D03*
X675894Y43434D03*
X696214Y284734D03*
X729234Y170434D03*
X749554Y101854D03*
M02*
