G04 EAGLE Gerber RS-274X export*
G75*
%MOMM*%
%FSLAX34Y34*%
%LPD*%
%INSolderpaste Top*%
%IPPOS*%
%AMOC8*
5,1,8,0,0,1.08239X$1,22.5*%
G01*
%ADD10R,1.600200X0.457200*%
%ADD11R,2.895600X6.654800*%
%ADD12R,1.600000X1.800000*%
%ADD13R,1.310000X1.500000*%
%ADD14C,0.235000*%
%ADD15R,2.200000X2.150000*%
%ADD16R,3.900000X1.600000*%
%ADD17C,0.290000*%
%ADD18R,2.500000X1.700000*%
%ADD19C,0.621000*%


D10*
X565658Y287020D03*
X565658Y293624D03*
X565658Y299974D03*
X565658Y306578D03*
X565658Y313182D03*
X565658Y319532D03*
X565658Y326136D03*
X565658Y332486D03*
X565658Y339090D03*
X565658Y345694D03*
X565658Y352044D03*
X565658Y358648D03*
X511810Y358648D03*
X511810Y352044D03*
X511810Y345694D03*
X511810Y339090D03*
X511810Y332486D03*
X511810Y326136D03*
X511810Y319532D03*
X511810Y313182D03*
X511810Y306578D03*
X511810Y299974D03*
X511810Y293624D03*
X511810Y287020D03*
D11*
X538734Y322834D03*
D12*
X651734Y500634D03*
X679734Y500634D03*
X651734Y564134D03*
X679734Y564134D03*
X651734Y246634D03*
X679734Y246634D03*
X651734Y373634D03*
X679734Y373634D03*
X651734Y437134D03*
X679734Y437134D03*
D13*
X411734Y298034D03*
X411734Y277234D03*
X411734Y318834D03*
X430634Y277234D03*
X392834Y277234D03*
X392834Y298034D03*
X430634Y298034D03*
X392834Y318834D03*
X430634Y318834D03*
D14*
X431009Y354809D02*
X431009Y377659D01*
X438059Y377659D01*
X438059Y354809D01*
X431009Y354809D01*
X431009Y357041D02*
X438059Y357041D01*
X438059Y359273D02*
X431009Y359273D01*
X431009Y361505D02*
X438059Y361505D01*
X438059Y363737D02*
X431009Y363737D01*
X431009Y365969D02*
X438059Y365969D01*
X438059Y368201D02*
X431009Y368201D01*
X431009Y370433D02*
X438059Y370433D01*
X438059Y372665D02*
X431009Y372665D01*
X431009Y374897D02*
X438059Y374897D01*
X438059Y377129D02*
X431009Y377129D01*
X385409Y377659D02*
X385409Y354809D01*
X385409Y377659D02*
X392459Y377659D01*
X392459Y354809D01*
X385409Y354809D01*
X385409Y357041D02*
X392459Y357041D01*
X392459Y359273D02*
X385409Y359273D01*
X385409Y361505D02*
X392459Y361505D01*
X392459Y363737D02*
X385409Y363737D01*
X385409Y365969D02*
X392459Y365969D01*
X392459Y368201D02*
X385409Y368201D01*
X385409Y370433D02*
X392459Y370433D01*
X392459Y372665D02*
X385409Y372665D01*
X385409Y374897D02*
X392459Y374897D01*
X392459Y377129D02*
X385409Y377129D01*
D12*
X514634Y437134D03*
X486634Y437134D03*
D15*
X567534Y437134D03*
X611534Y437134D03*
D16*
X479634Y538734D03*
X394634Y538734D03*
D17*
X553734Y556484D02*
X553734Y571784D01*
X553734Y556484D02*
X545034Y556484D01*
X545034Y571784D01*
X553734Y571784D01*
X553734Y559239D02*
X545034Y559239D01*
X545034Y561994D02*
X553734Y561994D01*
X553734Y564749D02*
X545034Y564749D01*
X545034Y567504D02*
X553734Y567504D01*
X553734Y570259D02*
X545034Y570259D01*
X583234Y571784D02*
X583234Y556484D01*
X574534Y556484D01*
X574534Y571784D01*
X583234Y571784D01*
X583234Y559239D02*
X574534Y559239D01*
X574534Y561994D02*
X583234Y561994D01*
X583234Y564749D02*
X574534Y564749D01*
X574534Y567504D02*
X583234Y567504D01*
X583234Y570259D02*
X574534Y570259D01*
X553734Y508284D02*
X553734Y492984D01*
X545034Y492984D01*
X545034Y508284D01*
X553734Y508284D01*
X553734Y495739D02*
X545034Y495739D01*
X545034Y498494D02*
X553734Y498494D01*
X553734Y501249D02*
X545034Y501249D01*
X545034Y504004D02*
X553734Y504004D01*
X553734Y506759D02*
X545034Y506759D01*
X583234Y508284D02*
X583234Y492984D01*
X574534Y492984D01*
X574534Y508284D01*
X583234Y508284D01*
X583234Y495739D02*
X574534Y495739D01*
X574534Y498494D02*
X583234Y498494D01*
X583234Y501249D02*
X574534Y501249D01*
X574534Y504004D02*
X583234Y504004D01*
X583234Y506759D02*
X574534Y506759D01*
X655334Y317784D02*
X655334Y302484D01*
X646634Y302484D01*
X646634Y317784D01*
X655334Y317784D01*
X655334Y305239D02*
X646634Y305239D01*
X646634Y307994D02*
X655334Y307994D01*
X655334Y310749D02*
X646634Y310749D01*
X646634Y313504D02*
X655334Y313504D01*
X655334Y316259D02*
X646634Y316259D01*
X684834Y317784D02*
X684834Y302484D01*
X676134Y302484D01*
X676134Y317784D01*
X684834Y317784D01*
X684834Y305239D02*
X676134Y305239D01*
X676134Y307994D02*
X684834Y307994D01*
X684834Y310749D02*
X676134Y310749D01*
X676134Y313504D02*
X684834Y313504D01*
X684834Y316259D02*
X676134Y316259D01*
D18*
X391734Y437134D03*
X431734Y437134D03*
D19*
X723239Y55639D02*
X735229Y55639D01*
X723239Y55639D02*
X723239Y60929D01*
X735229Y60929D01*
X735229Y55639D01*
X735229Y25939D02*
X723239Y25939D01*
X723239Y31229D01*
X735229Y31229D01*
X735229Y25939D01*
X735229Y106439D02*
X723239Y106439D01*
X723239Y111729D01*
X735229Y111729D01*
X735229Y106439D01*
X735229Y76739D02*
X723239Y76739D01*
X723239Y82029D01*
X735229Y82029D01*
X735229Y76739D01*
M02*
